<svg id="Layer_1" data-name="Layer 1" xmlns="http://www.w3.org/2000/svg" viewBox="0 0 356.47 356.47"><defs><style>.cls-1{fill:#009898;}.cls-2{fill:#fff;}</style></defs><path class="cls-1" d="M178.23,356.47C80,356.47,0,276.51,0,178.23S80,0,178.23,0,356.47,80,356.47,178.23,276.51,356.47,178.23,356.47Z"/><path class="cls-2" d="M178.23,278.32A100.09,100.09,0,1,1,278.32,178.23,100.2,100.2,0,0,1,178.23,278.32Zm0-192.18a92.09,92.09,0,1,0,92.09,92.09A92.21,92.21,0,0,0,178.23,86.14Z"/><path class="cls-2" d="M178.23,197.59a19.36,19.36,0,1,1,19.36-19.36A19.37,19.37,0,0,1,178.23,197.59Zm0-30.71a11.36,11.36,0,1,0,11.36,11.35A11.36,11.36,0,0,0,178.23,166.88Z"/><path class="cls-2" d="M178.23,166.88a4,4,0,0,1-4-4V104a4,4,0,0,1,8,0v58.88A4,4,0,0,1,178.23,166.88Z"/><path class="cls-2" d="M221.27,182.23h-26a4,4,0,0,1,0-8h26a4,4,0,0,1,0,8Z"/><path class="cls-2" d="M113.24,182.23h-10a4,4,0,1,1,0-8h10a4,4,0,0,1,0,8Z"/><path class="cls-2" d="M178.23,258.11a4,4,0,0,1-4-4v-10a4,4,0,0,1,8,0v10A4,4,0,0,1,178.23,258.11Z"/><path class="cls-2" d="M255.13,182.23h-10a4,4,0,0,1,0-8h10a4,4,0,0,1,0,8Z"/><path class="cls-2" d="M131,137a4,4,0,0,1-2.83-1.17l-7.07-7.07a4,4,0,1,1,5.66-5.66l7.07,7.07A4,4,0,0,1,131,137Z"/><path class="cls-2" d="M124.43,235.47a4,4,0,0,1-2.83-6.83l7.08-7.07a4,4,0,0,1,5.65,5.65l-7.07,7.08A4,4,0,0,1,124.43,235.47Z"/><path class="cls-2" d="M226.43,137a4,4,0,0,1-2.83-6.83l7.07-7.07a4,4,0,1,1,5.66,5.66l-7.08,7.07A4,4,0,0,1,226.43,137Z"/><path class="cls-2" d="M230,235.93a4,4,0,0,1-2.83-1.17l-7.07-7.07a4,4,0,0,1,5.66-5.66l7.07,7.07a4,4,0,0,1-2.83,6.83Z"/></svg>