<svg id="Layer_1" data-name="Layer 1" xmlns="http://www.w3.org/2000/svg" viewBox="0 0 356.47 356.47"><defs><style>.cls-1{fill:#009898;}.cls-2{fill:#fff;}</style></defs><path class="cls-1" d="M178.23,356.47C80,356.47,0,276.51,0,178.23S80,0,178.23,0,356.47,80,356.47,178.23,276.51,356.47,178.23,356.47Z"/><path class="cls-2" d="M279.7,181.59H85.47a4,4,0,0,1,0-8H279.7a4,4,0,0,1,0,8Z"/><path class="cls-2" d="M109.79,216.18A4,4,0,0,1,107,215L72.84,180.89a4,4,0,0,1,0-5.68L107,141.45a4,4,0,1,1,5.63,5.68L81.35,178.07l31.27,31.28a4,4,0,0,1-2.83,6.83Z"/><path class="cls-2" d="M246.67,216.18a4,4,0,0,1-2.81-6.85l31.26-30.93-31.28-31.28a4,4,0,0,1,5.66-5.66l34.12,34.12a3.94,3.94,0,0,1,1.17,2.84,4,4,0,0,1-1.18,2.83L249.49,215A4,4,0,0,1,246.67,216.18Z"/></svg>