<svg id="Layer_1" data-name="Layer 1" xmlns="http://www.w3.org/2000/svg" viewBox="0 0 356.47 356.47"><defs><style>.cls-1{fill:#009898;}.cls-2{fill:#fff;}</style></defs><path class="cls-1" d="M178.23,356.47C80,356.47,0,276.51,0,178.23S80,0,178.23,0,356.47,80,356.47,178.23,276.51,356.47,178.23,356.47Z"/><path class="cls-2" d="M200.59,150.37h-114a4,4,0,0,1,0-8h114c7.91,0,11-1.38,15.36-4.62A23.54,23.54,0,0,0,220.58,105a23.59,23.59,0,0,0-26.48-8,4,4,0,1,1-2.66-7.54,31.4,31.4,0,0,1,29.27,54.7C214.47,148.83,209.52,150.37,200.59,150.37Z"/><path class="cls-2" d="M267.6,182.13H56.09a4,4,0,0,1,0-8h211c9.59,0,13.28-1.55,18.44-5.41A27.37,27.37,0,0,0,260,121a4,4,0,0,1-2.66-7.54,35.39,35.39,0,0,1,33,61.65C283.26,180.39,277.68,182.13,267.6,182.13Z"/><path class="cls-2" d="M231.87,268.81a31.58,31.58,0,0,1-8.53-1.18,4,4,0,1,1,2.18-7.7A23.39,23.39,0,1,0,231.87,214H86.54a4,4,0,1,1,0-8H231.87a31.39,31.39,0,1,1,0,62.77Z"/></svg>