<?xml version="1.0" encoding="UTF-8" standalone="no"?>
<!-- Created with Inkscape (http://www.inkscape.org/) -->

<svg
   xmlns:dc="http://purl.org/dc/elements/1.1/"
   xmlns:cc="http://creativecommons.org/ns#"
   xmlns:rdf="http://www.w3.org/1999/02/22-rdf-syntax-ns#"
   xmlns:svg="http://www.w3.org/2000/svg"
   xmlns="http://www.w3.org/2000/svg"
   xmlns:sodipodi="http://sodipodi.sourceforge.net/DTD/sodipodi-0.dtd"
   xmlns:inkscape="http://www.inkscape.org/namespaces/inkscape"
   width="29.626707mm"
   height="20.222395mm"
   viewBox="0 0 29.626707 20.222395"
   version="1.1"
   id="svg1866"
   inkscape:version="0.92.5 (2060ec1f9f, 2020-04-08)"
   sodipodi:docname="ccidi-logo-small.svg">
  <defs
     id="defs1860" />
  <sodipodi:namedview
     id="base"
     pagecolor="#ffffff"
     bordercolor="#666666"
     borderopacity="1.0"
     inkscape:pageopacity="0.0"
     inkscape:pageshadow="2"
     inkscape:zoom="0.35"
     inkscape:cx="1990.2732"
     inkscape:cy="-1110.3559"
     inkscape:document-units="mm"
     inkscape:current-layer="layer1"
     showgrid="false"
     inkscape:window-width="1920"
     inkscape:window-height="1080"
     inkscape:window-x="1920"
     inkscape:window-y="0"
     inkscape:window-maximized="0" />
  <metadata
     id="metadata1863">
    <rdf:RDF>
      <cc:Work
         rdf:about="">
        <dc:format>image/svg+xml</dc:format>
        <dc:type
           rdf:resource="http://purl.org/dc/dcmitype/StillImage" />
        <dc:title></dc:title>
      </cc:Work>
    </rdf:RDF>
  </metadata>
  <g
     inkscape:label="Layer 1"
     inkscape:groupmode="layer"
     id="layer1"
     transform="translate(544.73597,165.17072)">
    <g
       id="g2439">
      <g
         transform="matrix(0.35277777,0,0,-0.35277777,-515.10927,-154.48446)"
         id="g222">
        <path
           inkscape:connector-curvature="0"
           id="path224"
           style="fill:#72c7ee;fill-opacity:1;fill-rule:nonzero;stroke:none"
           d="m 0,0 c -0.002,-1.701 -1.258,-3.257 -3.379,-3.397 2.121,-0.613 2.556,-1.956 2.554,-3.456 -0.004,-1.928 -1.162,-3.483 -3.529,-3.483 l -9.255,0.009 -3.273,-0.004 c -0.141,-1.267 -0.178,-2.815 0.26,-3.886 1.258,-3.079 2.261,-3.353 1.156,-7.87 -1.104,-4.519 -4.756,-5.833 -6.099,-4.38 -0.608,0.657 0.165,6.503 -2.066,9.183 -3.047,3.665 -4.372,7.492 -4.748,8.739 l -0.946,-0.002 -1.972,-0.013 c -0.784,-0.005 -1.423,0.63 -1.423,1.414 V 9.563 c 0,0.782 0.633,1.416 1.414,1.415 1.309,-10e-4 2.358,0.021 2.449,0.089 0.275,0.207 0.378,2.423 2.514,3.383 0.838,0.378 2.824,0.523 4.598,0.571 h 0.001 c 1.765,0.051 3.319,0.006 3.319,0.006 v -0.004 l 10.198,0.004 v -0.022 l 1.04,-0.002 C -5.819,15 -4.444,13.709 -4.438,12.121 -4.434,11.243 -4.722,10.275 -5.667,9.743 l 1.229,0.013 C -2.344,9.755 -1.378,7.923 -1.378,6.301 -1.379,5.021 -2.094,3.806 -3.857,3.547 -1.299,3.639 0.004,1.789 0,0" />
      </g>
      <g
         transform="matrix(0.35277777,0,0,-0.35277777,-544.73597,-155.63444)"
         id="g226">
        <path
           inkscape:connector-curvature="0"
           id="path228"
           style="fill:#009797;fill-opacity:1;fill-rule:nonzero;stroke:none"
           d="M 0,0 C 0.002,1.701 1.258,3.257 3.379,3.397 1.258,4.01 0.823,5.353 0.825,6.853 c 0.004,1.928 1.162,3.484 3.529,3.484 l 9.255,-0.01 3.273,0.005 c 0.141,1.266 0.178,2.814 -0.26,3.885 -1.258,3.079 -2.261,3.353 -1.156,7.87 1.104,4.519 4.756,5.834 6.099,4.38 0.608,-0.656 -0.165,-6.503 2.066,-9.183 3.047,-3.665 4.372,-7.492 4.748,-8.739 l 0.946,0.002 1.972,0.013 C 32.081,8.565 32.72,7.93 32.72,7.146 V -9.563 c 0,-0.781 -0.634,-1.416 -1.415,-1.415 -1.308,10e-4 -2.357,-0.021 -2.448,-0.089 -0.275,-0.207 -0.378,-2.423 -2.514,-3.383 -0.838,-0.378 -2.824,-0.522 -4.598,-0.571 h -0.001 c -1.765,-0.051 -3.319,-0.006 -3.319,-0.006 v 0.004 L 8.227,-15.027 v 0.023 l -1.04,10e-4 c -1.368,0.003 -2.743,1.295 -2.749,2.883 -0.004,0.877 0.284,1.845 1.229,2.377 L 4.438,-9.756 c -2.094,10e-4 -3.06,1.834 -3.06,3.455 0.001,1.28 0.716,2.495 2.479,2.755 C 1.299,-3.639 -0.004,-1.789 0,0" />
      </g>
      <g
         transform="matrix(0.35277777,0,0,-0.35277777,-531.98076,-150.58513)"
         id="g230">
        <path
           inkscape:connector-curvature="0"
           id="path232"
           style="fill:#009797;fill-opacity:1;fill-rule:nonzero;stroke:none"
           d="m 0,0 c -0.3,0 -0.555,0.104 -0.763,0.313 -0.209,0.209 -0.313,0.463 -0.313,0.764 v 23.259 c 0,0.317 0.104,0.58 0.313,0.789 0.208,0.208 0.463,0.312 0.763,0.312 h 3.906 c 0.317,0 0.58,-0.104 0.789,-0.312 0.208,-0.209 0.312,-0.472 0.312,-0.789 0,-0.3 -0.104,-0.555 -0.312,-0.764 C 4.486,23.363 4.223,23.259 3.906,23.259 H 1.102 V 2.179 h 2.804 c 0.317,0 0.58,-0.105 0.789,-0.314 C 4.903,1.657 5.007,1.394 5.007,1.077 5.007,0.776 4.903,0.522 4.695,0.313 4.486,0.104 4.223,0 3.906,0 Z" />
      </g>
      <g
         transform="matrix(0.35277777,0,0,-0.35277777,-529.1868,-150.48868)"
         id="g234">
        <path
           inkscape:connector-curvature="0"
           id="path236"
           style="fill:#72c7ee;fill-opacity:1;fill-rule:nonzero;stroke:none"
           d="m 0,0 c -0.317,0 -0.581,0.104 -0.789,0.313 -0.209,0.209 -0.313,0.463 -0.313,0.764 0,0.317 0.104,0.58 0.313,0.788 C -0.581,2.074 -0.317,2.178 0,2.178 H 2.829 V 23.259 H 0 c -0.317,0 -0.581,0.104 -0.789,0.313 -0.209,0.209 -0.313,0.464 -0.313,0.764 0,0.317 0.104,0.58 0.313,0.789 0.208,0.208 0.472,0.312 0.789,0.312 h 3.906 c 0.3,0 0.554,-0.104 0.763,-0.312 0.208,-0.209 0.313,-0.472 0.313,-0.789 V 1.077 C 4.982,0.776 4.877,0.522 4.669,0.313 4.46,0.104 4.206,0 3.906,0 Z" />
      </g>
    </g>
  </g>
</svg>
