<?xml version="1.0" encoding="UTF-8" standalone="no"?>
<!-- Created with Inkscape (http://www.inkscape.org/) -->

<svg
   xmlns:dc="http://purl.org/dc/elements/1.1/"
   xmlns:cc="http://creativecommons.org/ns#"
   xmlns:rdf="http://www.w3.org/1999/02/22-rdf-syntax-ns#"
   xmlns:svg="http://www.w3.org/2000/svg"
   xmlns="http://www.w3.org/2000/svg"
   xmlns:sodipodi="http://sodipodi.sourceforge.net/DTD/sodipodi-0.dtd"
   xmlns:inkscape="http://www.inkscape.org/namespaces/inkscape"
   width="138.30817mm"
   height="56.300789mm"
   viewBox="0 0 138.30817 56.300789"
   version="1.1"
   id="svg1515"
   inkscape:version="0.92.5 (2060ec1f9f, 2020-04-08)"
   sodipodi:docname="ccidi-logo-full.svg">
  <defs
     id="defs1509">
    <clipPath
       clipPathUnits="userSpaceOnUse"
       id="clipPath246">
      <path
         d="M 0,2293 H 1366 V 0 H 0 Z"
         id="path244"
         inkscape:connector-curvature="0" />
    </clipPath>
  </defs>
  <sodipodi:namedview
     id="base"
     pagecolor="#ffffff"
     bordercolor="#666666"
     borderopacity="1.0"
     inkscape:pageopacity="0.0"
     inkscape:pageshadow="2"
     inkscape:zoom="0.35"
     inkscape:cx="-242.85934"
     inkscape:cy="-291.24652"
     inkscape:document-units="mm"
     inkscape:current-layer="layer1"
     showgrid="false"
     inkscape:window-width="1920"
     inkscape:window-height="1080"
     inkscape:window-x="0"
     inkscape:window-y="0"
     inkscape:window-maximized="0" />
  <metadata
     id="metadata1512">
    <rdf:RDF>
      <cc:Work
         rdf:about="">
        <dc:format>image/svg+xml</dc:format>
        <dc:type
           rdf:resource="http://purl.org/dc/dcmitype/StillImage" />
        <dc:title></dc:title>
      </cc:Work>
    </rdf:RDF>
  </metadata>
  <g
     inkscape:label="Layer 1"
     inkscape:groupmode="layer"
     id="layer1"
     transform="translate(-46.113676,-15.473572)">
    <g
       id="g248"
       transform="matrix(0.35277777,0,0,-0.35277777,-44.6088,161.33031)">
      <path
         d="m 0,0 c 0,-7.11 -5.764,-12.874 -12.875,-12.874 -7.109,0 -12.874,5.764 -12.874,12.874 0,7.11 5.765,12.874 12.874,12.874 C -5.764,12.874 0,7.11 0,0 Z"
         style="fill:none;stroke:#a6a8ab;stroke-width:4;stroke-linecap:round;stroke-linejoin:round;stroke-miterlimit:10;stroke-dasharray:none;stroke-opacity:1"
         id="path250"
         inkscape:connector-curvature="0" />
    </g>
    <g
       id="g252"
       transform="matrix(0.35277777,0,0,-0.35277777,-45.756527,164.46295)">
      <path
         d="M 0,0 10.777,-10.275"
         style="fill:none;stroke:#a6a8ab;stroke-width:4;stroke-linecap:round;stroke-linejoin:round;stroke-miterlimit:10;stroke-dasharray:none;stroke-opacity:1"
         id="path254"
         inkscape:connector-curvature="0" />
    </g>
    <g
       id="g2288">
      <g
         transform="matrix(0.35277777,0,0,-0.35277777,184.42183,45.22473)"
         id="g256">
        <path
           inkscape:connector-curvature="0"
           id="path258"
           style="fill:#71c8f0;fill-opacity:1;fill-rule:nonzero;stroke:none"
           d="m 0,0 c -0.006,-4.736 -3.501,-9.069 -9.408,-9.458 5.907,-1.706 7.116,-5.444 7.11,-9.622 -0.01,-5.368 -3.234,-9.698 -9.825,-9.698 l -25.765,0.026 -9.112,-0.011 c -0.394,-3.526 -0.495,-7.836 0.724,-10.819 3.501,-8.571 6.293,-9.334 3.216,-21.911 -3.073,-12.579 -13.24,-16.24 -16.979,-12.194 -1.692,1.829 0.458,18.104 -5.751,25.568 -8.484,10.202 -12.174,20.856 -13.219,24.328 l -2.635,-0.006 -5.488,-0.035 c -2.185,-0.014 -3.963,1.753 -3.963,3.938 v 46.519 c 0,2.175 1.763,3.94 3.938,3.938 3.644,-0.003 6.563,0.058 6.816,0.249 0.766,0.577 1.054,6.744 7,9.417 2.333,1.053 7.862,1.455 12.802,1.592 h 0.001 c 4.915,0.14 9.242,0.016 9.242,0.016 v -0.013 l 28.39,0.013 v -0.063 l 2.895,-0.004 c 3.811,-0.007 7.639,-3.604 7.655,-8.026 0.012,-2.443 -0.79,-5.138 -3.423,-6.619 l 3.423,0.037 c 5.829,-0.003 8.519,-5.105 8.519,-9.62 C -3.84,13.98 -5.829,10.596 -10.738,9.874 -3.618,10.131 0.01,4.979 0,0" />
      </g>
      <g
         transform="matrix(0.35277777,0,0,-0.35277777,46.113683,42.023201)"
         id="g260">
        <path
           inkscape:connector-curvature="0"
           id="path262"
           style="fill:#009898;fill-opacity:1;fill-rule:nonzero;stroke:none"
           d="m 0,0 c 0.006,4.736 3.501,9.069 9.408,9.457 -5.907,1.707 -7.116,5.445 -7.11,9.623 0.01,5.368 3.234,9.698 9.825,9.698 L 37.888,28.752 47,28.763 c 0.394,3.526 0.495,7.836 -0.724,10.819 -3.501,8.571 -6.293,9.334 -3.216,21.911 3.073,12.579 13.24,16.24 16.979,12.194 C 61.731,71.858 59.581,55.583 65.79,48.119 74.274,37.917 77.964,27.263 79.009,23.791 l 2.635,0.006 5.488,0.035 c 2.185,0.013 3.963,-1.754 3.963,-3.938 v -46.519 c 0,-2.175 -1.763,-3.94 -3.938,-3.938 -3.644,0.003 -6.563,-0.058 -6.816,-0.249 -0.766,-0.577 -1.054,-6.744 -7,-9.417 -2.333,-1.053 -7.862,-1.455 -12.802,-1.592 h -0.001 c -4.915,-0.14 -9.242,-0.016 -9.242,-0.016 v 0.013 l -28.39,-0.013 v 0.063 l -2.895,0.003 c -3.811,0.008 -7.639,3.605 -7.655,8.027 -0.012,2.443 0.79,5.138 3.423,6.619 l -3.423,-0.037 c -5.829,0.003 -8.519,5.105 -8.519,9.62 0.003,3.562 1.992,6.946 6.901,7.668 C 3.618,-10.131 -0.01,-4.979 0,0" />
      </g>
      <g
         transform="matrix(0.35277777,0,0,-0.35277777,95.946965,44.191726)"
         id="g264">
        <path
           inkscape:connector-curvature="0"
           id="path266"
           style="fill:#003334;fill-opacity:1;fill-rule:nonzero;stroke:none"
           d="m 0,0 c -2.363,0 -4.575,0.452 -6.632,1.357 -2.057,0.905 -3.868,2.167 -5.429,3.787 -1.562,1.62 -2.78,3.487 -3.656,5.604 -0.875,2.115 -1.313,4.385 -1.313,6.808 0,2.393 0.429,4.647 1.291,6.764 0.862,2.116 2.072,3.976 3.634,5.582 1.562,1.605 3.371,2.868 5.429,3.787 2.058,0.919 4.283,1.379 6.676,1.379 2.103,0 4.014,-0.307 5.735,-0.92 1.723,-0.612 3.386,-1.591 4.991,-2.933 0.264,-0.204 0.417,-0.445 0.46,-0.722 0.044,-0.278 0.007,-0.54 -0.109,-0.788 C 10.959,29.457 10.785,29.274 10.551,29.157 10.493,28.924 10.347,28.749 10.113,28.632 9.88,28.515 9.611,28.471 9.304,28.5 8.998,28.529 8.697,28.661 8.407,28.895 7.268,29.887 6.027,30.624 4.685,31.105 3.342,31.587 1.78,31.828 0,31.828 c -1.897,0 -3.669,-0.379 -5.319,-1.138 -1.649,-0.759 -3.101,-1.795 -4.356,-3.109 -1.255,-1.313 -2.24,-2.831 -2.955,-4.553 -0.716,-1.722 -1.072,-3.546 -1.072,-5.472 0,-1.986 0.356,-3.839 1.072,-5.56 0.715,-1.723 1.7,-3.24 2.955,-4.554 C -8.42,6.129 -6.968,5.101 -5.319,4.356 -3.669,3.612 -1.897,3.24 0,3.24 1.605,3.24 3.124,3.502 4.554,4.027 5.983,4.553 7.34,5.312 8.625,6.305 8.976,6.596 9.347,6.713 9.742,6.655 10.135,6.596 10.479,6.42 10.77,6.129 11.062,5.837 11.208,5.458 11.208,4.991 11.208,4.757 11.171,4.545 11.099,4.356 11.025,4.166 10.902,3.969 10.726,3.765 9.238,2.393 7.574,1.423 5.735,0.854 3.897,0.285 1.985,0 0,0" />
      </g>
      <g
         transform="matrix(0.35277777,0,0,-0.35277777,108.00964,43.048796)"
         id="g268">
        <path
           inkscape:connector-curvature="0"
           id="path270"
           style="fill:#003334;fill-opacity:1;fill-rule:nonzero;stroke:none"
           d="m 0,0 c 2.014,0 3.881,0.357 5.604,1.072 1.721,0.716 3.218,1.722 4.487,3.021 1.27,1.299 2.255,2.817 2.956,4.553 0.7,1.737 1.05,3.627 1.05,5.67 0,2.014 -0.35,3.889 -1.05,5.625 -0.701,1.737 -1.686,3.255 -2.956,4.554 C 8.822,25.793 7.325,26.8 5.604,27.516 3.881,28.231 2.014,28.588 0,28.588 c -2.044,0 -3.926,-0.357 -5.648,-1.072 -1.723,-0.716 -3.218,-1.723 -4.487,-3.021 -1.27,-1.299 -2.255,-2.817 -2.956,-4.554 -0.7,-1.736 -1.05,-3.611 -1.05,-5.625 0,-2.043 0.35,-3.933 1.05,-5.67 0.701,-1.736 1.686,-3.254 2.956,-4.553 C -8.866,2.794 -7.371,1.788 -5.648,1.072 -3.926,0.357 -2.044,0 0,0 m 0,-3.24 c -2.54,0 -4.875,0.438 -7.005,1.314 -2.131,0.876 -3.976,2.101 -5.538,3.677 -1.562,1.576 -2.773,3.429 -3.634,5.56 -0.862,2.13 -1.292,4.465 -1.292,7.005 0,2.51 0.43,4.83 1.292,6.961 0.861,2.13 2.072,3.984 3.634,5.56 1.562,1.576 3.407,2.802 5.538,3.678 2.13,0.876 4.465,1.313 7.005,1.313 2.51,0 4.83,-0.437 6.961,-1.313 2.131,-0.876 3.983,-2.102 5.56,-3.678 1.576,-1.576 2.794,-3.43 3.656,-5.56 0.86,-2.131 1.292,-4.451 1.292,-6.961 0,-2.54 -0.432,-4.875 -1.292,-7.005 C 15.315,5.18 14.097,3.327 12.521,1.751 10.944,0.175 9.092,-1.05 6.961,-1.926 4.83,-2.802 2.51,-3.24 0,-3.24" />
      </g>
      <g
         transform="matrix(0.35277777,0,0,-0.35277777,120.50414,44.037386)"
         id="g272">
        <path
           inkscape:connector-curvature="0"
           id="path274"
           style="fill:#003334;fill-opacity:1;fill-rule:nonzero;stroke:none"
           d="m 0,0 c -0.73,0 -1.256,0.365 -1.577,1.094 l -13.002,30.428 c -0.321,0.817 -0.343,1.467 -0.065,1.948 0.277,0.482 0.766,0.723 1.466,0.723 0.729,0 1.255,-0.366 1.577,-1.095 L 0.482,4.203 h -0.964 l 12.04,28.808 c 0.176,0.437 0.394,0.743 0.656,0.919 0.264,0.174 0.613,0.263 1.052,0.263 0.671,0 1.123,-0.256 1.357,-0.767 0.233,-0.51 0.219,-1.087 -0.044,-1.729 L 1.532,1.094 C 1.357,0.686 1.139,0.401 0.875,0.241 0.613,0.08 0.321,0 0,0" />
      </g>
      <g
         transform="matrix(0.35277777,0,0,-0.35277777,128.16447,44.037386)"
         id="g276">
        <path
           inkscape:connector-curvature="0"
           id="path278"
           style="fill:#003334;fill-opacity:1;fill-rule:nonzero;stroke:none"
           d="m 0,0 c -0.497,0 -0.905,0.161 -1.226,0.482 -0.322,0.321 -0.482,0.729 -0.482,1.226 v 30.777 c 0,0.496 0.16,0.904 0.482,1.226 0.321,0.321 0.729,0.482 1.226,0.482 0.496,0 0.904,-0.161 1.226,-0.482 0.321,-0.322 0.481,-0.73 0.481,-1.226 V 1.708 C 1.707,1.211 1.547,0.803 1.226,0.482 0.904,0.161 0.496,0 0,0" />
      </g>
      <g
         transform="matrix(0.35277777,0,0,-0.35277777,133.05996,42.956122)"
         id="g280">
        <path
           inkscape:connector-curvature="0"
           id="path282"
           style="fill:#003334;fill-opacity:1;fill-rule:nonzero;stroke:none"
           d="m 0,0 h 6.173 c 2.685,0 5.057,0.605 7.114,1.817 2.059,1.21 3.671,2.874 4.838,4.991 1.167,2.115 1.752,4.531 1.752,7.245 0,2.715 -0.585,5.13 -1.752,7.246 -1.167,2.116 -2.779,3.772 -4.838,4.969 -2.057,1.196 -4.429,1.795 -7.114,1.795 H 0 Z m -1.707,-3.065 c -0.496,0 -0.904,0.161 -1.225,0.482 -0.322,0.321 -0.482,0.729 -0.482,1.226 V 29.42 c 0,0.496 0.16,0.904 0.482,1.226 0.321,0.321 0.729,0.482 1.225,0.482 h 7.88 c 2.511,0 4.808,-0.417 6.896,-1.248 2.086,-0.832 3.889,-2.014 5.407,-3.547 1.517,-1.531 2.692,-3.334 3.524,-5.406 0.833,-2.073 1.248,-4.364 1.248,-6.874 C 23.248,11.542 22.833,9.244 22,7.158 21.168,5.071 19.993,3.261 18.476,1.729 16.958,0.197 15.155,-0.985 13.069,-1.817 10.981,-2.649 8.684,-3.065 6.173,-3.065 Z" />
      </g>
      <g
         transform="matrix(0.35277777,0,0,-0.35277777,93.442737,55.978243)"
         id="g284">
        <path
           inkscape:connector-curvature="0"
           id="path286"
           style="fill:#003334;fill-opacity:1;fill-rule:nonzero;stroke:none"
           d="m 0,0 c -1.36,0 -2.632,0.256 -3.814,0.768 -1.184,0.512 -2.218,1.225 -3.098,2.14 -0.882,0.915 -1.57,1.985 -2.064,3.211 -0.496,1.225 -0.744,2.551 -0.744,3.978 0,1.41 0.248,2.723 0.744,3.94 0.494,1.217 1.182,2.283 2.064,3.198 0.88,0.914 1.91,1.632 3.084,2.153 1.175,0.52 2.45,0.781 3.828,0.781 1.292,0 2.404,-0.169 3.336,-0.504 0.931,-0.336 1.867,-0.89 2.807,-1.662 0.134,-0.101 0.239,-0.206 0.315,-0.315 0.075,-0.109 0.126,-0.218 0.15,-0.327 0.026,-0.11 0.039,-0.239 0.039,-0.39 0,-0.32 -0.114,-0.584 -0.34,-0.793 C 6.08,15.967 5.807,15.85 5.489,15.825 5.169,15.799 4.86,15.905 4.557,16.14 3.936,16.677 3.294,17.088 2.63,17.374 1.967,17.659 1.09,17.802 0,17.802 c -0.991,0 -1.922,-0.202 -2.795,-0.605 -0.873,-0.402 -1.641,-0.957 -2.304,-1.662 -0.664,-0.705 -1.18,-1.523 -1.548,-2.454 -0.37,-0.932 -0.555,-1.926 -0.555,-2.984 0,-1.075 0.185,-2.077 0.555,-3.009 0.368,-0.932 0.884,-1.751 1.548,-2.455 0.663,-0.705 1.431,-1.255 2.304,-1.65 C -1.922,2.589 -0.991,2.392 0,2.392 0.856,2.392 1.665,2.538 2.43,2.833 3.193,3.126 3.927,3.534 4.633,4.054 4.935,4.271 5.232,4.368 5.526,4.343 5.819,4.318 6.068,4.2 6.269,3.991 6.471,3.781 6.572,3.491 6.572,3.122 6.572,2.954 6.538,2.79 6.471,2.631 6.404,2.471 6.303,2.325 6.169,2.19 5.263,1.469 4.293,0.923 3.26,0.554 2.228,0.185 1.141,0 0,0" />
      </g>
      <g
         transform="matrix(0.35277777,0,0,-0.35277777,100.98403,55.898339)"
         id="g288">
        <path
           inkscape:connector-curvature="0"
           id="path290"
           style="fill:#003334;fill-opacity:1;fill-rule:nonzero;stroke:none"
           d="m 0,0 c -0.37,0 -0.677,0.122 -0.92,0.365 -0.243,0.243 -0.365,0.55 -0.365,0.919 v 3.852 l 0.478,2.669 2.09,-0.906 V 1.284 C 1.283,0.915 1.162,0.608 0.918,0.365 0.674,0.122 0.369,0 0,0 m -5.641,2.19 c 0.856,0 1.62,0.206 2.292,0.617 0.67,0.411 1.199,0.974 1.585,1.688 0.387,0.713 0.58,1.514 0.58,2.404 0,0.906 -0.193,1.716 -0.58,2.43 -0.386,0.713 -0.915,1.275 -1.585,1.687 -0.672,0.411 -1.436,0.616 -2.292,0.616 -0.839,0 -1.599,-0.205 -2.278,-0.616 -0.68,-0.412 -1.218,-0.974 -1.613,-1.687 -0.394,-0.714 -0.591,-1.524 -0.591,-2.43 0,-0.89 0.197,-1.691 0.591,-2.404 C -9.137,3.781 -8.599,3.218 -7.919,2.807 -7.24,2.396 -6.48,2.19 -5.641,2.19 m -0.504,-2.266 c -1.224,0 -2.325,0.306 -3.298,0.92 -0.974,0.612 -1.742,1.443 -2.305,2.492 -0.562,1.049 -0.842,2.237 -0.842,3.563 0,1.326 0.306,2.518 0.919,3.576 0.612,1.057 1.443,1.892 2.493,2.505 1.048,0.612 2.228,0.918 3.537,0.918 1.309,0 2.485,-0.306 3.525,-0.918 1.041,-0.613 1.867,-1.448 2.48,-2.505 C 0.978,9.417 1.283,8.225 1.283,6.899 H 0.302 C 0.302,5.573 0.021,4.385 -0.542,3.336 -1.104,2.287 -1.873,1.456 -2.847,0.844 -3.82,0.23 -4.919,-0.076 -6.145,-0.076" />
      </g>
      <g
         transform="matrix(0.35277777,0,0,-0.35277777,106.89084,55.898339)"
         id="g292">
        <path
           inkscape:connector-curvature="0"
           id="path294"
           style="fill:#003334;fill-opacity:1;fill-rule:nonzero;stroke:none"
           d="m 0,0 c -0.369,0 -0.676,0.122 -0.919,0.365 -0.243,0.243 -0.366,0.55 -0.366,0.919 v 6.194 c 0,0.957 -0.176,1.737 -0.528,2.342 -0.352,0.604 -0.827,1.053 -1.422,1.347 -0.597,0.293 -1.281,0.441 -2.052,0.441 -0.706,0 -1.344,-0.144 -1.914,-0.429 -0.571,-0.285 -1.024,-0.667 -1.36,-1.145 C -8.897,9.555 -9.065,9.005 -9.065,8.385 h -1.586 c 0,1.057 0.256,2.001 0.769,2.832 0.511,0.831 1.212,1.49 2.102,1.977 0.89,0.487 1.888,0.73 2.996,0.73 1.158,0 2.194,-0.248 3.11,-0.743 0.915,-0.495 1.636,-1.221 2.165,-2.178 C 1.02,10.047 1.285,8.872 1.285,7.478 V 1.284 C 1.285,0.915 1.162,0.608 0.919,0.365 0.676,0.122 0.369,0 0,0 m -10.348,0 c -0.37,0 -0.676,0.122 -0.92,0.365 -0.243,0.243 -0.365,0.55 -0.365,0.919 v 11.23 c 0,0.386 0.122,0.696 0.365,0.931 0.244,0.236 0.55,0.353 0.92,0.353 0.385,0 0.696,-0.117 0.931,-0.353 0.235,-0.235 0.352,-0.545 0.352,-0.931 V 1.284 C -9.065,0.915 -9.182,0.608 -9.417,0.365 -9.652,0.122 -9.963,0 -10.348,0" />
      </g>
      <g
         transform="matrix(0.35277777,0,0,-0.35277777,111.99871,55.889554)"
         id="g296">
        <path
           inkscape:connector-curvature="0"
           id="path298"
           style="fill:#003334;fill-opacity:1;fill-rule:nonzero;stroke:none"
           d="M 0,0 C -0.37,0 -0.68,0.126 -0.933,0.377 -1.184,0.629 -1.311,0.94 -1.311,1.31 v 17.045 c 0,0.387 0.127,0.702 0.378,0.945 0.253,0.243 0.563,0.366 0.933,0.366 0.385,0 0.7,-0.123 0.943,-0.366 0.243,-0.243 0.366,-0.558 0.366,-0.945 V 1.31 C 1.309,0.94 1.186,0.629 0.943,0.377 0.7,0.126 0.385,0 0,0" />
      </g>
      <g
         transform="matrix(0.35277777,0,0,-0.35277777,117.76288,55.072204)"
         id="g300">
        <path
           inkscape:connector-curvature="0"
           id="path302"
           style="fill:#003334;fill-opacity:1;fill-rule:nonzero;stroke:none"
           d="m 0,0 h 3.248 c 1.41,0 2.656,0.323 3.739,0.969 1.083,0.646 1.934,1.536 2.555,2.669 0.622,1.133 0.932,2.43 0.932,3.89 0,1.477 -0.31,2.778 -0.932,3.903 -0.621,1.124 -1.472,2.006 -2.555,2.644 -1.083,0.638 -2.329,0.957 -3.739,0.957 H 0 Z m -1.309,-2.317 c -0.37,0 -0.68,0.126 -0.932,0.378 -0.252,0.252 -0.379,0.562 -0.379,0.932 v 17.046 c 0,0.386 0.127,0.701 0.379,0.944 0.252,0.243 0.562,0.366 0.932,0.366 h 4.557 c 1.443,0 2.757,-0.24 3.94,-0.719 1.184,-0.478 2.211,-1.157 3.085,-2.039 0.873,-0.882 1.544,-1.918 2.014,-3.109 0.469,-1.193 0.706,-2.51 0.706,-3.954 0,-1.444 -0.237,-2.766 -0.706,-3.965 C 11.817,2.362 11.146,1.321 10.273,0.44 9.399,-0.441 8.372,-1.121 7.188,-1.599 6.005,-2.078 4.691,-2.317 3.248,-2.317 Z" />
      </g>
      <g
         transform="matrix(0.35277777,0,0,-0.35277777,125.55275,55.125579)"
         id="g304">
        <path
           inkscape:connector-curvature="0"
           id="path306"
           style="fill:#003334;fill-opacity:1;fill-rule:nonzero;stroke:none"
           d="m 0,0 c 0.873,0 1.645,0.201 2.317,0.604 0.671,0.403 1.196,0.957 1.574,1.662 0.377,0.705 0.567,1.52 0.567,2.442 0,0.924 -0.19,1.742 -0.567,2.456 C 3.513,7.877 2.988,8.435 2.317,8.838 1.645,9.241 0.873,9.442 0,9.442 -0.872,9.442 -1.645,9.241 -2.316,8.838 -2.988,8.435 -3.517,7.877 -3.903,7.164 -4.289,6.45 -4.481,5.632 -4.481,4.708 -4.481,3.786 -4.289,2.971 -3.903,2.266 -3.517,1.561 -2.988,1.007 -2.316,0.604 -1.645,0.201 -0.872,0 0,0 m 0,-2.266 c -1.359,0 -2.56,0.298 -3.6,0.894 -1.042,0.596 -1.859,1.418 -2.456,2.467 -0.595,1.05 -0.893,2.254 -0.893,3.613 0,1.377 0.298,2.59 0.893,3.639 0.597,1.049 1.414,1.872 2.456,2.467 1.04,0.597 2.241,0.894 3.6,0.894 1.343,0 2.535,-0.297 3.576,-0.894 C 4.616,10.219 5.435,9.396 6.03,8.347 6.626,7.298 6.924,6.085 6.924,4.708 6.924,3.349 6.631,2.145 6.044,1.095 5.456,0.046 4.642,-0.776 3.602,-1.372 2.56,-1.968 1.36,-2.266 0,-2.266" />
      </g>
      <g
         transform="matrix(0.35277777,0,0,-0.35277777,132.4903,55.889554)"
         id="g308">
        <path
           inkscape:connector-curvature="0"
           id="path310"
           style="fill:#003334;fill-opacity:1;fill-rule:nonzero;stroke:none"
           d="m 0,0 c -0.37,0 -0.676,0.122 -0.919,0.365 -0.244,0.243 -0.366,0.55 -0.366,0.919 v 11.205 c 0,0.386 0.122,0.697 0.366,0.931 0.243,0.236 0.549,0.353 0.919,0.353 0.386,0 0.696,-0.117 0.931,-0.353 0.236,-0.234 0.354,-0.545 0.354,-0.931 V 1.284 C 1.285,0.915 1.167,0.608 0.931,0.365 0.696,0.122 0.386,0 0,0 m 0,16.014 c -0.454,0 -0.844,0.164 -1.171,0.491 -0.327,0.328 -0.491,0.718 -0.491,1.171 0,0.453 0.164,0.844 0.491,1.171 0.327,0.327 0.717,0.491 1.171,0.491 0.453,0 0.843,-0.164 1.171,-0.491 0.327,-0.327 0.49,-0.718 0.49,-1.171 0,-0.453 -0.163,-0.843 -0.49,-1.171 C 0.843,16.178 0.453,16.014 0,16.014" />
      </g>
      <g
         transform="matrix(0.35277777,0,0,-0.35277777,136.3984,55.889554)"
         id="g312">
        <path
           inkscape:connector-curvature="0"
           id="path314"
           style="fill:#003334;fill-opacity:1;fill-rule:nonzero;stroke:none"
           d="m 0,0 c -0.839,0 -1.595,0.214 -2.266,0.643 -0.672,0.427 -1.2,1.01 -1.587,1.749 -0.386,0.738 -0.578,1.57 -0.578,2.493 v 12.011 c 0,0.369 0.117,0.67 0.352,0.906 0.235,0.235 0.538,0.352 0.906,0.352 0.37,0 0.672,-0.117 0.907,-0.352 0.235,-0.236 0.353,-0.537 0.353,-0.906 V 4.885 c 0,-0.672 0.184,-1.234 0.553,-1.687 C -0.99,2.745 -0.537,2.518 0,2.518 H 0.856 C 1.159,2.518 1.415,2.4 1.625,2.166 1.835,1.931 1.94,1.628 1.94,1.259 1.94,0.89 1.801,0.588 1.523,0.353 1.247,0.118 0.89,0 0.453,0 Z m -5.589,11.104 c -0.352,0 -0.639,0.101 -0.856,0.302 -0.219,0.201 -0.327,0.453 -0.327,0.756 0,0.336 0.108,0.604 0.327,0.805 0.217,0.202 0.504,0.303 0.856,0.303 h 5.816 c 0.353,0 0.637,-0.101 0.856,-0.303 C 1.301,12.766 1.41,12.498 1.41,12.162 1.41,11.859 1.301,11.607 1.083,11.406 0.864,11.205 0.58,11.104 0.227,11.104 Z" />
      </g>
      <g
         transform="matrix(0.35277777,0,0,-0.35277777,139.82751,55.889554)"
         id="g316">
        <path
           inkscape:connector-curvature="0"
           id="path318"
           style="fill:#003334;fill-opacity:1;fill-rule:nonzero;stroke:none"
           d="m 0,0 c -0.471,0 -0.878,0.172 -1.222,0.516 -0.344,0.344 -0.516,0.752 -0.516,1.221 0,0.487 0.172,0.903 0.516,1.247 C -0.878,3.328 -0.471,3.5 0,3.5 0.486,3.5 0.902,3.328 1.246,2.984 1.59,2.64 1.762,2.224 1.762,1.737 1.762,1.268 1.59,0.86 1.246,0.516 0.902,0.172 0.486,0 0,0 m 0,4.658 c -0.37,0 -0.676,0.122 -0.92,0.365 -0.244,0.243 -0.365,0.55 -0.365,0.92 0,0.654 0.168,1.372 0.504,2.153 0.336,0.78 0.856,1.473 1.56,2.077 0.471,0.403 0.903,0.801 1.297,1.196 0.395,0.394 0.714,0.847 0.957,1.36 0.243,0.511 0.366,1.137 0.366,1.875 0,0.537 -0.127,1.041 -0.378,1.511 -0.251,0.47 -0.609,0.851 -1.07,1.146 -0.462,0.293 -1.028,0.44 -1.7,0.44 -0.822,0 -1.502,-0.151 -2.04,-0.453 -0.538,-0.302 -0.935,-0.722 -1.195,-1.259 -0.261,-0.537 -0.391,-1.167 -0.391,-1.889 0,-0.369 -0.117,-0.676 -0.352,-0.918 -0.235,-0.244 -0.546,-0.366 -0.931,-0.366 -0.37,0 -0.677,0.122 -0.92,0.366 -0.243,0.242 -0.365,0.549 -0.365,0.918 0,1.175 0.256,2.208 0.767,3.098 0.512,0.889 1.235,1.59 2.167,2.102 0.931,0.512 2.018,0.768 3.26,0.768 1.091,0 2.06,-0.231 2.908,-0.693 0.847,-0.461 1.519,-1.099 2.015,-1.913 0.494,-0.815 0.743,-1.767 0.743,-2.858 0,-0.94 -0.152,-1.754 -0.454,-2.442 C 5.162,11.473 4.749,10.856 4.229,10.312 3.709,9.765 3.112,9.224 2.442,8.687 2.005,8.334 1.704,7.877 1.536,7.315 1.368,6.752 1.283,6.295 1.283,5.943 1.283,5.573 1.166,5.266 0.931,5.023 0.696,4.78 0.385,4.658 0,4.658" />
      </g>
      <g
         transform="matrix(0.35277777,0,0,-0.35277777,81.625211,56.08076)"
         id="g320">
        <path
           inkscape:connector-curvature="0"
           id="path322"
           style="fill:#009898;fill-opacity:1;fill-rule:nonzero;stroke:none"
           d="m 0,0 c -0.835,0 -1.545,0.291 -2.125,0.872 -0.582,0.582 -0.872,1.289 -0.872,2.126 v 64.754 c 0,0.883 0.29,1.615 0.872,2.196 0.58,0.581 1.29,0.871 2.125,0.871 h 10.875 c 0.882,0 1.613,-0.29 2.195,-0.871 0.58,-0.581 0.871,-1.313 0.871,-2.196 0,-0.835 -0.291,-1.545 -0.871,-2.126 -0.582,-0.581 -1.313,-0.871 -2.195,-0.871 H 3.067 V 6.065 h 7.808 c 0.882,0 1.613,-0.29 2.195,-0.872 0.58,-0.58 0.871,-1.312 0.871,-2.195 C 13.941,2.161 13.65,1.454 13.07,0.872 12.488,0.291 11.757,0 10.875,0 Z" />
      </g>
      <g
         transform="matrix(0.35277777,0,0,-0.35277777,145.22907,56.349471)"
         id="g324">
        <path
           inkscape:connector-curvature="0"
           id="path326"
           style="fill:#71c8f0;fill-opacity:1;fill-rule:nonzero;stroke:none"
           d="m 0,0 c -0.883,0 -1.616,0.291 -2.197,0.872 -0.581,0.582 -0.87,1.289 -0.87,2.126 0,0.883 0.289,1.615 0.87,2.195 0.581,0.582 1.314,0.872 2.197,0.872 h 7.875 v 58.69 H 0 c -0.883,0 -1.616,0.29 -2.197,0.871 -0.581,0.581 -0.87,1.291 -0.87,2.126 0,0.883 0.289,1.615 0.87,2.196 0.581,0.581 1.314,0.871 2.197,0.871 h 10.874 c 0.836,0 1.543,-0.29 2.125,-0.871 0.58,-0.581 0.871,-1.313 0.871,-2.196 V 2.998 C 13.87,2.161 13.579,1.454 12.999,0.872 12.417,0.291 11.71,0 10.874,0 Z" />
      </g>
    </g>
  </g>
</svg>
