<svg id="Layer_1" data-name="Layer 1" xmlns="http://www.w3.org/2000/svg" viewBox="0 0 356.47 356.47"><defs><style>.cls-1{fill:#009898;}.cls-2{fill:none;stroke:#fff;stroke-linecap:round;stroke-linejoin:round;stroke-width:8px;}</style></defs><path class="cls-1" d="M178.23,356.47C80,356.47,0,276.51,0,178.23S80,0,178.23,0,356.47,80,356.47,178.23,276.51,356.47,178.23,356.47Z"/><path class="cls-2" d="M264.25,226.65a244.76,244.76,0,0,1-86.52,15.78,245,245,0,0,1-86.52-15.78V139.82a245.08,245.08,0,0,1,173,0Z"/><path class="cls-2" d="M264.25,196.9a415.59,415.59,0,0,1-86.52,9.1,416.19,416.19,0,0,1-86.52-9.1"/><path class="cls-2" d="M264.25,169.57c-9.42-2-18.57-3.59-27.32-4.82"/><path class="cls-2" d="M91.21,169.57a415.14,415.14,0,0,1,86.52-9.1c12.16,0,25.91.54,41,2"/><path class="cls-2" d="M91.21,141,84,133c-16.87-18.56-47.4-6.44-47.4,18.81v27.5a27.79,27.79,0,0,0,15.1,24.81l39.54,20.08"/><path class="cls-2" d="M264.25,141l7.25-8c16.87-18.56,47.4-6.44,47.4,18.81v27.5a27.79,27.79,0,0,1-15.1,24.81l-39.55,20.08"/></svg>