<?xml version="1.0" encoding="utf-8"?>
<!-- Generator: Adobe Illustrator 25.0.0, SVG Export Plug-In . SVG Version: 6.00 Build 0)  -->
<svg version="1.1" id="Layer_1" xmlns="http://www.w3.org/2000/svg" xmlns:xlink="http://www.w3.org/1999/xlink" x="0px" y="0px"
	 viewBox="0 0 356.5 356.5" style="enable-background:new 0 0 356.5 356.5;" xml:space="preserve">
<style type="text/css">
	.st0{fill:#FFFFFF;}
	.cls-1{fill:#013334;}
	.cls-2{fill:#009898;}
</style>
<g>
	<g>
		<path class="cls-1" d="M178.23,356.47C80,356.47,0,276.51,0,178.23S80,0,178.23,0,356.47,80,356.47,178.23,276.51,356.47,178.23,356.47Z"/>
	</g>
</g>
<g>
	<g>
		<g>
			<path class="cls-2" d="M177.7,246.4c-30.2,0-59.8-5.4-87.9-16c-1.6-0.6-2.6-2.1-2.6-3.7v-86.8c0-1.7,1-3.2,2.6-3.7
				c28.1-10.6,57.7-16,87.9-16c30.2,0,59.8,5.4,87.9,16c1.6,0.6,2.6,2.1,2.6,3.7v86.8c0,1.7-1,3.2-2.6,3.7
				C237.6,241,208,246.4,177.7,246.4z M95.2,223.9c26.4,9.7,54.2,14.6,82.5,14.6s56.1-4.9,82.5-14.6v-81.3
				c-26.4-9.7-54.2-14.6-82.5-14.6c-28.3,0-56.1,4.9-82.5,14.6V223.9z M264.3,226.6L264.3,226.6L264.3,226.6z"/>
		</g>
		<g>
			<path class="cls-2" d="M177.7,210c-29.3,0-58.7-3.1-87.4-9.2c-2.2-0.5-3.5-2.6-3.1-4.7s2.6-3.5,4.7-3.1c28.1,6,56.9,9,85.7,9
				c28.7,0,57.6-3,85.7-9c2.2-0.5,4.3,0.9,4.7,3.1c0.5,2.2-0.9,4.3-3.1,4.7C236.4,206.9,207,210,177.7,210z"/>
		</g>
		<g>
			<path class="cls-2" d="M264.3,173.6c-0.3,0-0.6,0-0.8-0.1c-9-1.9-18.1-3.5-27-4.8c-2.2-0.3-3.7-2.3-3.4-4.5
				c0.3-2.2,2.3-3.7,4.5-3.4c9.1,1.3,18.4,2.9,27.6,4.9c2.2,0.5,3.5,2.6,3.1,4.7C267.8,172.3,266.1,173.6,264.3,173.6z"/>
		</g>
		<g>
			<path class="cls-2" d="M91.2,173.6c-1.8,0-3.5-1.3-3.9-3.2c-0.5-2.2,0.9-4.3,3.1-4.7c28.6-6.1,58-9.2,87.4-9.2
				c13.7,0,27.6,0.7,41.4,2.1c2.2,0.2,3.8,2.2,3.6,4.4c-0.2,2.2-2.2,3.8-4.4,3.6c-13.5-1.3-27.2-2-40.6-2c-28.8,0-57.6,3-85.7,9
				C91.8,173.5,91.5,173.6,91.2,173.6z"/>
		</g>
	</g>
	<g>
		<path class="cls-2" d="M91.2,228.2c-0.6,0-1.2-0.1-1.8-0.4l-39.5-20.1c-10.7-5.4-17.3-16.3-17.3-28.4v-27.5
			c0-13.5,7.7-24.9,20.2-29.7c12.2-4.7,25.3-1.6,34.2,8.2l7.2,8c1.5,1.6,1.4,4.2-0.3,5.7c-1.6,1.5-4.2,1.4-5.7-0.3l-7.2-8
			c-7.9-8.7-18.3-8.8-25.4-6.1c-7.3,2.8-15.1,10.1-15.1,22.2v27.5c0,9.1,4.9,17.2,12.9,21.2L93,220.7c2,1,2.8,3.4,1.8,5.4
			C94.1,227.4,92.7,228.2,91.2,228.2z"/>
	</g>
	<g>
		<path class="cls-2" d="M264.3,228.2c-1.5,0-2.9-0.8-3.6-2.2c-1-2-0.2-4.4,1.8-5.4l39.5-20.1c8-4,12.9-12.2,12.9-21.2v-27.5
			c0-12.1-7.8-19.4-15.1-22.2c-7.1-2.7-17.5-2.6-25.4,6.1l-7.2,8c-1.5,1.6-4,1.8-5.7,0.3c-1.6-1.5-1.8-4-0.3-5.7l7.2-8
			c8.9-9.8,22-12.9,34.2-8.2c12.4,4.8,20.2,16.2,20.2,29.7v27.5c0,12.1-6.6,23-17.3,28.4l-39.5,20.1
			C265.5,228.1,264.9,228.2,264.3,228.2z"/>
	</g>
</g>
</svg>
