<svg id="Layer_1" data-name="Layer 1" xmlns="http://www.w3.org/2000/svg" viewBox="0 0 356.47 356.47"><defs><style>.cls-1{fill:#009898;}.cls-2{fill:#fff;}</style></defs><path class="cls-1" d="M178.23,356.47C80,356.47,0,276.51,0,178.23S80,0,178.23,0,356.47,80,356.47,178.23,276.51,356.47,178.23,356.47Z"/><path class="cls-2" d="M164.21,290.24H107.94a4.28,4.28,0,0,1-4.28-4.28V82.63a4.28,4.28,0,0,1,4.28-4.28H222a4.27,4.27,0,0,1,3.61,2c7.3,11.52,13.44,21.09,18.23,28.44,5,7.61,6,16.06,2.85,22-2.39,4.46-6.91,7.05-12.39,7.11-3.46,0-18.13,0-20.25,0,.77,7.55,4,19.17,5.36,23.73a4.27,4.27,0,0,1-2.45,5.21l-41.4,17.18,43.16,16.12a4.28,4.28,0,0,1,2.24,6.08c-3.3,6-1.41,9.65,2.22,15.65,2.31,3.84,4.93,8.19,4.93,13.5a23.52,23.52,0,0,1-23.5,23.49H168.49v27A4.27,4.27,0,0,1,164.21,290.24Zm-52-8.56h47.71v-27a4.28,4.28,0,0,1,4.28-4.28h40.36a15,15,0,0,0,15-14.93c0-2.93-1.72-5.78-3.71-9.08-3-4.9-6.84-11.35-4.31-19.7l-49.15-18.35a4.29,4.29,0,0,1-.14-8l47.89-19.86c-1.86-6.6-5.26-19.86-4.75-27.11a4.29,4.29,0,0,1,4.27-4h0s21.11,0,24.54,0c2.37,0,4-.9,4.93-2.59,1.29-2.42,1.42-7.35-2.47-13.32-4.53-7-10.26-15.88-17-26.55H112.22Z"/><path class="cls-2" d="M242.06,167.18a4.29,4.29,0,0,1-1.65-8.24l51.45-21.34a4.28,4.28,0,0,1,3.28,7.91l-51.45,21.34A4.28,4.28,0,0,1,242.06,167.18Z"/><path class="cls-2" d="M293.49,231.32a4.28,4.28,0,0,1-1.63-.33l-51.45-21.34a4.28,4.28,0,0,1,3.28-7.9l51.45,21.33a4.28,4.28,0,0,1-1.65,8.24Z"/><path class="cls-2" d="M311.27,188.58H251.69a4.28,4.28,0,1,1,0-8.56h59.58a4.28,4.28,0,1,1,0,8.56Z"/></svg>