<svg xmlns="http://www.w3.org/2000/svg" viewBox="0 0 199.1 240.55"><defs><style>.cls-1{fill:#694335;}.cls-2{fill:#fff;}.cls-3{fill:#9e6d45;}.cls-4{fill:#8c4938;}.cls-5{fill:#2f1e22;}.cls-6{fill:#fff654;}.cls-7{fill:#fcf9eb;}.cls-8{fill:#d8d6d7;}.cls-9{fill:#e8e3e6;}.cls-10,.cls-11,.cls-13,.cls-9{fill-rule:evenodd;}.cls-10{fill:#4478a2;}.cls-11{fill:#055;}.cls-12{fill:#b7d3ee;}.cls-13{fill:#fcf32f;}</style></defs><g id="Layer_1" data-name="Layer 1"><path class="cls-1" d="M179.45,70.51a15.84,15.84,0,0,0-4.14-2.91l-.23-.09c-3.75-2.51-6.49-7.74-17.51-11.44-8.16-2.75-10.28-2.16-12.63-2.09a21,21,0,0,1-4,0,6.85,6.85,0,0,1-2.59-2.34,46.37,46.37,0,0,1-2.34-4.2A55.82,55.82,0,0,1,134,37.91C131.57,19.51,120.18.57,120.18.57c0,.24,0,.47,0,.7a2.08,2.08,0,0,0,0,.25V2a1.93,1.93,0,0,0,0,.24c0,.23,0,.46,0,.69V3.1c0,.18,0,.37,0,.56a2.35,2.35,0,0,0,0,.26c0,.16,0,.33,0,.5v.2c0,.23,0,.46,0,.69v.13c0,.2,0,.4,0,.59v.13c0,.47,0,.93,0,1.35v0c0,.21,0,.42,0,.62v0c0,.41,0,.79.05,1.13h0c0,.51.06.93.09,1.22v0c0,.09,0,.18,0,.24-.19,2.18-.44,5.5-.58,7.47,0,.15,0,.29,0,.43v0c0,.12,0,.25,0,.36h0c0,.12,0,.22,0,.32a20.45,20.45,0,0,0-5.39-.89c-.34-1.79-1.13-5.88-1.66-7.61C110.14,2.2,105.49.69,104.31,0c0,0,6.3,12.07,1.11,21.66a2.19,2.19,0,0,1-.47.57A4.28,4.28,0,0,0,102.61,24a57.46,57.46,0,0,1-7.35,3.81c-3.38,1.22-6.71,2.64-10.26,3a7.84,7.84,0,0,1-1,0C67.7,29.65,64.24,34.15,67,37.5c2.57,3.17,6.78,5.39,14.36,6.14.73.07,1.47.13,2.26.17l1.17.06,2.09.05h1l1.94,0,1.13,0,2.11-.1.82,0,.21,0c.69,0,1.37-.11,2-.18l.66-.09c.85-.12,1.68-.27,2.46-.43l.75-.16c.94-.21,1.82-.44,2.64-.67l.29-.08c1-.27,1.86-.54,2.66-.77l.38-.11a12.54,12.54,0,0,1,2.71-.57c1.66-.07,2.14.94,1.24,4.41a4.76,4.76,0,0,1-.19.57,1.42,1.42,0,0,1-.08.18,1.66,1.66,0,0,1-.15.33.54.54,0,0,1,0,.11,4.57,4.57,0,0,0-1.19.75c-.61.54-1.16,1.1-1.7,1.68-4,1.62-10,.45-11.71.29h-.36c-9.71.81-7.6,1.28-24-.28-1.85-.18,1.58,4.31,9.51,4.6l.94,0,.38,0,.66,0,.44,0,.69,0,.47,0,.74.05.47,0,.82.07.44,0,.91.08.48,0,.93.08.42,0,1.07.1.23,0,10.21,1h.12l1.28.12.23,0-.13,0h0l-.11,0h0l-.12.06,0,0-.16.11,0,0-.15.14,0,.06-.13.14-.07.09-.13.19-.06.09a3.37,3.37,0,0,0-.21.34c-.53.94-2.08,2.8-3.2,3-2.26.86-3.92.41-6.63.28a.17.17,0,0,0,0,.07c-11.5-.79-19.44,7.55-22,10.68A38.74,38.74,0,0,0,62.78,80c-.38.88-.71,1.87-1.08,2.87l-.38.46-.11.12-.51.58,0,0-.54.59-.12.13-.59.63-.14.15-.67.7a49.49,49.49,0,0,0-12.72-4c-2.58-.42-8.87-.7-10.22-3.1,1.2-6.07.74-12.8-3.45-17.21C31,60.74,25,51.7,24.05,55.66c-.47,2,4.71,10.17,5.84,11.7,1,8.61-7.74,1.15-10.42-2.89-1.19-1.8-3.83-11.48-6.59-10.94-6,1.18,2.52,14.67,4.36,16.71-3.54.88-5-6.55-8.47-12.84-.41-.74-3-3.39-3.93.76-1.49,6.9,6,15.19,7.31,16.77-2.85-1.55-3.42-2.74-4.87-4.4-1-1.11-3.22-10-5.7-4.42C-.64,71.09,9.32,80.26,16,86.19l1.66,1.48a2,2,0,0,0,.59.78c.66.56,1.34,1.08,2,1.58,6.13,5.59,10.35,9.73,11.09,10.26l.69.49.4.28.31.22.5.35.24.17.55.38.22.15.6.4.18.13.64.43.17.11.66.44.14.09.7.46h0c-.11-.35.36-.7.7-.51a31.25,31.25,0,0,1,3,2.31,15.9,15.9,0,0,0,4.12,2c.17.06.22.36,0,.39l-.28,0h0l.36.16c3.44,1.47,9.26,3.61,13,2.73A54,54,0,0,0,68.09,108c7.29-3.22,6.69.14,16.09-6a36,36,0,0,0,5-4.45c1.34,1.31,2.74,2.58,4.1,4a43.77,43.77,0,0,0,5.45,5.15c-.19,1-.35,2-.47,3a61.62,61.62,0,0,0-.84,7.14c-.19,3.32,1.21,9-1.58,10.91A24.19,24.19,0,0,0,86.24,132a58.25,58.25,0,0,0-14.91,15.2c-1.43,2.13-11,15.64-11.6,16.9-.17.15-.33.31-.48.47a.86.86,0,0,0-.13.14c-.12.11-.22.23-.33.35l-.12.15q-.16.19-.3.39l-.1.12c-.12.17-.24.34-.34.51h0c-.3.63-.58,1.24-.85,1.86l0,.07,0,.12,0,.05c-.06.23-.12.47-.16.71,0,0,0,.06,0,.09a8,8,0,0,0-.1.87.49.49,0,0,1,0,.12c0,.3,0,.6,0,.9a.49.49,0,0,0,0,.12,8.14,8.14,0,0,0,.09,1c.14,1-.05,9.59-.06,10.43,0,1.51.11,13.73.72,18.33.1,2.23.15,4.47.11,6.69,0,.2,0,.38,0,.58a.27.27,0,0,0,0,.09V209c0,.07,0,.14,0,.21,0,2.22.1,4.51-.86,6.15v0a4.27,4.27,0,0,1-.3.44h0a3,3,0,0,1-.38.42c-1.1.55-21.16,5.8-21.25,5.85l-.07,0-.25.15-.06,0-.27.17,0,0c-.2.13-.38.26-.56.4l0,0-.21.16-.06.06-.17.14-.07.07-.15.14-.07.07-.13.14-.06.07-.12.15-.05.06-.12.17,0,.05a1.59,1.59,0,0,0-.13.22v0a.88.88,0,0,0-.09.2l0,.07a.88.88,0,0,0-.05.15l0,.08,0,.14s0,.06,0,.09a.66.66,0,0,0,0,.14.28.28,0,0,0,0,.09.61.61,0,0,0,0,.14v.09a.77.77,0,0,1,0,.15s0,.06,0,.08a1.46,1.46,0,0,0,.05.2s0,0,0,0a1.6,1.6,0,0,0,.1.23l0,.07.1.17a.41.41,0,0,1,0,.09l.11.15.08.1a.81.81,0,0,0,.12.14l.09.1.14.15.11.1.17.15.11.09a1.84,1.84,0,0,0,.22.17l.1.08c.11.08.23.17.36.25,5.19,3.42,11.87-.06,17.54.33,1.7.46,5.93,1.11,6,1.13l.21,0,.31,0,.73.09.32,0,.7.05h1.13l.32,0,.19,0,.28,0,.19,0,.27-.05.2,0,.25-.06.19,0,.26-.08.18-.06.25-.1.18-.07.26-.12L64,229l.3-.16.11-.06.39-.26.1-.08.28-.21.14-.13.23-.2.15-.15.2-.22.15-.17c.07-.07.13-.15.2-.23l.14-.19.19-.26.13-.2.18-.29A2.39,2.39,0,0,0,67,226l.18-.33.12-.22.18-.38c0-.07.07-.13.1-.2s.18-.42.26-.63c1.18-3,1.29-6.26,2-9.39.81-3.45,2.54-6.74,3.54-10.17,1.84-6.33,5.72-10.61,5.11-17.57a39.66,39.66,0,0,0-5.3-16.31c13.58-2.19,27.07-5.11,36.43-16.29.09,17.87-.31,43.88,20.55,50.37,9,2.81,18.77,3.72,26.16,10.42,2.84,2.58,5.62,6.56,4.47,10.6-.88,3.08-5.06,10.16-2.28,13,6.2,6.27,11.48-7,12.68-10.74,1.83-5.73,10-14.48,3.95-20-1.93-1.76-5.28-2.65-7.8-3.07a5,5,0,0,1-2.8-1.61,25.7,25.7,0,0,0-3.09-4.7,18.26,18.26,0,0,0-1.05-1.59c-5.64-7.44-15.69-9.18-24.49-7.82.08-.69.16-1.37.25-2.06,3.72-7,4.41-15.94,4.3-23.64a46.44,46.44,0,0,0-.7-7.71,12,12,0,0,0,3.51-2.66,9.94,9.94,0,0,0,1.32-9.91,18.29,18.29,0,0,0-3.26-5.33c-2.21-2.62-2-2.62-1.31-6,.15-.76.29-1.53.44-2.29,2.41-8.25,5.71-16.21,7.74-24.58A73.92,73.92,0,0,0,150,94.05a21.67,21.67,0,0,0,3.16.34c1.24,1,3.16,2,7.23,2.81a42.8,42.8,0,0,0,12.61.46,72.37,72.37,0,0,0-5.14,14.69,49.52,49.52,0,0,0-1.57,9.92,21.85,21.85,0,0,0-9.93.82c-1.72.58-6.46,4.09-5.47,6.77.83,2.26,6.68-2.21,8.32-2.79,1.86-.67,2.43-.46,5.25,1.73-2.14,3.22-5.32,7-8.9,8.29-2,.74-9.63,0-9.89.52-1.45,2.95,4.32,4.79,9.25,3.82,4.45-.88,8.76-4.18,10.13-4.48-1,2.44-2.63,3.74-8.22,7.74-1.83,1.31-5.52,1.49-7.86,3.49-1.05.89,1.39,4.12,6.39,2.36,5.73-2,11.7-8.61,13.23-10-2.43,8.52-13.74,10.82-12.54,15.12.86,3.11,12.08-4.79,17.26-12.56l.34-.54a2,2,0,0,1,.11-.2c.07-.13.15-.26.22-.4l.12-.24.2-.4c0-.09.09-.17.13-.26s.13-.29.2-.44l.16-.37c.08-.17.15-.35.23-.52l.18-.45.11-.26.21-.52s0,0,0-.05h0a12,12,0,0,1-1.23,1.81c-.33.4-1,0-.7-.44a27.87,27.87,0,0,0,2.17-4.25,9.58,9.58,0,0,1,1.66-3c.11-.13.29,0,.26.16-.1.43-.21.87-.34,1.32l.36-.75h0c.11-.22.23-.43.34-.64a.59.59,0,0,0,0-.08l.32-.54s.05-.09.07-.12c.13-.21.27-.41.41-.6,2.65-3.66,4.88-4.89,10.5-14,3.52-5.7,3.82-6.86,6.55-13.19,1.11-2.59,3.26-3.87,3.13-8.91C199,90.62,187.56,77,179.45,70.51ZM74.92,199.87a12.89,12.89,0,0,1-.65,2,.36.36,0,0,1-.25.22C74.34,201.35,74.64,200.62,74.92,199.87ZM147.24,55.44H147a3.57,3.57,0,0,0-.74.1c-.41-.07-.82-.13-1.23-.22a14.93,14.93,0,0,1,2.67.12Zm1.92.53a3.17,3.17,0,0,0-.74-.36,1,1,0,0,0-.18-.06A8.76,8.76,0,0,1,150,56a.18.18,0,0,1,.09.08Zm19.72,76.51c0-.1.05-.19.07-.28a5.59,5.59,0,0,0,.62.67A.41.41,0,0,1,168.88,132.48Zm2.13,3a.4.4,0,0,1-.72-.33,10.44,10.44,0,0,1,.58-1.45,4.77,4.77,0,0,0,1,.34C171.56,134.56,171.29,135,171,135.52Z"/><path class="cls-2" d="M107.12,47.22s-.87-4-1.23-6a12.54,12.54,0,0,1,2.71-.57C108.32,41.65,107.12,47.22,107.12,47.22Z"/><path class="cls-2" d="M105.64,41.5c0-.18-1.53,6.74-1.53,6.74s-.92-4.21-1.26-6.15c1-.27,1.86-.54,2.66-.77A.38.38,0,0,1,105.64,41.5Z"/><path class="cls-2" d="M101.11,48.63s-.81-3.74-1.19-5.79c.94-.21,1.82-.44,2.64-.67C102.23,43.45,101.11,48.63,101.11,48.63Z"/><path class="cls-2" d="M97.85,49s-.74-3.43-1.14-5.52c.85-.12,1.68-.27,2.46-.43C98.75,44.78,97.85,49,97.85,49Z"/><path class="cls-2" d="M96.05,43.52c-.45,2-1.17,5.32-1.17,5.32s-.66-3-1.07-5.12l.21,0C94.71,43.66,95.39,43.59,96.05,43.52Z"/><path class="cls-2" d="M91.9,48.73s-.6-2.79-1-4.87l2.11-.1C92.54,45.76,91.9,48.73,91.9,48.73Z"/><path class="cls-2" d="M88.76,48.44s-.54-2.49-1-4.52l1.94,0C89.31,45.86,88.76,48.44,88.76,48.44Z"/><path class="cls-2" d="M85.77,48.77s-.61-2.82-1-4.9l2.09.05C86.38,45.91,85.77,48.77,85.77,48.77Z"/><path class="cls-2" d="M82.43,49s-.71-3.25-1.12-5.35c.73.07,1.47.13,2.26.17C83.11,45.8,82.43,49,82.43,49Z"/><path class="cls-3" d="M138.34,57.44c-2.35.31-4.24-2.31-5.13-4.15a.3.3,0,0,1,.53-.29c1.08,1.65,2.44,3.85,4.57,4.16C138.45,57.18,138.51,57.41,138.34,57.44Z"/><path class="cls-3" d="M123.82,42.85a.13.13,0,0,1-.21-.14c-.06.18-.26-.59-.27-.69,0-.61-.16-1.22-.27-1.83-.18-1.06-.54-2.07-.77-3.11a.41.41,0,0,1,.61-.44c1,.49,1,2.36,1.18,3.31S124.52,42.16,123.82,42.85Z"/><path class="cls-3" d="M150,56.44c-1.07,0-2.16-.11-3.23-.14-1.25,0-2.49.09-3.73.1a.42.42,0,0,1-.09-.83A13.56,13.56,0,0,1,150,56,.21.21,0,0,1,150,56.44Z"/><path class="cls-3" d="M159,65.16c0,.08-.06.14-.13.13a15.14,15.14,0,0,1-1.76-.77,20.9,20.9,0,0,0-2-.6c-1.31-.33-2.85-.56-3.87-1.5-.36-.33.06-.92.5-.78,1.5.46,3,1.13,4.49,1.63C157.21,63.61,158.64,64.08,159,65.16Z"/><path class="cls-3" d="M126.09,38a.23.23,0,0,1-.42-.13,17.39,17.39,0,0,0-.35-3.73c-.35-1.34-.93-2.6-1.34-3.92-.15-.51.63-.79.87-.33C125.86,31.86,127.69,35.89,126.09,38Z"/><path class="cls-3" d="M132.89,45.38c-.81-2.68-1.69-5.31-2.76-7.9a.11.11,0,0,1,.2-.1,34.08,34.08,0,0,1,3,7.9A.22.22,0,0,1,132.89,45.38Z"/><path class="cls-3" d="M129.08,35c-.36-1.47-.42-3-.78-4.49A18.4,18.4,0,0,0,126,25.36c-.24-.39.32-.75.62-.45A11.49,11.49,0,0,1,129.39,35,.16.16,0,0,1,129.08,35Z"/><path class="cls-3" d="M142.52,67c-2-.57-3.12-2.49-4.17-4.1-.19-.28.27-.6.47-.34a15.18,15.18,0,0,0,4,3.92A.29.29,0,0,1,142.52,67Z"/><path class="cls-3" d="M168.16,67.17c-1.47-2-3.56-2.82-5.77-3.84a.36.36,0,0,1,.21-.68,10.71,10.71,0,0,1,3.82,1.67c.88.57,2.18,1.53,2.12,2.7C168.54,67.2,168.28,67.33,168.16,67.17Z"/><path class="cls-3" d="M133.07,58a34.76,34.76,0,0,0,3.31,4.66.13.13,0,0,1-.13.22A4.44,4.44,0,0,1,134.17,61a15.53,15.53,0,0,1-1.64-2.74A.31.31,0,0,1,133.07,58Z"/><path class="cls-3" d="M176.83,72.72c-.94-.62-1.7-1.48-2.61-2.15a5.91,5.91,0,0,0-1.52-.78c-.57-.2-1.15-.1-1.69-.35a.18.18,0,0,1-.07-.3c.79-.82,2.33-.34,3.22.12a9.54,9.54,0,0,1,3.36,2.82C177.82,72.49,177.21,73,176.83,72.72Z"/><path class="cls-3" d="M160.71,60.88c-1.31-.37-2.59-.9-3.9-1.29a13.3,13.3,0,0,1-3.43-1.31.31.31,0,0,1,.26-.55,33.88,33.88,0,0,1,3.85,1.36,13.3,13.3,0,0,1,3.32,1.57A.12.12,0,0,1,160.71,60.88Z"/><path class="cls-3" d="M177.47,77.35a14.06,14.06,0,0,1-5.84-4.28c-.1-.13,0-.36.18-.29a12.34,12.34,0,0,1,2.65,1.76,24.64,24.64,0,0,0,3.34,2.1C178.2,76.86,177.88,77.48,177.47,77.35Z"/><path class="cls-3" d="M168.07,72.48a.11.11,0,0,1-.17.09,4.37,4.37,0,0,1-.8-.75,10.52,10.52,0,0,0-1.92-1.47,22.67,22.67,0,0,0-4.3-1.78.34.34,0,0,1,.11-.67c1.56-.13,3.33,1,4.6,1.81C166.41,70.24,168.15,71.34,168.07,72.48Z"/><path class="cls-3" d="M159.27,72.45A10.78,10.78,0,0,1,165,75.71a.2.2,0,0,1-.26.31c-.89-.44-1.7-1-2.59-1.5-1-.53-2.18-.83-3.21-1.36C158.52,72.93,158.87,72.37,159.27,72.45Z"/><path class="cls-3" d="M130.69,155.76c-.07-1.38,0-2.77,0-4.15,0-1.19.08-2.86-.55-3.93a.29.29,0,0,1,.47-.34,4.87,4.87,0,0,1,.93,3.08,25.36,25.36,0,0,1,0,5.37A.41.41,0,0,1,130.69,155.76Z"/><path class="cls-3" d="M121.14,73.14c1.8.25,1.23,4.14,1.13,5.32a.33.33,0,0,1-.66,0c0-1.76.15-3.47-.6-5.1C121,73.26,121,73.12,121.14,73.14Z"/><path class="cls-3" d="M126.55,173.54a14.84,14.84,0,0,1,.25-5.32.37.37,0,0,1,.73.13,47.89,47.89,0,0,1-.14,5.22A.42.42,0,0,1,126.55,173.54Z"/><path class="cls-3" d="M127.66,138.64c.73-2.71,2-5.41,1.45-8.28,0-.18.24-.31.32-.12,1.18,2.77,0,6-1.13,8.6A.34.34,0,0,1,127.66,138.64Z"/><path class="cls-3" d="M130.57,167.06a12.25,12.25,0,0,1,.27-4c.14-1,.21-2.43.93-3.15a.24.24,0,0,1,.41.18,26.22,26.22,0,0,1-.49,3.38,22.38,22.38,0,0,1-.38,3.66A.39.39,0,0,1,130.57,167.06Z"/><path class="cls-3" d="M134.13,137.87a18.64,18.64,0,0,1-1,5.39.38.38,0,0,1-.73-.23,41.13,41.13,0,0,0,.75-9.58.22.22,0,0,1,.41-.09C134.31,134.64,134.17,136.45,134.13,137.87Z"/><path class="cls-3" d="M130.7,170.86a.36.36,0,0,1,.69,0,10.66,10.66,0,0,1,.24,2.89c.1,1.4.3,2.79.34,4.2,0,.52-.71.52-.85.08a14.63,14.63,0,0,1-.55-3.9A8.08,8.08,0,0,1,130.7,170.86Z"/><path class="cls-3" d="M125.89,130.7a43.35,43.35,0,0,1,.59-7.45.32.32,0,0,1,.63,0,43.27,43.27,0,0,1-.44,7.45A.39.39,0,0,1,125.89,130.7Z"/><path class="cls-3" d="M118.8,173.88c-.37-2-.61-4.72.21-6.6a.38.38,0,0,1,.36-.26l0-.06a.13.13,0,0,1,.22.1c-.05.49,0,1.62,0,2.29,0,1.48.12,3,.09,4.44A.46.46,0,0,1,118.8,173.88Z"/><path class="cls-3" d="M125.65,53.89c-1-1.48-1.94-3-2.88-4.55-.31-.51.49-.93.8-.44.94,1.53,1.9,3.05,2.77,4.62C126.58,54,125.92,54.29,125.65,53.89Z"/><path class="cls-3" d="M118.49,150.94a12.13,12.13,0,0,1,.06-4.12c.07-.7.15-1.39.21-2.09,0-.23.26-.66.24-.84s.13-.09.15,0c.09.27.32.29.33.65,0,.66,0,1.32,0,2-.08,1.45-.14,2.91-.25,4.36A.35.35,0,0,1,118.49,150.94Z"/><path class="cls-3" d="M124.13,63.83c.74,2.53.58,5.18,1.62,7.65a.27.27,0,0,1-.48.26c-1.41-2.24-1.47-5.19-1.81-7.75A.34.34,0,0,1,124.13,63.83Z"/><path class="cls-3" d="M125.88,75.6a.15.15,0,0,1,.26-.09c.81,1.12.84,2.79.88,4.12a.31.31,0,0,1-.61.06C126.21,78.35,126,77,125.88,75.6Z"/><path class="cls-3" d="M125.55,108.54a20.7,20.7,0,0,0,.88-6.2c0-.13.18-.16.24-.06,1,2,.07,4.52-.56,6.43A.29.29,0,0,1,125.55,108.54Z"/><path class="cls-3" d="M175.35,82.42c.31.26,0,.81-.41.66-2.24-1-5.3-3-6.24-5.29-.09-.22.14-.54.38-.36,1.08.87,2,1.91,3.1,2.73S174.36,81.57,175.35,82.42Z"/><path class="cls-3" d="M171.42,127.34a.28.28,0,0,1,.43.35,54.61,54.61,0,0,0-2.19,5,.41.41,0,0,1-.78-.24A10.13,10.13,0,0,1,171.42,127.34Z"/><path class="cls-3" d="M173.63,130.23c.24-.18.67.09.44.37a37.76,37.76,0,0,0-3.06,4.92.4.4,0,0,1-.72-.33A10.35,10.35,0,0,1,173.63,130.23Z"/><path class="cls-3" d="M171.34,117.41a9.22,9.22,0,0,1-.54,3.06c-.3,1.15-.59,2.3-.83,3.47-.09.44-.8.3-.78-.14a12.94,12.94,0,0,1,.61-3.19A18.09,18.09,0,0,1,171,117.3C171.09,117.11,171.33,117.24,171.34,117.41Z"/><path class="cls-3" d="M179.76,121.15c.49-.49,1.19.29.73.78-1.7,1.8-3.11,3.89-4.88,5.6a.49.49,0,0,1-.75-.62A35,35,0,0,1,179.76,121.15Z"/><path class="cls-3" d="M189.51,109.6c0-.17.32-.24.34,0,.37,3.07-1.69,6-3.53,8.19-.23.29-.72,0-.49-.31A18.32,18.32,0,0,0,189.51,109.6Z"/><path class="cls-3" d="M186.63,110.49a11.78,11.78,0,0,1-3.47,7.59c-.28.29-.79-.13-.54-.44a18,18,0,0,0,3.43-7.25C186.13,110.06,186.64,110.16,186.63,110.49Z"/><path class="cls-3" d="M173.8,121.27a8,8,0,0,1,1.21-1.51c.49-.55.87-1.2,1.39-1.71a.29.29,0,0,1,.48.22,4.47,4.47,0,0,1-1,1.93,6.49,6.49,0,0,1-1.56,1.66C174,122.13,173.62,121.6,173.8,121.27Z"/><path class="cls-3" d="M176.55,129a24.18,24.18,0,0,0,6.49-5.67c-.09,0-.17-.13-.1-.21a3.52,3.52,0,0,1,.86-.77c.16-.12.41.1.33.28-1.27,3.11-4.4,5.41-7.29,6.9A.3.3,0,0,1,176.55,129Z"/><path class="cls-3" d="M157.21,80.71c2.28.13,5.76,1.09,6.75,3.43.12.28-.22.57-.45.32a11.63,11.63,0,0,0-6.42-3.08C156.71,81.3,156.83,80.68,157.21,80.71Z"/><path class="cls-3" d="M157.66,92.64a14.24,14.24,0,0,0,4.08.93,4.25,4.25,0,0,1,2.27.84c.19.16,0,.43-.24.38-2.17-.57-4.64-.1-6.58-1.42C156.72,93.05,157.17,92.41,157.66,92.64Z"/><path class="cls-3" d="M169.2,93.32c1.05,0,2.1.12,3.16.12a22.13,22.13,0,0,1,3.64,0c.43.08.61.79.08.85-2.06.25-5.15.5-7-.73A.12.12,0,0,1,169.2,93.32Z"/><path class="cls-3" d="M156.23,75.64a10,10,0,0,1,4.08,1.43c.93.51,2.38,1.44,2.17,2.68a.27.27,0,0,1-.52,0c-.28-1-1.58-1.6-2.44-2-1.1-.55-2.29-.89-3.42-1.36C155.7,76.25,155.76,75.61,156.23,75.64Z"/><path class="cls-3" d="M165.89,83.78c3,.34,5.77,2.3,8,4.2.38.33-.15.93-.56.67a45.57,45.57,0,0,0-7.48-4.4C165.57,84.16,165.6,83.74,165.89,83.78Z"/><path class="cls-3" d="M158.24,86.88c2.68,1.1,5.44,1.7,8.17,2.58a.23.23,0,0,1-.08.45,19.39,19.39,0,0,1-8.39-2.38C157.59,87.34,157.87,86.73,158.24,86.88Z"/><path class="cls-3" d="M174.64,109a31,31,0,0,0-2.78,7c-.12.43-.74.22-.65-.2.49-2.49,1.21-5.26,3.08-7.1C174.48,108.53,174.77,108.79,174.64,109Z"/><path class="cls-3" d="M174.75,115.29c.86-2.36,2.23-4.49,3.11-6.84a.26.26,0,0,1,.5.15,60.1,60.1,0,0,1-3,6.88C175.17,115.82,174.61,115.67,174.75,115.29Z"/><path class="cls-3" d="M177.93,116.25c1.63-1.87,3.4-4,3.63-6.61a.33.33,0,0,1,.65,0c.16,2.86-1.88,5.22-3.83,7.06C178.06,117,177.66,116.56,177.93,116.25Z"/><path class="cls-3" d="M178.62,98.34a28.69,28.69,0,0,0-2.66,7.45c-.08.5-.84.51-.82,0a14.79,14.79,0,0,1,2.9-7.69C178.24,97.79,178.78,98,178.62,98.34Z"/><path class="cls-3" d="M184,92.79c-1-.71-1.91-1.53-2.9-2.25a11.65,11.65,0,0,0-4-1.63c-.18,0-.14-.28,0-.34,2.61-1,5.75,1.89,7.31,3.66C184.7,92.53,184.32,93,184,92.79Z"/><path class="cls-3" d="M182.22,103.25a20.79,20.79,0,0,0,.58-2.6c.12-.81,0-1.61.07-2.41a.26.26,0,0,1,.48-.11c1,1.43.27,3.94-.35,5.37A.41.41,0,0,1,182.22,103.25Z"/><path class="cls-3" d="M188.7,92A12.14,12.14,0,0,1,187,89c0-.11.11-.22.2-.15a10.19,10.19,0,0,1,2.1,2.43,11.08,11.08,0,0,1,1.8,3.54.37.37,0,0,1-.69.26A32.37,32.37,0,0,0,188.7,92Z"/><path class="cls-3" d="M177.19,81.6c2.1,1.22,4.58,2.71,5.86,4.84.24.39-.31.73-.62.44-.92-.88-1.8-1.8-2.79-2.62a27.38,27.38,0,0,1-2.7-2.35A.2.2,0,0,1,177.19,81.6Z"/><path class="cls-3" d="M194.84,93.38c1.9,1.48,2,4.35,1.15,6.42a.32.32,0,0,1-.61-.2,7.71,7.71,0,0,0-.79-6C194.51,93.46,194.7,93.27,194.84,93.38Z"/><path class="cls-3" d="M150,68.86c-.37-.17-.15-.78.24-.75,2,.18,4.49,1,5.79,2.53a.11.11,0,0,1-.14.17,9.38,9.38,0,0,0-2.95-1.25A15.18,15.18,0,0,1,150,68.86Z"/><path class="cls-3" d="M192.27,99.32a.29.29,0,0,1,.53-.2c1.29,2.07.45,5.58-.86,7.44a.37.37,0,0,1-.63-.4A10.74,10.74,0,0,0,192.27,99.32Z"/><path class="cls-3" d="M187.32,99.05c-.11-.25.15-.58.42-.4,2.18,1.5.82,6.39-.75,7.89a.49.49,0,0,1-.75-.62C187.41,103.94,188.21,101.29,187.32,99.05Z"/><path class="cls-3" d="M185.47,78.75c-2-1.22-3.54-3-5.6-4.13a.25.25,0,0,1,.21-.45,19.68,19.68,0,0,1,5.86,4C186.27,78.46,185.82,79,185.47,78.75Z"/><path class="cls-3" d="M185.23,82.68c-.75-.68-1.47-1.39-2.23-2.06a20.45,20.45,0,0,0-2.65-1.78c-.33-.2-.07-.64.26-.57,2.09.42,3.93,2.26,5.21,3.86A.4.4,0,0,1,185.23,82.68Z"/><path class="cls-3" d="M192.67,90.89a16.82,16.82,0,0,0-2.21-4.06,26.46,26.46,0,0,1-2.35-3.06.22.22,0,0,1,.31-.29,12.26,12.26,0,0,1,3,3.1,10,10,0,0,1,2,4.15A.36.36,0,0,1,192.67,90.89Z"/><path class="cls-3" d="M119.84,45.6a53,53,0,0,0-.9-5.89c-.1-.47.6-.78.81-.31a19.78,19.78,0,0,1,1.19,6.24C121,46.34,119.91,46.29,119.84,45.6Z"/><path class="cls-3" d="M130.49,59.87c1,2.15,1.34,4.63,3,6.42a.19.19,0,0,1-.24.28c-2-1.27-2.64-4.36-3.25-6.51A.27.27,0,0,1,130.49,59.87Z"/><path class="cls-3" d="M134.28,180.21a5,5,0,0,1,.74,3.06,12.24,12.24,0,0,1-.38,4.13.48.48,0,0,1-.93-.16,34,34,0,0,0-.23-6.61A.47.47,0,0,1,134.28,180.21Z"/><path class="cls-3" d="M133.19,196.55c-.38-1.14-.77-2.29-1.24-3.39s-1.09-1.94-1.53-2.95c-.07-.15.06-.36.24-.29,1,.36,1.56,1.54,2,2.43a12.14,12.14,0,0,1,1.34,4A.43.43,0,0,1,133.19,196.55Z"/><path class="cls-3" d="M129.07,92.57a1.65,1.65,0,0,1,.45.11,2.52,2.52,0,0,1,.37-.05c.5,0,.73.45.65.87a2.82,2.82,0,0,1,.51.89.58.58,0,0,1-.29.64,1.74,1.74,0,0,1-2.43-.48,1.2,1.2,0,0,1,0-1.09.67.67,0,0,1,0-.37A.73.73,0,0,1,129.07,92.57Z"/><path class="cls-3" d="M129.31,51.64c-.85-2.23-1.54-4.51-2.21-6.8-.06-.23.3-.37.39-.15.88,2.22,1.64,4.47,2.34,6.75C129.92,51.74,129.42,51.94,129.31,51.64Z"/><path class="cls-3" d="M139.13,71.05a10.73,10.73,0,0,1-2.19-3c-.16-.36.31-.76.59-.42.62.74,1.19,1.51,1.79,2.27a11.64,11.64,0,0,0,1.1,1.23,4.25,4.25,0,0,0,.47.37l.13.09h0a.24.24,0,0,1,.16.44C140.5,72.49,139.66,71.59,139.13,71.05Z"/><path class="cls-3" d="M142.43,83.32c-2-1-3.9-2.33-5.8-3.51a.39.39,0,0,1,.33-.69c2.17.65,3.93,2.5,5.64,3.92A.16.16,0,0,1,142.43,83.32Z"/><path class="cls-3" d="M136.28,105.1c.51-2.35,1.13-4.54.67-7a.22.22,0,0,1,.41-.15c1.31,2.09.27,5.21-.49,7.31A.31.31,0,0,1,136.28,105.1Z"/><path class="cls-3" d="M131,73.87a14,14,0,0,1,2.16,4.86c.14.29-.36.61-.53.25-.75-1.55-1.46-3.13-2.21-4.69C130.24,73.94,130.74,73.53,131,73.87Z"/><path class="cls-3" d="M144,79.53c-1,.12-1.92-.68-2.68-1.32A26.18,26.18,0,0,1,138.06,75c-.27-.32.12-.87.49-.59a23,23,0,0,1,2.54,2.49c.51.52,1,1,1.58,1.5.29.27.88.86,1.31.9C144.11,79.3,144.15,79.52,144,79.53Z"/><path class="cls-3" d="M130.32,65.89A18.13,18.13,0,0,0,133,73a.13.13,0,0,1-.17.2C130.58,72,130,68.28,129.73,66,129.68,65.65,130.23,65.51,130.32,65.89Z"/><path class="cls-3" d="M131.37,107.08c.57-2.18,1.26-4.37.85-6.63a.22.22,0,0,1,.41-.15c1.11,2.06.11,5-.62,7A.34.34,0,0,1,131.37,107.08Z"/><path class="cls-3" d="M129.34,111.37c.23,2.26-.46,4.6-.89,6.79,0,.26-.49.18-.46-.08.26-2.24.64-4.5,1.1-6.71C129.12,111.25,129.33,111.25,129.34,111.37Z"/><path class="cls-3" d="M132.71,116.76c-.05-2.26,0-5.09,1.38-7a.19.19,0,0,1,.34.16,29.7,29.7,0,0,0-1.13,6.88A.3.3,0,0,1,132.71,116.76Z"/><path class="cls-3" d="M131.57,127.17a37.26,37.26,0,0,1,.77-5.26.24.24,0,0,1,.46.08,35.9,35.9,0,0,1-.63,5.28C132.1,127.61,131.54,127.51,131.57,127.17Z"/><path class="cls-3" d="M123.62,58.43c.15.39-.39.71-.59.31a22.89,22.89,0,0,1-2-5.45.37.37,0,0,1,.71-.17A48,48,0,0,0,123.62,58.43Z"/><path class="cls-3" d="M145.92,60.08c-1.06-.11-2.13.11-3.17-.08a.4.4,0,0,1-.07-.72c1.8-.77,4.81-.13,6.45.83.23.13.12.56-.16.51C148,60.46,147,60.19,145.92,60.08Z"/><path class="cls-3" d="M125.16,163.89a16.6,16.6,0,0,1,0-5.58c.11-.73,1.26-.69,1.15,0a33.24,33.24,0,0,0-.34,5.46A.43.43,0,0,1,125.16,163.89Z"/><path class="cls-3" d="M122,176c-.32-2.69-.46-6.13,1.26-8.41a.24.24,0,0,1,.42.2,29.63,29.63,0,0,0-.84,8.12C122.82,176.36,122.05,176.45,122,176Z"/><path class="cls-3" d="M124.48,122.93c-.32,2.18-.61,4.37-1.09,6.52a.32.32,0,0,1-.62-.11c.22-2.15.57-4.29.89-6.44C123.74,122.39,124.56,122.41,124.48,122.93Z"/><path class="cls-3" d="M119.73,66.67a40.46,40.46,0,0,1-1-10.24c0-.46.69-.42.71,0a91.44,91.44,0,0,0,.92,10.07A.32.32,0,0,1,119.73,66.67Z"/><path class="cls-3" d="M122.83,120.8a29.5,29.5,0,0,0,1.51-8.33.36.36,0,0,1,.71,0,20.9,20.9,0,0,1-1.63,8.57C123.26,121.41,122.71,121.14,122.83,120.8Z"/><path class="cls-3" d="M145.69,71.49a14.48,14.48,0,0,1,5.43,2.72.21.21,0,0,1-.22.35c-1.84-.75-3.74-1.52-5.52-2.41C145,72,145.3,71.37,145.69,71.49Z"/><path class="cls-3" d="M147.44,76.38c1.18.91,2.29,1.9,3.53,2.75,1,.66,2.31,1,3.15,1.73,0,0,0,.15,0,.17-1,.44-2.39-.47-3.24-1A14.2,14.2,0,0,1,147,77C146.68,76.65,147.07,76.1,147.44,76.38Z"/><path class="cls-3" d="M144.78,63.45a9.8,9.8,0,0,1,6.75,2c.1.08.09.31-.09.28a16.8,16.8,0,0,1-2.65-.8,22.92,22.92,0,0,0-3.93-.68C144.44,64.18,144.3,63.54,144.78,63.45Z"/><path class="cls-3" d="M126.56,145c1.17.53,1.1,2.21,1.16,3.34a20.42,20.42,0,0,1-.43,5.94c-.1.43-.78.3-.75-.13.09-1.54.23-3.07.29-4.61,0-.95.35-3.5-.47-4.22C126.22,145.17,126.39,144.9,126.56,145Z"/><path class="cls-3" d="M137.06,85.25c-.13-.06,0-.25.08-.25,3.23.08,2.45,6.33,2,8.25-.08.31-.61.22-.56-.1C138.92,90.9,139.6,86.44,137.06,85.25Z"/><path class="cls-3" d="M128.41,178.85c1.76,2.75,1.53,6.79,1,9.85-.1.52-.92.35-.91-.16.12-3.24.28-6.27-.87-9.37C127.39,178.66,128.15,178.45,128.41,178.85Z"/><path class="cls-3" d="M67.92,173.85a15.18,15.18,0,0,1-.09,5.62.33.33,0,0,1-.63,0c-.2-1.83.28-3.71.31-5.55A.21.21,0,0,1,67.92,173.85Z"/><path class="cls-3" d="M66.67,216.68c0-.64,1-.6,1,0a25.1,25.1,0,0,1-.85,7.56.44.44,0,0,1-.85-.15C66,221.61,66.75,219.21,66.67,216.68Z"/><path class="cls-3" d="M69.71,209.91c.29-.95.16-2.3.7-3.11a.11.11,0,0,1,.18,0c.63.71.21,2.15,0,3a9.82,9.82,0,0,1-1.8,4.19.38.38,0,0,1-.65-.4A24.67,24.67,0,0,0,69.71,209.91Z"/><path class="cls-3" d="M71.05,195.15a11.35,11.35,0,0,1-.33,7.32c-.12.32-.66.27-.62-.11.14-1.17.4-2.32.55-3.49s.1-2.47.15-3.7A.13.13,0,0,1,71.05,195.15Z"/><path class="cls-3" d="M67.26,183.3c.71,2.44.31,5.29-.07,7.76a.35.35,0,0,1-.69,0c-.13-2.54.44-5.14.48-7.7A.14.14,0,0,1,67.26,183.3Z"/><path class="cls-3" d="M67.53,205.76a31.89,31.89,0,0,1-1,6.79.43.43,0,0,1-.83-.14c.13-2.25.77-4.44.94-6.69A.47.47,0,0,1,67.53,205.76Z"/><path class="cls-3" d="M68,193.94a11.15,11.15,0,0,1-.91,8.27.4.4,0,0,1-.72-.34c.64-2.62,1.27-5,.7-7.7A.48.48,0,0,1,68,193.94Z"/><path class="cls-3" d="M69.49,183.84c.85,1.47.66,3.46.5,5.08a.33.33,0,0,1-.65,0c-.06-1.66-.16-3.34-.16-5A.17.17,0,0,1,69.49,183.84Z"/><path class="cls-3" d="M59.45,182.07a59,59,0,0,1-1.37,6.52c-.09.41-.76.29-.72-.13A21.33,21.33,0,0,1,59,182C59.07,181.75,59.48,181.77,59.45,182.07Z"/><path class="cls-3" d="M60.05,219.37c.5,1.6-1.34,3.6-2.65,4.27-.38.2-.8-.33-.45-.62a10.22,10.22,0,0,0,1.76-1.78,5.43,5.43,0,0,0,.61-1,2.23,2.23,0,0,0,.32-.82C59.61,219.16,60,219.16,60.05,219.37Z"/><path class="cls-3" d="M59.84,195.73c.4,2.23-.23,4.53-.53,6.74a.35.35,0,0,1-.69,0c0-2.26.74-4.45,1-6.69C59.58,195.62,59.81,195.58,59.84,195.73Z"/><path class="cls-3" d="M59,177.07c.19-2.37,1.31-4.55,1.65-6.91,0-.26.41-.33.47,0,.53,2.28-.78,4.93-1.35,7.09A.4.4,0,0,1,59,177.07Z"/><path class="cls-3" d="M61.4,206.18a.2.2,0,0,1,.31,0c.59.71.39,2,.37,2.81a21.65,21.65,0,0,1-.29,3.94.48.48,0,0,1-.93,0,16.78,16.78,0,0,1,.17-3.54C61.12,208.36,61,207.05,61.4,206.18Z"/><path class="cls-3" d="M64.57,193.2a24,24,0,0,1-1.15,7c-.14.41-.87.33-.8-.14a59.81,59.81,0,0,0,.87-6.94A.54.54,0,0,1,64.57,193.2Z"/><path class="cls-3" d="M63.78,216.12c-.06-.21.22-.28.32-.12,1.49,2.16.4,6.07-.61,8.22-.2.41-.79.08-.69-.32C63.44,221.4,64.41,218.72,63.78,216.12Z"/><path class="cls-3" d="M75.29,165.36a19.51,19.51,0,0,1,3.55-.93,5,5,0,0,1,2.44-.1.11.11,0,0,1,0,.21,47,47,0,0,1-5.7,1.57C75.14,166.19,74.84,165.54,75.29,165.36Z"/><path class="cls-3" d="M76.2,162.11a.36.36,0,0,1-.17-.7c1.2-.41,2.38-.85,3.52-1.37a27,27,0,0,1,2.59-1.28.24.24,0,0,1,.25.36A7.08,7.08,0,0,1,80,160.79,11,11,0,0,1,76.2,162.11Z"/><path class="cls-3" d="M74.59,158.19c.77-.36,1.54-.74,2.3-1.14a17.43,17.43,0,0,0,2.33-1.77c.12-.08.33,0,.27.17-.71,1.77-3,2.79-4.67,3.34A.33.33,0,0,1,74.59,158.19Z"/><path class="cls-3" d="M85.5,161.52c2.8-.82,5.9-2.65,6.52-5.72a.25.25,0,0,1,.49.08c-.4,3.4-3.68,5.74-6.86,6.3A.34.34,0,0,1,85.5,161.52Z"/><path class="cls-3" d="M80.56,151.43a45.83,45.83,0,0,1,5.18-2.18c.15,0,.29.18.15.28a15.19,15.19,0,0,1-5.1,2.51C80.44,152.12,80.21,151.57,80.56,151.43Z"/><path class="cls-3" d="M74.24,194.3a.2.2,0,0,1,.38-.09c1.09,2.32.62,5.39-.35,7.65a.36.36,0,0,1-.69-.21A20.5,20.5,0,0,0,74.24,194.3Z"/><path class="cls-3" d="M91.56,149.18c.22-.25.56.09.42.35-1.32,2.4-4,4.22-6.13,5.9a.41.41,0,0,1-.56-.6C87.24,152.78,89.66,151.29,91.56,149.18Z"/><path class="cls-3" d="M69.4,162.11c.43-.29.95.43.53.75-2,1.54-3.49,3.63-5.46,5.23a.4.4,0,0,1-.54-.58A32.12,32.12,0,0,1,69.4,162.11Z"/><path class="cls-3" d="M63,184.43a64.6,64.6,0,0,1-.83,7.19.32.32,0,0,1-.63,0,24.86,24.86,0,0,1,1.19-7.21A.14.14,0,0,1,63,184.43Z"/><path class="cls-3" d="M65.55,172.09c2.15-1.55,3.63-3.62,5.5-5.44a.22.22,0,0,1,.34.28,16.38,16.38,0,0,1-5.45,5.71C65.61,172.82,65.23,172.32,65.55,172.09Z"/><path class="cls-3" d="M64.15,175.51a49.87,49.87,0,0,1-1.32,6,.38.38,0,0,1-.75-.13,15.71,15.71,0,0,1,1.65-6A.23.23,0,0,1,64.15,175.51Z"/><path class="cls-3" d="M74.33,179.28c2,2.35,2.61,6.14,2.69,9.15,0,.43-.64.47-.74.07-.72-3.11-.94-6.07-2.16-9.08C74.07,179.3,74.23,179.16,74.33,179.28Z"/><path class="cls-3" d="M72.85,185.49a.18.18,0,0,1,.34,0,13.73,13.73,0,0,1,.16,3,17.48,17.48,0,0,1-.17,3.62.42.42,0,0,1-.8,0,17.54,17.54,0,0,1,.09-3.62A13.53,13.53,0,0,1,72.85,185.49Z"/><path class="cls-3" d="M69.85,171.08c3.46.81,2.9,7.34,2.47,9.81-.08.44-.79.3-.77-.13a43.56,43.56,0,0,0,.08-4.57,8.67,8.67,0,0,0-2-4.87C69.56,171.19,69.73,171.05,69.85,171.08Z"/><path class="cls-3" d="M91.62,83.91c-.14-2.9,2.61-5,3.13-7.71.09-.47.79-.31.79.13,0,2.78-2.33,5.07-2.94,7.75C92.47,84.67,91.64,84.44,91.62,83.91Z"/><path class="cls-3" d="M68.83,104.1a14.85,14.85,0,0,1,3.73-.79c1.12-.15,2.41-.69,3.53-.49.23,0,.24.32.13.47-.63.82-1.93,1-2.88,1.16a19.86,19.86,0,0,1-4.26.58C68.63,105,68.36,104.31,68.83,104.1Z"/><path class="cls-3" d="M60.69,102.2c1.24-.29,2.5-.33,3.73-.7a31,31,0,0,0,2.75-1.44.37.37,0,0,1,.46.35c-.09,1.11-1.49,1.73-2.38,2.12a7.42,7.42,0,0,1-4.55.7A.54.54,0,0,1,60.69,102.2Z"/><path class="cls-3" d="M60.7,107.63a15.57,15.57,0,0,1,2.81-.29c.94-.08,1.88-.32,2.81-.37.55,0,.62.66.25.92a6.83,6.83,0,0,1-2.89.73,7.31,7.31,0,0,1-3,.1A.57.57,0,0,1,60.7,107.63Z"/><path class="cls-3" d="M47.44,101.46c-.36-.33,0-1.06.49-.87a23.12,23.12,0,0,0,3.32,1.21,9,9,0,0,0,3.19,0c.28,0,.37.34.21.51-.78.87-2.19.78-3.25.66A7,7,0,0,1,47.44,101.46Z"/><path class="cls-3" d="M81.34,85.56A8,8,0,0,1,79,89c-.37.29-.93-.27-.66-.65a27.74,27.74,0,0,0,2-3,23.87,23.87,0,0,1,1.26-2.65.21.21,0,0,1,.39,0C82.27,83.65,81.7,84.7,81.34,85.56Z"/><path class="cls-3" d="M80.81,100.25c2.31-2.82,4.53-5,5.54-8.62a.33.33,0,0,1,.63,0c.79,3.34-3,7.53-5.37,9.4A.56.56,0,0,1,80.81,100.25Z"/><path class="cls-3" d="M72.94,99.78c.94-.67,2-1.17,2.89-1.89.76-.59,1.43-1.65,2.29-2.07a.25.25,0,0,1,.37.22c0,1-1.22,2-1.86,2.64-.92.88-2.13,1.95-3.48,1.9A.43.43,0,0,1,72.94,99.78Z"/><path class="cls-3" d="M78.55,76.05c.7-.83,1.48-1.58,2.12-2.46A5.5,5.5,0,0,0,81.48,72a5.24,5.24,0,0,1,.37-1.26.17.17,0,0,1,.26,0c.76.74.15,2.13-.24,2.92a9.51,9.51,0,0,1-2.64,3.07A.47.47,0,0,1,78.55,76.05Z"/><path class="cls-3" d="M50,105.75a30.64,30.64,0,0,0,3.88,1,12.32,12.32,0,0,0,1.72.11,1.9,1.9,0,0,1,1.06.14.27.27,0,0,1,.06.42c-.58.74-2.36.48-3.16.41a7.45,7.45,0,0,1-4-1.29C49.21,106.23,49.6,105.64,50,105.75Z"/><path class="cls-3" d="M19.84,85.26a30.23,30.23,0,0,1,2.76,2.9,7.21,7.21,0,0,1,1.72,2.78c.08.28-.3.4-.45.19a19.3,19.3,0,0,0-2.58-2.84,9.45,9.45,0,0,1-2.2-2.44A.48.48,0,0,1,19.84,85.26Z"/><path class="cls-3" d="M36.13,99.31a6.8,6.8,0,0,1,3.46,1.6,11.58,11.58,0,0,1,3.16,2.55.18.18,0,0,1-.15.25c-1,0-2-.85-2.89-1.39-1.23-.79-2.6-1.29-3.84-2A.52.52,0,0,1,36.13,99.31Z"/><path class="cls-3" d="M28.5,90.69a19,19,0,0,1,2.83,2.48,21.34,21.34,0,0,1,2.51,2.52c.44.56-.46,1.18-1,.74q-1.26-1.16-2.52-2.28a12.42,12.42,0,0,1-2.65-2.67A.58.58,0,0,1,28.5,90.69Z"/><path class="cls-3" d="M40,92.49a4.37,4.37,0,0,1,3.36.6,10.69,10.69,0,0,1,3,1.86.16.16,0,0,1-.07.25c-.87.2-1.75-.43-2.52-.79a10.84,10.84,0,0,0-3.68-1.12A.41.41,0,0,1,40,92.49Z"/><path class="cls-3" d="M38.6,96.19a6.43,6.43,0,0,1,3,1.22,2.77,2.77,0,0,1,1,.85,1,1,0,0,1,.07.72.15.15,0,0,1-.25.1L42,98.89c-.36-.21-.69-.46-1.06-.66-.82-.45-1.73-.72-2.56-1.16A.47.47,0,0,1,38.6,96.19Z"/><path class="cls-3" d="M93,145.86c-.84.74-1.64,1.5-2.5,2.21a.33.33,0,0,1-.44-.48,16.31,16.31,0,0,1,5-4,.18.18,0,0,1,.21.29C94.61,144.62,93.78,145.2,93,145.86Z"/><path class="cls-3" d="M85.6,143.63c-2.22,1.3-3.55,3.26-5.26,5.1-.29.31-.81-.12-.57-.47,1.39-2,3.22-4.34,5.67-5C85.7,143.13,85.82,143.5,85.6,143.63Z"/><path class="cls-3" d="M80,142.58c-.95,1-1.87,2.12-2.74,3.22a.36.36,0,0,1-.6-.38,17.92,17.92,0,0,1,2.52-3.17,8.87,8.87,0,0,1,2.92-2.36.19.19,0,0,1,.2.28A18.7,18.7,0,0,1,80,142.58Z"/><path class="cls-3" d="M95.29,136.73a16.61,16.61,0,0,0-2.9,2.53c-1.07,1.07-2.14,2.16-3.16,3.28-.24.26-.69-.11-.48-.4,1.62-2.2,3.78-4.71,6.36-5.75A.19.19,0,0,1,95.29,136.73Z"/><path class="cls-3" d="M85.74,137.37a.32.32,0,0,1-.54-.34,13.15,13.15,0,0,1,7.91-5.95.19.19,0,0,1,.13.35C90.56,133.21,87.62,134.63,85.74,137.37Z"/><path class="cls-3" d="M67.71,154.27a.4.4,0,0,1-.55-.59,67.47,67.47,0,0,1,5.47-5.49c.29-.25.78.12.53.45A30.91,30.91,0,0,1,67.71,154.27Z"/><path class="cls-3" d="M70.72,158.28c-.22.24-.62-.1-.44-.36a31.33,31.33,0,0,1,4.79-6.07c.19-.17.51.07.35.29A70.2,70.2,0,0,1,70.72,158.28Z"/><path class="cls-3" d="M88.48,82.43c.44-.27.77.35.49.69-1.59,1.86-1.61,3.94-2,6.23a.5.5,0,0,1-1,0C85.73,87,86.34,83.79,88.48,82.43Z"/><path class="cls-3" d="M98.73,79c-.1,0,0-.19.07-.16,1.2.29.7,1.75.48,2.6-.52,2-1.46,4-1.89,6-.11.5-.82.31-.84-.15C96.5,86.16,99.52,79.4,98.73,79Z"/><path class="cls-3" d="M88,163.59a22.77,22.77,0,0,0,7.47-2.26.16.16,0,0,1,.21.22,6.08,6.08,0,0,1-3.06,1.94,10.3,10.3,0,0,1-4.64.79A.35.35,0,0,1,88,163.59Z"/><path class="cls-3" d="M64.55,162.12a29.67,29.67,0,0,1-2.22,2.9c-.29.33-.82-.13-.59-.49.72-1.1,1.5-2.14,2.3-3.18a11,11,0,0,1,2.36-2.64c.22-.15.41.15.31.34A21.52,21.52,0,0,1,64.55,162.12Z"/><path class="cls-3" d="M91.29,73c-1.56,2.69-3.56,5-4.76,7.88a.54.54,0,0,1-1-.32c.62-3.19,3.07-5.56,4.78-8.2A.6.6,0,0,1,91.29,73Z"/><path class="cls-3" d="M99.45,147.53a6.09,6.09,0,0,0,.51-.84c0-.12.21-.12.2,0a6.52,6.52,0,0,1-1.22,3,14.17,14.17,0,0,1-3.41,4c-.29.21-.67-.17-.39-.43a24.57,24.57,0,0,0,3.21-4C98.75,148.73,99.11,148.14,99.45,147.53Z"/><path class="cls-3" d="M99.19,92.94l.13,0a.62.62,0,0,1,.46.16.46.46,0,0,1,.45.24,1.71,1.71,0,0,1,.2.18,1.93,1.93,0,0,1,.22,1.54.72.72,0,0,1-1.24.46,2.12,2.12,0,0,0-.43-.35,1.64,1.64,0,0,1-.35-.29,1.05,1.05,0,0,1-.16-1c0-.07-.07-.15-.1-.23C98.19,93.22,98.76,92.8,99.19,92.94Z"/><path class="cls-3" d="M167.33,217.45c1.81,1.73,1.25,5.63.52,7.73-.16.46-.95.37-.87-.15.17-1.12.38-2.23.48-3.36a16.79,16.79,0,0,0-.44-4.06A.18.18,0,0,1,167.33,217.45Z"/><path class="cls-3" d="M168.35,212.69c-1-2-2.73-2.73-4.59-3.76a.52.52,0,0,1,.3-1,7.11,7.11,0,0,1,5.34,4.14C169.73,212.82,168.7,213.38,168.35,212.69Z"/><path class="cls-3" d="M161.65,226.47a6,6,0,0,1,.32-2.1,8.77,8.77,0,0,0,.24-2.75c-.06-.78,1.15-.72,1.22,0a9.29,9.29,0,0,1-.84,5C162.38,227,161.7,226.92,161.65,226.47Z"/><path class="cls-3" d="M164.15,234.19a14.89,14.89,0,0,0,1-2.1,2.45,2.45,0,0,1,.58-1.12.35.35,0,0,1,.54.09c.44.93-.24,2.18-.65,3a14.94,14.94,0,0,1-2.77,4.11c-.43.43-1.11-.17-.8-.67C162.74,236.42,163.49,235.33,164.15,234.19Z"/><path class="cls-3" d="M148.92,81.56c1,.56,1.81,1.26,2.72,1.89s1.88,1.08,2.73,1.74a.28.28,0,0,1-.24.5,13.31,13.31,0,0,1-5.73-3.5C148.06,81.85,148.53,81.32,148.92,81.56Z"/><path class="cls-3" d="M159.75,204.61a.3.3,0,0,1-.58.06c-.09-.4-1.33-1.13-1.78-1.39-.91-.53-1.95-.84-2.82-1.42a.5.5,0,0,1,.28-.91,7.45,7.45,0,0,1,3.36,1.49C159,203,159.81,203.59,159.75,204.61Z"/><path class="cls-3" d="M171.17,209.59c-1.08-.74-2.24-1.35-3.34-2.07a.45.45,0,0,1,.37-.8,9.32,9.32,0,0,1,3.19,1.86c.68.5,1.92,1.11,2.15,2a.11.11,0,0,1-.09.14C172.63,210.84,171.81,210,171.17,209.59Z"/><path class="cls-3" d="M171.08,214.79c1.17.27,1.62,1.92,1.84,2.94a7.19,7.19,0,0,1-.47,4.39.46.46,0,0,1-.87-.28,11,11,0,0,0,.33-3.87c-.13-1.11-.85-1.93-1.08-2.95A.2.2,0,0,1,171.08,214.79Z"/><path class="cls-3" d="M161.11,200.8c-.84-.61-1.64-1.28-2.52-1.85s-1.73-.86-2.6-1.31c-.43-.22-.15-.81.26-.83,2-.1,4.15,1.95,5.41,3.33.37.41-.19.87-.54.65Z"/><path class="cls-3" d="M155.46,211.73c1.3-.1,2.4,1,3.19,1.88a6.72,6.72,0,0,1,1.91,3.72c0,.27-.4.44-.56.21-.71-.95-1.21-2-2-2.93a9.19,9.19,0,0,0-2.8-2.07C154.78,212.31,155.07,211.76,155.46,211.73Z"/><path class="cls-3" d="M153.92,206.1c2.41-.06,4.91,2.16,5.7,4.3.25.69-.94,1.14-1.2.46a5.07,5.07,0,0,0-2-2.4c-.87-.59-1.92-.81-2.79-1.37A.54.54,0,0,1,153.92,206.1Z"/><path class="cls-3" d="M161.82,230.32c.14,1.82-1.28,4.13-2.68,5.19a.43.43,0,0,1-.66-.55c.45-.79,1-1.48,1.52-2.25s.81-1.72,1.25-2.56C161.41,229.85,161.79,230.05,161.82,230.32Z"/><path class="cls-3" d="M145.52,200.91a28,28,0,0,1,4.13,1.51c1.14.54,2.14,1.29,2.15,2.65a.33.33,0,0,1-.65.06c-.64-2.33-4.4-2.11-6-3.39A.46.46,0,0,1,145.52,200.91Z"/><path class="cls-3" d="M162,212.69a10.65,10.65,0,0,1,2.71,1.67,5.51,5.51,0,0,1,1.82,1.77.35.35,0,0,1-.49.45,20.17,20.17,0,0,1-1.9-1.32c-.83-.58-1.73-1.08-2.53-1.71C161.23,213.24,161.48,212.5,162,212.69Z"/><path class="cls-3" d="M154.6,195.08c-.87.23-1.84-.55-2.61-.94a8.37,8.37,0,0,0-5.2-1,.47.47,0,0,1-.42-.79c1.29-1.41,3.68-.4,5.11.26,1,.47,2.88,1.19,3.21,2.32A.13.13,0,0,1,154.6,195.08Z"/><path class="cls-3" d="M150.26,198.58a34.4,34.4,0,0,1-3.77-1.19c-.52-.24-.2-1,.31-1a13,13,0,0,1,3.84,1c.68.24,1.34.53,2,.82a10.09,10.09,0,0,0,1.44.77v0a.42.42,0,0,1,.23.16l0,0c.23.34-.18.77-.53.65l-.5-.18-.12,0a0,0,0,0,1,0-.07C152.17,199.27,151.23,198.9,150.26,198.58Z"/><path class="cls-3" d="M144.23,108a0,0,0,0,1,.09,0c.46,2.32-.6,5.41-1.54,7.5-.15.32-.65.18-.53-.16C143.1,112.88,143.46,110.36,144.23,108Z"/><path class="cls-3" d="M98.44,155.89a19.29,19.29,0,0,0,1.79-3,.12.12,0,0,1,.22,0,4.42,4.42,0,0,1-1,2.9,8.77,8.77,0,0,1-2.86,2.76c-.33.21-.71-.31-.4-.55A16.87,16.87,0,0,0,98.44,155.89Z"/><path class="cls-3" d="M141.42,87.36c2.1,1.67,1.9,4.72,1.75,7.12a.24.24,0,0,1-.47,0c0-2.31.15-5.08-1.41-7C141.21,87.43,141.32,87.28,141.42,87.36Z"/><path class="cls-3" d="M143.63,199.34a22,22,0,0,0-6.81-2.09c-.48-.05-.61-.77-.09-.87a8,8,0,0,1,4.18.7,7.41,7.41,0,0,1,3,1.77C144.12,199.05,143.92,199.47,143.63,199.34Z"/><path class="cls-3" d="M146,90.57c.83,2.78.47,5.92,0,8.73-.05.28-.54.2-.5-.09.32-2.88.2-5.72.26-8.62A.14.14,0,0,1,146,90.57Z"/><path class="cls-3" d="M137.73,115.61c.71-2.47,1.35-5.4,2.69-7.61a.14.14,0,0,1,.26.08,33,33,0,0,1-2.36,7.72A.31.31,0,0,1,137.73,115.61Z"/><path class="cls-3" d="M146,85c2,1.25,3.56,3,5.61,4.1.28.16.06.54-.22.48-2.3-.51-4.12-2.55-5.85-4C145.18,85.26,145.61,84.77,146,85Z"/><path class="cls-3" d="M134.75,175.18a12,12,0,0,1,.15-7.38c.1-.25.51-.22.49.08a64.62,64.62,0,0,0,.13,7.23C135.55,175.56,134.85,175.6,134.75,175.18Z"/><path class="cls-3" d="M143.86,193.33a26.48,26.48,0,0,0-3.08-.87,12.4,12.4,0,0,0-3.69.29.43.43,0,0,1-.2-.83c2.05-.72,5.7-.9,7.24,1h0A.26.26,0,0,1,143.86,193.33Z"/><path class="cls-3" d="M135.54,156.07c-.06-.59-.09-1.18-.13-1.78a6.33,6.33,0,0,1,.15-.84.1.1,0,0,1,.19,0c.06.21.25.37.32.61a18.57,18.57,0,0,1,.3,1.84c.17,1.28.35,2.55.43,3.84,0,.43-.63.46-.73.07A24.51,24.51,0,0,1,135.54,156.07Z"/><path class="cls-3" d="M137.54,163.57c1.37.14,1.68,2.15,1.88,3.26.32,1.77.45,4.07-.89,5.46-.37.38-.88-.14-.67-.56a9.39,9.39,0,0,0-.47-7.93C137.32,163.71,137.42,163.56,137.54,163.57Z"/><path class="cls-3" d="M136.13,130a42.73,42.73,0,0,0,1.4-10,.09.09,0,0,1,.17,0c1.53,2.82.32,7.55-.82,10.33A.39.39,0,0,1,136.13,130Z"/><path class="cls-3" d="M136.05,146.9a18.66,18.66,0,0,0,0-8.57.15.15,0,0,1,.28-.11c1.63,2.54,1.36,6.17.39,8.9A.36.36,0,0,1,136.05,146.9Z"/><path class="cls-3" d="M142,98.12c2.25.4.83,4.43.42,5.72a.34.34,0,0,1-.65-.2c.29-1.34,1.5-4.24.11-5.26A.15.15,0,0,1,142,98.12Z"/><path class="cls-3" d="M115.09,153.5c-.07-.18.21-.27.31-.11,1.54,2.57-1.17,5.89-.85,8.66,0,.46-.61.65-.72.17a7,7,0,0,1,.33-3.69C114.62,157,115.64,155.11,115.09,153.5Z"/><path class="cls-3" d="M112.77,148.22a.25.25,0,0,1,.41.26c-.2.91-.57,1.79-.78,2.71-.27,1.28-.43,2.6-.57,3.89a.38.38,0,0,1-.75,0,16.85,16.85,0,0,1,.45-3.74C111.74,150.35,112,148.91,112.77,148.22Z"/><path class="cls-3" d="M111.49,102.8a30.74,30.74,0,0,1-1.14,6c0,.23-.45.16-.42-.07.3-2,1-3.92,1.29-5.93A.14.14,0,0,1,111.49,102.8Z"/><path class="cls-3" d="M114,133.51c0,.32-.47.29-.5,0a23.62,23.62,0,0,1,.81-6.74.19.19,0,0,1,.37.06A53.93,53.93,0,0,0,114,133.51Z"/><path class="cls-3" d="M116.76,73.22c.07-.26.45-.17.46.08a29.34,29.34,0,0,1-.32,5.46c-.06.35-.58.36-.56,0A30,30,0,0,1,116.76,73.22Z"/><path class="cls-3" d="M113.2,139.31a32.4,32.4,0,0,0-1,4.34.35.35,0,0,1-.7,0,19,19,0,0,1,1.08-5.15c.16-.55.46-2.29,1.26-2.35a.1.1,0,0,1,.08,0l0,0c.05.07-.06.17-.13.11C114.23,136.64,113.3,138.9,113.2,139.31Z"/><path class="cls-3" d="M110.23,76.94a47.42,47.42,0,0,0,1.27-5.67c0-.26.43-.34.49,0,.36,2-.46,4.09-1.13,5.92A.33.33,0,0,1,110.23,76.94Z"/><path class="cls-3" d="M113.42,111.08a80,80,0,0,0-2.37,9.38c-.45,3-.43,6-.6,9a.48.48,0,0,1-1,0c-.44-6,.35-13.33,3.38-18.61A.3.3,0,0,1,113.42,111.08Z"/><path class="cls-3" d="M104.1,126.77a21.86,21.86,0,0,0-.95,4.6.29.29,0,0,1-.58,0,15.35,15.35,0,0,1,.87-4.79A.35.35,0,0,1,104.1,126.77Z"/><path class="cls-3" d="M99.15,142.34c.71-2.21,1.55-4.43,2.36-6.6a.2.2,0,0,1,.38.07c0,2.28-1.21,4.68-2.11,6.73C99.61,142.92,99,142.75,99.15,142.34Z"/><path class="cls-3" d="M107.16,147c-.17,2.35-1.34,4.68-1.84,7-.07.34-.64.24-.6-.11a19.84,19.84,0,0,1,2.18-7A.14.14,0,0,1,107.16,147Z"/><path class="cls-3" d="M103.7,121.68a20.6,20.6,0,0,1,1.78-7c.1-.27.53-.14.43.13a28.07,28.07,0,0,0-1.71,6.85A.25.25,0,0,1,103.7,121.68Z"/><path class="cls-3" d="M108.08,136.89c-1.23,2.15-1.67,4.51-2.36,6.86-.13.42-.71.21-.64-.2.42-2.36,1-5.1,2.65-6.94C107.91,136.41,108.2,136.68,108.08,136.89Z"/><path class="cls-3" d="M105.54,110.8a25.43,25.43,0,0,1,1-6.77c.11-.37.66-.19.57.18a49.22,49.22,0,0,0-1,6.61A.3.3,0,0,1,105.54,110.8Z"/><path class="cls-3" d="M123.21,133.67a8.72,8.72,0,0,1,.22,2.6,22.16,22.16,0,0,1-.11,3,.34.34,0,0,1-.68,0,45,45,0,0,1,.08-5.57A.25.25,0,0,1,123.21,133.67Z"/><path class="cls-3" d="M122.8,178.88a.25.25,0,0,1,.42-.16c1.07,1.12,1.33,3,1.64,4.47a27.25,27.25,0,0,1,.78,5.75.47.47,0,0,1-.93.09c-.44-1.83-.58-3.73-.91-5.58A37,37,0,0,1,122.8,178.88Z"/><path class="cls-3" d="M125.77,191.42a20.12,20.12,0,0,1,3,6c.14.51-.55.7-.82.31-1.22-1.8-1.94-3.94-3.08-5.8C124.52,191.34,125.41,190.9,125.77,191.42Z"/><path class="cls-3" d="M122.12,193.62a28.39,28.39,0,0,0,2.11,5c.22.45-.42,1-.76.54a15.08,15.08,0,0,1-2.57-5.24C120.69,193.13,121.91,192.84,122.12,193.62Z"/><path class="cls-3" d="M129.1,200.59a13.28,13.28,0,0,1,4.14,2c.64.41,2.2,1.22,1.61,2.16,0,.05-.12,0-.1,0,.07-.21-2.54-1.55-2.74-1.66-1.09-.58-2.22-1-3.28-1.66C128.28,201.11,128.64,200.49,129.1,200.59Z"/><path class="cls-3" d="M135.21,200.49a7.83,7.83,0,0,1,4.13,1.32c.92.5,1.76,1.06,1.84,2.13,0,.13-.17.14-.23.05s-.76-.47-1-.61a9.56,9.56,0,0,0-1.63-.89,14.94,14.94,0,0,0-3.31-1C134.45,201.33,134.69,200.52,135.21,200.49Z"/><path class="cls-3" d="M123.19,141.63c1.35,2.81.83,6.3.25,9.25-.08.45-.8.31-.78-.14.21-3.06.69-5.83-.1-8.87A.34.34,0,0,1,123.19,141.63Z"/><path class="cls-3" d="M120.22,162.86a43.88,43.88,0,0,1,.69-7c.09-.59,1-.58,1,0-.3,2.31-.58,4.63-.81,6.94A.42.42,0,0,1,120.22,162.86Z"/><path class="cls-3" d="M116.46,189.44c1.15,2.09,1.56,4.59,2.61,6.75a.45.45,0,0,1-.79.42,16.21,16.21,0,0,1-2.41-7C115.85,189.26,116.32,189.19,116.46,189.44Z"/><path class="cls-3" d="M119,133.09c.75.36.3,1.77.19,2.39-.3,1.71-.72,3.42-.87,5.15,0,.43-.72.55-.78.08a12.9,12.9,0,0,1,.61-5.11C118.25,135.32,118.47,132.82,119,133.09Z"/><path class="cls-3" d="M143.65,204.56c1.84.32,5.33,1.87,5.17,4.13,0,.18-.26.31-.38.15-1.35-1.74-3.11-2.51-5.08-3.37A.48.48,0,0,1,143.65,204.56Z"/><path class="cls-3" d="M115.14,179.34a27.89,27.89,0,0,1,.68,5.76.47.47,0,0,1-.93.09,41,41,0,0,1-.49-4.14c0-.26-.54-3-.25-3.11a.12.12,0,0,1-.11-.21C114.65,177.25,115.09,179.1,115.14,179.34Z"/><path class="cls-3" d="M119.29,186.6c-.35-2.7.11-6.09-1.84-8.27a.55.55,0,0,1,.8-.75c2.23,2.2,2.13,6,2,8.92C120.26,187.05,119.37,187.17,119.29,186.6Z"/><path class="cls-3" d="M115.22,165.5c.14-.09.3.08.26.22a21,21,0,0,0-1,3.71,24.37,24.37,0,0,0,.16,4.18c0,.48-.73.53-.83.08C113.37,171.43,112.9,167,115.22,165.5Z"/><path class="cls-3" d="M101.13,63.48c-.3.28-.67-.16-.42-.46a33.92,33.92,0,0,1,4.17-4.47c.23-.18.61.08.42.35A31.24,31.24,0,0,1,101.13,63.48Z"/><path class="cls-3" d="M108.16,68.16A17,17,0,0,1,105.55,75c-.19.33-.64,0-.48-.3a23.76,23.76,0,0,0,2.52-6.57C107.65,67.79,108.2,67.79,108.16,68.16Z"/><path class="cls-3" d="M103.26,30.59a17.74,17.74,0,0,0,2.06.08,6.09,6.09,0,0,0,2-.78.37.37,0,0,1,.43.6c-1.12,1-3.38,2.08-4.77,1A.48.48,0,0,1,103.26,30.59Z"/><path class="cls-3" d="M99.56,73.81c.79-1,1.55-2,2.24-3a26.38,26.38,0,0,1,1.83-2.91.16.16,0,0,1,.26.13c-.24,2.25-2.15,4.77-3.78,6.26C99.82,74.54,99.29,74.14,99.56,73.81Z"/><path class="cls-3" d="M107.55,64.09a.37.37,0,0,1-.71-.22,25.13,25.13,0,0,1,1.51-5.26c.2-.44.91-.25.73.23C108.44,60.55,108.22,62.38,107.55,64.09Z"/><path class="cls-3" d="M100.41,113.35a43.27,43.27,0,0,1,1.17-6.29c.14-.54,1-.28.82.25-.57,2-.89,4.1-1.3,6.16C101,113.86,100.36,113.74,100.41,113.35Z"/><path class="cls-3" d="M100.5,126.3c-.23,1.84-.49,3.7-.9,5.51-.07.27-.53.19-.49-.09.24-1.84.63-3.67,1-5.49C100.16,126,100.52,126.08,100.5,126.3Z"/><path class="cls-3" d="M95.08,31.19s-.15.16-.26.2a4.92,4.92,0,0,1-1,.22,7.4,7.4,0,0,1-2,.2.34.34,0,0,1-.07-.66,8.71,8.71,0,0,1,2-.26c.32,0,.63-.05,1,0,.14,0,.38.15.33.14S95.18,31.14,95.08,31.19Z"/><path class="cls-3" d="M90.14,30.75a5.12,5.12,0,0,1-1.33.25.39.39,0,0,1-.25-.66,2.36,2.36,0,0,1,1.26-.41A4.23,4.23,0,0,1,91,29.84a.27.27,0,0,1,.15.39C91,30.56,90.46,30.66,90.14,30.75Z"/><path class="cls-3" d="M99.56,30.43c-.75.27-1.52.5-2.29.71a.31.31,0,0,1-.28-.52,4.28,4.28,0,0,1,1.81-.68,9.76,9.76,0,0,0,1-.32,2.56,2.56,0,0,1,.64-.27h0a.18.18,0,0,1,.19.14C100.78,30,99.91,30.3,99.56,30.43Z"/><path class="cls-3" d="M99,28.89a28.91,28.91,0,0,1-3.44.64c-.35,0-.6-.44-.24-.62a17.28,17.28,0,0,1,3.5-.81A.41.41,0,0,1,99,28.89Z"/><path class="cls-3" d="M92.53,33.19a.38.38,0,0,1,0-.72,4.49,4.49,0,0,1,1.32,0,6.44,6.44,0,0,0,.76,0c.17,0,.34-.1.5-.08a.26.26,0,0,1,.25.15c.24.59-.63.76-1,.8A4.72,4.72,0,0,1,92.53,33.19Z"/><path class="cls-3" d="M99.23,34.11a10.21,10.21,0,0,0,1.46-.08,4.2,4.2,0,0,1,1.5,0,.18.18,0,0,1,0,.32,4.84,4.84,0,0,1-3,.36C98.86,34.63,98.85,34.1,99.23,34.11Z"/><path class="cls-3" d="M97,34.25c.26.06.23.4,0,.52a4.78,4.78,0,0,1-2.23.34,4.73,4.73,0,0,1-2.77-.54.4.4,0,0,1,.22-.74c.87.08,1.71.29,2.58.35A14,14,0,0,1,97,34.25Z"/><path class="cls-3" d="M89.82,32.66a4.33,4.33,0,0,1-3.26.25.4.4,0,0,1,.13-.77,10.48,10.48,0,0,1,1.48.07c.52,0,1,0,1.54,0A.24.24,0,0,1,89.82,32.66Z"/><path class="cls-3" d="M86.64,33.61a7.68,7.68,0,0,1,1.65.27,4.71,4.71,0,0,1,1.49.52c.24.17.23.63-.11.67a4.7,4.7,0,0,1-1.49-.16,8.1,8.1,0,0,1-1.68-.49A.42.42,0,0,1,86.64,33.61Z"/><path class="cls-3" d="M101.11,32.29c-1.25.45-2.9.92-4.11.17a.45.45,0,0,1,.13-.8,16.48,16.48,0,0,1,1.72-.06,7.24,7.24,0,0,0,2-.44C101.57,30.92,101.81,32,101.11,32.29Z"/><path class="cls-3" d="M79.94,32.24a7.39,7.39,0,0,1-3.4-.31.44.44,0,0,1,.15-.86,17,17,0,0,1,1.75.14,6.56,6.56,0,0,1,1.53.28C80.3,31.61,80.36,32.19,79.94,32.24Z"/><path class="cls-3" d="M72.26,32.65a.45.45,0,0,1,.26-.83,7.2,7.2,0,0,1,1.22.19,7.34,7.34,0,0,1,1.24.12.25.25,0,0,1,.13.36C74.58,33.33,73,33.18,72.26,32.65Z"/><path class="cls-3" d="M69.09,90.43A12.94,12.94,0,0,1,64,94c-.52.21-.79-.52-.51-.86,1.28-1.53,3.5-2,4.91-3.44C68.83,89.21,69.5,89.92,69.09,90.43Z"/><path class="cls-3" d="M88.67,67.87a13,13,0,0,1-3.78,5c-.43.36-.91-.24-.75-.66.74-1.85,2.71-3,3.6-4.79C88,66.8,88.9,67.26,88.67,67.87Z"/><path class="cls-3" d="M83.42,32.44A2.41,2.41,0,0,1,82,32.32a.43.43,0,0,1,.13-.78,7.48,7.48,0,0,1,1.34-.05c.34,0,1.05-.07,1.24.3a.35.35,0,0,1,0,.33C84.45,32.45,83.78,32.4,83.42,32.44Z"/><path class="cls-3" d="M140.52,144.61a5.28,5.28,0,0,1,.85,3c.11,1.59.13,3.18.1,4.77,0,.33-.54.39-.58.06a31.53,31.53,0,0,1-.09-3.89c0-1.34-.34-2.61-.42-3.92A.08.08,0,0,1,140.52,144.61Z"/><path class="cls-3" d="M77,33.13a7.75,7.75,0,0,1,1.35.3,5.69,5.69,0,0,1,1.2.29.37.37,0,0,1,.12.52c-.32.41-.94.29-1.39.25a2.74,2.74,0,0,1-1.64-.57A.47.47,0,0,1,77,33.13Z"/><path class="cls-3" d="M84.1,33.8a.37.37,0,0,1,.08.36.34.34,0,0,1-.15.2c-.27.19-.87-.11-1.15-.18a3.11,3.11,0,0,1-1.34-.62.42.42,0,0,1,.31-.7A3.85,3.85,0,0,1,84.1,33.8Z"/><path class="cls-3" d="M38.09,103.88a31.25,31.25,0,0,1,3,2.31,15.9,15.9,0,0,0,4.12,2c.17.06.22.36,0,.39l-.28,0a58.53,58.53,0,0,1-7.52-4.22C37.28,104,37.75,103.69,38.09,103.88Z"/><path class="cls-3" d="M57,168.32l0,.05Z"/><path class="cls-3" d="M57.93,166.27c-.3.63-.58,1.24-.85,1.86A7.8,7.8,0,0,1,57.93,166.27Z"/><path class="cls-3" d="M58.1,214c.23-.54,1.1-.28.89.28a5.92,5.92,0,0,1-4,3.63.42.42,0,0,1-.29-.78h0a4.22,4.22,0,0,0,.86-.5h0A5.67,5.67,0,0,0,58.1,214Z"/><path class="cls-3" d="M37.75,224.71a.37.37,0,0,1,0-.73,14.26,14.26,0,0,0,6.66-1.87c.22-.13.53.17.35.39C43.22,224.39,40.06,225,37.75,224.71Z"/><path class="cls-3" d="M93.67,90.62c.32,2.6-.55,5.06-.32,7.6-.42-.4-.84-.8-1.26-1.18,0-2.08.71-4.16,1-6.36C93.1,90.36,93.62,90.26,93.67,90.62Z"/><path class="cls-3" d="M74.08,76.41a25.17,25.17,0,0,0-4.79,4.37.5.5,0,0,1-.83-.47c.92-2.31,3.05-3.58,5-4.94C74.13,74.93,74.67,76,74.08,76.41Z"/><path class="cls-3" d="M96.93,97.18c.12-.21.39-.07.41.13a27.55,27.55,0,0,0,.27,3.27c.2,1,.58,1.88.75,2.86a.55.55,0,0,1,0,.26,23.92,23.92,0,0,0-1.69-2.11A6,6,0,0,1,96.93,97.18Z"/><path class="cls-3" d="M52.06,88a13.11,13.11,0,0,0-9.26-2.1.5.5,0,0,1-.25-1A9.81,9.81,0,0,1,48.3,85c1.48.37,3.45,1,4.33,2.37A.43.43,0,0,1,52.06,88Z"/><path class="cls-3" d="M45.07,89.69a7.49,7.49,0,0,1,3.79.52,16,16,0,0,1,4.19,1.62c.18.13.19.46-.07.51-1.21.27-2.59-.34-3.74-.69-1.38-.42-2.77-.59-4.17-.9A.55.55,0,0,1,45.07,89.69Z"/><path class="cls-3" d="M63.69,87.29a47.68,47.68,0,0,0-3.38,3.44c-.44.51-1.09-.12-.87-.65.59-1.42,2-2.44,3.1-3.43q.83-.72,1.68-1.41c.16-.14,1-.67.89-.51a.29.29,0,0,1,.51.29A6.81,6.81,0,0,1,63.69,87.29Z"/><path class="cls-3" d="M40.59,87.92a3.84,3.84,0,0,1-1.27-.19c-.74-.26-1.45-.59-2.16-.91s-1.42-.64-2.13-1c-.53-.24-1.22-.39-1.55-.9a.53.53,0,0,1,.32-.77,2.07,2.07,0,0,1,1.39.36c.76.36,1.52.75,2.27,1.14s1.34.68,2,1c.42.24.83.61,1.22.83A.19.19,0,0,1,40.59,87.92Z"/><path class="cls-3" d="M59,95.42c-.66.59-2.06.46-2.9.55-1.63.19-3.14.76-4.74,1a.49.49,0,0,1-.37-.89c1.17-.86,2.88-.94,4.28-1.09,1-.11,2.83-.54,3.68.06A.22.22,0,0,1,59,95.42Z"/><path class="cls-3" d="M73.67,93a6.54,6.54,0,0,1-2.37,2.12,7.41,7.41,0,0,1-3.21,1.32.53.53,0,0,1-.38-.9c1.45-1.26,3.73-1.48,4.87-3.15C73,91.73,74.07,92.29,73.67,93Z"/><path class="cls-3" d="M57.28,99.31a25.44,25.44,0,0,0,4.18-1.66c.46-.23,1.72-1,2.21-.4.16.19-.05.52-.28.37,0,0-2.44,1.57-2.63,1.67-1,.56-2.27,1.25-3.48,1C56.75,100.21,56.82,99.45,57.28,99.31Z"/><path class="cls-3" d="M45.07,227.07a11.56,11.56,0,0,1-3.2.8c-.45,0-.49-.66-.08-.76l3.09-.84a6.06,6.06,0,0,1,2.54-.44.11.11,0,0,1,0,.21A9.66,9.66,0,0,1,45.07,227.07Z"/><path class="cls-3" d="M36.87,221.08l-1.09.5Z"/><path class="cls-3" d="M51.87,220.65a12,12,0,0,1-3.8,1,.38.38,0,0,1-.08-.74c1-.22,2-.52,3-.82.52-.16,1-.34,1.53-.53a4.7,4.7,0,0,0,1.2-.45c.15-.14.36.05.27.23C53.62,220.07,52.63,220.35,51.87,220.65Z"/><path class="cls-3" d="M31.12,83a8.73,8.73,0,0,1-4.41-3.28.5.5,0,0,1,.67-.68,12.57,12.57,0,0,1,1.89,1.61,11.64,11.64,0,0,0,2.19,1.5A.46.46,0,0,1,31.12,83Z"/><path class="cls-3" d="M71.86,81.81c.11-.17.77-.75.79-.9,0-.32.5-.25.58,0,.26.78-.7,1.87-1.07,2.45-.77,1.23-1.57,2.44-2.33,3.67a.49.49,0,0,1-.89-.36,9.15,9.15,0,0,1,1.75-3.21Z"/><path class="cls-3" d="M54,223.09a13.76,13.76,0,0,1-5.16,1.8.41.41,0,0,1-.2-.8,29.38,29.38,0,0,0,4.93-1.81C54.06,222,54.47,222.78,54,223.09Z"/><path class="cls-3" d="M22.56,81.82c-.24-.38.22-.77.58-.59a8.17,8.17,0,0,1,2.17,2c.37.41.74.81,1.14,1.2l.55.51c.18.18.19.21.16.28a.28.28,0,0,1,.51.2C27.14,87.29,23,82.44,22.56,81.82Z"/><path class="cls-3" d="M32.44,88.28c.53.51,1.09,1,1.64,1.47.3.26,2.29,1.56,1.78,2.1s-2.13-.89-2.6-1.26c-.71-.56-2.64-1.66-2.47-2.72a.47.47,0,0,1,.46-.35C31.75,87.48,32.12,88,32.44,88.28Z"/><path class="cls-3" d="M53.29,228.56a12.62,12.62,0,0,0,5-1.87.16.16,0,0,1,.24.19c-.22.75-1.05,1.14-1.7,1.5a7.15,7.15,0,0,1-2,.75l-1.78-.4s0,0,0,0A.37.37,0,0,1,53.29,228.56Z"/><path class="cls-3" d="M91.6,88.06a13.44,13.44,0,0,0-1.32,5,.48.48,0,0,1-1,.09,8.81,8.81,0,0,1,1-5.49C90.71,86.93,92,87.3,91.6,88.06Z"/><path class="cls-3" d="M100.94,119.09c-.3,1.9-.6,3.79-.77,5.7a.31.31,0,0,1-.62,0,34.17,34.17,0,0,1,.63-5.7C100.26,118.59,101,118.61,100.94,119.09Z"/><path class="cls-3" d="M95.78,71.71a18.37,18.37,0,0,0,5.07-6c.23-.41.8,0,.6.38-1.15,2.44-2.83,5-5.32,6.25A.37.37,0,0,1,95.78,71.71Z"/><path class="cls-3" d="M83.21,87.37c.26-.62,1.31-.19,1.09.44a11.16,11.16,0,0,1-3.65,5.45c-.43.31-1.07-.31-.75-.75A26.2,26.2,0,0,0,83.21,87.37Z"/><path class="cls-3" d="M120.52,10.8c-.19,2.18-.44,5.5-.58,7.47C120.08,16.3,120.33,13,120.52,10.8Z"/><path class="cls-3" d="M97.29,63.28c-1.8,1.11-3,3-5,3.68-.42.13-.65-.52-.27-.71,1.85-.94,3.05-2.77,4.94-3.64A.38.38,0,0,1,97.29,63.28Z"/><path class="cls-3" d="M173.45,101.52c-1.7,2.5-1.94,5.5-2.34,8.41-.06.45-.73.44-.71,0,0-.09,0-.17,0-.25.22-1.18.52-2.61.94-4.51a26.79,26.79,0,0,1,.73-2.65,7.52,7.52,0,0,1,1-1.32C173.24,101,173.62,101.27,173.45,101.52Z"/><path class="cls-3" d="M173.63,139.85a27.87,27.87,0,0,0,2.17-4.25,9.58,9.58,0,0,1,1.66-3c.11-.13.29,0,.26.16-.1.43-.21.87-.34,1.32h0c-.64,1.37-1.23,2.91-1.82,4.38a12,12,0,0,1-1.23,1.81C174,140.69,173.33,140.31,173.63,139.85Z"/><path class="cls-3" d="M79.49,80a21.46,21.46,0,0,1-1.43,3.52,28,28,0,0,1-2,4.44c-.23.34-.87.26-.84-.22a10.85,10.85,0,0,1,1.4-3.92A21,21,0,0,1,79,79.73C79.21,79.51,79.54,79.75,79.49,80Z"/><path class="cls-3" d="M107.45,48.23a43.63,43.63,0,0,1-1.15,4.21c-.29.89-.43,2.24-1.11,2.92a.12.12,0,0,1-.19,0c-.34-.81.13-1.93.35-2.73.35-1.34.79-2.65,1.22-4a8,8,0,0,0,.88-.44h0Z"/><path class="cls-3" d="M78.66,67a18.5,18.5,0,0,1-5.09,5.19.44.44,0,0,1-.54-.69,37.63,37.63,0,0,0,4.61-5.08C78.08,65.79,79.11,66.35,78.66,67Z"/><path class="cls-3" d="M80.67,64.52c-.4.4.23.94.65.68a15,15,0,0,1,3.29-1.72,7.68,7.68,0,0,1,4.35.2c.38.09.46-.43.18-.6C86.36,61.42,82.88,62.35,80.67,64.52Z"/><path class="cls-3" d="M70.62,72c.56.53-.93,1.83-1.23,2.16-1.18,1.3-2.36,2.6-3.46,4-.29.37-.74,0-.76-.33h0c.1-.22.21-.44.3-.66C66.53,75.61,70.07,71.45,70.62,72Z"/><path class="cls-3" d="M101.73,55.21l.13,0h0Z"/><path class="cls-3" d="M116,68.37a34.6,34.6,0,0,1-1.17-7.77c0-.59.88-.54.91,0a52.19,52.19,0,0,0,.94,7.57A.35.35,0,0,1,116,68.37Z"/><path class="cls-3" d="M117.86,49.42c-1.32-1.37-1.22-3.91-1.27-5.68a.38.38,0,0,1,.75-.07,21.81,21.81,0,0,1,.25,2.42,15.58,15.58,0,0,0,.65,3.12A.22.22,0,0,1,117.86,49.42Z"/><path class="cls-3" d="M115.84,55.92c-.15.37,0,.61-.27.91s-.63.24-.67-.11a63.83,63.83,0,0,1-.05-7.32c0-.47.78-.56.84-.08a25.63,25.63,0,0,1,.06,6.55S115.87,55.87,115.84,55.92Z"/><path class="cls-3" d="M119,125.22c0,1.67-.29,3.31-.41,5a.27.27,0,0,1-.54,0c0-1.67.3-3.31.45-5A.25.25,0,0,1,119,125.22Z"/><path class="cls-3" d="M117.87,120.45c.25-2.49.83-4.93,1-7.43a.35.35,0,0,1,.7,0,51.45,51.45,0,0,1-1.07,7.51C118.41,120.9,117.84,120.8,117.87,120.45Z"/><path class="cls-3" d="M109.55,28.2a.46.46,0,0,1-.52-.74,10.35,10.35,0,0,0,1.34-1.54,11.46,11.46,0,0,1,1.11-1.69c.25-.26.59.05.53.34C111.77,25.85,110.82,27.7,109.55,28.2Z"/><path class="cls-3" d="M116,113.91c.3-2.15.84-5,2.37-6.7.06-.07.18,0,.15.1a39.18,39.18,0,0,0-2.12,6.67C116.33,114.21,115.94,114.14,116,113.91Z"/><path class="cls-3" d="M114,97.65c-1.42-5.47-1.1-11.41-.12-16.93.07-.4.73-.28.7.12a88.52,88.52,0,0,0,0,16.68A.29.29,0,0,1,114,97.65Z"/><path class="cls-3" d="M110.94,56.21a.46.46,0,0,1-.77-.49,6.29,6.29,0,0,0,.11-1.33c.1-.76.18-1.53.27-2.3a12.33,12.33,0,0,1,.89-3.79c.19-.4.89-.17.83.26-.21,1.54-.41,3.08-.63,4.62C111.51,54.06,111.53,55.47,110.94,56.21Z"/><path class="cls-3" d="M110.7,65.6c.11-1.61.19-3.21.39-4.8.09-.68,1.16-.65,1.07,0-.21,1.63-.33,3.28-.64,4.9C111.43,66.21,110.67,66.06,110.7,65.6Z"/><path class="cls-3" d="M106.87,26.49a4.09,4.09,0,0,1-1.47,1.33,4.23,4.23,0,0,1-2.32.92.43.43,0,0,1-.27-.74,7.38,7.38,0,0,1,1.91-1,17,17,0,0,0,1.69-1C106.73,25.8,107,26.21,106.87,26.49Z"/><path class="cls-3" d="M170.26,110.48c-.38,2.13-.51,3.42-.86,5.49C169.75,113.9,169.88,112.61,170.26,110.48Z"/><path class="cls-3" d="M104.87,25.05a3.86,3.86,0,0,1-3.23,2.32c-.33,0-.49-.53-.16-.66a6,6,0,0,0,2.81-1.93.33.33,0,0,1,.37-.13s0-.06,0-.09.19,0,.17.08a.2.2,0,0,1,0,.09A.32.32,0,0,1,104.87,25.05Z"/><path class="cls-3" d="M106.45,23.46c-.31.16-.76-.23-.51-.55s.6-.68.85-1a2.81,2.81,0,0,0,.26-.52c0-.13.12-.29.29-.28h0a.3.3,0,0,1,.27.16C108.05,22,107.11,23.13,106.45,23.46Z"/><path class="cls-3" d="M172.34,101.72l-.12.35Z"/><path class="cls-3" d="M174,97.72a34,34,0,0,0-1.66,3.93A33.19,33.19,0,0,1,174,97.72Z"/><path class="cls-3" d="M108.28,24.94c-.36.26-.93,0-.77-.49.35-1.06,1.39-1.87,1.37-3.06a.44.44,0,0,1,.86-.09A4,4,0,0,1,108.28,24.94Z"/><path class="cls-4" d="M102.31,55.23h0Z"/><path class="cls-2" d="M80.83,49.59s-2.28-.23-4.28-.32c.12.29.78-8.61.78-8.61s2.27,6,2.36,6.27S80.83,49.59,80.83,49.59Z"/><path class="cls-2" d="M113.72,29.86c.61-2.95,5.89-1.89,4.81,1.21s-5.53,2.28-4.81-1.21Z"/><path class="cls-2" d="M102.9,26.53A2.63,2.63,0,0,1,105,24.75c1.06-.05,1.76.95,2,1.86a2.68,2.68,0,0,1-1.37,3.09,2.16,2.16,0,0,1-3-1.22A2.43,2.43,0,0,1,102.9,26.53Z"/><path class="cls-5" d="M67,37.49a2.77,2.77,0,0,1-.38-3.1,3.12,3.12,0,0,1,1.19-1.7l0,0c2.23-2.08,4.57.23,5.53,2.46,1.61.07,3.26,1.3,2.69,3.09-.72,2.24-2.9,2.13-4.42,1a2.49,2.49,0,0,1-2.32.38A3,3,0,0,1,68.25,39,3.33,3.33,0,0,1,67,37.49Z"/><path class="cls-5" d="M117.24,29.73a1.11,1.11,0,0,1,.78,1.06,1.14,1.14,0,0,1-.17.62.86.86,0,0,1-.36.39s0,0,0,0a1.11,1.11,0,0,1-1.27.16,1.29,1.29,0,0,1-.57-1.12A1.26,1.26,0,0,1,117.24,29.73Z"/><path class="cls-5" d="M104,27.55a1.37,1.37,0,0,1,2.38-.13,1.1,1.1,0,0,1-.07,1.08,1.46,1.46,0,0,1-.85.61.78.78,0,0,1-1-.12A1.44,1.44,0,0,1,104,27.55Z"/><path class="cls-6" d="M13.58,51.26a6,6,0,0,1,2.07-1.67.31.31,0,0,1,.4.18c.33.69-2.81,4-3.2,4.22-.18.08-.33-.1-.32-.26A5.36,5.36,0,0,1,13.58,51.26Z"/><path class="cls-6" d="M5.23,54.65a4.14,4.14,0,0,1,0-2.8.51.51,0,0,1,.93.12c.23.84.08,1.78.26,2.65a5.53,5.53,0,0,1,.34,2.5.34.34,0,0,1-.57.15A5.5,5.5,0,0,1,5.23,54.65Z"/><path class="cls-6" d="M0,62.57c-.18-.6.77-.85,1-.25a10.88,10.88,0,0,0,1.2,2.56,8.93,8.93,0,0,1,1.27,2.25.2.2,0,0,1-.29.22A9.19,9.19,0,0,1,0,62.57Z"/><path class="cls-6" d="M21.72,52.82A4.54,4.54,0,0,1,24,53.6c.61.3,1.59.65,1.88,1.31.16.38-.22,1-.64.65a9.4,9.4,0,0,0-1.71-.85c-.38-.16-.72-.57-1.09-.72a1.84,1.84,0,0,1-.78-.47C21.34,53.21,21.24,52.9,21.72,52.82Z"/><path class="cls-6" d="M153.47,156.83c.33-.47,1.14-.57,1.64-.79a5.18,5.18,0,0,0,1.87-1c.21-.23.58.1.42.35a4.37,4.37,0,0,1-1.83,1.2c-.51.25-1.49.88-2,.52A.19.19,0,0,1,153.47,156.83Z"/><path class="cls-6" d="M146.79,149.82c1-.77,2.35-.75,3.4-1.41.52-.33.93.4.58.8a3.33,3.33,0,0,1-1.47.87,17.39,17.39,0,0,0-1.8.73C146.9,151.1,146.22,150.27,146.79,149.82Z"/><path class="cls-6" d="M142.25,136.38c.44,0,.63.16,1,.41a16.05,16.05,0,0,0,1.62,1,14.38,14.38,0,0,1,2.63,1.32.25.25,0,0,1-.06.38c-1,.36-2-.23-2.86-.63s-2.56-1-2.69-2A.4.4,0,0,1,142.25,136.38Z"/><path class="cls-6" d="M150.68,130.5a3,3,0,0,1,1.59-2,.21.21,0,0,1,.25.27c-.26.78-.63,1.53-.9,2.32a8,8,0,0,0-.34,1.36c-.06.37-.21.45-.43.7a.26.26,0,0,1-.4-.06C149.94,132.28,150.38,131.32,150.68,130.5Z"/><path class="cls-7" d="M69.81,30.82s14,6.84,19.24,9.24c6.13,2.8,14.72-.36,19.55.58l23.17-13.22-22,15.46c0,3.94,1.37,15-26.78,12.33C55.9,52.64,63.33,32.39,69.81,30.82Z"/><rect class="cls-8" x="17.48" y="44.73" width="2.28" height="3.56" rx="0.47" transform="translate(-3.47 1.55) rotate(-4.35)"/><path class="cls-9" d="M21.75,52a.47.47,0,0,1-.44.5l-4.44.34a.47.47,0,0,1-.51-.43L16,48a.48.48,0,0,1,.44-.51l4.44-.34a.48.48,0,0,1,.51.44Z"/><path class="cls-9" d="M17.19,44.4a.64.64,0,0,0,.5,1,5.36,5.36,0,0,0,3.19-.38c.68-.41,2.82-.29,3.32-.33a2.89,2.89,0,0,1,.51,0s.44-1-.07-.93S17,43.63,17.19,44.4Z"/><path class="cls-10" d="M25.81,61.8a4.89,4.89,0,0,1,.51-2.52,3,3,0,0,0,.27-1.59c-.16-2.1-2.2-3.75-4.93-4.25l-.05-.62a.46.46,0,0,0-.49-.41L17,52.72a.45.45,0,0,0-.42.49l.05.61c-2.63.91-4.4,2.85-4.24,5a2.93,2.93,0,0,0,.5,1.53,4.82,4.82,0,0,1,.89,2.41l.69,21.75a1.28,1.28,0,0,0,1.39,1.25l11.4-.86a1.29,1.29,0,0,0,1.19-1.45L25.81,61.8"/><path class="cls-11" d="M27.2,84.4l-11.4.86a.84.84,0,0,1-.63-.21.81.81,0,0,1-.28-.6L14.2,62.7a5.3,5.3,0,0,0-1-2.68,2.55,2.55,0,0,1-.41-1.28,3.5,3.5,0,0,1,1-2.59,6.91,6.91,0,0,1,3-1.9l.33-.12,0-.34L17,53.17l4.16-.31,0,.61,0,.35.34.06a7,7,0,0,1,3.23,1.43,3.54,3.54,0,0,1,1.34,2.41,2.74,2.74,0,0,1-.21,1.34,5.16,5.16,0,0,0-.56,2.79L28,83.45a.85.85,0,0,1-.18.64.86.86,0,0,1-.59.31"/><path class="cls-12" d="M16.91,55.06a5.64,5.64,0,0,0-2.74,1.36,2.63,2.63,0,0,0-.52,3c-.22-2,3.26-4.32,3.26-4.32"/><rect class="cls-2" x="16.17" y="61.61" width="8.6" height="20.92" transform="translate(-5.4 1.76) rotate(-4.35)"/><polygon class="cls-13" points="20.71 61.24 18.05 66.97 21.8 67.01 18.73 73.75 21.47 73.38 18.94 78.62 24.09 71.56 20.47 72.08 23.74 64.75 20.03 65.2 20.71 61.24"/><path class="cls-1" d="M46,82.46c-2.58-.42-8.87-.7-10.22-3.11,1.2-6.06.74-12.79-3.45-17.2-1.2-1.27-7.24-10.31-8.17-6.35-.47,2,4.71,10.16,5.84,11.7,1,8.61-.33,7.73-3,3.69l2.6,9.42Z"/></g></svg>