<svg xmlns="http://www.w3.org/2000/svg" viewBox="0 0 169.57 237.37"><defs><style>.cls-1{fill:#fff;}.cls-2{fill:#2f1e22;}</style></defs><g id="Layer_1" data-name="Layer 1"><path class="cls-1" d="M157.24,143.64c2.41-.4,1.67-11,3.7-11.22,1.07-.12,3.35,13.32,4.64,8.89s.89-12.49,1.89-17.12c2.43-11.15,3.48-21.85-.95-32.7-4.12-10.06-13.59-21.65-23.09-27.34-14.33-8.57-20-7.85-21.31-16.9,12.38,4.32,16.29-5.6,12-11.3-9.85-13.21-5.91-15.41-11.75-23.79C108.34-8,92.13-1.93,83,22c-3.42,9,.93,19.41-2,28-1,2.76-6.37,6.53-8.94,9h0C61.74,70.24,45.71,85.22,36.59,81.8,25.88,77.79,24,44.8,18,44.58c-3.52-.12,2.38,21.87.65,13.24C18.44,56.85,2,41.77.5,45.09c-.38.82,12.81,11.62,12,11C12,55.76.28,44.15,0,48.23c-.13,1.9,8.17,9.12,6.81,10.64-.94,1-4.63-7-5.8-7C-3,52,8.51,65.33,9.49,68.75,12,77.28,14.56,86.22,20,93.37c9.89,13,30.89,11.8,43.51,3.78,4.07-2.6,8.61-7.62,11.28-11.61-.89,6.51-3.84,26.85-7.06,33.53-9.06,18.79-27.82,24.15-31.08,35.7-2.69,9.52-1.88,15.6.78,24.51,2.92,9.79,17.12,20.32,15.45,29.52-.89,4.92-25.09,5.58-23.07,9.74,2.31,4.73,24.65,3.07,29.13,3.65,8.54,1.11,10.13,12.29,23.53,14.16,11.57,1.61,14.67,1,23.89.28,18.09-1.42,34-9.66,49.09-21,1.65,3.39,1.12,13.63,4.43,16,5.28,3.77,4.7-6.79,4.7-9.45,0-4.51,1.75-11.4.85-15.86-1.2-5.95-12.09-2.59-12.09-2.59s.32-3.29,9.2-7c3.45-1.44,4.85-5,3.93-8.67-2.79-11.05-25.85,3.75-30.65-3,.08.11,24.94-5.14,18.82-12.91-4.4-5.59-35.47,3.66-28-4,20.65-21.36,3.25-47.65.38-58.2a93.7,93.7,0,0,1-2.88-19.35c-.25-3.61-.36-7-.36-7s.34-2.75,10.81,2.31c14.26,6.87,19.43,10.11,18.62,24.05s-9.61,16.28-9.28,22.29c.12,2.23,10.17-8.8,9.76-6.68-.78,4.1-4.56,11.62-3.43,14.79.58,1.64,3.5-1.85,6-9.1C156.35,133.34,153.46,144.28,157.24,143.64Z"/><path class="cls-2" d="M101.71,19.76c.15-.59,1.16-3.49,2.61-2.61,1.6,1,1.15,3.08.61,4.22-.38.8-1.71,3.06-2.93,2-.88-.75-.52-2.71-.29-3.65C102,18.64,101.5,20.62,101.71,19.76Z"/><path class="cls-2" d="M88.75,30.8c1.27,3.83,5.09,4.85,7.64,4.7a9.49,9.49,0,0,0,5.41-2.32c.81-.78-.33-3.59,1.61-3.49,2.11.11.49,3.4-.72,5.72a9,9,0,0,1-4.56,4.31A8.72,8.72,0,0,1,90,38.21c-2-1.77-2.87-4.71-3.23-7.28-.3-2.07-.35-3.75.3-4C89.68,26.07,88.33,29.51,88.75,30.8Z"/><path class="cls-2" d="M75.81,183.92a2,2,0,0,1,1,1.32c.26.72.4,1.48.62,2.21,0,.09-.11.13-.15.05-.55-1.16-.49-2.6-1.44-3.56C75.79,183.93,75.8,183.91,75.81,183.92Z"/><path class="cls-2" d="M90.82,192.86c.86,0,1.39,1.42,1.67,2a16.19,16.19,0,0,1,1.18,3.25.06.06,0,0,1-.12,0,17,17,0,0,1-1-2.62c-.36-.9-.8-2.18-1.69-2.69C90.81,192.88,90.82,192.87,90.82,192.86Z"/><path class="cls-2" d="M84,192.09c0,.09-.11.13-.14,0A41,41,0,0,0,82,187.86c-.57-.34-1.14-.69-1.7-1.05a5.48,5.48,0,0,1,.84,1.78c.32.95.52,1.93.89,2.86a.07.07,0,0,1-.13.07c-.88-1.6-.89-3.54-2.06-5l-1.13-.73-.2-.14a6,6,0,0,1,.6,1.41,17.12,17.12,0,0,1,.71,2.82c0,.1-.14.16-.18.06-.53-1.58-.62-3.41-1.76-4.71q-1.8-1.22-3.55-2.51a9.45,9.45,0,0,1,.59,1.44,14.48,14.48,0,0,1,.91,3.18l-.29-.29c-.19-.65-.39-1.29-.59-1.94a15,15,0,0,0-.87-2.57h0a.05.05,0,0,0,0,0s0,0,0,0c-.66-.49-1.32-1-2-1.5a14.52,14.52,0,0,1,.63,1.66c.36.9.67,1.83,1,2.73l-.34-.29c-.27-.65-.51-1.33-.76-2l-.69-1.75c-.05-.11-.13-.44-.22-.65l-.28-.21L70,179.41c.48,1.16.87,2.37,1.26,3.57-.18-.21-.35-.42-.52-.64-.16-.48-.31-1-.47-1.44-.09-.29-.19-.58-.28-.87,0-.1-.35-.66-.35-.7h0a.56.56,0,0,1,0-.21.05.05,0,0,1,0,0c-.51-.43-1-.87-1.5-1.34a.78.78,0,0,1,0,.16l0,.14c-.19-.4-.37-.81-.55-1.23l.19.21s0,0,0,0l0,.07a41.53,41.53,0,0,0,3.62,3.22c2.07,1.7,4.27,3.26,6.49,4.76,1.22.82,2.45,1.62,3.71,2.38l-.17-.25s0,0,0,0,.27.28.4.43c.9.55,1.82,1.08,2.74,1.6a1.23,1.23,0,0,1,.25.14c2.41,1.36,4.86,2.62,7.35,3.81.8.38,1.61.74,2.42,1.1l0,0s0,0,0,0a1,1,0,0,1,.39.22c1.05.47,2.12.92,3.19,1.35a.06.06,0,0,1,.06,0s0,0,0-.05,0,0,0,0,.07.11.11.17l0,0a120.76,120.76,0,0,0,19.35,5.92l-.14-.13a0,0,0,0,1,0,0,3.13,3.13,0,0,1,.45.22q2.55.56,5.12,1c3.42.59,6.87,1,10.32,1.33l-.37-.27s0-.05,0,0l.47.31c1.58.15,3.16.27,4.75.39,4.89.37,10.07.58,14.74-1.2,0,0,.07.05,0,.07-4.19,1.74-8.92,1.65-13.36,1.39-2-.12-3.89-.26-5.83-.44,1.52.94,3.34,2,3.78,3.72,0,.09-.12.14-.15,0-.59-1.74-2.3-2.77-3.79-3.79-.92-.08-1.83-.17-2.75-.27a5.77,5.77,0,0,1,2,1.32,5.48,5.48,0,0,1,1.64,2.23.05.05,0,0,1-.09,0c-.51-.56-.87-1.24-1.38-1.8a7.3,7.3,0,0,0-2.33-1.8h0q-3.06-.35-6.11-.81c-1.05-.17-2.09-.35-3.14-.54a10.38,10.38,0,0,1,3.6,3.7c0,.07-.07.14-.12.08a23.61,23.61,0,0,0-3.77-3.84c-1-.17-1.91-.36-2.86-.56a12.1,12.1,0,0,1,1.7,1.65,30.74,30.74,0,0,1,2.74,3.3c0,.08,0,.16-.1.1-.89-.86-1.61-1.89-2.41-2.82s-1.61-1.56-2.42-2.34q-4.8-1-9.51-2.44a9.48,9.48,0,0,1,1.41,1.44c.93,1,1.8,2.14,2.63,3.25a.09.09,0,0,1-.13.11c-1.53-1.6-2.72-3.88-4.67-5q-4.57-1.41-9-3.17s0,0,0,0l0,0c.08.11.16.2.23.31a.37.37,0,0,0,.15,0,.07.07,0,0,1,0,.11l-.08.05v0c.06.1.13.2.19.31a0,0,0,0,1,0,.07l.21.28a.07.07,0,0,1,0,.11l.39.61a26.23,26.23,0,0,1,1.5,2.63c0,.08-.08.16-.13.09-1-1.44-1.76-3-2.82-4.39a0,0,0,0,1,0,0,2.16,2.16,0,0,1,.33.27.05.05,0,0,0,0,0s0,0,0,0a1.67,1.67,0,0,1-.26-.46l-.06-.08c-1-.42-2.1-.86-3.15-1.31a17.61,17.61,0,0,0,1,1.85,22.67,22.67,0,0,1,2.16,3.34c0,.08-.08.13-.12.06-.65-1-1.34-2-2-3q-.34-.51-.66-1.05c-.23-.38-.35-.9-.61-1.3l-.76-.33-1.68-.77a4.88,4.88,0,0,1,1.4,2c.48,1,.86,2.07,1.38,3.07,0,.07-.08.15-.13.08-1.15-1.62-1.5-3.62-2.75-5.21v0c-.83-.39-1.66-.79-2.48-1.2a5.67,5.67,0,0,1,.77,1.57,18.8,18.8,0,0,1,1,3.1.08.08,0,0,1-.15.05c-.82-1.64-.87-3.53-2.1-5l-1.39-.71a7.51,7.51,0,0,1,.8,1.64c.41,1,.77,2.1,1.12,3.16,0,.08-.09.1-.12,0a12.92,12.92,0,0,1-1-2.65,10.78,10.78,0,0,0-1.24-2.44q-1.12-.59-2.22-1.2a8.1,8.1,0,0,1,.62,1.41,14.54,14.54,0,0,1,.93,3.31c0,.07-.1.12-.13,0-.3-.8-.48-1.66-.75-2.48a8.07,8.07,0,0,0-1-2.48q-1.38-.78-2.73-1.59A14,14,0,0,1,84,192.09Z"/><path class="cls-2" d="M100,196.73a3.58,3.58,0,0,1,1.72,2,21.47,21.47,0,0,1,1.47,3.15s-.05.08-.08,0a6.25,6.25,0,0,1-1.23-2.25,7.06,7.06,0,0,0-1.92-2.85A0,0,0,0,1,100,196.73Z"/><path class="cls-2" d="M104.39,199.85a17.53,17.53,0,0,1,2.46,3.54c0,.08-.07.16-.12.08-.76-1-1.46-2-2.2-3q-.66-.89-1.35-1.74c-.06-.07-.6-.85-.7-.82h0C103,197.68,104.17,199.57,104.39,199.85Z"/><path class="cls-2" d="M104.92,198.43c.84.27,1.46,1.36,1.92,2,.66,1,1.28,2,1.9,2.94.05.07-.07.15-.13.08a18,18,0,0,1-1.68-2.45c-.32-.5-.66-1-1-1.46s-.71-.73-1-1.14C104.91,198.44,104.91,198.43,104.92,198.43Z"/><path class="cls-2" d="M111.62,200.48c2,1.39,3.24,3.84,4.56,5.87,0,.07-.06.14-.11.08-1.7-1.83-2.5-4.3-4.46-5.93C111.6,200.49,111.61,200.48,111.62,200.48Z"/><path class="cls-2" d="M115.28,201.81c.82-.14,1.45.72,1.85,1.29a13.41,13.41,0,0,1,1.36,2.6.08.08,0,0,1-.15.07c-.83-1.34-1.38-3.43-3.06-3.92C115.26,201.85,115.26,201.81,115.28,201.81Z"/><path class="cls-2" d="M124.51,203.35a5,5,0,0,1,2.28,1.74,6,6,0,0,1,1.44,2.56,0,0,0,0,1-.09,0c-.87-1.62-1.83-3.55-3.64-4.3C124.48,203.37,124.49,203.34,124.51,203.35Z"/><path class="cls-2" d="M126.61,203.64a9,9,0,0,1,3.65,3.91.07.07,0,0,1-.12.06,14,14,0,0,0-3.54-4S126.6,203.63,126.61,203.64Z"/><path class="cls-2" d="M128.72,203.91a15.8,15.8,0,0,1,4.17,4.56c0,.05,0,.1-.08.06-1.43-1.51-2.45-3.29-4.11-4.59C128.69,203.92,128.7,203.9,128.72,203.91Z"/><path class="cls-2" d="M136.92,204.78a8.16,8.16,0,0,1,3.17,3.77c0,.06-.06.1-.09,0a11.44,11.44,0,0,0-3.1-3.8S136.9,204.76,136.92,204.78Z"/><path class="cls-2" d="M141.14,206.75s0,.05,0,0a2.46,2.46,0,0,0-2-1.23h0A2.33,2.33,0,0,1,141.14,206.75Z"/><path class="cls-2" d="M92.84,169c.1.11.2.21.29.33,1.9,1.33,3.8,2.65,5.76,3.88,0-.09-.11-.17-.17-.26s0,0,0,0l.33.39c.43.27.86.54,1.3.8.65.38,1.3.75,2,1.1a2.47,2.47,0,0,0,1.35.71c1,.51,2,1,3,1.44l0,0s0,0,0,0l.08.09c1.69.77,3.42,1.48,5.15,2.15l.76.29a3,3,0,0,0-.85-.47h0a3.42,3.42,0,0,1,1.15.6q3.41,1.28,6.89,2.29h0a0,0,0,0,1,0,0,2.83,2.83,0,0,1,.55.21l2,.54c-.15-.11-.29-.22-.45-.32s0,0,0,0a7.82,7.82,0,0,1,.68.43l.84.22c.53.14,1.06.27,1.6.39a9.81,9.81,0,0,0-.81-.58,0,0,0,0,1,0,0,9.06,9.06,0,0,1,1,.67c.71.16,1.42.32,2.13.46-.12-.1-.24-.2-.37-.29s0-.06,0,0l.52.36c.75.14,1.49.27,2.24.38l-.12-.14s0-.06,0,0l.17.18.12,0c1,.14,2,.23,3,.31a8.25,8.25,0,0,0,3.09,0,.08.08,0,0,1,.06.14,3.41,3.41,0,0,1-1.59.18c-.94,0-1.88-.08-2.82-.16,1.1,1.19,2.52,2.31,3.2,3.8,0,.07-.07.14-.12.08-1-1.37-2.09-2.59-3.16-3.89l-.36,0-1.1-.13a20.26,20.26,0,0,1,3.21,4c0,.07-.08.15-.13.08a48.24,48.24,0,0,0-3.2-4c-.67-.09-1.33-.2-2-.32.49.41,1,.85,1.41,1.31a14.32,14.32,0,0,1,2,2.49c0,.06,0,.1-.09.06-.69-.66-1.24-1.5-1.87-2.21a16.85,16.85,0,0,0-1.69-1.69c-.7-.13-1.41-.27-2.11-.43a22.43,22.43,0,0,1,3.19,3.72s0,.1-.07.06c-1.21-1.23-2.12-2.67-3.35-3.83L125,184q-.85-.19-1.71-.42a14.63,14.63,0,0,1,1.24,1.25,7.56,7.56,0,0,1,1.73,2.64.06.06,0,0,1-.1.05,22.47,22.47,0,0,0-3.15-4l-1.68-.45a9.77,9.77,0,0,1,1.16,1.25,11.09,11.09,0,0,1,1.89,3c0,.07-.06.14-.1.07-1-1.38-1.88-3.28-3.29-4.42-.86-.23-1.71-.48-2.56-.75.59.67,1.08,1.49,1.64,2.18a8.43,8.43,0,0,1,1.62,2.48c0,.06-.05.12-.09.07-1.13-1.59-2.35-3.1-3.34-4.78-1.57-.49-3.13-1-4.67-1.58a10.66,10.66,0,0,1,1.93,3.83c0,.07-.09.1-.12,0a19.59,19.59,0,0,0-2.12-4l-.87-.32c-1-.36-1.9-.74-2.85-1.13,1.58,1.71,3.57,3.25,4.51,5.39,0,0,0,.08-.06,0a23.23,23.23,0,0,0-2.27-3c-.78-.85-1.59-1.67-2.34-2.54-.71-.3-1.41-.59-2.11-.91a37.44,37.44,0,0,1,3.69,5l-.34-.21,0,0c-1.28-1.53-2.32-3.27-3.51-4.87-1.16-.52-2.31-1-3.44-1.63.16.25.31.51.45.76a14.45,14.45,0,0,1,.73,1.41l-.47-.35-.15-.32a13.83,13.83,0,0,0-1-1.7c-.75-.39-1.49-.79-2.23-1.21l-1.25-.74c.43.53.85,1.08,1.24,1.65l-.72-.48c-.3-.47-.61-.94-.92-1.4-.71-.43-1.41-.87-2.1-1.31.17.2.33.42.47.61s.3.41.44.62q-.33-.24-.66-.51a5.51,5.51,0,0,0-1.45-1.48s0,0,0-.05c-.71-.47-1.42-.95-2.11-1.45l-1.26-1.05h0Z"/><path class="cls-2" d="M107.28,180.37c-.69-1.46-1.43-3.11-2.94-3.58,0,0,0,0,0,0,1.65.37,2.71,2.33,3.39,3.93Z"/><path class="cls-2" d="M116.17,181.64a11.79,11.79,0,0,1,3,4.39c0,.08-.08.17-.14.09a38.94,38.94,0,0,0-3-4.36C116,181.69,116.1,181.58,116.17,181.64Z"/><path class="cls-2" d="M133.9,185.76c1,1.15,2,2.28,3.06,3.41,0,0,0,.11-.07.07a24.37,24.37,0,0,1-3-3.44A0,0,0,0,1,133.9,185.76Z"/><path class="cls-2" d="M91.93,150.9c-.63-.45-1.25-.92-1.85-1.42h0l.27.63.13.3L90,149.9l-.33-.75-1.11-.92c-.5-.57-1-1.12-1.52-1.67a.05.05,0,0,1,.09,0,4.21,4.21,0,0,1,.35.48c.64.52,1.27,1.05,1.9,1.58-.08-.14-.16-.27-.25-.4s0-.1.07-.06a4.4,4.4,0,0,1,.57.79c.6.5,1.2,1,1.82,1.44l-.36-.58s0-.05,0,0a9.13,9.13,0,0,1,.64.86c.9.67,1.82,1.32,2.74,2l0,0a5.32,5.32,0,0,0-.36-.47c.19.14.38.28.58.41l.31.45c.85.63,1.67,1.3,2.49,2a3.18,3.18,0,0,0-1.17-1.06s0,0,0,0a3.08,3.08,0,0,1,1.52,1.38c1.6,1.36,3.15,2.79,4.74,4.16a6.23,6.23,0,0,0-1-1.18s0,0,0,0a6.52,6.52,0,0,1,1.31,1.52,39.13,39.13,0,0,0,6.9,4.87l-.09-.13s0,0,0,0l.17.21a28.6,28.6,0,0,0,2.62,1.24l1.6.66-.36-.3s0,0,0,0c.2.13.39.27.58.42,1.25.51,2.52,1,3.8,1.46a29,29,0,0,0,6.52,1.26.05.05,0,0,1,0,.1l-.25.05s-.1,0-.34,0c-.41,0-.82,0-1.23-.08a20.45,20.45,0,0,1-3.19-.63,2.06,2.06,0,0,1,.64.61c0,.06,0,.15-.1.09a2.75,2.75,0,0,0-1.46-1,0,0,0,0,1,0,0l-1.39-.46a6.06,6.06,0,0,1,2.36,2.67c0,.05,0,.08-.08,0a13.21,13.21,0,0,0-2.71-2.87q-1-.37-2-.78a43.07,43.07,0,0,1,3,3.55c.06.06,0,.15-.1.1-1.25-1.1-2.07-2.6-3.23-3.77l-.79-.33c-1.2-.49-2.38-1-3.53-1.55a43,43,0,0,0,3.22,3.79s0,.1-.05.07a17.24,17.24,0,0,1-3.31-3.94c-.61-.3-1.21-.62-1.8-1l-.16-.11a7.58,7.58,0,0,1,.91,1.37,12.1,12.1,0,0,1,1.15,2.27c0,.07-.07.12-.11.06-.94-1.19-1.38-2.72-2.31-3.93q-1.31-.83-2.52-1.77a12.65,12.65,0,0,1,2.36,4.25c0,.09-.1.17-.15.08a38.62,38.62,0,0,0-2.54-4.58q-.58-.45-1.17-.93l-.54-.46c.09.17.17.34.26.5a15,15,0,0,1,1.29,3.35c0,.05-.08.08-.1,0-.71-1.35-1.11-2.84-1.81-4.17-1.16-1-2.28-2-3.41-3a13.71,13.71,0,0,1,1.35,2.13,30.78,30.78,0,0,1,1.5,3.05c0,.06-.06.1-.09.05-1.25-1.71-1.79-3.86-3.12-5.54l-1-.84.26.5c.36.71.68,1.43,1,2.16a12.5,12.5,0,0,1,.81,1.89.06.06,0,0,1-.1.06,5,5,0,0,1-.67-1.32c-.28-.65-.55-1.3-.84-1.94-.22-.47-.47-1.06-.77-1.62-.84-.72-1.7-1.43-2.57-2.11l.34.61a9.13,9.13,0,0,1,1.36,3.42c0,.07-.08.08-.11,0-.51-1-.8-2.1-1.31-3.11a12.89,12.89,0,0,0-.75-1.3c-.93-.7-1.88-1.36-2.83-2,.19.31.37.62.54.94a10.86,10.86,0,0,1,1.22,2.72c0,.07-.07.13-.11.06-.45-.76-.74-1.63-1.14-2.42C92.53,151.94,92.23,151.42,91.93,150.9Z"/><path class="cls-2" d="M124.28,169.72l.2-.05-.2.06Z"/><path class="cls-2" d="M124.48,169.67l.24-.08S124.63,169.63,124.48,169.67Z"/><path class="cls-2" d="M114.63,165.68c1.38.27,2.06,2.2,2.47,3.37,0,.09-.08.14-.14.06-.69-1.08-1-2.88-2.34-3.38C114.6,165.72,114.61,165.68,114.63,165.68Z"/><path class="cls-2" d="M88,19.59A5.53,5.53,0,0,1,89.15,16a1.39,1.39,0,0,1,2.54.7,5.33,5.33,0,0,1-1,3.77c-1.14,1.44-2.77,1.13-2.63-.86C87.92,18.93,88,20.22,88,19.59Z"/><path d="M82.09,21.54s12.57,3.15,16.67,5.05a36,36,0,0,0,13.29,2.91l16.23-6.16-14.2,7.81c0,4.73,1.81,12.65-20,14.73C73,47.88,80.61,26,82.09,21.54Z"/></g></svg>