<svg id="Layer_1" data-name="Layer 1" xmlns="http://www.w3.org/2000/svg" width="161.97" height="227.2" viewBox="0 0 161.97 227.2">
  <g id="Layer_1-2" data-name="Layer 1">
    <path d="M66.71,29.19c.06-.4.15-1.41.15-1.41s-1.28-.05-1.68-.13a.32.32,0,0,0-.37.25.13.13,0,0,0,0,.06c0,.67-.17,1.34-.22,2h0v.16a.34.34,0,0,0,.28.38h0c.43,0,1.61.07,1.61.07S66.64,29.61,66.71,29.19Z" transform="translate(0 0.04)" style="fill: #fff"/>
    <path d="M70.94,29.45c0-.4-.08-1.42-.08-1.42a15.83,15.83,0,0,1-1.69.15.32.32,0,0,0-.32.3s0,.05,0,.07c.06.67.29,2.55.49,2.54a15.92,15.92,0,0,0,1.61-.2S70.94,29.87,70.94,29.45Z" transform="translate(0 0.04)" style="fill: #fff"/>
    <path d="M115.05,199.9l-3.47-6.68-2.31,3.93c0,2.95.17,5.71.18,6.31.1,5.15,1.17,12.09-.49,16.83s2.33,8.25,8.59,6.33c9.61-3,13.83.47,19.54-.58,1.6-.3,7.56-1.24,8.75-2.79a1.4,1.4,0,0,0,0-2,1.36,1.36,0,0,0-.54-.35c-1.82-.55-5.35,1.59-5.33,1.24.11-1.51,5.67-1.74,5.44-2.95s-5-.05-6.43.4c1.43-.45,5.83-1.92,5.64-2.73-.28-1.2-5.38,1.33-6.4,1-.55-.2,5.31-1.61,4.94-2.36-.68-1.38-6.69,1.38-4.72,0,1.33-1,2.83-1.15,2.71-1.47-.65-1.86-9.48.42-12.19.14-4.4-.47-5-.21-6.65-.93-2.72-1.24-1.33-3-1.26-6.16.06-3,.64-8.72.49-12.46l-2-1.15Z" transform="translate(0 0.04)" style="fill: #6a784c"/>
    <path d="M11.26,194.61c-6.18,0-11,2.6-9,6.1,5,8.93,4,8.52,5.65,12.58,1.16,2.89,1.74,4.66,4.21,6.57.58.45,3,4,3.69,3.66,1.11-.55-.71-3-.21-2.68.17.1.75,1.48,1.32,2.13.41.46,1.72.84,1.54.18s-1.1-2.75-.89-2.71c.63.12,1.41,3.63,3.1,3,1.24-.43-1.37-3.29-.43-3.37.69-.06,1.5,4.85,3.28,3.06.58-.58-2.21-4.06-1.73-4.42s3.62,3.75,4.44,3.82c1.1.09,2.79-1.56-.34-4.5a14.19,14.19,0,0,1-1.49-2.12c-1.94-3.48-4.22-4.82-5.82-9.53-1.71-5,.42-6.29,3.15-6.58-1.67-2.12-3.73-5-5.47-7.5C14,193.37,12.12,194.6,11.26,194.61Z" transform="translate(0 0.04)" style="fill: #6a784c"/>
    <path d="M88,120.36H87l-.85.08H86l-.17.06h0l-.24.11H85.5l-.22.12h-.09l-.66.39-.09.06-.3.19-.08,0-.38.25h-.07l-.33.22-.1.07-.81.56-.08.06-.35.24-.06.05-.4.28h0l-.35.26h-.06l-.72.53-1,.74-.21.16h-.06l-.09.07s-1.86-2-3.26-1.55c-1.57.52-3.44,3.88-3.44,3.88L70.84,127l-10.19-1.5-.2.16-1.16.94-3.57,2.87-.67.54h-.7l-.28-.09h-.24c-.34-.11-.74-.24-1.17-.4h0l-.54-.21h0l-.55-.23h0l-.55-.25H51l-.54-.27h0c-.17-.09-.35-.19-.52-.3h0l-.5-.33h0c-.16-.11-.33-.24-.48-.36h0a5.82,5.82,0,0,1-.45-.4c-.1.23-.21.46-.33.7a1.24,1.24,0,0,1-.1.2c-.08.18-.18.36-.27.54l-.09.17c-.12.23-.24.46-.37.69l-.13.24c-.08.15-.16.3-.25.44v0h0c-.21.38-.43.75-.63,1.09h0c-.7,1.17-1.28,2-1.46,2.31v.31c.55,8.52,7.48,19.19,3.73,33.72-1.16,4.49-7.35,8.4-8.79,9.37-3.24,2.18-6.63,5.62-14.78,8.12-5.32,1.63-5.44,1.4-12,1.4-.28,0,1.38,2.64,3.55,5.8,1.74,2.52,3.8,5.38,5.47,7.5.82,1,1.54,1.91,2.09,2.47,1.88,1.93,14,11.28,14,11.28S40,201.82,52.23,190.47c7.42-6.87,13.36-14.37,16-18.84,4.26-7.31,4.2-21.9,4.38-33.25v-6.1a205,205,0,0,0,23.2,17.2c12,7.34,8.16,12.92,9.25,22.26.43,3.71,1.23,7.77,1.23,11.49-.09,4.09-1,4.55,2.27,15.76l1.07-1.82,2.31-3.93,3.47,6.68,4.58-6.49,2,1.15,2,1.14s2.72-4.16,2.6-5.91c-.41-5.81-.57-8-.59-8.3,0,.51.5,7.09.59,8.29-1-13.7-1.15-27.72-5.29-40.94-3-9.69-17.78-21.78-26.57-28.29A54,54,0,0,0,88,120.36Z" transform="translate(0 0.04)" style="fill: #3f281c"/>
    <path d="M126.16,189.94" transform="translate(0 0.04)" style="fill: #3b2d24"/>
    <path d="M126.16,190" transform="translate(0 0.04)" style="fill: #3b2d24"/>
    <path d="M126.16,189.94v-.16h0A.81.81,0,0,0,126.16,189.94Z" transform="translate(0 0.04)" style="fill: #3b2d24"/>
    <path d="M15.8,85.82h0l-.07.07-.08.08h0c-.56.55-1.66,1.6-2.68,2.51h0l-.24.21h0l-.22.19h0l-.2.17h0l-.18.14h0l-.16.13h-.06l-.15.11H11.7l-.13.09h-.06l-.11.08h-.06L11,90h-.19m-.05,0h0v-.1a3,3,0,0,1,.11-.55c0-.17,0-.11,0-.16V87.7a.29.29,0,0,0,0-.13.43.43,0,0,0,0-.16.21.21,0,0,0,0-.11.5.5,0,0,0,0-.13v-.1a.36.36,0,0,0-.07-.1.22.22,0,0,0-.05-.08l-.08-.09-.07-.06-.09-.06H9.54a.49.49,0,0,0-.17,0h0a2.32,2.32,0,0,0-.46.07,6.55,6.55,0,0,0-1.58.64c-.41.23-.68.42-.68.42s3.21-6.33,1.7-8.16a38.91,38.91,0,0,1-4,3.81C2.24,89.29.11,98.72,0,100.92a44.22,44.22,0,0,0,1.71,12.73c2.82,8.23,4.67,10.64,7.88,17.28a61.68,61.68,0,0,1,3.65,7.38c1.23,2.65,3.78,11.47,5.55,12.48,2.65,1.53-3.27-10-1.71-9,1.23.8,4.4,9.57,5.82,9.86,3.31.68-3.78-10.3-2.4-10.7.68-.19,8.9,10.45,9.45,9.94,2.84-2.6-9-11.74-5.81-12.21,2.63-.39,8.77,8.28,9,6.2.38-4.15-8.73-9.66-9.58-11.34-.63-1.23,9.47,1.81,9.59.68.39-3.59-14.76-1.48-15.25-14.71-.43-6.57.24-18.23.24-18.23a48.66,48.66,0,0,1,1.05-7L16,85.65l-.2.17Z" transform="translate(0 0.04)" style="fill: #6a784c"/>
    <path d="M45.4,38.68s.14.23.31.54h0c.33.56.86,1.51,1.5,2.68h0c.26.47.53,1,.81,1.49h0l.42.79h0l.51,1h0c.52,1,1,2,1.55,3h0c.25.5.49,1,.71,1.47s.65,1.42.65,1.44l.4.93q.15.36.27.69h0c.07.18.14.36.19.53s.53,1.48.7,1.94h0A77.06,77.06,0,0,0,58,64.91h0c.18.32.35.64.54,1h0c.45.81.92,1.62,1.39,2.43h0l.51.86h0q1.11,1.9,2.25,3.79l.1.17.39-.14h0c.36-2.18.66-4.37.94-6.55h0l.09-.74h0c.07-.55.13-1.09.19-1.64h0v-.45h0c.18-1.52.36-3,.55-4.56.1-.89.21-1.77.32-2.66a5.37,5.37,0,0,1,.11-.83s.34-2.47.35-2.51a3.48,3.48,0,0,1,.12-.63A2.06,2.06,0,0,1,66,52c0-.23.2-.8.22-.85.06-.24.63-3.51.77-4.78v0a1.94,1.94,0,0,1,.07-.63h.11a2.82,2.82,0,0,1,.1-.58h-.11a50.52,50.52,0,0,1,1.33-7c.18-1,1.21-3.45,1.49-4.58.14-.61-8.16,1.87-11.67-7.79-.14-.38,4.34,2.09,7.52,2.74,2.56.52,6,.56,6.07.25a30.48,30.48,0,0,0,.69-5.21c0-1.28,4.34-1.74,3.44-5.41-.51-2.13-8.17-1.51-9.15-4A42.42,42.42,0,0,0,63.22,7C59.22.75,49-3.61,40.22,4c-2.34,2-4.68,9.23-3.68,12.72.17.63,2,3.61,2.32,4.76-.06,0-2-1.41-3-.26s-.71,3.23-.24,4.46a10.63,10.63,0,0,0,4.82,5c1.92.9,2.47,2.75,2.87,3.31a21.51,21.51,0,0,0,2.11,4.57h0Z" transform="translate(0 0.04)" style="fill: #6a784c"/>
    <path d="M44.35,133.52l-.12-.32Z" transform="translate(0 0.04)" style="fill: #e0605d"/>
    <path d="M44.41,133.7v0Z" transform="translate(0 0.04)" style="fill: #e0605d"/>
    <path d="M43.52,131.21,43,129.84Z" transform="translate(0 0.04)" style="fill: #e0605d"/>
    <path d="M111,89.51c-.46-.05-.92-.12-1.36-.19C110.11,89.39,110.57,89.46,111,89.51Z" transform="translate(0 0.04)" style="fill: #e0605d"/>
    <path d="M12.44,60.12c.51-.74,1-1.47,1.56-2.19Q13.19,59,12.44,60.12Z" transform="translate(0 0.04)" style="fill: #e0605d"/>
    <path d="M118.88,68.78a5.86,5.86,0,0,1,1,.33A5.86,5.86,0,0,0,118.88,68.78Z" transform="translate(0 0.04)" style="fill: #e0605d"/>
    <path d="M69.68,115.63a.67.67,0,0,0,.06.28.48.48,0,0,0,.45.26.56.56,0,0,0,.53-.4h.14a.42.42,0,0,0,.52-.29.45.45,0,0,0,0-.23,2,2,0,0,0-.18-.46.53.53,0,0,0-.23-.49.49.49,0,0,0-.61-.33.35.35,0,0,0-.16.08h0a.56.56,0,0,0-.68.38.77.77,0,0,0,0,.15.91.91,0,0,0,.1.43A2.15,2.15,0,0,0,69.68,115.63Z" transform="translate(0 0.04)" style="fill: #2f1e22"/>
    <path d="M68.73,36.53l-.29,1.55.43-1.55Z" transform="translate(0 0.04)" style="fill: #e0605d"/>
    <path d="M82.19,39.88c.76.34,1.45.68,2.1,1C83.64,40.56,82.94,40.22,82.19,39.88Z" transform="translate(0 0.04)" style="fill: #e0605d"/>
    <path d="M79.63,38.89a24.06,24.06,0,0,1,2.52,1A24.06,24.06,0,0,0,79.63,38.89Z" transform="translate(0 0.04)" style="fill: #e0605d"/>
    <path d="M37.42,40.91c1.56-.49,3.08-.93,4.35-1.29C40.49,40,39,40.42,37.42,40.91Z" transform="translate(0 0.04)" style="fill: #e0605d"/>
    <path d="M45.71,39.23c.33.56.86,1.52,1.5,2.68C46.57,40.74,46,39.79,45.71,39.23Z" transform="translate(0 0.04)" style="fill: #e0605d"/>
    <path d="M67.45,88.92a3.24,3.24,0,0,0-.71.77h0a.86.86,0,0,0-.17.46.59.59,0,0,0,.05.23v.49a.45.45,0,0,0,.56.3.45.45,0,0,0,.19-.11.64.64,0,0,0,.1-.13.38.38,0,0,0,.38-.25,2.89,2.89,0,0,0,.21-1.59.41.41,0,0,0-.52-.22Z" transform="translate(0 0.04)" style="fill: #2f1e22"/>
    <path d="M122,72.06v0Z" transform="translate(0 0.04)" style="fill: #e0605d"/>
    <path d="M122,72.23h0v0Z" transform="translate(0 0.04)" style="fill: #e0605d"/>
    <path d="M153.64,56.56c.29-1.55,7.82-8.42,7.51-9.94-.71-3.54-8.82,8.13-9.8,6.94-.49-.58,6.8-13.22,6.05-13.55-3.83-1.68-8.06,13.92-9.89,11-1.5-2.42,4.68-12.18,2.49-11.47-4.36,1.41-6.09,12.72-7.43,14.28-1,1.15-2.16-10.08-3.36-9.72-3.79,1.16,4.73,15.15-8.45,21.3-2.76,1.38-6.53,3-10,4.33l.15.13h0a2.39,2.39,0,0,1,.22.23h0l.18.25.06.08a1.28,1.28,0,0,1,.11.2l.06.11.09.2v.13a.26.26,0,0,0,.08.22v.13l.06.27h0v.08a1.27,1.27,0,0,0,0,.42h0c0,.29.07.6.1.93v.41a2.19,2.19,0,0,0,.08.67l.15,1.32h0v.15c0,.39.09.78.13,1.18v.46c0,.5.09,1,.14,1.52V79c0,.55.08,1.1.11,1.65v1.82h0v1.33h0v1.13a2.62,2.62,0,0,1-.07.74v.25c0,.08-.06.44-.1.65v.21a2.9,2.9,0,0,1-.18.76v.16c-.08.26-.16.51-.24.74a2.28,2.28,0,0,1-.21.44l-.06.1a2.8,2.8,0,0,1-.25.35h0a1.72,1.72,0,0,1-.27.27h0c-.07.15-.15.29-.23.43v.07a.39.39,0,0,1-.08.1,50.28,50.28,0,0,0,10.72-6.54c7.14-6.31,8.8-9.16,14.16-15.17a69.17,69.17,0,0,1,5.93-6.75c2.16-2.34,10-8.62,10.29-10.8C162.47,47.75,153.26,58.54,153.64,56.56Z" transform="translate(0 0.04)" style="fill: #6a784c"/>
    <path d="M119.66,83.43c1.08.17,2.16.3,3.24.4V82.5c-1-.11-2.06-.24-3.08-.38l.18-1.36c.23-1.81.46-3.62.54-5.44q.93.15,1.86.24l-.15-1.32-1-.07a4.91,4.91,0,0,1-.67-.09V74c0-.3-.07-4.12,0-4.13a.06.06,0,0,0,0-.08l0,0h0a.07.07,0,0,0-.09,0c-.58.55-.43,1.89-.47,2.6s0,1.12-.08,1.68c-.69-.1-1.37-.21-2-.35.16-1.66.28-3.32.31-5a.09.09,0,0,0,0-.07h-.1a.07.07,0,0,0-.07.06c-.36,1.59-.62,3.21-.84,4.84-1.25-.27-2.49-.61-3.71-1s-2.11-.73-3.14-1.17l.69-1.89a20.65,20.65,0,0,1,1-2.2h.07l-.72-.29c-.16.39-.31.79-.47,1.16-.4,1-.76,2-1.1,3l-1.16-.55c.61-1.33,1.26-2.65,2-4-.22-.11-.44-.21-.66-.33-.69,1.3-1.33,2.62-1.94,4a39.44,39.44,0,0,1-6-3.8c.53-.89,1.07-1.77,1.64-2.63.32-.48.65-.93,1-1.37h0l-.34-.31-.23-.22c-.26.37-.5.73-.73,1.07-.67,1-1.29,2-1.89,3l-1.26-1-.21-.18c.56-1,1.12-2,1.66-3.06l.76-1.43-.7-.7c-.25.58-.51,1.14-.79,1.7-.5,1-1,2-1.54,2.94a57.81,57.81,0,0,1-4.8-4.85c.38-1.08.76-2.16,1.16-3.23.31-.86.7-1.75,1-2.64l-.16-.25-.48-.82c-.36,1-.64,2-1,2.93-.4,1.12-.78,2.24-1.16,3.36L92.79,57.4c.8-2.06,1.67-4.1,2.54-6.14a11.58,11.58,0,0,0-.67-1c-.9,2.09-1.77,4.19-2.58,6.31-1.14-1.41-2.24-2.85-3.29-4.3C86.4,49,84.36,44.15,80.35,42.5h0a2.3,2.3,0,0,0-.12-.43,16.81,16.81,0,0,1-.45-2.33c0-.12-.1-.49-.14-.8l-.22-.07c-.33,1.83.45,4,.89,5.7a.43.43,0,0,0,.07.28c-2.22,0-4.51.23-6.7.32l-1.49.07c-.64-2.89-1.36-5.76-2.22-8.57h-.3c.54,2.88,1.12,5.76,1.72,8.64-.64,0-1.29,0-1.94,0a15.88,15.88,0,0,1-2.18-.17,4.15,4.15,0,0,1-.1.58,15.09,15.09,0,0,0,4.39.37c.33,1.53.65,3.06,1,4.6a23.38,23.38,0,0,0-4,.58L67,51.68A11,11,0,0,0,66.53,50v-.17c-.06.17-.1.33-.15.5.06.48.12,1,.19,1.44-.25.07-.47.13-.63.16s-.07.3-.1.45h.8L67,55.24a4.22,4.22,0,0,0-1.65.24v.08a2.81,2.81,0,0,0,1.78.64c.31,2.38.6,4.76.9,7.14-1.21.12-2.43.22-3.66.27v.45a11.75,11.75,0,0,0,3.83.24c.07.57.15,1.13.22,1.69a21.21,21.21,0,0,1-2.25.13,11.29,11.29,0,0,1-2-.42l-.09.74a8,8,0,0,0,4.47.59q.81,6.5,1.7,13l-.38,0a24.06,24.06,0,0,1-3.28.28,13.56,13.56,0,0,1-1.56-.06,8.39,8.39,0,0,1-1-.06c-.25-2.42-.53-4.84-.89-7.25h0a4.69,4.69,0,0,1-.1.62c-.1-.16-.2-.32-.29-.48l-.1-.17c0,2.37.08,4.76.22,7.15a29.82,29.82,0,0,0-8.73.75c-.71-3.16-1.37-6.32-2-9.5,2.75-.74,5.5-1.5,8.26-2.19l-.51-.86c-2.66.77-5.3,1.47-7.92,2.19l-.45-2.3L54,67.3c1.51-.51,3-1,4.56-1.42-.19-.33-.36-.65-.54-1-1.45.4-2.88.89-4.3,1.39l-2.35.81c-.23-1.18-.45-2.36-.67-3.55-.56-3-1.08-6.07-1.73-9.08a33.76,33.76,0,0,0,4-.56h0c-.07-.18-.13-.36-.2-.55s-.12-.35-.19-.53c-1.3.23-2.6.4-3.9.56-.15-.65-.3-1.29-.47-1.94-.48-1.89-1-3.77-1.54-5.67a.54.54,0,0,0-.08-.34c.79-.08,1.58-.16,2.38-.26l-.51-1-2.08.33c-.12-.53-.24-1.07-.35-1.61-.13-.7-.24-1.4-.32-2.11a3.78,3.78,0,0,1,0-1.64c-.17-.31-.28-.49-.31-.54h0a30,30,0,0,0,.65,5.91h-.28l-1.32.18c-.46-1.87-.9-3.74-1.2-5.64l-.31.08A56.67,56.67,0,0,0,44,44.91l-5.64.79a12.72,12.72,0,0,1-1-4.79h0c-.39,1.41.29,3.37.69,4.83l-.82.11h-.3c-.1-.54-.2-1.08-.31-1.62-.06-.31-.45-3-.2-2.89a0,0,0,0,0,.07,0,.06.06,0,0,0,0-.08l-.07-.07-.46.15a3.79,3.79,0,0,0-.12,1.16A31.71,31.71,0,0,0,36.25,46a73.64,73.64,0,0,0-7.51,1.29,7.09,7.09,0,0,0-1.13-2c-.14-.17-.43,0-.31.24a6.9,6.9,0,0,1,.78,1.59C25.7,49,24,51.76,22.42,54.47a41.32,41.32,0,0,0-2-3.78l-.46.43c.57,1.16,1.12,2.32,1.67,3.48l.32.69-.67,1.19c-.21.36-.41.73-.61,1.09a46.85,46.85,0,0,0-3-4l-.25.29q1.44,2.25,2.87,4.52c-.86,1.55-1.71,3.12-2.53,4.69-1.1-1.92-2.17-3.84-3.2-5.8-.17.22-.32.44-.49.65,1,2,2.1,4,3.23,6l-1,1.93C15,64,13.64,62.17,12.3,60.3l-.21.31a60.6,60.6,0,0,0,3.82,5.94c-.35.71-.71,1.43-1,2.15q-1.11,2.37-2.14,4.77A32.73,32.73,0,0,0,10,71a12.51,12.51,0,0,0-2.4-1.75l-.21.51a41.6,41.6,0,0,1,5,4.38c-.17.4-.33.81-.5,1.21-1.12-.78-2.27-1.52-3.45-2.18a12,12,0,0,0-2-1c-.06.17-.13.34-.19.52a15,15,0,0,1,1.9,1c1.2.71,2.36,1.5,3.49,2.32-.59,1.44-1.16,2.88-1.73,4.33-.85,2.22-1.8,4.53-2.64,6.86h0a6.55,6.55,0,0,1,1.58-.64c.48-1.54,1-3.07,1.51-4.56.67-1.81,1.38-3.6,2.1-5.38.72.53,1.43,1.08,2.13,1.62,1.05.82,2.07,1.66,3.07,2.52q-.89,2.43-1.75,4.88h0L18.32,92l-1.84-5c.63-1.87,1.26-3.75,1.92-5.61,1.65,1.44,3.26,2.92,4.86,4.42a8.91,8.91,0,0,1,.47-1.52c-1.61-1.47-3.24-2.91-4.79-4.44.31-.86.64-1.72,1-2.57q.63-1.59,1.29-3.18a54.89,54.89,0,0,1,3.93,7.23l.56-1.12a50.17,50.17,0,0,0-4.12-7c.17-.41.34-.83.52-1.25a48.61,48.61,0,0,1,4.2,7.09c.21-.38.41-.72.6-1a80.67,80.67,0,0,0-4.41-7c.75-1.73,1.52-3.46,2.33-5.16,1.72,3,3.33,6,4.77,9.19.21-.15.43-.31.66-.46a8.73,8.73,0,0,0-1.48-3.25c-1.08-1.81-2.24-3.54-3.22-5.42l-.4-.75c.2-.43.4-.86.61-1.28a57,57,0,0,0,2.41,5.28c.51,1,1,1.92,1.47,2.91a16.07,16.07,0,0,0,.84,2.32h0l.42-.27a59.81,59.81,0,0,0,1.84,11.59,63.25,63.25,0,0,1-1.83-11.19h0a5.43,5.43,0,0,0,1.73.43q.69,3.72,1.46,7.43c-.49.13-1.53.42-1.52.38h0l-.12.22a.06.06,0,0,0,0,.06.42.42,0,0,0,.43.22,8.21,8.21,0,0,0,1.4-.15c.26,1.24.53,2.48.81,3.71H33.4a.13.13,0,0,0-.15.13.12.12,0,0,0,0,.11l.16.16h0l.06-.16a4.08,4.08,0,0,0,1.71.43c.14.59.27,1.18.4,1.77.9,3.9,1.86,7.78,2.81,11.66a8.6,8.6,0,0,0-2.91,1.27h0q1.54-.21,3.06-.57c.27,1.1.53,2.2.8,3.3l-.47.16a11.84,11.84,0,0,1-2.84.88,3.07,3.07,0,0,0,.07.42,9.19,9.19,0,0,0,3.38-.84h0q.82,3.47,1.59,6.93a19.88,19.88,0,0,1-2.67.21,5.68,5.68,0,0,1-1.16-.16,3.1,3.1,0,0,0,.16.66,13,13,0,0,0,3.18,0l.64-.06c.07.33.15.67.22,1s.12.55.17.82l-.46.06a25.32,25.32,0,0,0-3.13.31l.21.64c1,0,2.17-.24,2.92-.29h.61c.57,2.68,1.16,5.36,1.82,8l-2.53.25a.1.1,0,0,0-.06.11.09.09,0,0,0,.06.06c.89.07,1.78.1,2.67.1.16.64.33,1.29.5,1.93.48,1.75,1.08,3.45,1.62,5.16.2-.34.42-.71.63-1.09-.34-1-.72-2.05-1-3.07s-.6-2-.87-2.93a58.5,58.5,0,0,0,6-.5c.54,2,1.15,4,1.86,6,.43.16.83.29,1.17.4-.8-2.13-1.48-4.31-2.08-6.51l1.72-.24a62.79,62.79,0,0,0,2.28,6.56l.76-.61c-.63-2-1.34-4.07-2-6.1h.09c1.68-.25,3.36-.51,5-.81.28,1.25.57,2.49.88,3.73l.2-.16,10.19,1.5c-.47-1.89-.9-3.79-1.31-5.7a29.67,29.67,0,0,0,4.92-1.11c1.14-.26,2.28-.5,3.43-.72.46,1.72,1,3.42,1.53,5.09h0l1-.74h0c-.45-1.54-.91-3.08-1.35-4.61l2.37-.44c1.77-.32,3.55-.61,5.32-.92.16.69.31,1.37.47,2h1c-.19-.73-.37-1.45-.54-2.18,2.42-.42,4.84-.88,7.23-1.46l.15.44c-.15-.46-.32-.94-.48-1.45q-3.57.78-7.14,1.45c-.12-.54-.25-1.08-.37-1.62a55,55,0,0,1,6.71-2.23c-.09-.3-.19-.6-.29-.91a64,64,0,0,0-6.58,2.43c-.44-2-.88-3.91-1.35-5.86L85,107.38l.43-.07c1.87-.28,4.08-.37,6-.86h0l-.36-1.29h0c-2,.31-4,.87-6,1.17l-.4.07-.54-2.22c1.94-.53,3.85-1.13,5.81-1.55l.6-.1a7.46,7.46,0,0,0-.11-1l-1.88.43c-1.57.37-3.11.84-4.66,1.3l-1.2-4.9c2.44-.5,4.88-1,7.35-1.38,0-.34-.05-.67-.08-1-2.51.4-5,.93-7.49,1.48-.24-1-.48-2-.71-3,2.68-.62,5.36-1.25,8-2a5.6,5.6,0,0,0-.07-1.08v-.11c-2.72.56-5.45,1.33-8.15,2.13-.68-3-1.34-5.91-1.93-8.88-.08-.4-.15-.8-.23-1.2a52.71,52.71,0,0,1,6.75-.82,12.22,12.22,0,0,0,1.44-.06c.66,3,1.37,5.9,2.12,8.83-.08-1.48-.12-3-.15-4.48-.36-1.47-.7-2.93-1-4.4a8.3,8.3,0,0,0,1-.14V81l-1.23.15-.09-.38c-.2-.9-.39-1.81-.59-2.72.6-.08,1.2-.18,1.79-.31a4.86,4.86,0,0,0-.07-1c-.64.11-1.29.22-1.94.31-.77-3.67-1.49-7.35-2.2-11a9.72,9.72,0,0,0,2,1.37A8.93,8.93,0,0,1,88.91,69c0,.52-.09,1-.12,1.55s-.28,1.5.06,2l-.06-.4.36.54.06,0a.85.85,0,0,0,.13-.31h0c-.28.22,0-.49.06-1s.12-.82.16-1.22v-.33l.74.91a.66.66,0,0,1-.08.38A.34.34,0,0,1,90,71h0a.34.34,0,0,0,.29.07A22.66,22.66,0,0,0,90,73.66l.21.32c.28-.88.54-1.76.8-2.65a1,1,0,0,0,.13.16C92,72.59,93,73.63,94,74.66c0,.1-.09.2-.13.31-.34.94-.64,1.88-1,2.8l.48.62c.19-.51.35-1,.51-1.48s.43-1.13.66-1.68c.5.51,1,1,1.54,1.51-.12.26-.24.51-.37.77a20,20,0,0,0-1.15,2.32l.24.28a28.16,28.16,0,0,1,1.65-3c.86.84,1.73,1.65,2.62,2.45,1.33,1.18,2.69,2.31,4.06,3.4-.34,1.19-.66,2.38-.93,3.58l.47.28c.34-1.15.69-2.28,1-3.41.72.54,1.44,1.07,2.17,1.58-.23.93-.58,2-.77,3l.3.12a28.76,28.76,0,0,1,.84-2.88c.36.24.71.5,1.08.74,1.41.93,2.84,1.83,4.23,2.79A14.46,14.46,0,0,1,113,89.84c.85.17,1.79.38,2.74.53.4-2.39.65-4.83,1-7.12v-.39c.74.17,1.48.31,2.23.44-.17,1.2-.34,2.4-.5,3.6s-.39,2.43-.56,3.69h1V90C119.08,87.8,119.37,85.61,119.66,83.43Zm-11.49-12,1.25.58c-.49,1.49-.94,3-1.37,4.5-.15.52-.29,1-.43,1.55-.58-.37-1.15-.75-1.7-1.16.7-1.79,1.45-3.62,2.25-5.42Zm-6.76-4.17a36.45,36.45,0,0,0,6.1,3.85c-.47,1.06-.92,2.13-1.36,3.2-.28.7-.57,1.41-.84,2.13a54.81,54.81,0,0,1-4.81-4.33c-.38-.37-.74-.75-1.11-1.13l.33-.64c.54-1,1.1-2,1.69-3Zm-2-1.63c.48.41,1,.81,1.45,1.2-.68,1.21-1.32,2.44-2,3.67-.46-.49-.92-1-1.36-1.5.63-1.07,1.26-2.2,1.88-3.32Zm-5.28-5.26a61,61,0,0,0,4.67,4.71c-.59,1.1-1.2,2.19-1.79,3.29h0c-1.36-1.56-2.65-3.17-4-4.78.15-.49.3-1,.46-1.45s.53-1.14.68-1.72Zm-1.73-2q.57.69,1.17,1.38L93,61.35c-.17.52-.35,1-.53,1.58l-.67-.84-.49-.6c.34-1,.66-2.06,1.08-3.09Zm-7-9.69c1.5,2.36,3.06,4.66,4.76,6.89.5.65,1,1.29,1.52,1.93-.38,1-.73,2.08-1.06,3.13a28.56,28.56,0,0,0-7.35-6.51.48.48,0,0,0-.34-.28h-.06c-.16-.83-.31-1.66-.47-2.49.61.06.61-.91,0-1h-.19c-.3-1.54-.62-3.07-1-4.59a3.71,3.71,0,0,0,.66-.24c.38-.18.17-.73-.2-.75H81c-.19-.7-.39-1.39-.59-2.08a21.53,21.53,0,0,1,5,6ZM75.54,62.59,75.06,60c-.3-1.59-.59-3.19-.89-4.79a25.17,25.17,0,0,1,8.12-.38v.26l1.29,7.06C81,62.81,78.26,62.54,75.54,62.59Zm8.26.55.36,2c-2.73.5-5.42.15-8.13.1l-.33-1.76C78.42,63.42,81.11,63.74,83.8,63.14ZM82,53.7a25.62,25.62,0,0,0-7.81.55H74c-.17-1-.36-1.9-.54-2.84a64.6,64.6,0,0,1,8.23-.13c.12.73.25,1.47.37,2.2a.12.12,0,0,0-.08.22ZM72.36,46h6a14.72,14.72,0,0,0,2.3,0c.33,1.46.61,2.94.87,4.42a57.86,57.86,0,0,0-8.22.25C73,49.06,72.69,47.54,72.36,46Zm-4.9,8.44c-.12-.72-.26-1.44-.39-2.15,1.86-.2,3.7-.74,5.61-.84q.31,1.47.6,2.94c-1.55.28-3.1.57-4.66.76a8.34,8.34,0,0,1-1,0Zm.85,5.43c-.18-1.24-.38-2.48-.57-3.72a28.49,28.49,0,0,0,4.31-.61l1.42-.23c.27,1.36.53,2.72.78,4.09l.57,3.2a4.41,4.41,0,0,0-.81,0c-1.76.14-3.5.37-5.24.56-.15-1.1-.3-2.21-.46-3.32Zm.6,4.31c1.74-.17,3.49-.52,5.1-.66a5.77,5.77,0,0,0,1-.06c.1.58.21,1.16.31,1.74a14.05,14.05,0,0,0-1.71.07c-1.48.13-3,.39-4.44.58-.1-.53-.17-1.09-.26-1.65Zm.69,5.1c-.1-.8-.21-1.59-.32-2.39,1.19-.15,2.34-.37,3.3-.49a23.38,23.38,0,0,1,2.9-.15q1.08,6.1,2.18,12.2c-.47.09-.94.19-1.4.3-1.76.4-3.52.79-5.3,1.09-.48-3.49-.91-7-1.36-10.54ZM55.41,97.47Q54.26,92.27,53,87l1.66-.34Q56,91.9,57.11,97.15Zm1.9.45c.2.92.39,1.85.58,2.78l-1.76.16c-.18-.88-.37-1.77-.56-2.65Zm-1.92,3c-1.12.12-2.23.27-3.33.48s-2.2.5-3.29.81c-.18-.86-.37-1.73-.55-2.59,2.17-.42,4.39-.89,6.63-1.3Zm-.7-3.35c-2.22.39-4.43.81-6.64,1.24q-1.12-5.49-2.07-11l2.26-.11a34.12,34.12,0,0,0,4.15-.53c.77,3.47,1.55,6.94,2.3,10.42Zm-4.34-11a42.46,42.46,0,0,1-4.51.42l-.63-3.79h.88a42.34,42.34,0,0,0,5.25-.78l.84,3.89c-.61,0-1.18.14-1.83.23ZM48.19,82c-1,.16-2.07.26-3.11.33l-.08-.4c-.45-2.83-.82-5.68-1.18-8.53,1.86-.39,3.7-.83,5.54-1.3.55,3.13,1.13,6.26,1.78,9.37C50.17,81.68,49.18,81.87,48.19,82Zm-3.58-9.7-.88.21c-.1-.77-.19-1.55-.29-2.32l1.92-.34c1.17-.23,2.33-.53,3.47-.86.12.72.25,1.45.38,2.17C47.68,71.56,46.15,72,44.61,72.3Zm0-3.25c-.42.09-.85.16-1.28.24-.52-4.16-1.07-8.32-1.85-12.43-.1-.53-.21-1-.32-1.57a38.12,38.12,0,0,1,5-.6c.22,1.1.44,2.2.65,3.3.65,3.32,1.23,6.66,1.82,10A38.78,38.78,0,0,1,44.61,69.05Zm-2,.38-2.3.4q-.95-5.74-1.73-11.49c-.11-.77-.21-1.55-.3-2.32.71-.2,1.39-.39,2-.54l.3-.06v.13c.93,4.57,1.5,9.22,2,13.88Zm.1.89L43,72.68l-2.11.49c-.14-.82-.29-1.65-.43-2.47Zm.37,3.24c.3,2.63.62,5.26,1,7.87l.15,1h-1.7C42,79.63,41.49,76.8,41,74Zm1.3,9.64c.2,1.27.4,2.53.62,3.8H43.47c-.26-1.27-.52-2.54-.77-3.82a15.48,15.48,0,0,0,1.67,0Zm.76,4.64q.95,5.59,2.09,11.16l-1.11.22q-1.27-5.66-2.47-11.32Zm2.25,12L48,102.5l-1,.31c-.21-.91-.42-1.83-.62-2.74Zm.75,3.52c.27,1.23.54,2.46.83,3.69s.57,2.38.87,3.57l-1.1.3c-.18-.85-.36-1.7-.56-2.54-.35-1.59-.71-3.18-1.07-4.76Zm1.86,8c.15.61.32,1.21.47,1.81l-.67.17-.54.13-.39-1.83Zm-.24-4.62c-.29-1.22-.57-2.45-.84-3.67l.76-.2a40,40,0,0,1,5.86-1.07c.22,1.07.43,2.15.64,3.22.24,1.26.47,2.51.69,3.77-2.08.51-4.16,1-6.24,1.53-.26-1.19-.55-2.37-.83-3.58Zm6.9,3,.37-.09.33,1.83-6,1.46c-.15-.61-.32-1.21-.47-1.82Zm.39-4.18c-.24-1.29-.5-2.58-.76-3.87l1.74-.16c.44,2.19.84,4.4,1.22,6.61l-1,.28-.65.16c-.13-1-.32-2-.51-3Zm1-7.84a44.57,44.57,0,0,1,6.21-.5.48.48,0,0,0,.28-.1c.11.85.21,1.69.31,2.53-2,.14-4,.71-6,.88h-.22c-.14-.89-.33-1.84-.53-2.78Zm1.35,11.35.18,1a6.2,6.2,0,0,0,.13.83l-1.61.37c-.11-.61-.22-1.22-.34-1.83Zm-.59-7.61h0c1.69-.14,4.48,0,6.13-.88a6.05,6.05,0,0,0,.13,1c.21,1.74.45,3.48.69,5.22H65.7a16.41,16.41,0,0,0-5.72,1c-.31-2-.7-4.17-1.12-6.31Zm2.75,7.1c1.4-.32,3-.36,4.37-.76.08.57.17,1.15.26,1.73q-2.85.57-5.7,1.22c-.1-.62-.21-1.24-.32-1.86Zm4.77,1.91c.48,3.06,1,6.1,1.63,9.13a42.89,42.89,0,0,0-5.4.92c-.63-2.53-1.27-5-1.7-7.65-.06-.37-.13-.75-.2-1.13Zm.49-3.29c2.29-.2,4.62-.73,6.87-1l1-.13c.12.6.25,1.19.37,1.79-1.28.13-2.56.27-3.84.49a9.5,9.5,0,0,0-3.71,1.11.46.46,0,0,0-.32-.09c-.11-.69-.19-1.4-.32-2.14Zm5.43-1.6a39.9,39.9,0,0,0-5.53.93c-.26-1.83-.52-3.66-.76-5.5a41.48,41.48,0,0,0,7.53-.87q.48,2.57,1,5.1Zm-1-5.9a30.18,30.18,0,0,0-5.35.89c-.14-1.17-.28-2.34-.4-3.51,2.2.6,4.92.11,7.33-.49.16.92.33,1.84.5,2.76a20.11,20.11,0,0,1-2,.38ZM65.5,96.54c-.41-4-.71-8-1.06-12A14.29,14.29,0,0,0,71,85c.26,1.81.54,3.63.83,5.44s.61,3.64.93,5.45A22.76,22.76,0,0,1,65.5,96.54Zm5.58-15.79c1.3-.22,2.56-.51,3.73-.75l3-.64c.2,1.07.4,2.13.61,3.19-2.14.48-4.28,1-6.44,1.34l-.45.07Zm-.68.11c.14,1.07.3,2.14.46,3.2-1,.14-2,.22-3,.26H66.15c-.27,0-2.26-.06-1.34-.06h0l-.36-.06c-.1-1.13-.2-2.27-.31-3.41A15,15,0,0,0,70.4,80.86ZM64.49,96.39a.54.54,0,0,0-.18,0,31.56,31.56,0,0,0-6.2.68h-.17c-.63-3-1.29-5.93-2-8.88-.14-.55-.27-1.1-.41-1.65l1.25-.27,4.22-1c.69-.16,1.56-.12,2.29-.28C63.59,88.83,64,92.63,64.49,96.39ZM63,81.07c.07,1,.14,2,.23,3a20.44,20.44,0,0,0-4.52.82l-3.4.74c-.31-1.29-.61-2.58-.9-3.88A28.52,28.52,0,0,1,63,81.07Zm-8.47,4.71c-.55.12-1.1.22-1.65.33-.26-1.18-.53-2.36-.78-3.53a.61.61,0,0,0-.08-.37l1.59-.32c.24,1.3.55,2.6.87,3.89Zm-3-14.23c.59,3.17,1.23,6.32,1.92,9.47l-1.57.33c-.67-3.12-1.26-6.26-1.83-9.4Zm-.6-3.2.42,2.26-1.47.4-.39-2.19ZM48.35,54.53c.45,2.28.85,4.58,1.25,6.88q.52,3,1.06,5.93l-1.44.48c-.51-2.81-1-5.63-1.55-8.43-.31-1.58-.62-3.16-1-4.74Zm-2.09-9c.29,1.32.63,2.64,1,4s.64,2.67.92,4l-1.61.19c-.39-1.84-.79-3.68-1.23-5.51-.2-.83-.41-1.66-.62-2.49Zm-2,.22c.11.45.21.89.32,1.33.53,2.22,1,4.45,1.45,6.68-1.65.2-3.3.42-5,.74H41c-.57-2.38-1.31-4.71-2-7.06-.09-.31-.2-.64-.32-1Zm-5.94.77c.68,2.72,1.48,5.39,2.08,8.13-.74.16-1.48.33-2.21.51-.36-2.83-.68-5.66-1.07-8.49Zm-3.23.42,1.31-.17c.17,1,.33,2.1.45,3.14.19,1.81.41,3.62.63,5.43a21.55,21.55,0,0,1-7.14.88q-.29-1.72-.54-3.45a33,33,0,0,0-.91-5.11c1.22.41,5.37-.66,6.17-.74Zm-20,30.76c-.75-.58-1.52-1.16-2.3-1.72l.42-1c1.55,1.6,3,3.26,4.6,4.89-.92-.77-1.81-1.49-2.74-2.19Zm4.84-2.62c-.58,1.37-1.11,2.75-1.64,4.14-1.61-1.64-3.15-3.36-4.77-5q1.08-2.52,2.23-5c.27-.59.55-1.18.84-1.76.88,1.23,1.77,2.46,2.62,3.69.5.73,1,1.47,1.48,2.21-.27.53-.53,1.11-.78,1.7ZM21,72.46l-.83-1.18c-1.09-1.54-2.19-3.06-3.3-4.58.3-.62.61-1.23.92-1.83,1.11,1.91,2.25,3.81,3.38,5.7l.38.62A13.2,13.2,0,0,1,21,72.46Zm1-2.19c-1.26-2.09-2.5-4.18-3.72-6.29.82-1.6,1.67-3.18,2.52-4.77,1.23,2,2.44,4,3.6,6C23.57,66.88,22.77,68.56,22,70.27Zm2.89-6.06c-.05.09-.09.18-.13.27-1.09-2-2.26-4.09-3.53-6.06l.48-.9c.23-.42.46-.85.7-1.27,1.05,2.28,2.05,4.57,3,6.89C25.24,63.5,25.07,63.86,24.89,64.21Zm-2-8.77c1.65-2.78,3.47-5.38,5.3-8.07a36.66,36.66,0,0,1,1,6.06c.13.92.27,1.85.41,2.77A24.64,24.64,0,0,0,26,62.11C25,59.86,24,57.64,22.89,55.44Zm6.86,14.77c-1.23-2.4-2.4-4.71-3.44-7.21a.17.17,0,0,1,0-.1c1.06-2.11,2.18-4.19,3.38-6.21.43,2.76.88,5.51,1.31,8.27.36,2.33.75,4.65,1.15,7a6.32,6.32,0,0,0-1.15.75A16.67,16.67,0,0,0,29.75,70.21Zm1.31,4a2,2,0,0,0,0-1.2l1.17-.44c.1.57.21,1.13.31,1.7a9.16,9.16,0,0,1-1.48,0ZM31.59,64c-.4-2.46-.81-4.91-1.21-7.36,2,.81,4.78.22,7.18-.42q.86,6.89,2,13.75c-1,.18-2.08.37-3.11.6a21.76,21.76,0,0,0-3.55,1C32.41,69.05,32,66.53,31.59,64ZM33,72.36a47.45,47.45,0,0,1,6.65-1.53l.42,2.52a38,38,0,0,1-6.71,1Zm.5,2.71a23.86,23.86,0,0,0,2.67-.24c1.35-.18,2.69-.42,4-.69.2,1.24.42,2.49.63,3.73.28,1.53.56,3,.85,4.58H38.28c-1.12,0-2.28-.16-3.38-.07Q34.18,78.71,33.5,75.07Zm1.59,8A7,7,0,0,1,36,83c2,.07,3.89.17,5.83.2.25,1.29.51,2.57.77,3.86h-.73c-2,0-4-.11-5.94-.18-.29-1.25-.57-2.54-.84-3.82Zm4.16,17.71c-1-3.89-1.91-7.78-2.82-11.67-.12-.49-.22-1-.33-1.46,1.29.14,2.63.22,2.89.23a36.66,36.66,0,0,0,3.78,0q1.17,5.75,2.45,11.48c-2,.45-4,.89-6,1.41Zm.18.74,6-1.28c.2.94.42,1.88.63,2.82l-3,.9c-.94.26-1.89.5-2.82.78Zm.93,3.84c1.91-.6,3.88-1.07,5.84-1.55l.57,2.5c.36,1.6.7,3.21,1,4.82-1.75.45-3.5.88-5.28,1.2a3.46,3.46,0,0,0-.53.09c-.5-2.37-1-4.72-1.6-7.07Zm2.15,9.36c-.11-.54-.24-1.09-.36-1.64A50.88,50.88,0,0,0,48,111.91l.39,1.83c-1.93.45-3.86.86-5.82,1.14a.49.49,0,0,0-.06-.17Zm2,8.89c-.69-2.65-1.23-5.34-1.8-8a52.77,52.77,0,0,0,5.84-1c.59,2.8,1.22,5.59,2,8.35l-6,.64Zm6.94-.82c-.74-2.78-1.36-5.61-2-8.43l1.26-.28c.46,1.73.93,3.46,1.44,5.19l1,3.28Zm4.36-.67-1.69.28c-.38-1.12-.75-2.24-1.08-3.37-.51-1.7-1-3.42-1.44-5.15l6-1.35c.53,3,1.07,5.92,1.7,8.86-1.18.26-2.3.51-3.5.72Zm2.53-9.76,1.6-.35c.48,2.85,1,5.68,1.76,8.5a1.84,1.84,0,0,0,.07.3l-1.67.39c-.66-2.94-1.22-5.89-1.77-8.85ZM61.26,126c-.34-1.27-.65-2.55-.94-3.82l1-.2.72-.16c.37,1.47.72,3,1,4.44Zm8.38,1.23-5.75-.84c-.18-1.25-.47-2.49-.76-3.69-.09-.36-.17-.71-.26-1.07a38.5,38.5,0,0,1,5.33-1c.45,2.22.92,4.43,1.44,6.63Zm5.19-7.6c-1.75.43-3.89.79-5.44,1.79q-1.17-5.52-2-11.11h0a.4.4,0,0,0,.3-.25A39.25,39.25,0,0,1,72.35,109c1-.12,1.92-.2,2.88-.28.06.24.1.49.16.74.56,2.62,1.13,5.28,1.78,7.94l-3,.55a42.7,42.7,0,0,1-5,.93h0c.45.72,2.56.15,3.18.08,1.7-.21,3.39-.49,5.08-.79l.21.84c-1,.22-1.89.42-2.81.65Zm11.54-2.33-4.62.87q-1.55.28-3.09.6c-.07-.27-.15-.53-.23-.8l1.17-.21a36.49,36.49,0,0,0,6.4-1.9c.15.49.26,1,.37,1.47Zm-2.28-9.8c.07.31.15.62.22.92.54,2.23,1,4.47,1.56,6.71a29.38,29.38,0,0,1-4.94,1.52l-2.73.52c-.67-2.39-1.29-4.8-1.84-7.24-.1-.44-.19-.88-.28-1.31,1-.09,2-.17,3-.29,1.67-.17,3.34-.51,5-.8Zm-.23-.93c-2.08.37-4.14.81-6.24,1.05-.57.07-1.14.13-1.72.18l-.39-1.8c2.33-.35,4.63-.81,6.93-1.35l.9-.22c.17.74.35,1.45.52,2.17Zm-2-8.07,1.2,5c-.79.23-1.6.45-2.41.64-1.78.42-3.56.76-5.36,1-.35-1.7-.69-3.41-1-5.11l3.16-.64Zm-.21-.9L78,98.45c-1.27.28-2.54.56-3.81.81-.17-.93-.35-1.86-.52-2.8l2.11-.56c1.73-.44,3.48-.84,5.24-1.25.2,1,.43,2,.67,3Zm-1-4-3.6,1.07c-1.21.35-2.42.7-3.65,1q-.5-2.73-1-5.46c-.31-1.78-.59-3.56-.86-5.35,2.36-.35,4.69-1,6.69-1.39h.23a3.06,3.06,0,0,0,.1.51c.75,3.2,1.44,6.42,2.18,9.63Zm6.4-13.36.21,1a75.64,75.64,0,0,0-8.07,1.12h0c-.21-1.06-.42-2.11-.62-3.17,1.08-.21,2.15-.41,3.24-.55,1.6-.21,3.23-.31,4.84-.5.19.71.35,1.41.49,2.11Zm-.65-3.08c-2.68.37-5.37.67-8,1.15-.76-4-1.49-8-2.23-12a39.36,39.36,0,0,0,8.12-.1q1.08,5.48,2.2,11Zm2.5-9-.67-.69a17.29,17.29,0,0,0-3.13-1.92.58.58,0,0,0-.17-.41c-.15-.75-.29-1.51-.43-2.26h.06a.52.52,0,0,0-.25-1l-.9-4.76c-.14-.78-.29-1.57-.43-2.36a.44.44,0,0,0,.16-.17,49.52,49.52,0,0,1,7.11,7c-.2.68-.39,1.36-.56,2A31.21,31.21,0,0,0,89,68.21Zm1.51,1.61-.82-.89A44.36,44.36,0,0,1,91,62.45h0l1.16,1.39a61.39,61.39,0,0,0-1.63,6Zm3.76,4.06c-.76-.79-1.5-1.58-2.23-2.38l-.89-1c.55-2,1.08-4,1.66-6C94,66,95.23,67.57,96.52,69.1c-.74,1.63-1.58,3.18-2.26,4.78ZM96.39,76l-1.56-1.55c.7-1.57,1.49-3.09,2.31-4.61.45.53.91,1,1.37,1.57C97.77,72.93,97.1,74.47,96.39,76Zm7,6.07c-1.08-.84-2.15-1.7-3.2-2.61s-2.28-2-3.38-3.09c.69-1.5,1.42-3,2.17-4.46q1,1.14,2.13,2.22A41.18,41.18,0,0,0,105,77.52c-.59,1.48-1.12,3-1.59,4.55Zm2.72,2c-.71-.5-1.42-1-2.12-1.53.5-1.53,1-3.05,1.58-4.54.58.42,1.18.82,1.78,1.2-.46,1.61-.87,3.24-1.27,4.86Zm8.6,5.88a42.44,42.44,0,0,0-4.84-3.34c-1.14-.73-2.25-1.48-3.35-2.24,0-.14.08-.28.12-.42.39-1.48.79-3,1.2-4.45a22.21,22.21,0,0,0,3,1.52,33.37,33.37,0,0,0,5.24,1.7c-.41,2.4-.92,4.81-1.4,7.22Zm1.51-8.47a30.94,30.94,0,0,1-5.56-1.75,21.42,21.42,0,0,1-2.52-1.3c.15-.57.31-1.14.47-1.71.43-1.48.9-3,1.4-4.41,1.23.52,2.49,1,3.78,1.41,1,.32,2.11.63,3.24.91-.31,2.27-.54,4.57-.84,6.84Zm.68.14c.31-2.25.63-4.53.89-6.81.69.15,1.4.29,2.11.42a20.69,20.69,0,0,1-.19,2.46c-.17,1.44-.37,2.88-.57,4.32-.78-.12-1.53-.25-2.27-.4Z" transform="translate(0 0.04)" style="fill: #254c38"/>
    <path d="M36.09,105.83c-.35-2-.68-3.93-1-5.89C35.41,101.9,35.74,103.87,36.09,105.83Z" transform="translate(0 0.04)" style="fill: #254c38"/>
    <path d="M33.07,87.27A2.68,2.68,0,0,0,33,87,2.68,2.68,0,0,1,33.07,87.27Z" transform="translate(0 0.04)" style="fill: #254c38"/>
    <path d="M38.4,45.7l5.6-.79a56.51,56.51,0,0,1-1-5.62h0l-.49.13h-.07l-.57.16h0c-1.27.36-2.79.8-4.35,1.29h0A12.49,12.49,0,0,0,38.4,45.7Z" transform="translate(0 0.04)" style="fill: #ffdf75"/>
    <path d="M36.46,41.38c-.25-.14.14,2.58.2,2.89.11.54.21,1.08.31,1.62h.3l.82-.11c-.4-1.46-1.08-3.42-.69-4.83h0l-.83.27h-.12l.07.07a0,0,0,0,1,0,.07A0,0,0,0,1,36.46,41.38Z" transform="translate(0 0.04)" style="fill: #ffdf75"/>
    <path d="M41,54.5h.08c1.65-.32,3.3-.54,5-.74-.45-2.23-.92-4.46-1.45-6.68-.11-.44-.21-.88-.32-1.33l-5.58.72c.12.35.23.68.32,1C39.66,49.79,40.4,52.12,41,54.5Z" transform="translate(0 0.04)" style="fill: #ffdf75"/>
    <path d="M40.37,54.63c-.6-2.74-1.4-5.41-2.08-8.13l-1.2.15c.39,2.83.71,5.66,1.07,8.49C38.89,55,39.63,54.79,40.37,54.63Z" transform="translate(0 0.04)" style="fill: #ffdf75"/>
    <path d="M46.19,54.69a38.12,38.12,0,0,0-5,.6c.11.52.22,1,.32,1.57.78,4.11,1.33,8.27,1.85,12.43.43-.08.86-.15,1.28-.24a38.41,38.41,0,0,0,4-1.06c-.59-3.34-1.17-6.68-1.82-10C46.63,56.89,46.41,55.79,46.19,54.69Z" transform="translate(0 0.04)" style="fill: #ffdf75"/>
    <path d="M40.55,55.42l-.3.06-2,.54c.09.77.19,1.55.3,2.32q.8,5.75,1.73,11.49l2.3-.4c-.52-4.66-1.09-9.31-2-13.88Z" transform="translate(0 0.04)" style="fill: #ffdf75"/>
    <path d="M45.36,69.85l-1.92.34c.1.77.19,1.55.29,2.32l.88-.21c1.54-.35,3.07-.74,4.6-1.14-.13-.72-.26-1.45-.38-2.17C47.69,69.32,46.53,69.62,45.36,69.85Z" transform="translate(0 0.04)" style="fill: #ffdf75"/>
    <path d="M43,72.68l-.27-2.36-2.27.38c.14.82.29,1.65.43,2.47Z" transform="translate(0 0.04)" style="fill: #ffdf75"/>
    <path d="M43.84,73.4c.36,2.85.73,5.7,1.18,8.53l.06.42c1-.07,2.08-.17,3.11-.33s2-.34,3-.55c-.65-3.11-1.23-6.24-1.78-9.37C47.54,72.57,45.7,73,43.84,73.4Z" transform="translate(0 0.04)" style="fill: #ffdf75"/>
    <path d="M46.09,83.12h-.88L45.84,87a42.46,42.46,0,0,0,4.51-.42c.61-.09,1.22-.2,1.83-.31l-.84-3.89A44.21,44.21,0,0,1,46.09,83.12Z" transform="translate(0 0.04)" style="fill: #ffdf75"/>
    <path d="M48.24,87.69,46,87.8q.95,5.53,2.07,11c2.21-.43,4.42-.85,6.64-1.24-.75-3.48-1.53-7-2.3-10.43A34.51,34.51,0,0,1,48.24,87.69Z" transform="translate(0 0.04)" style="fill: #ffdf75"/>
    <path d="M57.4,111.56l-.33-1.83-.37.09-5.81,1.38c.15.61.32,1.21.47,1.82Z" transform="translate(0 0.04)" style="fill: #ffdf75"/>
    <path d="M54.47,123.17h-.09c.69,2,1.4,4.06,2,6.1h0L59.22,127l1.16-.94c-.31-1.24-.6-2.48-.88-3.73C57.83,122.66,56.15,122.92,54.47,123.17Z" transform="translate(0 0.04)" style="fill: #ffdf75"/>
    <path d="M51.59,113.87c.46,1.73.93,3.45,1.44,5.15.33,1.13.7,2.25,1.08,3.37l1.69-.28c1.16-.21,2.32-.46,3.48-.73-.63-2.94-1.17-5.9-1.7-8.86Z" transform="translate(0 0.04)" style="fill: #ffdf75"/>
    <path d="M56.91,108.84c-.22-1.26-.45-2.51-.69-3.77-.21-1.07-.42-2.15-.64-3.22a40,40,0,0,0-5.86,1.07l-.76.2c.27,1.22.55,2.45.84,3.67s.57,2.39.87,3.58C52.75,109.82,54.83,109.35,56.91,108.84Z" transform="translate(0 0.04)" style="fill: #ffdf75"/>
    <path d="M48.77,102.23c1.09-.31,2.19-.59,3.29-.81s2.21-.36,3.33-.48l-.54-2.6c-2.24.41-4.46.88-6.63,1.3C48.4,100.5,48.59,101.37,48.77,102.23Z" transform="translate(0 0.04)" style="fill: #ffdf75"/>
    <path d="M44.24,82.39l-.15-1c-.4-2.61-.72-5.24-1-7.87L41,74c.49,2.82,1,5.65,1.54,8.46Z" transform="translate(0 0.04)" style="fill: #ffdf75"/>
    <path d="M45,87c-.22-1.27-.42-2.53-.62-3.8H42.7c.25,1.28.51,2.55.77,3.82Z" transform="translate(0 0.04)" style="fill: #ffdf75"/>
    <path d="M47.22,99q-1.14-5.56-2.09-11.16l-1.49.06q1.19,5.67,2.47,11.32Z" transform="translate(0 0.04)" style="fill: #ffdf75"/>
    <path d="M48,102.47l-.57-2.66L46.3,100c.2.91.41,1.83.62,2.74Z" transform="translate(0 0.04)" style="fill: #ffdf75"/>
    <path d="M48.73,110.89l1.1-.3q-.45-1.78-.87-3.57c-.29-1.23-.56-2.46-.83-3.69l-1,.26c.36,1.58.72,3.17,1.07,4.76C48.37,109.19,48.55,110,48.73,110.89Z" transform="translate(0 0.04)" style="fill: #ffdf75"/>
    <path d="M49.84,113.39l.67-.17c-.15-.6-.32-1.2-.47-1.81l-1.13.28.39,1.83Z" transform="translate(0 0.04)" style="fill: #ffdf75"/>
    <path d="M51.65,123.58c.6,2.2,1.28,4.38,2.08,6.51H54l.28.09H55l.67-.54a62.79,62.79,0,0,1-2.28-6.56Z" transform="translate(0 0.04)" style="fill: #ffdf75"/>
    <path d="M50.74,114.07l-1.26.28c.6,2.82,1.22,5.65,2,8.43l1.69-.24-1-3.28C51.67,117.53,51.2,115.8,50.74,114.07Z" transform="translate(0 0.04)" style="fill: #ffdf75"/>
    <path d="M29.16,53.43a36.66,36.66,0,0,0-1-6.06c-1.83,2.69-3.65,5.29-5.3,8.07,1.06,2.2,2.08,4.42,3,6.67A24.64,24.64,0,0,1,29.5,56.2C29.43,55.28,29.29,54.35,29.16,53.43Z" transform="translate(0 0.04)" style="fill: #ffdf75"/>
    <path d="M18.28,64c1.22,2.11,2.46,4.2,3.72,6.29q1.16-2.57,2.4-5.08c-1.16-2-2.37-4-3.6-6C20,60.8,19.1,62.38,18.28,64Z" transform="translate(0 0.04)" style="fill: #ffdf75"/>
    <path d="M17.83,64.87c-.31.6-.62,1.21-.92,1.83,1.11,1.52,2.21,3,3.3,4.58L21,72.46c.18-.42.36-.85.55-1.27l-.38-.62C20.08,68.68,18.94,66.78,17.83,64.87Z" transform="translate(0 0.04)" style="fill: #ffdf75"/>
    <path d="M16.57,67.41c-.29.58-.57,1.17-.84,1.76q-1.15,2.51-2.23,5c1.62,1.64,3.16,3.36,4.77,5,.53-1.39,1.06-2.77,1.64-4.14.25-.59.51-1.17.76-1.75-.48-.74-1-1.48-1.48-2.21C18.34,69.87,17.45,68.64,16.57,67.41Z" transform="translate(0 0.04)" style="fill: #ffdf75"/>
    <path d="M14.61,78.28c-.7-.54-1.41-1.09-2.13-1.62-.72,1.78-1.43,3.57-2.1,5.38-.55,1.49-1,3-1.51,4.56a2.32,2.32,0,0,1,.46-.07h0a.49.49,0,0,1,.17,0h.66l.09.06.07.06.08.09a.22.22,0,0,1,0,.08.36.36,0,0,1,.07.1V87a.5.5,0,0,1,.05.13.21.21,0,0,1,0,.11.43.43,0,0,1,0,.16.29.29,0,0,1,0,.13V89.2c0,.06-.07.35-.11.55v.1h0m0,0h.35l.11-.08H11l.13-.09h.06l.15-.11h.06l.16-.13h0l.18-.14h0l.2-.17h0l.22-.19h0l.24-.21h0c1-.91,2.12-2,2.68-2.51h0l.08-.08.07-.07h0l.13-.14h0q.87-2.45,1.75-4.88a7.54,7.54,0,0,0-2.53-2.77Z" transform="translate(0 0.04)" style="fill: #ffdf75"/>
    <path d="M12.77,76c.78.56,1.55,1.14,2.3,1.72.92.7,1.82,1.42,2.72,2.14-1.55-1.63-3-3.29-4.6-4.89Z" transform="translate(0 0.04)" style="fill: #ffdf75"/>
    <path d="M21.71,57.52l-.48.9c1.27,2,2.44,4,3.53,6.06,0-.09.08-.18.13-.27.18-.35.35-.71.53-1.07-1-2.32-2-4.61-3-6.89C22.17,56.67,21.94,57.1,21.71,57.52Z" transform="translate(0 0.04)" style="fill: #ffdf75"/>
    <path d="M29.63,72.12c-.45-1-1-2-1.47-2.91a57,57,0,0,1-2.41-5.28c-.21.42-.41.85-.61,1.28l.4.75c1,1.88,2.14,3.61,3.22,5.42a8.73,8.73,0,0,1,1.48,3.25h0l.26-.16h0A16.14,16.14,0,0,1,29.63,72.12Z" transform="translate(0 0.04)" style="fill: #ffdf75"/>
    <path d="M21.57,73.23a50.17,50.17,0,0,1,4.12,7h0c.21-.42.41-.8.6-1.16h0A48.41,48.41,0,0,0,22.09,72C21.91,72.4,21.74,72.82,21.57,73.23Z" transform="translate(0 0.04)" style="fill: #ffdf75"/>
    <path d="M19.91,77.3c-.33.85-.66,1.71-1,2.57,1.55,1.53,3.18,3,4.79,4.44.08-.2.18-.43.32-.72h0l.14-.3c.35-.71.65-1.34.93-1.92h0a54.89,54.89,0,0,0-3.93-7.23C20.75,75.19,20.33,76.24,19.91,77.3Z" transform="translate(0 0.04)" style="fill: #ffdf75"/>
    <path d="M16.48,87l1.84,5,1.43,3.86a45.55,45.55,0,0,0,2.43-6.18c.08-.23.14-.45.2-.66v-.13c.06-.2.12-.38.16-.56v-.11l.12-.43V87.7a1.32,1.32,0,0,1,.11-.4v-.13a1.33,1.33,0,0,1,.1-.34c0-.11,0-.07,0-.11l.06-.22a.22.22,0,0,1,.05-.17.38.38,0,0,1,0-.15,1.64,1.64,0,0,1,.08-.35c-1.6-1.5-3.21-3-4.86-4.42C17.74,83.27,17.11,85.15,16.48,87Z" transform="translate(0 0.04)" style="fill: #ffdf75"/>
    <path d="M22.48,71.06a80.67,80.67,0,0,1,4.41,7h0a9.54,9.54,0,0,1,2.69-3h0a100.06,100.06,0,0,0-4.77-9.19C24,67.6,23.23,69.33,22.48,71.06Z" transform="translate(0 0.04)" style="fill: #ffdf75"/>
    <path d="M31,65c-.43-2.76-.88-5.51-1.31-8.27-1.2,2-2.32,4.1-3.38,6.21a.17.17,0,0,0,0,.1c1,2.5,2.21,4.81,3.44,7.21A16.78,16.78,0,0,1,31,72.67a6.32,6.32,0,0,1,1.15-.75C31.71,69.61,31.32,67.29,31,65Z" transform="translate(0 0.04)" style="fill: #ffdf75"/>
    <path d="M31.07,73.05a2,2,0,0,1,0,1.2c.5,0,1,.06,1.49.06-.1-.57-.21-1.13-.31-1.7Z" transform="translate(0 0.04)" style="fill: #ffdf75"/>
    <path d="M39.43,105c-.27-1.1-.53-2.2-.8-3.3q-1.52.36-3.06.57h0A8.46,8.46,0,0,1,38.45,101c-1-3.88-1.91-7.76-2.81-11.66-.13-.59-.26-1.18-.4-1.77a4.08,4.08,0,0,1-1.71-.43l-.06.16h0a1.21,1.21,0,0,0-.16-.16.13.13,0,0,1,0-.2.15.15,0,0,1,.11,0h1.72c-.28-1.23-.55-2.47-.81-3.71a8.21,8.21,0,0,1-1.4.15.42.42,0,0,1-.43-.22.06.06,0,0,1,0-.06l.12-.22h0l1.52-.38c-.51-2.47-1-4.94-1.46-7.43A5.4,5.4,0,0,1,31,74.6h0a63.25,63.25,0,0,0,1.83,11.19c.09.4.17.81.26,1.21v.28c.12.56.23,1.12.34,1.67v.15l.15.84v.22c.05.35.11.7.16,1.06.21,1.5.43,3,.65,4.51.1.66.2,1.32.31,2s.23,1.49.35,2.24c.32,2,.65,3.93,1,5.89v.19h0a11.84,11.84,0,0,0,2.84-.88Z" transform="translate(0 0.04)" style="fill: #ffdf75"/>
    <path d="M41.17,112.53q-.77-3.47-1.59-6.93h0a9.19,9.19,0,0,1-3.38.84h0c.11.62.23,1.22.34,1.83.26,1.43.52,2.85.81,4.27h0a5.68,5.68,0,0,0,1.16.16A21.47,21.47,0,0,0,41.17,112.53Z" transform="translate(0 0.04)" style="fill: #ffdf75"/>
    <path d="M41.71,115c-.05-.27-.11-.55-.17-.82s-.15-.67-.22-1l-.64.06a13,13,0,0,1-3.18,0h0a1.35,1.35,0,0,0,.12.41h0a1.92,1.92,0,0,0,.13.48h0l.19.62L38,115a1.36,1.36,0,0,0,.07.25h0a25.32,25.32,0,0,1,3.13-.31Z" transform="translate(0 0.04)" style="fill: #ffdf75"/>
    <path d="M43.82,124.21a23.83,23.83,0,0,1-2.67-.1.1.1,0,0,1-.06-.11.09.09,0,0,1,.06-.06l2.53-.25c-.66-2.66-1.25-5.34-1.82-8h-.61c-.75,0-1.92.3-2.92.29a1.21,1.21,0,0,0,.05.18l.15.48.09.27.18.54h0l.44,1.34.09.25.18.56.12.36c.06.18.12.36.19.54s.08.26.13.39l.18.55.14.39.18.54a1.32,1.32,0,0,0,.15.42l.3.91.18.5c.06.17.12.34.17.5l.15.43c.06.17.12.33.17.49s.11.32.17.47l.15.43c0,.17.11.33.16.49l.15.41.17.48a1.43,1.43,0,0,0,.13.38c0,.13.19.54.28.8h0l.19.55v.13l.48,1.37.07.18.09.27.09.24a1.18,1.18,0,0,0,.1.3v.09a1,1,0,0,0,.1.3l.22.61.12.32v.18l.07-.09c.18-.27.76-1.14,1.46-2.31h0c-.54-1.71-1.14-3.41-1.62-5.16A7.23,7.23,0,0,0,43.82,124.21Z" transform="translate(0 0.04)" style="fill: #ffdf75"/>
    <path d="M21.29,56.48,22,55.29l-.32-.69c-.55-1.16-1.1-2.32-1.67-3.48h0l-1.16,1.16-.07.07L17.66,53.5h0a46.85,46.85,0,0,1,3,4A10.57,10.57,0,0,0,21.29,56.48Z" transform="translate(0 0.04)" style="fill: #ffdf75"/>
    <path d="M20.26,58.33q-1.43-2.27-2.87-4.52h0l-.49.56c-.3.35-.61.69-.91,1.05l-.58.71c-.19.23-.56.69-.83,1h0c1,2,2.1,3.88,3.2,5.8C18.55,61.45,19.4,59.88,20.26,58.33Z" transform="translate(0 0.04)" style="fill: #ffdf75"/>
    <path d="M17.27,63.9c-1.13-2-2.22-4-3.23-6h0V58c-.54.72-1,1.45-1.56,2.19l-.11.16h0c1.3,1.87,2.63,3.71,4,5.55Z" transform="translate(0 0.04)" style="fill: #ffdf75"/>
    <path d="M12.75,73.45q1-2.4,2.14-4.77c.34-.72.7-1.44,1-2.15a60.6,60.6,0,0,1-3.82-5.94h0l-.18.26c-.19.29-.38.6-.57.92-.07.1-.13.22-.2.33l-.38.66-.24.42c-.12.21-.23.43-.35.65s-.17.32-.25.48-.23.43-.34.66-.18.34-.26.52-.23.45-.34.69-.17.35-.25.54-.24.5-.35.76L8.17,68c-.18.42-.37.85-.55,1.28A12.66,12.66,0,0,1,10,71,32.61,32.61,0,0,1,12.75,73.45Z" transform="translate(0 0.04)" style="fill: #ffdf75"/>
    <path d="M11.94,75.37c.17-.4.33-.81.5-1.21a41.6,41.6,0,0,0-5-4.38h0c-.2.49-.39,1-.59,1.49-.11.28-.22.56-.32.84v.07h0a12,12,0,0,1,2,1C9.67,73.85,10.82,74.59,11.94,75.37Z" transform="translate(0 0.04)" style="fill: #ffdf75"/>
    <path d="M9.93,80.38q.84-2.17,1.73-4.33c-1.13-.82-2.29-1.61-3.49-2.32a15,15,0,0,0-1.9-1h0l-.1.27c-.22.59-.43,1.19-.64,1.8-.06.18-.13.36-.19.55-.26.77-.51,1.56-.74,2.34l-.12.41c-.09.29-.17.58-.26.88L4,79.61c-.06.24-.13.48-.19.72s-.15.58-.22.87-.09.37-.13.55c-.11.48-.22,1-.32,1.44-.18.86.36.7,1.16.12a38.91,38.91,0,0,0,4-3.81c1.51,1.83-1.7,8.16-1.7,8.16s.27-.19.68-.42h0C8.13,84.91,9.08,82.6,9.93,80.38Z" transform="translate(0 0.04)" style="fill: #ffdf75"/>
    <path d="M30.31,56.2a21.55,21.55,0,0,0,7.14-.88c-.22-1.81-.44-3.62-.63-5.43-.12-1-.28-2.09-.45-3.14l-1.31.17c-.8.1-5,1.15-6.2.72a33,33,0,0,1,.91,5.11Q30,54.47,30.31,56.2Z" transform="translate(0 0.04)" style="fill: #ffdf75"/>
    <path d="M39.65,70.83A47.45,47.45,0,0,0,33,72.36l.36,1.94a38,38,0,0,0,6.71-1Z" transform="translate(0 0.04)" style="fill: #ffdf75"/>
    <path d="M38.31,82.4h3.37c-.29-1.53-.57-3-.85-4.58-.21-1.24-.43-2.49-.63-3.73-1.34.27-2.68.51-4,.69a23.86,23.86,0,0,1-2.67.24q.67,3.63,1.43,7.26C36,82.24,37.24,82.38,38.31,82.4Z" transform="translate(0 0.04)" style="fill: #ffdf75"/>
    <path d="M41.87,87.09h.73c-.26-1.29-.52-2.57-.77-3.86-1.94,0-3.88-.13-5.83-.2a6.91,6.91,0,0,0-.91,0c.27,1.28.55,2.57.84,3.85C37.91,87,39.89,87.14,41.87,87.09Z" transform="translate(0 0.04)" style="fill: #ffdf75"/>
    <path d="M42.77,87.92H39c-.26,0-1.6-.09-2.89-.23.11.49.21,1,.33,1.46.91,3.89,1.87,7.78,2.82,11.67,2-.52,4-1,6-1.37Q43.95,93.67,42.77,87.92Z" transform="translate(0 0.04)" style="fill: #ffdf75"/>
    <path d="M46,103.05c-.21-.94-.43-1.88-.63-2.82l-6,1.28.78,3.22c.93-.28,1.88-.52,2.82-.78Z" transform="translate(0 0.04)" style="fill: #ffdf75"/>
    <path d="M47.81,111.12c-.34-1.61-.68-3.22-1-4.82l-.57-2.5c-2,.48-3.93,1-5.84,1.55.56,2.35,1.11,4.71,1.64,7.06a1.08,1.08,0,0,0,.53-.09C44.31,112,46.06,111.57,47.81,111.12Z" transform="translate(0 0.04)" style="fill: #ffdf75"/>
    <path d="M48,111.91a50.51,50.51,0,0,1-5.83,1.16c.12.55.25,1.1.36,1.64v.17c2-.28,3.89-.69,5.82-1.14Z" transform="translate(0 0.04)" style="fill: #ffdf75"/>
    <path d="M42.7,115.59c.57,2.67,1.11,5.36,1.8,8,2-.21,4-.43,6-.69-.73-2.76-1.36-5.55-2-8.35A54.18,54.18,0,0,1,42.7,115.59Z" transform="translate(0 0.04)" style="fill: #ffdf75"/>
    <path d="M44.65,124.21c.27,1,.55,2,.87,2.93s.71,2,1,3.07h0v-.05c.09-.14.17-.29.25-.44l.13-.24c.13-.23.25-.46.37-.69l.09-.17c.09-.18.19-.36.27-.54a1.24,1.24,0,0,0,.1-.2c.12-.24.23-.47.33-.7a5.82,5.82,0,0,0,.45.4h0c.15.12.32.25.48.36h0l.5.33h0c.17.11.35.21.52.3h0l.54.27h.05l.55.25h0l.55.23h0l.54.21h0c-.71-2-1.32-4-1.86-6Q47.53,124,44.65,124.21Z" transform="translate(0 0.04)" style="fill: #ffdf75"/>
    <path d="M39.52,70q-1.1-6.87-2-13.75c-2.4.64-5.15,1.23-7.18.42.4,2.45.81,4.9,1.21,7.36s.82,5,1.27,7.58a21.76,21.76,0,0,1,3.55-1A30.63,30.63,0,0,1,39.52,70Z" transform="translate(0 0.04)" style="fill: #ffdf75"/>
    <path d="M28.08,47.06a6.9,6.9,0,0,0-.78-1.59c-.12-.19.17-.41.31-.24a7.09,7.09,0,0,1,1.13,2.05A73.6,73.6,0,0,1,36.25,46a31,31,0,0,1-.38-3.46A3.86,3.86,0,0,1,36,41.37h0l-.21.07-.68.23-.34.11-.33.12L34.1,42l-.31.11-.37.14-.28.1-.54.2-.17.07-.53.21-.22.08-.4.17-.22.09-.4.17-.19.09-.55.25h0l-.5.24-.16.08-.34.18-.17.09-.31.18-.14.08c-.14.08-.28.16-.41.25q-.91.6-1.8,1.23l-.26.19c-.59.42-1.16.86-1.73,1.3l-.15.13c-.55.43-1.08.88-1.61,1.34l-.43.37-1.2,1.08-.26.24h0c.74,1.21,1.37,2.5,2,3.78A25.92,25.92,0,0,1,28.08,47.06Z" transform="translate(0 0.04)" style="fill: #ffdf75"/>
    <path d="M45.73,40.86c.08.71.19,1.41.32,2.11.11.54.23,1.08.35,1.61l2.08-.33-.42-.79h0c-.28-.53-.55-1-.81-1.49h0c-.64-1.16-1.17-2.12-1.5-2.68h0A3.62,3.62,0,0,0,45.73,40.86Z" transform="translate(0 0.04)" style="fill: #ffdf75"/>
    <path d="M45.8,44.67h.28a30,30,0,0,1-.65-5.91h-.56l-.21.06h0l-1.26.33h-.08c.3,1.9.74,3.77,1.2,5.64Z" transform="translate(0 0.04)" style="fill: #ffdf75"/>
    <path d="M46.69,45.81c.5,1.9,1.06,3.78,1.54,5.67.17.65.32,1.29.47,1.94,1.3-.16,2.6-.33,3.9-.56h0q-.12-.33-.27-.69L52.26,52l-.34-.79h0c-.2-.45-.41-.92-.64-1.4s-.46-1-.71-1.47h0c-.5-1-1-2-1.55-3h0c-.8.1-1.59.18-2.38.26C46.64,45.58,46.66,45.7,46.69,45.81Z" transform="translate(0 0.04)" style="fill: #ffdf75"/>
    <path d="M46.53,53.68l1.61-.19c-.28-1.35-.58-2.69-.92-4s-.67-2.64-1-4l-1.58.17c.21.83.42,1.66.62,2.49C45.74,50,46.14,51.84,46.53,53.68Z" transform="translate(0 0.04)" style="fill: #ffdf75"/>
    <path d="M48.94,54.48c.65,3,1.17,6.06,1.73,9.08.22,1.19.44,2.37.67,3.55l2.35-.81c1.42-.5,2.85-1,4.3-1.39h0a77.8,77.8,0,0,1-4.49-9.56h0c-.17-.46-.34-.92-.5-1.39h0A34.67,34.67,0,0,1,48.94,54.48Z" transform="translate(0 0.04)" style="fill: #ffdf75"/>
    <path d="M47.67,59.39c.54,2.8,1,5.62,1.55,8.43.48-.15,1-.32,1.44-.48q-.54-3-1.06-5.93c-.4-2.3-.8-4.6-1.25-6.88l-1.63.12C47.05,56.23,47.36,57.81,47.67,59.39Z" transform="translate(0 0.04)" style="fill: #ffdf75"/>
    <path d="M51.53,68.12l.45,2.3c2.64-.72,5.28-1.45,7.93-2.11h0c-.47-.81-.94-1.62-1.39-2.43-1.54.42-3.05.91-4.56,1.42Z" transform="translate(0 0.04)" style="fill: #ffdf75"/>
    <path d="M49.79,71l1.47-.4-.42-2.26-1.44.47Z" transform="translate(0 0.04)" style="fill: #ffdf75"/>
    <path d="M54.16,80.86a29.82,29.82,0,0,1,8.73-.75c-.14-2.39-.22-4.78-.22-7.15q-1.14-1.89-2.25-3.79h0c-2.76.69-5.51,1.45-8.26,2.19C52.79,74.54,53.45,77.7,54.16,80.86Z" transform="translate(0 0.04)" style="fill: #ffdf75"/>
    <path d="M58.66,84.87a20.44,20.44,0,0,1,4.52-.82c-.09-1-.16-2-.23-3a28.19,28.19,0,0,0-8.59.66c.29,1.3.59,2.59.9,3.88Z" transform="translate(0 0.04)" style="fill: #ffdf75"/>
    <path d="M56.73,86.25l-1.25.27c.14.55.27,1.1.41,1.65q1.11,4.42,2,8.88h.17a31.56,31.56,0,0,1,6.2-.68.54.54,0,0,1,.18,0c-.46-3.76-.9-7.56-1.23-11.36-.73.16-1.6.12-2.29.28Z" transform="translate(0 0.04)" style="fill: #ffdf75"/>
    <path d="M64.9,99.73c-.1-.84-.2-1.68-.31-2.53a.48.48,0,0,1-.28.1,44.57,44.57,0,0,0-6.21.5c.2.94.39,1.89.57,2.83h.22C60.88,100.44,62.92,99.87,64.9,99.73Z" transform="translate(0 0.04)" style="fill: #ffdf75"/>
    <path d="M65.78,107h.06c-.24-1.74-.48-3.48-.69-5.22-.05-.35-.09-.7-.13-1-1.65.87-4.44.74-6.13.88h0c.42,2.14.81,4.3,1.2,6.45A16.31,16.31,0,0,1,65.78,107Z" transform="translate(0 0.04)" style="fill: #ffdf75"/>
    <path d="M66.24,109.61c-.09-.58-.18-1.16-.26-1.73-1.38.4-3,.44-4.37.76l-1.39.33c.11.62.22,1.24.32,1.86C62.44,110.4,64.34,110,66.24,109.61Z" transform="translate(0 0.04)" style="fill: #ffdf75"/>
    <path d="M62.61,120.6a42.89,42.89,0,0,1,5.4-.92c-.6-3-1.15-6.07-1.63-9.13l-5.67,1.27c.07.38.14.76.2,1.13C61.34,115.55,62,118.07,62.61,120.6Z" transform="translate(0 0.04)" style="fill: #ffdf75"/>
    <path d="M62.87,121.66c.09.36.17.71.26,1.07.29,1.2.58,2.44.76,3.69l5.75.84q-.78-3.3-1.44-6.62A37.13,37.13,0,0,0,62.87,121.66Z" transform="translate(0 0.04)" style="fill: #ffdf75"/>
    <path d="M52.05,82.58c.25,1.17.52,2.35.78,3.53.55-.11,1.1-.21,1.65-.33-.32-1.29-.63-2.59-.92-3.89L52,82.21A1,1,0,0,0,52.05,82.58Z" transform="translate(0 0.04)" style="fill: #ffdf75"/>
    <path d="M53,87c.79,3.48,1.6,7,2.37,10.44l1.74-.29Q56,91.93,54.7,86.69Z" transform="translate(0 0.04)" style="fill: #ffdf75"/>
    <path d="M57.89,100.7c-.19-.93-.38-1.86-.58-2.78l-1.74.29c.19.88.38,1.77.56,2.65Z" transform="translate(0 0.04)" style="fill: #ffdf75"/>
    <path d="M58.3,108.5l1-.28c-.38-2.21-.78-4.42-1.22-6.61l-1.74.16c.26,1.29.52,2.58.76,3.87.19,1,.38,2,.56,3Z" transform="translate(0 0.04)" style="fill: #ffdf75"/>
    <path d="M61.69,120.5c-.74-2.82-1.28-5.65-1.76-8.5l-1.6.35c.55,3,1.11,5.91,1.76,8.84l1.67-.39C61.74,120.7,61.71,120.59,61.69,120.5Z" transform="translate(0 0.04)" style="fill: #ffdf75"/>
    <path d="M61.32,122l-1,.2c.29,1.27.6,2.55.94,3.82l1.73.26a35.2,35.2,0,0,0-1-4.44Z" transform="translate(0 0.04)" style="fill: #ffdf75"/>
    <path d="M59.76,111a5.74,5.74,0,0,0-.13-.83l-.18-1-1.64.4c.12.61.23,1.22.34,1.83Z" transform="translate(0 0.04)" style="fill: #ffdf75"/>
    <path d="M51.79,81.35,53.36,81c-.69-3.15-1.33-6.3-1.92-9.47L50,72C50.53,75.09,51.12,78.23,51.79,81.35Z" transform="translate(0 0.04)" style="fill: #ffdf75"/>
    <path d="M81.51,50.34c-.26-1.48-.54-3-.87-4.42a14.72,14.72,0,0,1-2.3,0H73.67L72.36,46c.33,1.52.63,3,.93,4.57A57.85,57.85,0,0,1,81.51,50.34Z" transform="translate(0 0.04)" style="fill: #ffdf75"/>
    <path d="M82.05,53.51c-.12-.73-.25-1.47-.37-2.2a64.6,64.6,0,0,0-8.23.13c.18.94.37,1.89.54,2.84h.17A25.83,25.83,0,0,1,82,53.7a.1.1,0,0,1,0-.13A.11.11,0,0,1,82.05,53.51Z" transform="translate(0 0.04)" style="fill: #ffdf75"/>
    <path d="M82.29,54.83a25.17,25.17,0,0,0-8.12.38c.3,1.6.59,3.2.89,4.79l.48,2.59c2.72-.05,5.41.22,8.08-.44l-1.29-7.06C82.32,55,82.3,54.92,82.29,54.83Z" transform="translate(0 0.04)" style="fill: #ffdf75"/>
    <path d="M76,65.22c2.71,0,5.4.4,8.13-.1l-.36-2c-2.69.6-5.38.28-8.1.32Z" transform="translate(0 0.04)" style="fill: #ffdf75"/>
    <path d="M76.23,66.28c.74,4,1.47,8,2.23,12,2.66-.48,5.35-.78,8-1.15q-1.12-5.49-2.14-11A39.07,39.07,0,0,1,76.23,66.28Z" transform="translate(0 0.04)" style="fill: #ffdf75"/>
    <path d="M78.62,79.2c.2,1.06.41,2.11.62,3.17h0a75.64,75.64,0,0,1,8.07-1.12l-.21-1c-.15-.7-.3-1.4-.44-2.1-1.61.19-3.24.29-4.84.5C80.77,78.79,79.7,79,78.62,79.2Z" transform="translate(0 0.04)" style="fill: #ffdf75"/>
    <path d="M86.17,82.46a52.71,52.71,0,0,0-6.75.82c.08.4.15.8.23,1.2.59,3,1.25,5.93,1.93,8.88,2.7-.8,5.43-1.57,8.15-2.13h0c-.75-2.93-1.46-5.88-2.12-8.83C87.1,82.42,86.6,82.43,86.17,82.46Z" transform="translate(0 0.04)" style="fill: #ffdf75"/>
    <path d="M82.55,97.44c2.49-.55,5-1.08,7.49-1.48-.08-1.18-.16-2.36-.23-3.54-2.61.79-5.29,1.42-8,2C82.07,95.45,82.31,96.44,82.55,97.44Z" transform="translate(0 0.04)" style="fill: #ffdf75"/>
    <path d="M84,103.25c1.55-.46,3.09-.93,4.66-1.3l1.88-.43h0c-.15-1.52-.29-3-.4-4.55h0c-2.47.4-4.91.88-7.35,1.38Z" transform="translate(0 0.04)" style="fill: #ffdf75"/>
    <path d="M84.21,104.22l.54,2.22.4-.07c1.93-.3,4-.86,6-1.17h0a2.55,2.55,0,0,0-.14-.56c0-.18,0-.06,0-.09s-.07-.29-.1-.43V104c0-.11,0-.23-.07-.34v-.1a.87.87,0,0,0-.06-.35l-.06-.63h0l-.6.1C88.06,103.09,86.15,103.69,84.21,104.22Z" transform="translate(0 0.04)" style="fill: #ffdf75"/>
    <path d="M85.41,107.31l-.43.07.39,1.59c.47,2,.91,3.91,1.35,5.86a64,64,0,0,1,6.58-2.43h0c-.09-.25-.17-.51-.25-.77h0c-.17-.52-.33-1-.5-1.55h0l-.21-.69v-.08c-.06-.22-.13-.43-.19-.64v-.11c-.06-.21-.13-.42-.19-.63v-.09c-.07-.24-.14-.47-.2-.69L91.7,107a1.93,1.93,0,0,0-.13-.47h0C89.49,106.94,87.28,107,85.41,107.31Z" transform="translate(0 0.04)" style="fill: #ffdf75"/>
    <path d="M87.25,117.16c2.38-.46,4.76-.93,7.14-1.45-.25-.74-.51-1.53-.77-2.34v-.06h0a55,55,0,0,0-6.71,2.23C87,116.08,87.13,116.62,87.25,117.16Z" transform="translate(0 0.04)" style="fill: #ffdf75"/>
    <path d="M87.49,118.18c.17.73.35,1.45.54,2.18h0a54.48,54.48,0,0,1,6.26.19l1.59.15h.2s-.38-1.09-.93-2.73h0l-.09-.29a.65.65,0,0,0-.08-.22l-.09-.27-.15-.44C92.33,117.3,89.91,117.76,87.49,118.18Z" transform="translate(0 0.04)" style="fill: #ffdf75"/>
    <path d="M73.67,45.12c2.19-.09,4.48-.31,6.7-.32a1.28,1.28,0,0,0-.07-.28c-.44-1.69-1.22-3.87-.89-5.7h0l-.32-.11-.51-.16-.34-.1-.58-.17-.3-.08-.93-.2-1-.23-.58-.14h-.1c-2.17-.51-3.76-.82-4.85-1v.06c.86,2.81,1.58,5.68,2.22,8.57Z" transform="translate(0 0.04)" style="fill: #ffdf75"/>
    <path d="M80.22,42a1.73,1.73,0,0,0,.12.43h0c4,1.65,6,6.48,8.44,9.77,1,1.45,2.15,2.89,3.29,4.3.81-2.12,1.68-4.22,2.58-6.31h0c-.21-.33-.44-.65-.66-1h0l-.7-.93h0c-.22-.28-.44-.55-.67-.82l-.1-.11c-.24-.28-.48-.56-.74-.82v-.06l-.7-.72-.17-.15c-.26-.26-.53-.5-.81-.75H90c-.26-.22-.52-.44-.8-.65L88.92,44c-.29-.23-.6-.46-.92-.68L87.51,43l-.19-.14-.29-.2-.25-.16-.24-.16-.29-.19L86.12,42l-.76-.47H85.3l-.41-.23a.41.41,0,0,0-.11-.07L84.35,41h-.06a17.78,17.78,0,0,0-2.1-1h0c-.77-.34-1.6-.67-2.52-1h0a4.08,4.08,0,0,0,.14.8A16.39,16.39,0,0,0,80.22,42Z" transform="translate(0 0.04)" style="fill: #ffdf75"/>
    <path d="M93.94,58.75c.38-1.12.76-2.24,1.16-3.36.33-.94.61-2,1-2.93h0c-.08-.12-.15-.24-.22-.36l-.36-.58c0-.08-.1-.17-.16-.25h0c-.87,2-1.74,4.08-2.54,6.14Z" transform="translate(0 0.04)" style="fill: #ffdf75"/>
    <path d="M94.51,59.4a57.81,57.81,0,0,0,4.8,4.85c.52-1,1-2,1.54-2.94.28-.56.54-1.12.79-1.7h0a37.3,37.3,0,0,1-3.78-4.35L97.7,55c-.33-.46-.65-.94-.94-1.42l-.05-.08h0c-.34.89-.73,1.78-1,2.64C95.27,57.24,94.89,58.32,94.51,59.4Z" transform="translate(0 0.04)" style="fill: #ffdf75"/>
    <path d="M99.92,64.8c.07,0,.14.12.21.18.41.35.83.69,1.26,1,.6-1,1.22-2.05,1.89-3,.23-.34.47-.7.73-1.07h0c-.56-.53-1.12-1.06-1.67-1.6l-.76,1.43C101,62.77,100.48,63.78,99.92,64.8Z" transform="translate(0 0.04)" style="fill: #ffdf75"/>
    <path d="M103.57,63.8c-.57.86-1.11,1.74-1.64,2.63a39.44,39.44,0,0,0,6,3.8c.61-1.33,1.25-2.65,1.94-4h0l-.61-.34-.15-.09a22.28,22.28,0,0,1-2-1.32h-.06c-.4-.29-.8-.6-1.18-.92l-.14-.11c-.4-.33-.79-.66-1.17-1h0Q104.05,63.08,103.57,63.8Z" transform="translate(0 0.04)" style="fill: #ffdf75"/>
    <path d="M111,69.45l-.69,1.89a31.7,31.7,0,0,0,3.14,1.17c1.22.38,2.46.72,3.71,1,.22-1.63.48-3.25.84-4.84l.07-.06h0l-.5-.09h-.06l-1.21-.16h-.42l-.45-.06h-.06l-.42-.07h-.09l-.43-.09h-.09l-.43-.11c-.38-.1-.75-.23-1.11-.35l-.75-.29H112A12.28,12.28,0,0,0,111,69.45Z" transform="translate(0 0.04)" style="fill: #ffdf75"/>
    <path d="M117.88,73.65c.68.14,1.36.25,2.05.35a11.81,11.81,0,0,1,.08-1.68c.08-.56-.11-2,.47-2.6a.08.08,0,0,1,.09,0h0a.06.06,0,0,1,0,.08l0,0c-.06,0,0,3.83,0,4.13v.12c.22,0,.44.07.67.09l1,.07c0-.23-.06-.45-.08-.67a2.73,2.73,0,0,1,0-.41,6.62,6.62,0,0,0-.1-.93h0a1.16,1.16,0,0,0,0-.42v-.08h0l-.06-.27v-.13a.25.25,0,0,0-.08-.22V71l-.09-.2-.06-.11a1.28,1.28,0,0,0-.11-.2l-.06-.08-.18-.25h0a2.39,2.39,0,0,0-.22-.23h0l-.15-.13h0l-.08-.06-.18-.13h-.08l-.2-.12h-.08l-.24-.12h0a5.86,5.86,0,0,0-1-.33h0l-.35-.09h0l-.36-.07h0a.09.09,0,0,1,0,.07A42.28,42.28,0,0,0,117.88,73.65Z" transform="translate(0 0.04)" style="fill: #ffdf75"/>
    <path d="M109.75,71.11c.34-1,.7-2,1.1-3,.16-.37.31-.77.47-1.16h0l-.79-.37h0c-.69,1.3-1.34,2.62-2,4Z" transform="translate(0 0.04)" style="fill: #ffdf75"/>
    <path d="M81.72,44.81c.37,0,.58.57.2.75a3.71,3.71,0,0,1-.66.24c.35,1.52.67,3.05,1,4.59h.19c.61.06.61,1,0,1,.16.83.31,1.66.47,2.49H83a.48.48,0,0,1,.34.28,28.56,28.56,0,0,1,7.35,6.51c.33-1,.68-2.09,1.06-3.13-.51-.64-1-1.28-1.52-1.93-1.7-2.23-3.26-4.53-4.76-6.89a22,22,0,0,0-5-6c.2.69.4,1.38.59,2.08Z" transform="translate(0 0.04)" style="fill: #ffdf75"/>
    <path d="M91.85,62.12l.67.84c.18-.53.36-1.06.53-1.58l.54-1.6q-.6-.69-1.17-1.38c-.38,1-.74,2.07-1.06,3.12Z" transform="translate(0 0.04)" style="fill: #ffdf75"/>
    <path d="M93.08,63.65c1.3,1.61,2.59,3.22,4,4.78h0c.59-1.1,1.2-2.19,1.79-3.29a61,61,0,0,1-4.67-4.71c-.2.59-.41,1.18-.61,1.78S93.23,63.16,93.08,63.65Z" transform="translate(0 0.04)" style="fill: #ffdf75"/>
    <path d="M98.93,70.55c.63-1.23,1.27-2.46,1.95-3.67-.49-.39-1-.79-1.45-1.2-.62,1.12-1.25,2.25-1.86,3.37C98,69.56,98.47,70.06,98.93,70.55Z" transform="translate(0 0.04)" style="fill: #ffdf75"/>
    <path d="M99.39,71c.37.38.73.76,1.11,1.13a54.81,54.81,0,0,0,4.81,4.33c.27-.72.56-1.43.84-2.13.44-1.07.89-2.14,1.36-3.2a36.45,36.45,0,0,1-6.1-3.85c-.59,1-1.15,2-1.69,3.08Z" transform="translate(0 0.04)" style="fill: #ffdf75"/>
    <path d="M107.62,78.11c.14-.52.28-1,.43-1.55.43-1.5.88-3,1.37-4.5l-1.25-.58c-.8,1.8-1.55,3.63-2.25,5.47A19.49,19.49,0,0,0,107.62,78.11Z" transform="translate(0 0.04)" style="fill: #ffdf75"/>
    <path d="M120,80.76l-.18,1.36c1,.14,2,.27,3.08.38h0V80.68c0-.55-.07-1.1-.11-1.65v-.16c0-.51-.09-1-.14-1.52v-.46a9.26,9.26,0,0,0-.13-1.18v-.15h0q-.93-.09-1.86-.24C120.48,77.14,120.25,79,120,80.76Z" transform="translate(0 0.04)" style="fill: #ffdf75"/>
    <path d="M119.68,77.68c.1-.83.15-1.65.19-2.46-.71-.13-1.42-.27-2.11-.42-.26,2.28-.58,4.56-.89,6.81.74.15,1.49.28,2.24.39C119.31,80.56,119.51,79.12,119.68,77.68Z" transform="translate(0 0.04)" style="fill: #ffdf75"/>
    <path d="M113.76,73.71c-1.29-.41-2.55-.89-3.78-1.41-.5,1.46-1,2.93-1.4,4.41-.16.57-.32,1.14-.47,1.71a21.42,21.42,0,0,0,2.52,1.3,30.94,30.94,0,0,0,5.56,1.75c.3-2.27.53-4.57.81-6.85C115.87,74.34,114.77,74,113.76,73.71Z" transform="translate(0 0.04)" style="fill: #ffdf75"/>
    <path d="M90.34,61.61a49.52,49.52,0,0,0-7.11-7,.44.44,0,0,1-.16.17c.14.79.29,1.58.43,2.36l.9,4.76c.61-.17.86.79.25,1h-.06c.14.75.28,1.51.43,2.26a.58.58,0,0,1,.17.41,17.29,17.29,0,0,1,3.13,1.92l.67.69a30.62,30.62,0,0,1,.79-4.56C90,63,90.14,62.29,90.34,61.61Z" transform="translate(0 0.04)" style="fill: #ffdf75"/>
    <path d="M91.07,62.47h0a44.36,44.36,0,0,0-1.38,6.43l.82.89a59.55,59.55,0,0,1,1.73-6Z" transform="translate(0 0.04)" style="fill: #ffdf75"/>
    <path d="M97.14,69.84c-.82,1.52-1.61,3-2.31,4.61.51.53,1,1,1.56,1.55.71-1.53,1.38-3.07,2.12-4.59C98.05,70.89,97.59,70.37,97.14,69.84Z" transform="translate(0 0.04)" style="fill: #ffdf75"/>
    <path d="M101.08,74.13c-.72-.72-1.41-1.46-2.08-2.22-.75,1.47-1.48,3-2.17,4.46,1.1,1.07,2.22,2.1,3.38,3.09s2.12,1.77,3.2,2.61c.47-1.54,1-3.06,1.56-4.55A40.53,40.53,0,0,1,101.08,74.13Z" transform="translate(0 0.04)" style="fill: #ffdf75"/>
    <path d="M105.54,78q-.83,2.25-1.58,4.54c.7.52,1.41,1,2.12,1.53.4-1.62.81-3.25,1.24-4.87C106.72,78.81,106.12,78.41,105.54,78Z" transform="translate(0 0.04)" style="fill: #ffdf75"/>
    <path d="M107.81,79.49c-.41,1.48-.81,3-1.2,4.45a1.33,1.33,0,0,1-.12.42c1.1.76,2.21,1.51,3.35,2.24a42.44,42.44,0,0,1,4.84,3.34c.48-2.41,1-4.82,1.35-7.23a33.37,33.37,0,0,1-5.24-1.7A22,22,0,0,1,107.81,79.49Z" transform="translate(0 0.04)" style="fill: #ffdf75"/>
    <path d="M118.93,83.31c-.75-.13-1.49-.27-2.23-.44v.39c-.3,2.29-.55,4.73-1,7.12h0a15.51,15.51,0,0,0,2.15.22h0c.17-1.26.41-2.52.56-3.69S118.76,84.51,118.93,83.31Z" transform="translate(0 0.04)" style="fill: #ffdf75"/>
    <path d="M121.61,89.37a2.8,2.8,0,0,0,.25-.35l.06-.1c.07-.13.14-.28.21-.44s.16-.48.24-.74v-.16c.07-.25.13-.5.18-.76v-.21a5.13,5.13,0,0,1,.1-.65.58.58,0,0,0,0-.25,2.69,2.69,0,0,1,.07-.74V83.84h0c-1.08-.1-2.16-.23-3.24-.4-.29,2.18-.58,4.37-.79,6.56v.58h1.17l.21-.06.37-.13h0l.43-.22h0l.27-.19.09-.06.06,0h0a1.72,1.72,0,0,0,.27-.27Z" transform="translate(0 0.04)" style="fill: #ffdf75"/>
    <path d="M92.8,64.56c-.58,2-1.11,4-1.66,6l.89,1c.73.8,1.47,1.59,2.23,2.38.68-1.6,1.52-3.15,2.35-4.67C95.32,67.68,94.07,66.11,92.8,64.56Z" transform="translate(0 0.04)" style="fill: #ffdf75"/>
    <path d="M88.18,80.76l.09.38L89.5,81h0V79.66a16.54,16.54,0,0,0-.07-1.79v-.11h0c-.59.13-1.19.23-1.79.31C87.79,79,88,79.86,88.18,80.76Z" transform="translate(0 0.04)" style="fill: #ffdf75"/>
    <path d="M89.58,86.75V82.26h0a8.3,8.3,0,0,1-1,.14C88.88,83.82,89.22,85.28,89.58,86.75Z" transform="translate(0 0.04)" style="fill: #ffdf75"/>
    <path d="M88.79,70.53c0-.52.07-1,.12-1.55a9,9,0,0,0-1.78-1.6,9.72,9.72,0,0,1-2-1.37c.71,3.68,1.43,7.36,2.2,11,.65-.09,1.3-.2,1.94-.31h0a4.08,4.08,0,0,0-.07-.92v-.26a3,3,0,0,0-.07-.79l-.06-.51a1.61,1.61,0,0,0-.08-.61c0-.39-.1-.77-.16-1.16h0C88.51,72,88.76,71,88.79,70.53Z" transform="translate(0 0.04)" style="fill: #ffdf75"/>
    <path d="M89.94,71h0a.32.32,0,0,0,.27,0,1.72,1.72,0,0,1,.08-.38l-.74-.91V70a7.42,7.42,0,0,1-.16,1.22c-.07.41-.34,1.17-.06,1h0a.85.85,0,0,1-.13.31l-.06.05h0l.09.13.58.84a.36.36,0,0,0,.07.1h0a22.66,22.66,0,0,1,.34-2.59A.36.36,0,0,1,89.94,71Z" transform="translate(0 0.04)" style="fill: #ffdf75"/>
    <path d="M94,74.66c-1-1-2-2.07-2.92-3.14a1,1,0,0,1-.13-.16c-.26.89-.52,1.77-.8,2.65h0l1.25,1.77c0,.06.09.13.14.2.41.56.83,1.12,1.25,1.67l.09.11h0c.33-.92.63-1.86,1-2.8A.36.36,0,0,1,94,74.66Z" transform="translate(0 0.04)" style="fill: #ffdf75"/>
    <path d="M96,76.74c-.52-.5-1-1-1.54-1.51-.23.55-.46,1.11-.66,1.68s-.32,1-.51,1.48h0c.39.49.78,1,1.18,1.43h0a20,20,0,0,1,1.15-2.32A2.58,2.58,0,0,0,96,76.74Z" transform="translate(0 0.04)" style="fill: #ffdf75"/>
    <path d="M99,79.55c-.89-.8-1.76-1.61-2.62-2.45a28.16,28.16,0,0,0-1.65,3h0l.75.83.12.13.69.73a1.7,1.7,0,0,0,.19.19c.22.23.44.45.67.66.07.08.15.15.22.22l.67.61.25.23.67.56.29.24.66.51.32.24.65.46.38.25c.2.14.41.27.62.4l.25.15h0c.27-1.2.59-2.39.93-3.58C101.69,81.86,100.33,80.73,99,79.55Z" transform="translate(0 0.04)" style="fill: #ffdf75"/>
    <path d="M103.68,83.4c-.36,1.13-.71,2.26-1.05,3.41h0c.37.21.74.4,1.12.59l.19.09q.54.26,1.08.48h.06c.19-1,.54-2.09.77-3C105.12,84.47,104.4,83.94,103.68,83.4Z" transform="translate(0 0.04)" style="fill: #ffdf75"/>
    <path d="M107.3,86c-.37-.24-.72-.5-1.08-.74a28.76,28.76,0,0,0-.84,2.88h0l.9.34.15,0,.78.24.22.06.78.21h.2l1,.2h.25c.44.07.9.14,1.36.19h.48l.41.06h0l.49.09h0l.5.1c-.46-.38-.93-.74-1.43-1.08C110.14,87.81,108.71,86.91,107.3,86Z" transform="translate(0 0.04)" style="fill: #ffdf75"/>
    <path d="M68.93,36.34V36.2S68.78,36.26,68.93,36.34Z" transform="translate(0 0.04)" style="fill: #ffdf75"/>
    <path d="M71.38,45.23c-.6-2.88-1.18-5.76-1.72-8.64v-.08a2.32,2.32,0,0,1-.38-.07,1.33,1.33,0,0,1-.34-.1.36.36,0,0,1-.06.19l-.43,1.55a50.52,50.52,0,0,0-1.33,7h.11a15.88,15.88,0,0,0,2.18.17C70.09,45.28,70.74,45.25,71.38,45.23Z" transform="translate(0 0.04)" style="fill: #ffdf75"/>
    <path d="M67,51.68l1.53-.45a23.38,23.38,0,0,1,4-.58c-.32-1.54-.64-3.07-1-4.6a15.09,15.09,0,0,1-4.39-.37H67a1.94,1.94,0,0,1-.07.63h0c-.14,1.27-.27,2.49-.4,3.53V50A12.07,12.07,0,0,1,67,51.68Z" transform="translate(0 0.04)" style="fill: #ffdf75"/>
    <path d="M73.28,54.41q-.28-1.47-.6-2.94c-1.91.1-3.75.64-5.61.84.13.71.27,1.43.39,2.15l.12.75a8.34,8.34,0,0,0,1,0C70.18,55,71.73,54.69,73.28,54.41Z" transform="translate(0 0.04)" style="fill: #ffdf75"/>
    <path d="M75.29,65.22c-.1-.58-.21-1.16-.31-1.74a5.77,5.77,0,0,0-1,.06c-1.61.14-3.36.49-5.1.66.08.56.16,1.12.23,1.67,1.48-.19,3-.45,4.44-.58C74.16,65.24,74.72,65.22,75.29,65.22Z" transform="translate(0 0.04)" style="fill: #ffdf75"/>
    <path d="M74.82,62.62l-.57-3.2c-.25-1.37-.51-2.73-.78-4.09l-1.42.23a28.49,28.49,0,0,1-4.31.61c.19,1.24.39,2.48.57,3.72s.31,2.22.46,3.34c1.74-.19,3.48-.42,5.24-.56C74.28,62.64,74.55,62.63,74.82,62.62Z" transform="translate(0 0.04)" style="fill: #ffdf75"/>
    <path d="M76.26,78.77c.46-.11.93-.21,1.4-.3q-1.11-6.09-2.18-12.2a23.38,23.38,0,0,0-2.9.15c-1,.12-2.11.34-3.3.49.11.8.22,1.59.32,2.39.45,3.52.88,7,1.36,10.56C72.74,79.56,74.5,79.17,76.26,78.77Z" transform="translate(0 0.04)" style="fill: #ffdf75"/>
    <path d="M78.43,82.55c-.21-1.06-.41-2.12-.61-3.19l-3,.64c-1.17.24-2.43.53-3.73.75.15,1.07.3,2.14.46,3.21l.45-.07C74.15,83.52,76.29,83,78.43,82.55Z" transform="translate(0 0.04)" style="fill: #ffdf75"/>
    <path d="M73.64,96.46c.17.94.35,1.87.52,2.8,1.27-.25,2.54-.53,3.81-.81l3.72-.82c-.24-1-.47-2-.7-3-1.76.41-3.51.81-5.24,1.25Z" transform="translate(0 0.04)" style="fill: #ffdf75"/>
    <path d="M74.32,100.08c.32,1.7.66,3.41,1,5.11,1.8-.29,3.58-.63,5.36-1,.81-.19,1.62-.41,2.41-.64l-1.2-5-4.42.91Z" transform="translate(0 0.04)" style="fill: #ffdf75"/>
    <path d="M75.51,106l.39,1.81a14.12,14.12,0,0,0,1.72-.18c2.1-.24,4.16-.68,6.24-1-.17-.72-.35-1.43-.52-2.15l-.9.22C80.14,105.21,77.84,105.67,75.51,106Z" transform="translate(0 0.04)" style="fill: #ffdf75"/>
    <path d="M78.43,118c.08.27.16.53.23.8q1.55-.31,3.09-.6l4.62-.87c-.11-.49-.22-1-.34-1.47a36.9,36.9,0,0,1-6.43,1.93Z" transform="translate(0 0.04)" style="fill: #ffdf75"/>
    <path d="M87.08,120.38c-.16-.68-.31-1.36-.47-2-1.77.31-3.55.6-5.32.92l-2.37.44c.44,1.53.9,3.07,1.35,4.61h0l.72-.53h.06l.35-.26h0l.4-.28.06,0,.35-.24.08-.06.81-.56.1-.07.33-.22h.07l.38-.25.08,0,.3-.19.09-.06.66-.39h.09l.22-.12h.07l.24-.11h0l.17-.06h.17l.85-.08h0Z" transform="translate(0 0.04)" style="fill: #ffdf75"/>
    <path d="M76.08,108.65c.09.43.18.87.28,1.31.55,2.44,1.17,4.85,1.84,7.24l2.73-.52a29.38,29.38,0,0,0,4.94-1.52c-.51-2.24-1-4.48-1.56-6.71-.07-.3-.15-.61-.22-.92-1.67.29-3.34.63-5,.83C78.07,108.48,77.07,108.56,76.08,108.65Z" transform="translate(0 0.04)" style="fill: #ffdf75"/>
    <path d="M78.59,83.44h-.23c-2,.43-4.33,1-6.69,1.39.27,1.79.55,3.57.86,5.35s.63,3.64,1,5.46c1.23-.3,2.44-.65,3.65-1l3.6-1.07c-.73-3.21-1.43-6.43-2-9.66A.89.89,0,0,1,78.59,83.44Z" transform="translate(0 0.04)" style="fill: #ffdf75"/>
    <path d="M66.69,52.34h-.8a3.11,3.11,0,0,1-.11.58v.13a4.44,4.44,0,0,1-.1.62v.12c0,.2-.06.41-.08.63a.33.33,0,0,0,0,.14c0,.2-.06.42-.08.63v.16a4.22,4.22,0,0,1,1.65-.24Z" transform="translate(0 0.04)" style="fill: #ffdf75"/>
    <path d="M66.43,50.33h0c-.09.26-.16.51-.22.75v.14c-.07.24-.13.48-.18.71h0a3,3,0,0,0,.63-.16A14.37,14.37,0,0,1,66.43,50.33Z" transform="translate(0 0.04)" style="fill: #ffdf75"/>
    <path d="M65.06,80.26a13.56,13.56,0,0,0,1.56.06A24,24,0,0,0,69.9,80l.37-.06q-.9-6.48-1.7-13a8,8,0,0,1-4.47-.59h0c-.28,2.18-.58,4.37-.94,6.55h0c.36,2.41.64,4.83.89,7.25A6.78,6.78,0,0,0,65.06,80.26Z" transform="translate(0 0.04)" style="fill: #ffdf75"/>
    <path d="M64.77,84.21h0c-.92,0,1.07,0,1.34.06h1.71a21.7,21.7,0,0,0,3-.26c-.16-1.06-.32-2.13-.46-3.2a14.87,14.87,0,0,1-6.3-.12c.11,1.14.21,2.28.31,3.41Z" transform="translate(0 0.04)" style="fill: #ffdf75"/>
    <path d="M71,85a14.24,14.24,0,0,1-6.55-.43c.35,4,.65,8,1.06,12a23,23,0,0,0,7.25-.68q-.48-2.72-.93-5.45C71.53,88.6,71.25,86.78,71,85Zm-3.1,5.69a.38.38,0,0,1-.38.25.64.64,0,0,1-.1.13.45.45,0,0,1-.64,0,.45.45,0,0,1-.11-.19v-.49a.59.59,0,0,1,0-.23.86.86,0,0,1,.17-.46h0a3.24,3.24,0,0,1,.71-.77.41.41,0,0,1,.57,0,.56.56,0,0,1,.09.17A3,3,0,0,1,67.9,90.69Z" transform="translate(0 0.04)" style="fill: #ffdf75"/>
    <path d="M65.56,97.14c.12,1.17.26,2.34.4,3.51a30.18,30.18,0,0,1,5.35-.89c.7-.1,1.39-.22,2.08-.35-.17-.92-.34-1.84-.5-2.76C70.48,97.25,67.76,97.74,65.56,97.14Z" transform="translate(0 0.04)" style="fill: #ffdf75"/>
    <path d="M71.23,108.41c1.28-.22,2.56-.36,3.84-.49-.12-.6-.25-1.19-.37-1.79l-1,.13c-2.25.27-4.58.8-6.87,1,.11.72.21,1.45.33,2.17a.46.46,0,0,1,.32.09A9.36,9.36,0,0,1,71.23,108.41Z" transform="translate(0 0.04)" style="fill: #ffdf75"/>
    <path d="M77.81,119.9c-1.15.22-2.29.46-3.43.72a29.67,29.67,0,0,1-4.92,1.11q.6,2.86,1.31,5.7l1.45.21s1.87-3.36,3.44-3.88c1.4-.47,3.26,1.55,3.26,1.55l.09-.07h.06l.21-.16h0C78.77,123.32,78.27,121.62,77.81,119.9Z" transform="translate(0 0.04)" style="fill: #ffdf75"/>
    <path d="M72.29,119c-.62.07-2.73.64-3.18-.08h0a42.7,42.7,0,0,0,5-.93l3-.55c-.65-2.66-1.22-5.32-1.78-7.94-.06-.25-.1-.5-.16-.74-1,.08-1.92.16-2.88.28a37.45,37.45,0,0,0-4.66,1.08.4.4,0,0,1-.3.25h0q.89,5.58,2,11.11c1.55-1,3.69-1.36,5.44-1.79.92-.23,1.83-.43,2.75-.63l-.21-.84C75.68,118.49,74,118.77,72.29,119Zm-2.08-5h0a.49.49,0,0,1,.69.09.8.8,0,0,1,.08.16.53.53,0,0,1,.23.49,2,2,0,0,1,.18.46.42.42,0,0,1-.29.52.45.45,0,0,1-.23,0h-.14a.56.56,0,0,1-.53.4.48.48,0,0,1-.45-.26.67.67,0,0,1-.06-.28,2.09,2.09,0,0,1-.07-.66.91.91,0,0,1-.1-.43.56.56,0,0,1,.59-.51Z" transform="translate(0 0.04)" style="fill: #ffdf75"/>
    <path d="M66,101.09c.24,1.84.5,3.67.76,5.5a39.9,39.9,0,0,1,5.53-.93l2.23-.34q-.51-2.53-1-5.1A41.37,41.37,0,0,1,66,101.09Z" transform="translate(0 0.04)" style="fill: #ffdf75"/>
    <path d="M67.2,56.16a2.81,2.81,0,0,1-1.78-.64,6.54,6.54,0,0,1-.11.83c-.11.89-.22,1.77-.32,2.66-.19,1.52-.37,3-.55,4.56h0c1.23,0,2.45-.15,3.66-.27C67.8,60.92,67.51,58.54,67.2,56.16Z" transform="translate(0 0.04)" style="fill: #ffdf75"/>
    <path d="M68.44,66c-.07-.56-.15-1.12-.22-1.69A12,12,0,0,1,64.39,64h0c-.06.55-.12,1.09-.19,1.64h0a11.29,11.29,0,0,0,2,.42A20.94,20.94,0,0,0,68.44,66Z" transform="translate(0 0.04)" style="fill: #ffdf75"/>
    <path d="M64,17.92c1.08-.67-.54-5.46-2-3.66C60.76,15.82,63,18.59,64,17.92Z" transform="translate(0 0.04)" style="fill: #2f1e22"/>
    <path d="M65.28,11.49c-1.09-2.27-4.47-2.86-6.67-1.67a5.39,5.39,0,0,0-2.07,2.57c-.24.58-.65,1.67,0,2.15a.77.77,0,0,0,.89,0,.57.57,0,0,0,.18-.32,3.26,3.26,0,0,1,1.21-2.1,4,4,0,0,1,2.35-.93A3.37,3.37,0,0,1,63.5,12.3C64.24,12.84,65.67,12.3,65.28,11.49Z" transform="translate(0 0.04)" style="fill: #383b1b"/>
    <path d="M62.68,29.54Z" transform="translate(0 0.04)" style="fill: #383b1b"/>
    <path d="M50.71,22.63a.23.23,0,0,0-.07.07h.07S50.73,22.61,50.71,22.63Z" transform="translate(0 0.04)" style="fill: #383b1b"/>
    <path d="M50.62,23.33a3.31,3.31,0,0,1,0-.77c0-.14-.2-.13-.23,0a.61.61,0,0,1-.07.14h0a.17.17,0,0,0,0-.1.67.67,0,0,0,0,.2,2.54,2.54,0,0,0,0,.39,2,2,0,0,0,.19.79c0,.07.12,0,.14,0A1.43,1.43,0,0,0,50.62,23.33Z" transform="translate(0 0.04)" style="fill: #383b1b"/>
    <path d="M49.67,25a1,1,0,0,0-.24-.7.12.12,0,0,0-.17,0,.09.09,0,0,0,0,.07,2.83,2.83,0,0,0,.1.71,1.57,1.57,0,0,0,.17.7.13.13,0,0,0,.18,0,.13.13,0,0,0,.06-.1A1.64,1.64,0,0,0,49.67,25Z" transform="translate(0 0.04)" style="fill: #383b1b"/>
    <path d="M51,25.69l-.06-.39v-.15h0s0-.07,0-.07c-.38-.07-.12,1.21,0,1.41a.12.12,0,0,0,.16.06.09.09,0,0,0,.06-.06A1.46,1.46,0,0,0,51,25.69Z" transform="translate(0 0.04)" style="fill: #383b1b"/>
    <path d="M51.9,24.61a2.07,2.07,0,0,1-.13-.7.06.06,0,0,0-.12,0,1.1,1.1,0,0,0-.07.67,1.75,1.75,0,0,0,.19.71c.06.09.18.05.21-.06A1,1,0,0,0,51.9,24.61Z" transform="translate(0 0.04)" style="fill: #383b1b"/>
    <path d="M48.63,23.27a.72.72,0,0,0-.11-.47,0,0,0,0,0-.1,0c0,.28-.18.61-.05.87a.07.07,0,0,0,.1,0h0A.59.59,0,0,0,48.63,23.27Z" transform="translate(0 0.04)" style="fill: #383b1b"/>
    <path d="M48.25,25.74a2,2,0,0,0-.18-.76c-.07-.13-.24,0-.24.09a5.69,5.69,0,0,0,.05.82,1.39,1.39,0,0,0,.15.75.13.13,0,0,0,.17,0,.11.11,0,0,0,0-.09A2.43,2.43,0,0,0,48.25,25.74Z" transform="translate(0 0.04)" style="fill: #383b1b"/>
    <path d="M49.37,27.3a1.84,1.84,0,0,0-.24-.64.11.11,0,0,0-.15,0,.1.1,0,0,0,0,.11,4.82,4.82,0,0,0,.1.75,1.09,1.09,0,0,0,.2.58c.07.08.19,0,.21-.08A1.79,1.79,0,0,0,49.37,27.3Z" transform="translate(0 0.04)" style="fill: #383b1b"/>
    <path d="M50.78,28.66a3.39,3.39,0,0,0-.08-.44.54.54,0,0,1,0-.18c0-.09,0-.1.06-.13s.08-.22,0-.21a.56.56,0,0,0-.36.46,1.56,1.56,0,0,0,.18.79.11.11,0,0,0,.15,0l0,0S50.78,28.76,50.78,28.66Z" transform="translate(0 0.04)" style="fill: #383b1b"/>
    <path d="M51.89,27.94a1.39,1.39,0,0,0-.26-.71m-.08,0V28c0,.24-.06.54.08.72a.1.1,0,0,0,.12,0l0,0c.22-.15.14-.49.11-.73Z" transform="translate(0 0.04)" style="fill: #383b1b"/>
    <path d="M52.38,23.35c0-.1-.13-.1-.15,0a1,1,0,0,0,.14.76.11.11,0,0,0,.16,0,.08.08,0,0,0,0-.07C52.57,23.78,52.38,23.59,52.38,23.35Z" transform="translate(0 0.04)" style="fill: #383b1b"/>
    <path d="M53.7,23.46c-.06-.11-.23,0-.22.09a3.09,3.09,0,0,0,.17,1c.06.11.2,0,.23-.06A1.6,1.6,0,0,0,53.7,23.46Z" transform="translate(0 0.04)" style="fill: #383b1b"/>
    <path d="M53.06,26.18c-.05-.15-.15-.44-.35-.4a.15.15,0,0,0-.12.15,4.84,4.84,0,0,0,.14.51c.05.19.1.38.29.46s.11,0,.13-.07A1,1,0,0,0,53.06,26.18Z" transform="translate(0 0.04)" style="fill: #383b1b"/>
    <path d="M54.23,27l-.12-.56c0-.11-.18-.08-.2,0-.08.33-.13.91.21,1.1a.12.12,0,0,0,.15-.08h0A1.44,1.44,0,0,0,54.23,27Z" transform="translate(0 0.04)" style="fill: #383b1b"/>
    <path d="M54.34,29.84l-.12-.39a1.05,1.05,0,0,1-.06-.24.1.1,0,0,0-.09-.11.11.11,0,0,0-.09,0,1,1,0,0,0,0,.67,1.05,1.05,0,0,0,.26.71.12.12,0,0,0,.18,0s0,0,0,0A1.38,1.38,0,0,0,54.34,29.84Z" transform="translate(0 0.04)" style="fill: #383b1b"/>
    <path d="M53.21,28.91c0-.08-.1-.15-.15-.07a.71.71,0,0,0-.08.62c.06.23.17.57.38.68a.14.14,0,0,0,.16-.07C53.67,29.65,53.11,29.33,53.21,28.91Z" transform="translate(0 0.04)" style="fill: #383b1b"/>
    <path d="M52.24,31.11c-.05-.23-.12-.46-.19-.69a.1.1,0,0,0-.13-.06.09.09,0,0,0-.06.06c-.12.2,0,.51,0,.71a1.52,1.52,0,0,0,.31.78.1.1,0,0,0,.14,0,.09.09,0,0,0,0-.06A2.07,2.07,0,0,0,52.24,31.11Z" transform="translate(0 0.04)" style="fill: #383b1b"/>
    <path d="M50.47,31.42a1.89,1.89,0,0,0-.2-.84c0-.06-.11,0-.13,0a2.37,2.37,0,0,0,0,.84,2.58,2.58,0,0,0,.08.83.11.11,0,0,0,.15,0,.12.12,0,0,0,.05,0A1.39,1.39,0,0,0,50.47,31.42Z" transform="translate(0 0.04)" style="fill: #383b1b"/>
    <path d="M48.85,30.28l-.06-.43c0-.05,0-.29-.06-.18,0-.11-.06-.23-.17-.16s-.11.47-.1.64a1.65,1.65,0,0,0,.23.89.11.11,0,0,0,.15,0l0,0A1.31,1.31,0,0,0,48.85,30.28Z" transform="translate(0 0.04)" style="fill: #383b1b"/>
    <path d="M47.62,28.5c0-.08-.17-.06-.15,0a6,6,0,0,1,.09.61,2.84,2.84,0,0,0,.1.57c0,.05.1.06.12,0A1.62,1.62,0,0,0,47.62,28.5Z" transform="translate(0 0.04)" style="fill: #383b1b"/>
    <path d="M48.46,32.76A4.89,4.89,0,0,0,48.3,32a.09.09,0,0,0-.1,0c-.25.11-.14.6-.1.79s.12.72.37.9a.1.1,0,0,0,.12,0,.06.06,0,0,0,0,0A1.66,1.66,0,0,0,48.46,32.76Z" transform="translate(0 0.04)" style="fill: #383b1b"/>
    <path d="M50,33.65a3.15,3.15,0,0,0-.06-.61c0-.19-.12-.69-.4-.58a0,0,0,0,0,0,.07h0a1.76,1.76,0,0,1,.09.79c0,.19,0,.7.18.79a.14.14,0,0,0,.17,0A3.62,3.62,0,0,0,50,33.65Z" transform="translate(0 0.04)" style="fill: #383b1b"/>
    <path d="M51.42,33.3a.1.1,0,0,0-.19,0,2.7,2.7,0,0,0,.12,1.59.11.11,0,0,0,.16,0s0,0,0-.06A4.43,4.43,0,0,0,51.42,33.3Z" transform="translate(0 0.04)" style="fill: #383b1b"/>
    <path d="M52.48,32.79c0-.07-.13-.09-.13,0a3.18,3.18,0,0,0,.13,1.59c.05.1.2,0,.21-.05A4.74,4.74,0,0,0,52.48,32.79Z" transform="translate(0 0.04)" style="fill: #383b1b"/>
    <path d="M53.75,32.6a3,3,0,0,0-.28-.64c-.07-.09-.19,0-.19.08a2.24,2.24,0,0,0,.1.63.83.83,0,0,0,.27.63.11.11,0,0,0,.14,0l0,0A.86.86,0,0,0,53.75,32.6Z" transform="translate(0 0.04)" style="fill: #383b1b"/>
    <path d="M55,32.23a1,1,0,0,0-.61-.67s-.09.07,0,.1a2.06,2.06,0,0,1,.39.85c.08.25.11.67.32.83s.18,0,.21-.08A2,2,0,0,0,55,32.23Z" transform="translate(0 0.04)" style="fill: #383b1b"/>
    <path d="M55.8,32.05c0-.08-.15,0-.12.08a6.3,6.3,0,0,0,.55,1.74c.06.1.2,0,.2-.08A4.67,4.67,0,0,0,55.8,32.05Z" transform="translate(0 0.04)" style="fill: #383b1b"/>
    <path d="M56.75,36.23c0-.09-.15-.58-.14-.58h0c-.4,0-.16,1.24,0,1.46a.14.14,0,0,0,.19.06.12.12,0,0,0,.06-.06A1.56,1.56,0,0,0,56.75,36.23Z" transform="translate(0 0.04)" style="fill: #383b1b"/>
    <path d="M55.26,35.45c0-.15-.13-.49,0-.63a.06.06,0,0,0,0-.08h0a.59.59,0,0,0-.23.55,1.32,1.32,0,0,0,.17.75.11.11,0,0,0,.14.07.12.12,0,0,0,.07-.07A1.32,1.32,0,0,0,55.26,35.45Z" transform="translate(0 0.04)" style="fill: #383b1b"/>
    <path d="M54,34.85a3.16,3.16,0,0,0,0-.68c-.05-.23-.14-.13-.17,0a2.07,2.07,0,0,0,0,1.39.12.12,0,0,0,.15.08.11.11,0,0,0,.08-.08A1.88,1.88,0,0,0,54,34.85Z" transform="translate(0 0.04)" style="fill: #383b1b"/>
    <path d="M52.92,35.05a.1.1,0,0,0-.19,0,5.83,5.83,0,0,0,.1,1.56.12.12,0,0,0,.16.06.09.09,0,0,0,.06-.06A3.07,3.07,0,0,0,52.92,35.05Z" transform="translate(0 0.04)" style="fill: #383b1b"/>
    <path d="M51.55,36.4a1,1,0,0,0-.57-.61s-.08.06-.06.1a3.57,3.57,0,0,1,.34.71,3.38,3.38,0,0,0,.28.81.12.12,0,0,0,.16.06.09.09,0,0,0,.06-.06A1.55,1.55,0,0,0,51.55,36.4Z" transform="translate(0 0.04)" style="fill: #383b1b"/>
    <path d="M49.46,35.14a.09.09,0,0,0-.1,0,.12.12,0,0,0,0,0,2.47,2.47,0,0,0,.51,1.5c.06.08.17,0,.17-.07C50,36.06,49.55,35.65,49.46,35.14Z" transform="translate(0 0.04)" style="fill: #383b1b"/>
    <path d="M48.45,34.84c0-.07-.11-.07-.12,0A4.57,4.57,0,0,0,48.7,37a.1.1,0,0,0,.11.06.09.09,0,0,0,.06-.06A19.22,19.22,0,0,0,48.45,34.84Z" transform="translate(0 0.04)" style="fill: #383b1b"/>
    <path d="M50.09,38.74a1.51,1.51,0,0,0-.07-.56.13.13,0,0,0-.16-.09.14.14,0,0,0-.09.09,1.52,1.52,0,0,0,0,.6.69.69,0,0,0,.17.48.1.1,0,0,0,.14,0,.05.05,0,0,0,0,0A1.77,1.77,0,0,0,50.09,38.74Z" transform="translate(0 0.04)" style="fill: #383b1b"/>
    <path d="M51.35,38.31c0-.06,0-.11-.09-.06a1.31,1.31,0,0,0-.31.93,2.18,2.18,0,0,0,.18,1.07.12.12,0,0,0,.18,0,.14.14,0,0,0,0-.08C51.47,39.58,51.13,38.92,51.35,38.31Z" transform="translate(0 0.04)" style="fill: #383b1b"/>
    <path d="M53,38.8a.06.06,0,1,0-.09-.09h0a1,1,0,0,0-.37.64,1.13,1.13,0,0,0,0,.77.08.08,0,0,0,.11,0,.83.83,0,0,0,.18-.57A2.41,2.41,0,0,1,53,38.8Z" transform="translate(0 0.04)" style="fill: #383b1b"/>
    <path d="M53.81,37.32a.07.07,0,0,0,0-.09.08.08,0,0,0-.09,0,.76.76,0,0,0-.13.62,1.75,1.75,0,0,0,.19.71.12.12,0,0,0,.17,0,.11.11,0,0,0,0-.09C54.07,38.13,53.74,37.74,53.81,37.32Z" transform="translate(0 0.04)" style="fill: #383b1b"/>
    <path d="M54.83,37.52a1,1,0,0,0-.22-.62h0a2.12,2.12,0,0,0,0,.71,1.36,1.36,0,0,0,.11.69.1.1,0,0,0,.14,0l0,0A1.48,1.48,0,0,0,54.83,37.52Z" transform="translate(0 0.04)" style="fill: #383b1b"/>
    <path d="M56,38v-.53h0c0,.07-.09-.14-.13-.07s-.1.09-.12.18a1,1,0,0,0,0,.35,2.83,2.83,0,0,0,.09.82c0,.1.2.13.24,0A1.74,1.74,0,0,0,56,38Z" transform="translate(0 0.04)" style="fill: #383b1b"/>
    <path d="M56,39.68c0-.07-.14,0-.13,0a2.9,2.9,0,0,0,.14.65,3.93,3.93,0,0,0,.15.68.1.1,0,0,0,.2,0A2.49,2.49,0,0,0,56,39.68Z" transform="translate(0 0.04)" style="fill: #383b1b"/>
    <path d="M55,39.62a.09.09,0,0,0-.1,0l0,0a1.74,1.74,0,0,0-.09.64,2.1,2.1,0,0,0,0,.79.1.1,0,0,0,.13.05.12.12,0,0,0,0-.05A2,2,0,0,0,55,39.62Z" transform="translate(0 0.04)" style="fill: #383b1b"/>
    <path d="M53.79,39.9a.09.09,0,0,0-.1,0l0,0a3.38,3.38,0,0,0,0,1.55.1.1,0,0,0,.2,0A5.36,5.36,0,0,0,53.79,39.9Z" transform="translate(0 0.04)" style="fill: #383b1b"/>
    <path d="M52.64,41.11a.09.09,0,0,0-.17,0,3.9,3.9,0,0,0,.13,1.44.09.09,0,1,0,.18,0A3.53,3.53,0,0,0,52.64,41.11Z" transform="translate(0 0.04)" style="fill: #383b1b"/>
    <path d="M51.59,42.1c0-.16-.06-.58-.26-.6h0q0,.33,0,.66a4.26,4.26,0,0,0,.07.87c0,.07.09,0,.12,0A1.56,1.56,0,0,0,51.59,42.1Z" transform="translate(0 0.04)" style="fill: #383b1b"/>
    <path d="M50.19,41.2a.08.08,0,0,0-.16,0,2.82,2.82,0,0,0,.14,1.41.11.11,0,0,0,.14,0,.1.1,0,0,0,0-.07A5.68,5.68,0,0,0,50.19,41.2Z" transform="translate(0 0.04)" style="fill: #383b1b"/>
    <path d="M57.55,38.94a3.84,3.84,0,0,0,0-.83.11.11,0,0,0-.13-.11h0a.11.11,0,0,0-.08.11h0a1.14,1.14,0,0,0-.09.26,2,2,0,0,0,0,.35,2.13,2.13,0,0,0,.1.83.08.08,0,0,0,.16,0A1.26,1.26,0,0,0,57.55,38.94Z" transform="translate(0 0.04)" style="fill: #383b1b"/>
    <path d="M58.6,37.83a5.75,5.75,0,0,1,0-.83.07.07,0,0,0-.09,0,.08.08,0,0,0,0,0,1.44,1.44,0,0,0-.16.64,1.33,1.33,0,0,0,.07.74.11.11,0,0,0,.14,0l0,0A.87.87,0,0,0,58.6,37.83Z" transform="translate(0 0.04)" style="fill: #383b1b"/>
    <path d="M58.23,35.93a3.26,3.26,0,0,1-.13-.82c0-.09-.12-.1-.16,0a1.1,1.1,0,0,0-.06.67,3.67,3.67,0,0,0,.2.87.12.12,0,0,0,.23,0A1.19,1.19,0,0,0,58.23,35.93Z" transform="translate(0 0.04)" style="fill: #383b1b"/>
    <path d="M57,33.58a.06.06,0,0,0,0,.07h0a2.64,2.64,0,0,1,.12.4.91.91,0,0,0,.1.4.1.1,0,0,0,.12,0l0,0C57.37,34.16,57.29,33.65,57,33.58Z" transform="translate(0 0.04)" style="fill: #383b1b"/>
    <path d="M58.72,34.07a6.75,6.75,0,0,0-.14-.76.07.07,0,0,0-.14,0,1.38,1.38,0,0,0-.07.67,1.76,1.76,0,0,0,.14.75.11.11,0,0,0,.15,0l0,0A.89.89,0,0,0,58.72,34.07Z" transform="translate(0 0.04)" style="fill: #383b1b"/>
    <path d="M59.78,34.83v-.78a.1.1,0,0,0-.11-.06.09.09,0,0,0-.06.06,2,2,0,0,0-.11,1.44.12.12,0,0,0,.15.08.11.11,0,0,0,.08-.08A2.94,2.94,0,0,0,59.78,34.83Z" transform="translate(0 0.04)" style="fill: #383b1b"/>
    <path d="M61.35,35.27a5.6,5.6,0,0,1,.06-1,.1.1,0,0,0-.07-.12.11.11,0,0,0-.08,0C61,34.3,61,34.7,61,35a3.38,3.38,0,0,0,0,1.1.12.12,0,0,0,.15.08.11.11,0,0,0,.08-.08A2.55,2.55,0,0,0,61.35,35.27Z" transform="translate(0 0.04)" style="fill: #383b1b"/>
    <path d="M55,24.05c0-.05-.1-.07-.12,0A1.13,1.13,0,0,0,55,25.12c0,.06.16,0,.17-.06A2.34,2.34,0,0,0,55,24.05Z" transform="translate(0 0.04)" style="fill: #383b1b"/>
    <path d="M56,24.53a4.09,4.09,0,0,1,0-.7,0,0,0,0,0-.07,0l0,0a1.25,1.25,0,0,0,0,1.34.11.11,0,0,0,.19,0A1.55,1.55,0,0,0,56,24.53Z" transform="translate(0 0.04)" style="fill: #383b1b"/>
    <path d="M57.36,24.9a1.53,1.53,0,0,0-.36-.66.09.09,0,0,0-.13,0,.1.1,0,0,0,0,.09A2.6,2.6,0,0,0,57,25a1.73,1.73,0,0,0,.3.68c.09.09.21,0,.21-.12A1.87,1.87,0,0,0,57.36,24.9Z" transform="translate(0 0.04)" style="fill: #383b1b"/>
    <path d="M56.36,26c-.12.09-.08.32-.08.45a.8.8,0,0,0,.14.54.12.12,0,0,0,.17,0s0,0,0,0S56.59,25.87,56.36,26Z" transform="translate(0 0.04)" style="fill: #383b1b"/>
    <path d="M58.36,26.59c0-.08-.09-.11-.13,0a1,1,0,0,0-.16.44,1,1,0,0,0,.12.56.14.14,0,0,0,.2,0,.22.22,0,0,0,0-.08C58.49,27.19,58.33,26.89,58.36,26.59Z" transform="translate(0 0.04)" style="fill: #383b1b"/>
    <path d="M58.32,24.7c0-.08-.14-.06-.15,0a1.22,1.22,0,0,0,.23,1.07.08.08,0,0,0,.11,0l0,0C58.65,25.39,58.39,25.05,58.32,24.7Z" transform="translate(0 0.04)" style="fill: #383b1b"/>
    <path d="M59.83,25.08c-.09-.27-.16-.56-.24-.83a.09.09,0,0,0-.18,0h0a2.21,2.21,0,0,0,.4,1.65c.07.07.17,0,.17-.09A3,3,0,0,0,59.83,25.08Z" transform="translate(0 0.04)" style="fill: #383b1b"/>
    <path d="M60.86,24.47c0-.12-.15-.15-.17,0a1.61,1.61,0,0,0,.2,1.44c.08.08.19,0,.19-.1C61.1,25.34,60.83,24.92,60.86,24.47Z" transform="translate(0 0.04)" style="fill: #383b1b"/>
    <path d="M66.61,27.44a1.4,1.4,0,0,0-.22-.62m-.06,0v.64a1.62,1.62,0,0,0,.1.72.13.13,0,0,0,.18,0l0,0a1.33,1.33,0,0,0,0-.74Z" transform="translate(0 0.04)" style="fill: #383b1b"/>
    <path d="M62.37,25.69a1.61,1.61,0,0,0-.07-.49.06.06,0,0,0-.08,0l0,0a1.1,1.1,0,0,0,0,1,.1.1,0,0,0,.12,0,.08.08,0,0,0,0,0A.74.74,0,0,0,62.37,25.69Z" transform="translate(0 0.04)" style="fill: #383b1b"/>
    <path d="M63.29,25.82a.08.08,0,0,0-.06-.1.08.08,0,0,0-.08,0A1.46,1.46,0,0,0,62.81,27a.07.07,0,0,0,.09,0,.08.08,0,0,0,0,0A2.88,2.88,0,0,0,63.29,25.82Z" transform="translate(0 0.04)" style="fill: #383b1b"/>
    <path d="M64.28,24.74a.08.08,0,0,0-.06-.11.08.08,0,0,0-.08,0,1.59,1.59,0,0,0-.37,1.2.12.12,0,0,0,.16.06.09.09,0,0,0,.06-.06C64.18,25.54,64.11,25.1,64.28,24.74Z" transform="translate(0 0.04)" style="fill: #383b1b"/>
    <path d="M65.43,26.41a2.1,2.1,0,0,0-.19-.53.1.1,0,0,0-.13-.05.12.12,0,0,0,0,.05,1.65,1.65,0,0,0,.2,1.09c.08.11.24,0,.24-.1A1.77,1.77,0,0,0,65.43,26.41Z" transform="translate(0 0.04)" style="fill: #383b1b"/>
    <path d="M67.58,26.57a3.1,3.1,0,0,0-.1-.53.09.09,0,0,0-.1,0c-.17.07-.15.33-.14.49s0,.55.21.67a.14.14,0,0,0,.17-.07A1,1,0,0,0,67.58,26.57Z" transform="translate(0 0.04)" style="fill: #383b1b"/>
    <path d="M64.53,27s0-.05,0-.06h0a.88.88,0,0,0-.1,1s.1.06.13,0C64.67,27.76,64.5,27.33,64.53,27Z" transform="translate(0 0.04)" style="fill: #383b1b"/>
    <path d="M66.4,24.11a.08.08,0,0,0-.08-.1.07.07,0,0,0-.07,0,1.76,1.76,0,0,0,0,1.52.1.1,0,0,0,.2,0C66.6,25,66.21,24.6,66.4,24.11Z" transform="translate(0 0.04)" style="fill: #383b1b"/>
    <path d="M70.88,26.48a1.62,1.62,0,0,0-.27-.74.08.08,0,0,0-.11,0,.09.09,0,0,0,0,.07,5.9,5.9,0,0,0,.09.72,1.91,1.91,0,0,0,.13.75.12.12,0,0,0,.17,0l0,0A1.33,1.33,0,0,0,70.88,26.48Z" transform="translate(0 0.04)" style="fill: #383b1b"/>
    <path d="M69.83,27a3.8,3.8,0,0,0-.35-.92h-.07a3.64,3.64,0,0,0,.11.87,4.52,4.52,0,0,0,.2.9.09.09,0,0,0,.1,0,.12.12,0,0,0,.05,0A1.45,1.45,0,0,0,69.83,27Z" transform="translate(0 0.04)" style="fill: #383b1b"/>
    <path d="M68.77,27a5.19,5.19,0,0,0-.13-.88.1.1,0,0,0-.11-.06.09.09,0,0,0-.06.06,2.78,2.78,0,0,0-.07.81,2.93,2.93,0,0,0,.11.93.15.15,0,0,0,.17.1.14.14,0,0,0,.1-.1A2.26,2.26,0,0,0,68.77,27Z" transform="translate(0 0.04)" style="fill: #383b1b"/>
    <path d="M71.44,27.7a.08.08,0,0,0-.16,0h0a5.42,5.42,0,0,0,0,.57,1.32,1.32,0,0,0,.08.62c0,.06.1,0,.13,0A2.67,2.67,0,0,0,71.44,27.7Z" transform="translate(0 0.04)" style="fill: #383b1b"/>
    <path d="M71.88,25.59a.09.09,0,0,0-.17,0,1.79,1.79,0,0,0,.15,1.16c0,.08.15,0,.15-.06A8.06,8.06,0,0,0,71.88,25.59Z" transform="translate(0 0.04)" style="fill: #383b1b"/>
    <path d="M69.34,25.26a.39.39,0,0,0-.22-.33A.11.11,0,0,0,69,25a.8.8,0,0,0,.27.82.14.14,0,0,0,.16-.07A.65.65,0,0,0,69.34,25.26Z" transform="translate(0 0.04)" style="fill: #383b1b"/>
    <path d="M64.45,33.39a.1.1,0,0,0-.18-.06,2.39,2.39,0,0,0-.15,1.58c0,.08.11.06.14,0C64.52,34.46,64.33,33.88,64.45,33.39Z" transform="translate(0 0.04)" style="fill: #383b1b"/>
    <path d="M63.42,34.29a2.32,2.32,0,0,0-.35.66,2.61,2.61,0,0,0-.14,1,.08.08,0,1,0,.16,0c.17-.52.31-1.05.43-1.59C63.55,34.29,63.46,34.22,63.42,34.29Z" transform="translate(0 0.04)" style="fill: #383b1b"/>
    <path d="M62.18,34.87h-.06A3.62,3.62,0,0,0,61.88,37a.11.11,0,0,0,.22,0C62.23,36.29,62,35.57,62.18,34.87Z" transform="translate(0 0.04)" style="fill: #383b1b"/>
    <path d="M61.36,38.26a5.37,5.37,0,0,0-.11-.7.09.09,0,0,0,0-.12l-.1-.13c-.07-.12-.22-.05-.25.06A2.72,2.72,0,0,0,61.21,39a.1.1,0,0,0,.13.06A.09.09,0,0,0,61.4,39,1.84,1.84,0,0,0,61.36,38.26Z" transform="translate(0 0.04)" style="fill: #383b1b"/>
    <path d="M60.07,37.36a3,3,0,0,1-.17-.79,0,0,0,1,0-.1,0,2.42,2.42,0,0,0,0,.76,1,1,0,0,0,.23.61.08.08,0,0,0,.11,0l0,0A1.41,1.41,0,0,0,60.07,37.36Z" transform="translate(0 0.04)" style="fill: #383b1b"/>
    <path d="M59.74,38.63s0-.07-.07,0a1.77,1.77,0,0,0-.05,1.6c0,.08.14.07.16,0C59.87,39.67,59.68,39.15,59.74,38.63Z" transform="translate(0 0.04)" style="fill: #383b1b"/>
    <path d="M60.77,40.13c0-.09-.1-.14-.14-.05a2.12,2.12,0,0,0-.09,1.47.08.08,0,0,0,.11,0l0,0A4.83,4.83,0,0,0,60.77,40.13Z" transform="translate(0 0.04)" style="fill: #383b1b"/>
    <path d="M62.21,39.16a.07.07,0,0,0-.14,0,3.56,3.56,0,0,1-.12.62.89.89,0,0,0,0,.56.1.1,0,0,0,.12,0l0,0C62.4,40.12,62.33,39.5,62.21,39.16Z" transform="translate(0 0.04)" style="fill: #383b1b"/>
    <path d="M63.16,37.69a.09.09,0,0,0-.17,0c0,.11-.06.4-.08.6s-.08.39-.08.59.09.11.14.06C63.3,38.65,63.19,38.07,63.16,37.69Z" transform="translate(0 0.04)" style="fill: #383b1b"/>
    <path d="M64.5,36.71a.14.14,0,0,0-.11-.16.13.13,0,0,0-.17.11A3.91,3.91,0,0,0,64,37.78a.13.13,0,0,0,.13.13.12.12,0,0,0,.1,0A2.3,2.3,0,0,0,64.5,36.71Z" transform="translate(0 0.04)" style="fill: #383b1b"/>
    <path d="M63.81,36c0-.1-.1-.17-.17-.08a.92.92,0,0,0-.2.78.1.1,0,0,0,.14,0l0,0A1.42,1.42,0,0,0,63.81,36Z" transform="translate(0 0.04)" style="fill: #383b1b"/>
    <path d="M65.31,34.65a.08.08,0,0,0-.16,0,1.49,1.49,0,0,0-.12.75.07.07,0,0,0,.09,0,.08.08,0,0,0,0,0A1.49,1.49,0,0,0,65.31,34.65Z" transform="translate(0 0.04)" style="fill: #383b1b"/>
    <path d="M66.49,33.64c0-.11-.12-.13-.16,0a2.46,2.46,0,0,0-.25,1.13c0,.06.11.07.14,0A2.47,2.47,0,0,0,66.49,33.64Z" transform="translate(0 0.04)" style="fill: #383b1b"/>
    <path d="M66.35,36.22a.14.14,0,0,0-.15,0,.25.25,0,0,0-.12.08.09.09,0,0,0,0,.13h0A2.8,2.8,0,0,1,66,37c-.06.25-.1.5-.15.74s.1.16.15.08a3.42,3.42,0,0,0,.35-.75C66.37,36.82,66.49,36.44,66.35,36.22Z" transform="translate(0 0.04)" style="fill: #383b1b"/>
    <path d="M64.86,38.6a.9.9,0,0,0-.09-.4c0-.1-.14-.07-.17,0a3,3,0,0,0-.28,1.5.11.11,0,0,0,.15,0l0,0a2,2,0,0,0,.29-.7A1.34,1.34,0,0,0,64.86,38.6Z" transform="translate(0 0.04)" style="fill: #383b1b"/>
    <path d="M58,40.84a.12.12,0,1,0-.24,0c-.08.24-.12.5-.18.74a3.55,3.55,0,0,0-.15.72.1.1,0,0,0,.16.08A2.7,2.7,0,0,0,58,40.84Z" transform="translate(0 0.04)" style="fill: #383b1b"/>
    <path d="M58.86,41.52a.06.06,0,0,0-.12,0c-.13.51-.41,1-.51,1.49a.09.09,0,0,0,.1.05l.05-.05A2.92,2.92,0,0,0,58.86,41.52Z" transform="translate(0 0.04)" style="fill: #383b1b"/>
    <path d="M59.93,41.93a3.35,3.35,0,0,0-.63,1.66.08.08,0,0,0,.06.1.08.08,0,0,0,.08,0c.36-.48.23-1.16.58-1.64C60.07,42,60,41.87,59.93,41.93Z" transform="translate(0 0.04)" style="fill: #383b1b"/>
    <path d="M61,42.66a1.1,1.1,0,0,1,0-.4c.05-.13,0-.1,0-.15V42h0a.09.09,0,0,0,0-.07.06.06,0,0,0-.08,0c-.16,0-.2.36-.23.52a2.53,2.53,0,0,0-.07.91.08.08,0,0,0,.16,0A1.89,1.89,0,0,0,61,42.66Z" transform="translate(0 0.04)" style="fill: #383b1b"/>
    <path d="M62.47,41.35a.1.1,0,0,0-.06-.13.12.12,0,0,0-.1,0A2.27,2.27,0,0,0,62,42.68a.09.09,0,1,0,.18,0A11.37,11.37,0,0,1,62.47,41.35Z" transform="translate(0 0.04)" style="fill: #383b1b"/>
    <path d="M63.81,40.45H63.7a.19.19,0,0,0,0,.15,3.75,3.75,0,0,1-.17.47,3.41,3.41,0,0,0-.21,1.18.09.09,0,0,0,.1,0,.12.12,0,0,0,0,0A10.93,10.93,0,0,0,63.88,41C63.84,40.91,64,40.6,63.81,40.45Z" transform="translate(0 0.04)" style="fill: #383b1b"/>
    <path d="M65,40.45a.07.07,0,1,0-.14,0h0a6.7,6.7,0,0,0-.44,1.92.1.1,0,0,0,.11.06.09.09,0,0,0,.06-.06A6.65,6.65,0,0,0,65,40.45Z" transform="translate(0 0.04)" style="fill: #383b1b"/>
    <path d="M54.88,43c0-.14-.1-.61-.26-.67h0a.14.14,0,0,0-.11.12,1.13,1.13,0,0,0,0,.41,2.86,2.86,0,0,0,.14.51c.05.16.07.29.2.3S54.9,43.07,54.88,43Z" transform="translate(0 0.04)" style="fill: #383b1b"/>
    <path d="M55.78,42.81a5,5,0,0,0,0-.77c0-.06-.09,0-.11,0a1.28,1.28,0,0,0-.12.61,1.88,1.88,0,0,0,.08.78.07.07,0,1,0,.14,0A1.44,1.44,0,0,0,55.78,42.81Z" transform="translate(0 0.04)" style="fill: #383b1b"/>
    <path d="M56.75,43.73a.77.77,0,0,0-.12-.73h-.05a4.34,4.34,0,0,1-.15.8,1.32,1.32,0,0,0-.1.76.08.08,0,0,0,.11,0l0,0A1.66,1.66,0,0,0,56.75,43.73Z" transform="translate(0 0.04)" style="fill: #383b1b"/>
    <path d="M57.4,45l.06-.34v-.2a.06.06,0,0,0,0-.08.06.06,0,0,0-.05,0c-.14,0-.21.19-.26.36s-.19.65-.06.87a.09.09,0,0,0,.1,0C57.39,45.5,57.38,45.22,57.4,45Z" transform="translate(0 0.04)" style="fill: #383b1b"/>
    <path d="M58.56,44.39a.06.06,0,0,0-.08,0l0,0a2.58,2.58,0,0,0-.26,1.25c0,.1.12.11.16,0A2.44,2.44,0,0,0,58.56,44.39Z" transform="translate(0 0.04)" style="fill: #383b1b"/>
    <path d="M60.14,45.65a7.21,7.21,0,0,1,.21-.92s0-.07-.06-.08h0c-.32.09-.41.6-.43.89a1.32,1.32,0,0,0,.23,1c0,.06.12,0,.12-.07C60.18,46.21,60.13,45.93,60.14,45.65Z" transform="translate(0 0.04)" style="fill: #383b1b"/>
    <path d="M61.75,43.59a.09.09,0,0,0-.18,0v.73a1.37,1.37,0,0,0,.1.69c0,.07.14,0,.15,0A3.24,3.24,0,0,0,61.75,43.59Z" transform="translate(0 0.04)" style="fill: #383b1b"/>
    <path d="M63.32,43.15h0a1,1,0,0,0-.41.58,3.17,3.17,0,0,0-.15.86.08.08,0,0,0,.1.08.09.09,0,0,0,.06,0,1.19,1.19,0,0,0,.19-.61A2.27,2.27,0,0,1,63.32,43.15Z" transform="translate(0 0.04)" style="fill: #383b1b"/>
    <path d="M64.32,43.12a.06.06,0,1,0-.12,0h0a4.75,4.75,0,0,0-.14.63,1.47,1.47,0,0,0,0,.59.1.1,0,0,0,.12,0l0,0A1.72,1.72,0,0,0,64.32,43.12Z" transform="translate(0 0.04)" style="fill: #383b1b"/>
    <path d="M54.08,43.8H54a5.18,5.18,0,0,0,.52,1.63c0,.06.1,0,.11,0A3.79,3.79,0,0,0,54.08,43.8Z" transform="translate(0 0.04)" style="fill: #383b1b"/>
    <path d="M53,44.26l-.15-.48a1,1,0,0,1-.1-.29.06.06,0,0,0-.08,0l0,0a2,2,0,0,0,.1.72,2.64,2.64,0,0,0,.13.52.76.76,0,0,0,.15.41.08.08,0,0,0,.11,0h0C53.27,44.88,53.07,44.46,53,44.26Z" transform="translate(0 0.04)" style="fill: #383b1b"/>
    <path d="M51.66,44h0a2.71,2.71,0,0,0,.19,1.26c0,.06.12,0,.12,0A2,2,0,0,0,51.66,44Z" transform="translate(0 0.04)" style="fill: #383b1b"/>
    <path d="M53.22,47.25c0-.22,0-.56-.23-.7a.08.08,0,0,0-.11,0,.08.08,0,0,0,0,0,2.44,2.44,0,0,0,.06.76,1.92,1.92,0,0,0,.19.85.08.08,0,0,0,.11,0l0,0A1.84,1.84,0,0,0,53.22,47.25Z" transform="translate(0 0.04)" style="fill: #383b1b"/>
    <path d="M54.36,46.29a0,0,0,0,0,0,.07l0,0a2.53,2.53,0,0,1,.11.72,2.25,2.25,0,0,0,.11.77.1.1,0,0,0,.14,0l0,0C54.88,47.63,54.77,46,54.36,46.29Z" transform="translate(0 0.04)" style="fill: #383b1b"/>
    <path d="M56.54,46.7a2.13,2.13,0,0,0-.11-.9h0c-.22.09-.18.51-.18.7a8,8,0,0,0,.08,1.09.09.09,0,0,0,.18,0A1.68,1.68,0,0,0,56.54,46.7Z" transform="translate(0 0.04)" style="fill: #383b1b"/>
    <path d="M67.52,34.45a5.22,5.22,0,0,0-.32.86,2.31,2.31,0,0,0-.19,1,.09.09,0,0,0,.1,0,.12.12,0,0,0,0,0,1.45,1.45,0,0,0,.28-.72c.1-.37.22-.74.33-1.11C67.83,34.37,67.59,34.32,67.52,34.45Z" transform="translate(0 0.04)" style="fill: #383b1b"/>
    <path d="M68.63,34.67a.06.06,0,0,0-.08,0l0,0A14.26,14.26,0,0,0,68,36.23c0,.08.09.13.13.07A2.87,2.87,0,0,0,68.63,34.67Z" transform="translate(0 0.04)" style="fill: #383b1b"/>
    <path d="M67.26,37.65a.12.12,0,0,0-.16-.06.09.09,0,0,0-.06.06,4.46,4.46,0,0,0-.44,1.47.06.06,0,0,0,.08,0l0,0A2.82,2.82,0,0,0,67.26,37.65Z" transform="translate(0 0.04)" style="fill: #383b1b"/>
    <path d="M66.19,38.64a.11.11,0,0,0-.21,0,3.23,3.23,0,0,0-.17,1.6c0,.08.1.08.12,0A6.68,6.68,0,0,0,66.19,38.64Z" transform="translate(0 0.04)" style="fill: #383b1b"/>
    <path d="M66.11,41a.09.09,0,0,0-.1-.1.09.09,0,0,0-.08,0,3.57,3.57,0,0,0-.45,1.78.07.07,0,0,0,.14,0A5.39,5.39,0,0,0,66.11,41Z" transform="translate(0 0.04)" style="fill: #383b1b"/>
    <path d="M55.77,28.81c-.1-.36-.17-.73-.27-1.09a.15.15,0,0,0-.19-.09.2.2,0,0,0-.09.09,2.79,2.79,0,0,0,.07,1.22C55.36,29.25,55.85,29.12,55.77,28.81Z" transform="translate(0 0.04)" style="fill: #383b1b"/>
    <path d="M56.08,30.91a2.53,2.53,0,0,0-.18-.37.44.44,0,0,0-.08-.11h-.1v.13a2.21,2.21,0,0,0,.08.37,1.78,1.78,0,0,0,.22.71.13.13,0,0,0,.2,0h0C56.31,31.43,56.15,31.12,56.08,30.91Z" transform="translate(0 0.04)" style="fill: #383b1b"/>
    <path d="M56.79,28.5a.08.08,0,0,0-.11,0l0,0c0,.26,0,.51,0,.77a.88.88,0,0,0,.14.6.14.14,0,0,0,.17,0C57.26,29.56,57,28.84,56.79,28.5Z" transform="translate(0 0.04)" style="fill: #383b1b"/>
    <path d="M58.05,28.52a2.55,2.55,0,0,0,0,.78.92.92,0,0,0,.17.67.1.1,0,0,0,.12,0l0,0c.27-.37-.13-1-.23-1.45Z" transform="translate(0 0.04)" style="fill: #383b1b"/>
    <path d="M57.83,31.85a1.25,1.25,0,0,0-.39-.72.08.08,0,0,0-.09,0h0a3.33,3.33,0,0,0,.11.77c0,.2,0,.51.18.66a.15.15,0,0,0,.21,0l0,0A1.14,1.14,0,0,0,57.83,31.85Z" transform="translate(0 0.04)" style="fill: #383b1b"/>
    <path d="M58.82,30.73a13.57,13.57,0,0,0,.11,1.42c0,.23.38.13.35-.09a2.52,2.52,0,0,0-.39-1.33Z" transform="translate(0 0.04)" style="fill: #383b1b"/>
    <path d="M71.81,28.06c-2.09-.35-4.29-.13-6.37-.63a49.42,49.42,0,0,1-6.95-2.64.51.51,0,0,0-.64.36.59.59,0,0,0,0,.13,9,9,0,0,0,2.23,5.37h0a2.56,2.56,0,0,0,.12,1c.07.24.1.55.35.67a.09.09,0,0,0,.12,0c.13-.24,0-.49-.1-.74l-.15-.46c.32.35.65.68,1,1,.17.16.35.29.52.43a1,1,0,0,0,.22.79.12.12,0,0,0,.17,0h0a.49.49,0,0,0,0-.44,9,9,0,0,0,2.93,1.31,10.6,10.6,0,0,0,4.27.21c.38-.06,1-.47.8-.84-.43-.65-1.33-.44-2.07-.39a8.5,8.5,0,0,1-4.51-.93c-2.16-1.05-4.49-3.55-4.82-6.12A40.89,40.89,0,0,0,65,28.7c1.71.46,5.12,1.24,6.83.52C72.19,29.08,72.27,28.14,71.81,28.06Z" transform="translate(0 0.04)" style="fill: #383b1b"/>
    <path d="M60.6,32.84s-.1,0-.08.07c.11.29-.07.66.15.9a.1.1,0,0,0,.14,0A.71.71,0,0,0,60.6,32.84Z" transform="translate(0 0.04)" style="fill: #383b1b"/>
    <path d="M73.28,19.6a2.36,2.36,0,0,0-1.44,1.24c-.07.18-.15.48,0,.62.62.57,1.49-.4,1.92-.79S73.77,19.38,73.28,19.6Z" transform="translate(0 0.04)" style="fill: #383b1b"/>
    <path d="M47.84,8.57c.09-.12-.07-.24-.19-.19a3.27,3.27,0,0,0-1,.77,1.88,1.88,0,0,0-.58-.38c-.09,0-.19.06-.11.14s.31.33.47.48c-.25.29-.48.6-.7.91l-.11-.11c-.07-.07-.19-.14-.24-.23s-.07,0-.08,0a1.07,1.07,0,0,0,.25.59c-.15.21-.28.4-.42.58l-.47.64-.26-.26a.23.23,0,0,1-.19-.06h0v.15a2.31,2.31,0,0,0,.26.4h0l-.77,1a3.27,3.27,0,0,0-.58-.39.12.12,0,0,0-.15.06.11.11,0,0,0,0,.11l.5.51c-.13.16-.26.32-.38.49a2.78,2.78,0,0,0-.59-.37c-.09,0-.15.09-.09.15l.51.48c-.18.26-.36.52-.52.79,0,.06,0,.15.11.1a4.57,4.57,0,0,0,.7-.62c.14.15.32.33.47.32a.15.15,0,0,0,.15-.15h0c0-.17-.22-.32-.39-.44.13-.14.25-.3.37-.45.16.15.33.29.5.42s.4-.17.23-.31l-.5-.42c.23-.31.44-.62.66-.92.12.18.24.36.35.55a.19.19,0,0,0,.34-.14,1.91,1.91,0,0,0-.47-.72L45,12l.81-1.07c.16.22.37.45.58.42a.07.07,0,0,0,.07-.07c0-.25-.25-.47-.41-.64l.61-.75.11-.12a1.48,1.48,0,0,0,.31.25.16.16,0,0,0,.22,0,.17.17,0,0,0,0-.17,1.14,1.14,0,0,0-.3-.32A6,6,0,0,0,47.84,8.57Z" transform="translate(0 0.04)" style="fill: #383b1b"/>
    <path d="M58.49,5.6,58,5.05a2.72,2.72,0,0,0,.43-.4.19.19,0,1,0-.27-.27c-.15.11-.29.23-.43.35l-.39-.47.27-.21a.17.17,0,0,0,.09-.16c0-.09,0-.11-.09-.16a.17.17,0,0,0-.19,0L57.08,4l-.32-.36L57,3.45c.24-.12,0-.5-.21-.37l-.35.2c-.17-.17-.34-.34-.51-.49a.6.6,0,0,0,.44-.12c.13-.12.07-.11,0-.16-.17-.22-.53-.06-.75,0a5.49,5.49,0,0,0-1-.64.12.12,0,0,0-.15.07.11.11,0,0,0,0,.11l.64.68a3.29,3.29,0,0,1-.91.32c-.07,0-.06.1,0,.12a1.3,1.3,0,0,0,1-.14l.22,0,.55.56a6.41,6.41,0,0,0-.79.58V4.2a2.78,2.78,0,0,0,1-.35c.14.15.27.3.41.44a1.49,1.49,0,0,0-.45.9h0A7.05,7.05,0,0,1,57,4.57l.45.5a3.35,3.35,0,0,0-.6.8s0,.07.06,0a7.06,7.06,0,0,1,.78-.57c.17.19.34.39.5.6S58.68,5.84,58.49,5.6Z" transform="translate(0 0.04)" style="fill: #383b1b"/>
    <path d="M76.28,16.56s-10,3.52-13.18,5.37a29.55,29.55,0,0,1-10.59,3.39L38.84,21.54,51,26.82c.4,3.84-.51,10.42,17.41,10.45C85.67,37.29,77.82,20.1,76.28,16.56Z" transform="translate(0 0.04)" style="fill: #fcf9eb"/>
  </g>
</svg>
