<svg xmlns="http://www.w3.org/2000/svg" viewBox="0 0 162.06 227.17"><defs><style>.cls-1{fill:#fff;}.cls-2{fill:#6a784c;}.cls-3{fill:#3f281c;}.cls-4{fill:#3b2d24;}.cls-5{fill:#e0605d;}.cls-6{fill:#2f1e22;}.cls-7{fill:#254c38;}.cls-8{fill:#ffdf75;}.cls-9{fill:#383b1b;}.cls-10{fill:#fcf9eb;}</style></defs><g id="Layer_1" data-name="Layer 1"><path class="cls-1" d="M66.71,29.19c.06-.4.15-1.41.15-1.41s-1.28-.05-1.68-.13a.32.32,0,0,0-.38.31c0,.67-.17,1.34-.22,2,0,0,0,0,0,0l0,.16a.33.33,0,0,0,.32.38c.43,0,1.61.07,1.61.07S66.64,29.61,66.71,29.19Z"/><path class="cls-1" d="M70.94,29.45c0-.4-.08-1.42-.08-1.42a16.26,16.26,0,0,1-1.69.15.31.31,0,0,0-.31.37c.06.67.29,2.55.49,2.54.43,0,1.61-.2,1.61-.2S70.94,29.87,70.94,29.45Z"/><path class="cls-2" d="M115.05,199.9l-3.47-6.68-2.31,3.93c0,2.95.17,5.71.18,6.31.1,5.15,1.17,12.09-.49,16.83s2.33,8.25,8.59,6.33c9.61-3,13.83.47,19.54-.58,1.6-.3,7.56-1.24,8.75-2.79a1.4,1.4,0,0,0-.49-2.33c-1.82-.55-5.35,1.59-5.33,1.24.11-1.51,5.67-1.74,5.44-2.95s-5-.05-6.43.4c1.43-.45,5.83-1.92,5.64-2.73-.28-1.2-5.38,1.33-6.4,1-.55-.2,5.31-1.61,4.94-2.36-.68-1.38-6.69,1.38-4.72,0,1.33-1,2.83-1.15,2.71-1.47-.65-1.86-9.48.42-12.19.14-4.4-.47-5-.21-6.65-.93-2.72-1.24-1.33-3-1.26-6.16.06-3,.64-8.72.49-12.46l-2-1.15Z"/><path class="cls-2" d="M11.26,194.61c-6.18,0-11,2.6-9,6.1,5,8.93,4,8.52,5.65,12.58,1.16,2.89,1.74,4.66,4.21,6.57.58.45,3,4,3.69,3.66,1.11-.55-.71-3-.21-2.68.17.1.75,1.48,1.32,2.13.41.46,1.72.84,1.54.18s-1.1-2.75-.89-2.71c.63.12,1.41,3.63,3.1,3,1.24-.43-1.37-3.29-.43-3.37.69-.06,1.5,4.85,3.28,3.06.58-.58-2.21-4.06-1.73-4.42s3.62,3.75,4.44,3.82c1.1.09,2.79-1.56-.34-4.5a15,15,0,0,1-1.49-2.12c-1.94-3.48-4.22-4.82-5.82-9.53-1.71-5,.42-6.29,3.15-6.58-1.67-2.12-3.73-5-5.47-7.5C14,193.37,12.12,194.6,11.26,194.61Z"/><path class="cls-3" d="M88,120.36l-1,0-.85.08-.17,0,0,0-.17.06,0,0-.24.11-.07,0-.22.12-.09,0-.66.39-.09.06-.3.19-.08.05-.38.25-.07,0-.33.22-.1.07-.81.56-.08.06-.35.24-.06.05-.4.28,0,0-.35.26-.06,0-.72.53-1,.74-.21.16h0s0,0-.06,0l-.09.07s-1.86-2-3.26-1.55c-1.57.52-3.44,3.88-3.44,3.88l-1.45-.21-10.19-1.5-.2.16-1.16.94-3.57,2.87-.67.54h-.06l-.1,0h0l-.18,0-.09,0-.17,0-.1,0-.28-.09-.12,0-.12,0h0c-.34-.11-.74-.24-1.17-.4h0l-.54-.21h0l-.55-.23,0,0-.55-.25-.05,0q-.27-.12-.54-.27l0,0c-.17-.09-.35-.19-.52-.3l0,0-.5-.33,0,0c-.16-.11-.33-.24-.48-.36l0,0a5.82,5.82,0,0,1-.45-.4c-.1.23-.21.46-.33.7a1.86,1.86,0,0,1-.1.2c-.08.18-.18.36-.27.54l-.09.17c-.12.23-.24.46-.37.69l-.13.24c-.08.15-.16.3-.25.44l0,.05h0c-.21.38-.43.75-.63,1.09h0c-.7,1.17-1.28,2-1.46,2.31,0,.1,0,.21,0,.31.55,8.52,7.48,19.19,3.73,33.72-1.16,4.49-7.35,8.4-8.79,9.37-3.24,2.18-6.63,5.62-14.78,8.12-5.32,1.63-5.44,1.4-12,1.4-.28,0,1.38,2.64,3.55,5.8,1.74,2.52,3.8,5.38,5.47,7.5.82,1,1.54,1.91,2.09,2.47,1.88,1.93,14,11.28,14,11.28s1.86-11.78,14.11-23.13c7.42-6.87,13.36-14.37,16-18.84,4.26-7.31,4.2-21.9,4.38-33.25,0-2,0-4.06,0-6.1a204.67,204.67,0,0,0,23.2,17.2c12,7.34,8.16,12.92,9.25,22.26.43,3.71,1.23,7.77,1.23,11.49-.09,4.09-1,4.55,2.27,15.76l1.07-1.82,2.31-3.93,3.47,6.68,4.58-6.49,2,1.15,2,1.14s2.72-4.16,2.6-5.91c-.41-5.81-.57-8-.59-8.3,0,.51.5,7.09.59,8.29-1-13.7-1.15-27.72-5.29-40.94-3-9.69-17.78-21.78-26.57-28.29A54.76,54.76,0,0,0,88,120.36Z"/><path class="cls-4" d="M126.16,189.94h0Z"/><path class="cls-4" d="M126.16,190Z"/><path class="cls-4" d="M126.16,189.94s0-.09,0-.16h0C126.15,189.86,126.16,189.91,126.16,189.94Z"/><path class="cls-2" d="M15.8,85.82h0l-.07.07-.08.08,0,0c-.56.55-1.66,1.6-2.68,2.51h0l-.24.21,0,0-.22.19,0,0-.2.17,0,0-.18.14,0,0-.16.13-.06,0-.15.11-.06,0-.13.09-.06,0-.11.08-.06,0L11,90l0,0-.08,0-.05,0-.06,0h0a0,0,0,0,1-.05,0s0,0,0,0,0,0,0,0,0,0,0,0,0,0,0,0v0a.38.38,0,0,1,0-.1c0-.2.08-.38.11-.55s0-.11,0-.16,0-.23,0-.33,0-.12,0-.18a2.46,2.46,0,0,0,0-.26v-.39a.77.77,0,0,0,0-.15,1.1,1.1,0,0,0,0-.18.51.51,0,0,0,0-.13.75.75,0,0,0,0-.16.36.36,0,0,0,0-.11.5.5,0,0,0-.05-.13l0-.1a.61.61,0,0,0-.07-.1.22.22,0,0,0-.05-.08l-.08-.09-.07-.06-.09-.06-.08,0-.1,0-.08,0-.12,0H9.75l-.14,0H9.54a.48.48,0,0,0-.17,0h0a2.44,2.44,0,0,0-.46.07,6.29,6.29,0,0,0-1.58.64c-.41.23-.68.42-.68.42s3.21-6.33,1.7-8.16a38.66,38.66,0,0,1-4,3.81C2.24,89.29.11,98.72,0,100.92a44.19,44.19,0,0,0,1.71,12.73c2.82,8.23,4.67,10.64,7.88,17.28a62.22,62.22,0,0,1,3.65,7.38c1.23,2.65,3.78,11.47,5.55,12.48,2.65,1.53-3.27-10-1.71-9,1.23.8,4.4,9.57,5.82,9.86,3.31.68-3.78-10.3-2.4-10.7.68-.19,8.9,10.45,9.45,9.94,2.84-2.6-9-11.74-5.81-12.21,2.63-.39,8.77,8.28,9,6.2.38-4.15-8.73-9.66-9.58-11.34-.63-1.23,9.47,1.81,9.59.68.39-3.59-14.76-1.48-15.25-14.71-.43-6.57.24-18.23.24-18.23a49.72,49.72,0,0,1,1.05-7L16,85.65A2.14,2.14,0,0,0,15.8,85.82Z"/><path class="cls-2" d="M45.4,38.68s.14.23.31.54h0c.33.56.86,1.51,1.5,2.68v0c.26.47.53,1,.81,1.49l0,0,.42.79h0l.51,1h0c.52,1,1,2,1.55,3l0,0c.25.5.49,1,.71,1.47s.65,1.42.65,1.44l.4.93q.15.36.27.69v0h0c.07.18.14.36.19.53s.53,1.48.7,1.94v0A77,77,0,0,0,58,64.91h0c.18.32.35.64.54,1h0c.45.81.92,1.62,1.39,2.43h0l.51.86h0q1.11,1.9,2.25,3.79l.1.17.39-.14v0h0c.36-2.18.66-4.37.94-6.55h0l.09-.74h0c.07-.55.13-1.09.19-1.64h0c0-.15,0-.3,0-.45h0c.18-1.52.36-3,.55-4.56.1-.89.21-1.77.32-2.66,0-.29.07-.57.11-.83,0,0,.34-2.47.35-2.51,0-.2.12-.63.12-.63,0-.15.1-.45.1-.45.05-.23.2-.8.22-.85.06-.24.63-3.51.77-4.78,0-.09,0-.17,0-.25,0,.08,0,.16,0,.23,0-.21,0-.42.07-.63l.11,0c0-.2.06-.39.1-.58l-.11,0h0a49.86,49.86,0,0,1,1.33-7c.18-1,1.21-3.45,1.49-4.58.14-.61-8.16,1.87-11.67-7.79-.14-.38,4.34,2.09,7.52,2.74,2.56.52,6,.56,6.07.25a29.69,29.69,0,0,0,.69-5.21c0-1.28,4.34-1.74,3.44-5.41-.51-2.13-8.17-1.51-9.15-3.95A42.72,42.72,0,0,0,63.22,7c-4-6.25-14.24-10.61-23-3-2.34,2-4.68,9.23-3.68,12.72.17.63,2,3.61,2.32,4.76-.06,0-2-1.41-3-.26-1.14,1-.71,3.23-.24,4.46a10.56,10.56,0,0,0,4.82,5c1.92.9,2.47,2.75,2.87,3.31a21.7,21.7,0,0,0,2.11,4.57h0Z"/><path class="cls-5" d="M44.35,133.52l-.12-.32Z"/><path class="cls-5" d="M44.41,133.7l0-.09Z"/><path class="cls-5" d="M43.52,131.21,43,129.84Z"/><path class="cls-5" d="M111,89.51c-.46-.05-.92-.12-1.36-.19C110.11,89.39,110.57,89.46,111,89.51Z"/><path class="cls-5" d="M12.44,60.12c.51-.74,1-1.47,1.56-2.19Q13.19,59,12.44,60.12Z"/><path class="cls-5" d="M118.88,68.78a5.64,5.64,0,0,1,1,.33A5.64,5.64,0,0,0,118.88,68.78Z"/><path class="cls-6" d="M69.68,115.63a.59.59,0,0,0,.06.28.49.49,0,0,0,.45.26.56.56,0,0,0,.53-.4s0,0,0,0v0l.14,0a.42.42,0,0,0,.52-.52,2.32,2.32,0,0,0-.18-.46.53.53,0,0,0-.23-.49.49.49,0,0,0-.77-.25h0a.55.55,0,0,0-.7.53.91.91,0,0,0,.1.43A2.09,2.09,0,0,0,69.68,115.63Z"/><path class="cls-5" d="M68.73,36.53l-.29,1.55.43-1.55Z"/><path class="cls-5" d="M82.19,39.88c.76.34,1.45.68,2.1,1C83.64,40.56,82.94,40.22,82.19,39.88Z"/><path class="cls-5" d="M79.63,38.89c.92.31,1.75.64,2.52,1C81.38,39.53,80.55,39.2,79.63,38.89Z"/><path class="cls-5" d="M37.42,40.91c1.56-.49,3.08-.93,4.35-1.29C40.49,40,39,40.42,37.42,40.91Z"/><path class="cls-5" d="M45.71,39.23c.33.56.86,1.52,1.5,2.68C46.57,40.74,46,39.79,45.71,39.23Z"/><path class="cls-6" d="M67.45,88.92a3.24,3.24,0,0,0-.71.77h0a.94.94,0,0,0-.17.46.64.64,0,0,0,.05.23c0,.16,0,.33,0,.49a.45.45,0,0,0,.75.19.64.64,0,0,0,.1-.13.38.38,0,0,0,.38-.25,2.89,2.89,0,0,0,.21-1.59A.4.4,0,0,0,67.45,88.92Z"/><path class="cls-5" d="M122,72.06c0-.12,0-.18,0-.19S122,72,122,72.06Z"/><path class="cls-5" d="M122,72.23h0s0-.1,0-.14,0,.09,0,.14Z"/><path class="cls-2" d="M153.64,56.56c.29-1.55,7.82-8.42,7.51-9.94-.71-3.54-8.82,8.13-9.8,6.94-.49-.58,6.8-13.22,6.05-13.55-3.83-1.68-8.06,13.92-9.89,11-1.5-2.42,4.68-12.18,2.49-11.47-4.36,1.41-6.09,12.72-7.43,14.28-1,1.15-2.16-10.08-3.36-9.72-3.79,1.16,4.73,15.15-8.45,21.3-2.76,1.38-6.53,3-10,4.33l.15.13,0,0a2.39,2.39,0,0,1,.22.23h0l.18.25.06.08a1.28,1.28,0,0,1,.11.2l.06.11.09.2a.69.69,0,0,1,0,.13c0,.07,0,.14.08.22a.65.65,0,0,0,0,.13l.06.27s0,0,0,0a.24.24,0,0,0,0,.08c0,.13,0,.27.05.42h0c0,.29.07.6.1.93,0,.13,0,.27,0,.41s0,.44.08.67q.08.65.15,1.32h0s0,.1,0,.15c0,.39.09.78.13,1.18,0,.15,0,.3,0,.46,0,.5.09,1,.14,1.52,0,0,0,.11,0,.16,0,.55.08,1.1.11,1.65a1,1,0,0,0,0,.17c0,.53,0,1.06,0,1.58v.07h0c0,.45,0,.9,0,1.33h0a1.09,1.09,0,0,0,0,.18l0,.56,0,.39c0,.25,0,.5-.07.74,0,.08,0,.17,0,.25s-.06.44-.1.65a1.55,1.55,0,0,0,0,.21c0,.26-.11.51-.18.76,0,0,0,.11,0,.16-.08.26-.16.51-.24.74s-.14.31-.21.44l-.06.1a2.41,2.41,0,0,1-.25.35l0,0a2.29,2.29,0,0,1-.27.27v0c-.07.15-.15.29-.23.43l0,.07a.39.39,0,0,1-.08.1,50.2,50.2,0,0,0,10.72-6.54c7.14-6.31,8.8-9.16,14.16-15.17a68.79,68.79,0,0,1,5.93-6.75c2.16-2.34,10-8.62,10.29-10.8C162.47,47.75,153.26,58.54,153.64,56.56Z"/><path class="cls-7" d="M119.66,83.43c1.08.17,2.16.3,3.24.4,0-.43,0-.88,0-1.33-1-.11-2.06-.24-3.08-.38l.18-1.36c.23-1.81.46-3.62.54-5.44q.93.15,1.86.24-.08-.68-.15-1.32l-1-.07c-.23,0-.45-.06-.67-.09V74c0-.3-.07-4.12,0-4.13a.06.06,0,0,0,0-.11h0a.08.08,0,0,0-.09,0c-.58.55-.43,1.89-.47,2.6s-.05,1.12-.08,1.68c-.69-.1-1.37-.21-2.05-.35.16-1.66.28-3.32.31-5a.08.08,0,0,0,0-.07l-.1,0s-.06,0-.07.06c-.36,1.59-.62,3.21-.84,4.84-1.25-.27-2.49-.61-3.71-1-1.07-.34-2.11-.73-3.14-1.17l.69-1.89c.29-.75.62-1.48,1-2.2l.07,0-.72-.29c-.16.39-.31.79-.47,1.16-.4,1-.76,2-1.1,3l-1.16-.55c.61-1.33,1.26-2.65,2-4-.22-.11-.44-.21-.66-.33-.69,1.3-1.33,2.62-1.94,4a39.53,39.53,0,0,1-6-3.8c.53-.89,1.07-1.77,1.64-2.63.32-.48.65-.93,1-1.37h0l-.34-.31-.23-.22c-.26.37-.5.73-.73,1.07-.67,1-1.29,2-1.89,3-.43-.34-.85-.68-1.26-1-.07-.06-.14-.13-.21-.18.56-1,1.12-2,1.66-3.06l.76-1.43-.7-.7c-.25.58-.51,1.14-.79,1.7-.5,1-1,2-1.54,2.94a57.83,57.83,0,0,1-4.8-4.85c.38-1.08.76-2.16,1.16-3.23.31-.86.7-1.75,1-2.64l-.16-.25-.48-.82c-.36,1-.64,2-1,2.93-.4,1.12-.78,2.24-1.16,3.36L92.79,57.4c.8-2.06,1.67-4.1,2.54-6.14-.22-.35-.44-.71-.67-1-.9,2.09-1.77,4.19-2.58,6.31-1.14-1.41-2.24-2.85-3.29-4.3-2.39-3.29-4.43-8.12-8.44-9.77h0c0-.14-.09-.29-.12-.43a16.81,16.81,0,0,1-.45-2.33c0-.12-.1-.49-.14-.8l-.22-.07c-.33,1.83.45,4,.89,5.7,0,.09,0,.18.07.28-2.22,0-4.51.23-6.7.32l-1.49.07c-.64-2.89-1.36-5.76-2.22-8.57l-.3,0c.54,2.88,1.12,5.76,1.72,8.64-.64,0-1.29.05-1.94,0a15.88,15.88,0,0,1-2.18-.17c0,.19-.07.38-.1.58a15,15,0,0,0,4.39.37c.33,1.53.65,3.06,1,4.6a23.84,23.84,0,0,0-4,.58L67,51.68A11.75,11.75,0,0,0,66.53,50l0-.17c-.06.17-.1.33-.15.5.06.48.12,1,.19,1.44-.25.07-.47.13-.63.16s-.07.3-.1.45l.8,0,.39,2.86a4.24,4.24,0,0,0-1.65.24.22.22,0,0,0,0,.08,2.82,2.82,0,0,0,1.78.64c.31,2.38.6,4.76.9,7.14-1.21.12-2.43.22-3.66.27,0,.15,0,.3,0,.45a11.91,11.91,0,0,0,3.83.24c.07.57.15,1.13.22,1.69a21.21,21.21,0,0,1-2.25.13,10.83,10.83,0,0,1-2-.42l-.09.74a8,8,0,0,0,4.47.59c.54,4.33,1.1,8.67,1.7,13L69.9,80a24.2,24.2,0,0,1-3.28.28,13.56,13.56,0,0,1-1.56-.06,7.09,7.09,0,0,1-1-.06c-.25-2.42-.53-4.84-.89-7.25v0c0,.2-.07.41-.1.62-.1-.16-.2-.32-.29-.48l-.1-.17c0,2.37.08,4.76.22,7.15a29.91,29.91,0,0,0-8.73.75c-.71-3.16-1.37-6.32-2-9.5,2.75-.74,5.5-1.5,8.26-2.19l-.51-.86C57.26,69,54.62,69.7,52,70.42l-.45-2.3L54,67.3c1.51-.51,3-1,4.56-1.42-.19-.33-.36-.65-.54-1-1.45.4-2.88.89-4.3,1.39l-2.35.81c-.23-1.18-.45-2.36-.67-3.55-.56-3-1.08-6.07-1.73-9.08a34.13,34.13,0,0,0,4-.56v0c-.07-.18-.13-.36-.2-.55s-.12-.35-.19-.53c-1.3.23-2.6.4-3.9.56-.15-.65-.3-1.29-.47-1.94-.48-1.89-1-3.77-1.54-5.67,0-.11,0-.23-.08-.34.79-.08,1.58-.16,2.38-.26l-.51-1-2.08.33c-.12-.53-.24-1.07-.35-1.61-.13-.7-.24-1.4-.32-2.11a3.65,3.65,0,0,1,0-1.64c-.17-.31-.28-.49-.31-.54l0,0a29.88,29.88,0,0,0,.65,5.91l-.28,0-1.32.18c-.46-1.87-.9-3.74-1.2-5.64l-.31.08A56.24,56.24,0,0,0,44,44.91l-5.64.79a12.62,12.62,0,0,1-1-4.79h0c-.39,1.41.29,3.37.69,4.83l-.82.11-.3,0c-.1-.54-.2-1.08-.31-1.62-.06-.31-.45-3-.2-2.89a.05.05,0,0,0,.06-.09l-.07-.07-.46.15a3.8,3.8,0,0,0-.12,1.16A31.81,31.81,0,0,0,36.25,46a73.85,73.85,0,0,0-7.51,1.29,7.09,7.09,0,0,0-1.13-2.05c-.14-.17-.43.05-.31.24a7.11,7.11,0,0,1,.78,1.59C25.7,49,24,51.76,22.42,54.47c-.62-1.28-1.25-2.57-2-3.78l-.46.43c.57,1.16,1.12,2.32,1.67,3.48l.32.69-.67,1.19c-.21.36-.41.73-.61,1.09a47,47,0,0,0-3-4l-.25.29q1.44,2.25,2.87,4.52c-.86,1.55-1.71,3.12-2.53,4.69-1.1-1.92-2.17-3.84-3.2-5.8-.17.22-.32.44-.49.65,1,2.05,2.1,4.05,3.23,6l-1,1.93c-1.33-1.84-2.66-3.68-4-5.55l-.21.31a61.13,61.13,0,0,0,3.82,5.94c-.35.71-.71,1.43-1,2.15q-1.11,2.37-2.14,4.77C11.88,72.59,11,71.79,10,71a12.59,12.59,0,0,0-2.4-1.75l-.21.51a41.34,41.34,0,0,1,5,4.38c-.17.4-.33.81-.5,1.21-1.12-.78-2.27-1.52-3.45-2.18a12.3,12.3,0,0,0-2-1c-.06.17-.13.34-.19.52a14.49,14.49,0,0,1,1.9,1c1.2.71,2.36,1.5,3.49,2.32q-.88,2.16-1.73,4.33c-.85,2.22-1.8,4.53-2.64,6.86h0a6.29,6.29,0,0,1,1.58-.64c.48-1.54,1-3.07,1.51-4.56.67-1.81,1.38-3.6,2.1-5.38.72.53,1.43,1.08,2.13,1.62,1.05.82,2.07,1.66,3.07,2.52q-.88,2.43-1.75,4.88l0,0L18.32,92l-1.84-5c.63-1.87,1.26-3.75,1.92-5.61,1.65,1.44,3.26,2.92,4.86,4.42a9.09,9.09,0,0,1,.47-1.52c-1.61-1.47-3.24-2.91-4.79-4.44.31-.86.64-1.72,1-2.57q.63-1.59,1.29-3.18a54.36,54.36,0,0,1,3.93,7.23c.2-.4.38-.77.56-1.12a50.75,50.75,0,0,0-4.12-7c.17-.41.34-.83.52-1.25a49,49,0,0,1,4.2,7.09c.21-.38.41-.72.6-1a80,80,0,0,0-4.41-7c.75-1.73,1.52-3.46,2.33-5.16,1.72,3,3.33,6,4.77,9.19.21-.15.43-.31.66-.46a8.74,8.74,0,0,0-1.48-3.25c-1.08-1.81-2.24-3.54-3.22-5.42l-.4-.75c.2-.43.4-.86.61-1.28a55.65,55.65,0,0,0,2.41,5.28c.51,1,1,1.92,1.47,2.91a15.55,15.55,0,0,0,.84,2.32l0,0,.42-.27a59.93,59.93,0,0,0,1.84,11.59,63.4,63.4,0,0,1-1.83-11.19h0a5.43,5.43,0,0,0,1.73.43q.69,3.72,1.46,7.43c-.49.13-1.53.42-1.52.38s0,0,0,0l-.12.22a.06.06,0,0,0,0,.06.42.42,0,0,0,.43.22,8.32,8.32,0,0,0,1.4-.15c.26,1.24.53,2.48.81,3.71-.58,0-1.15,0-1.72,0a.14.14,0,0,0-.11.24,1.21,1.21,0,0,1,.16.16s0,0,0,0l.06-.16a4.06,4.06,0,0,0,1.71.43c.14.59.27,1.18.4,1.77.9,3.9,1.86,7.78,2.81,11.66a8.55,8.55,0,0,0-2.91,1.27s.05.06,0,0a30.61,30.61,0,0,0,3.06-.57c.27,1.1.53,2.2.8,3.3l-.47.16a12,12,0,0,1-2.84.88c0,.14.05.28.07.42a9.29,9.29,0,0,0,3.38-.84h0q.83,3.47,1.59,6.93a21.52,21.52,0,0,1-2.67.21,5.88,5.88,0,0,1-1.16-.16c0,.18.09.4.16.66a12.85,12.85,0,0,0,3.18,0l.64-.06c.07.33.15.67.22,1s.12.55.17.82l-.46.06a24.86,24.86,0,0,0-3.13.31l.21.64c1,0,2.17-.24,2.92-.29l.61,0c.57,2.68,1.16,5.36,1.82,8l-2.53.25a.09.09,0,0,0,0,.17c.89.07,1.78.1,2.67.1.16.64.33,1.29.5,1.93.48,1.75,1.08,3.45,1.62,5.16.2-.34.42-.71.63-1.09-.34-1-.72-2.05-1-3.07s-.6-2-.87-2.93a58.5,58.5,0,0,0,6.05-.5c.54,2,1.15,4,1.86,6,.43.16.83.29,1.17.4-.8-2.13-1.48-4.31-2.08-6.51l1.72-.24a64.33,64.33,0,0,0,2.28,6.56l.76-.61c-.63-2-1.34-4.07-2-6.1l.09,0c1.68-.25,3.36-.51,5-.81.28,1.25.57,2.49.88,3.73l.2-.16,10.19,1.5q-.7-2.84-1.31-5.7a29.9,29.9,0,0,0,4.92-1.11c1.14-.26,2.28-.5,3.43-.72.46,1.72,1,3.42,1.53,5.09l0,0,1-.74h0c-.45-1.54-.91-3.08-1.35-4.61l2.37-.44c1.77-.32,3.55-.61,5.32-.92.16.69.31,1.37.47,2v0h0l1,0h0c-.19-.73-.37-1.45-.54-2.18,2.42-.42,4.84-.88,7.23-1.46l.15.44c-.15-.46-.32-.94-.48-1.45-2.38.52-4.76,1-7.14,1.45-.12-.54-.25-1.08-.37-1.62a54.38,54.38,0,0,1,6.71-2.23c-.09-.3-.19-.6-.29-.91a65.17,65.17,0,0,0-6.58,2.43c-.44-2-.88-3.91-1.35-5.86L85,107.38l.43-.07c1.87-.28,4.08-.37,6-.86v0l-.36-1.29v0c-2,.31-4,.87-6,1.17l-.4.07-.54-2.22c1.94-.53,3.85-1.13,5.81-1.55l.6-.1c0-.35-.07-.7-.11-1l-1.88.43c-1.57.37-3.11.84-4.66,1.3l-1.2-4.9c2.44-.5,4.88-1,7.35-1.38,0-.34-.05-.67-.08-1-2.51.4-5,.93-7.49,1.48-.24-1-.48-2-.71-3,2.68-.62,5.36-1.25,8-2,0-.36,0-.72-.07-1.08a.41.41,0,0,0,0-.11c-2.72.56-5.45,1.33-8.15,2.13-.68-3-1.34-5.91-1.93-8.88-.08-.4-.15-.8-.23-1.2a52.28,52.28,0,0,1,6.75-.82c.43,0,.93,0,1.44-.06.66,2.95,1.37,5.9,2.12,8.83-.08-1.48-.12-3-.15-4.48-.36-1.47-.7-2.93-1-4.4a7.87,7.87,0,0,0,1-.14l0-1.22-1.23.15-.09-.38c-.2-.9-.39-1.81-.59-2.72.6-.08,1.2-.18,1.79-.31,0-.33,0-.66-.07-1-.64.11-1.29.22-1.94.31-.77-3.67-1.49-7.35-2.2-11a10,10,0,0,0,2,1.37A9.18,9.18,0,0,1,88.91,69c0,.52-.09,1-.12,1.55s-.28,1.5.06,2l-.06-.4.36.54.06-.05a.92.92,0,0,0,.13-.31h0c-.28.22,0-.49.06-1s.12-.82.16-1.22l0-.33.74.91c0,.13,0,.25-.08.38A.35.35,0,0,1,90,71a0,0,0,0,0,0,0,.35.35,0,0,0,.29.07,23.26,23.26,0,0,0-.34,2.59l.21.32c.28-.88.54-1.76.8-2.65a1.83,1.83,0,0,0,.13.16C92,72.59,93,73.63,94,74.66c0,.1-.09.2-.13.31-.34.94-.64,1.88-1,2.8l.48.62c.19-.51.35-1,.51-1.48s.43-1.13.66-1.68c.5.51,1,1,1.54,1.51-.12.26-.24.51-.37.77a20.07,20.07,0,0,0-1.15,2.32l.24.28a26.79,26.79,0,0,1,1.65-3c.86.84,1.73,1.65,2.62,2.45q2,1.77,4.06,3.4c-.34,1.19-.66,2.38-.93,3.58l.47.28c.34-1.15.69-2.28,1.05-3.41.72.54,1.44,1.07,2.17,1.58-.23.93-.58,2-.77,3l.3.12a29.09,29.09,0,0,1,.84-2.88c.36.24.71.5,1.08.74,1.41.93,2.84,1.83,4.23,2.79.5.34,1,.7,1.43,1.08.85.17,1.79.38,2.74.53.4-2.39.65-4.83,1-7.12,0-.13,0-.26,0-.39.74.17,1.48.31,2.23.44-.17,1.2-.34,2.4-.5,3.6s-.39,2.43-.56,3.69c.33,0,.66,0,1,0,0-.22,0-.42,0-.58C119.08,87.8,119.37,85.61,119.66,83.43Zm-11.49-12,1.25.58c-.49,1.49-.94,3-1.37,4.5-.15.52-.29,1-.43,1.55-.58-.37-1.15-.75-1.7-1.16C106.62,75.11,107.37,73.28,108.17,71.48Zm-6.76-4.17a36.62,36.62,0,0,0,6.1,3.85c-.47,1.06-.92,2.13-1.36,3.2-.28.7-.57,1.41-.84,2.13a54.65,54.65,0,0,1-4.81-4.33c-.38-.37-.74-.75-1.11-1.13l.33-.64C100.26,69.35,100.82,68.32,101.41,67.31Zm-2-1.63c.48.41,1,.81,1.45,1.2-.68,1.21-1.32,2.44-1.95,3.67-.46-.49-.92-1-1.36-1.5C98.18,67.93,98.81,66.8,99.43,65.68Zm-5.28-5.26a61.06,61.06,0,0,0,4.67,4.71c-.59,1.1-1.2,2.19-1.79,3.29h0c-1.36-1.56-2.65-3.17-4-4.78.15-.49.3-1,.46-1.45S94,61,94.15,60.42Zm-1.73-2q.57.69,1.17,1.38l-.54,1.6c-.17.52-.35,1-.53,1.58l-.67-.84-.49-.6C91.68,60.47,92,59.43,92.42,58.4Zm-7-9.69c1.5,2.36,3.06,4.66,4.76,6.89.5.65,1,1.29,1.52,1.93-.38,1-.73,2.08-1.06,3.13a28.68,28.68,0,0,0-7.35-6.51.47.47,0,0,0-.34-.28h-.06c-.16-.83-.31-1.66-.47-2.49.61.06.61-.91,0-1h-.19c-.3-1.54-.62-3.07-1-4.59a4.38,4.38,0,0,0,.66-.24c.38-.18.17-.73-.2-.75H81c-.19-.7-.39-1.39-.59-2.08C82.46,44.16,84.1,46.62,85.42,48.71ZM75.54,62.59,75.06,60c-.3-1.59-.59-3.19-.89-4.79a25.2,25.2,0,0,1,8.12-.38c0,.09,0,.18,0,.26l1.29,7.06C81,62.81,78.26,62.54,75.54,62.59Zm8.26.55.36,2c-2.73.5-5.42.15-8.13.1l-.33-1.76C78.42,63.42,81.11,63.74,83.8,63.14ZM82,53.7a25.69,25.69,0,0,0-7.81.55l-.17,0c-.17-1-.36-1.9-.54-2.84a64.6,64.6,0,0,1,8.23-.13c.12.73.25,1.47.37,2.2A.1.1,0,0,0,82,53.7ZM72.36,46,73.67,46c1.55,0,3.11,0,4.67,0a14.75,14.75,0,0,0,2.3,0c.33,1.46.61,2.94.87,4.42a57.86,57.86,0,0,0-8.22.25C73,49.06,72.69,47.54,72.36,46Zm-4.9,8.44c-.12-.72-.26-1.44-.39-2.15,1.86-.2,3.7-.74,5.61-.84q.31,1.47.6,2.94c-1.55.28-3.1.57-4.66.76a8.78,8.78,0,0,1-1,0Zm.85,5.43c-.18-1.24-.38-2.48-.57-3.72a28.74,28.74,0,0,0,4.31-.61l1.42-.23c.27,1.36.53,2.72.78,4.09l.57,3.2c-.27,0-.54,0-.81.05-1.76.14-3.5.37-5.24.56C68.62,62.11,68.47,61,68.31,59.89Zm.6,4.31c1.74-.17,3.49-.52,5.1-.66.32,0,.65,0,1-.06.1.58.21,1.16.31,1.74-.57,0-1.13,0-1.71.07-1.48.13-3,.39-4.44.58C69.07,65.32,69,64.76,68.91,64.2Zm.69,5.1c-.1-.8-.21-1.59-.32-2.39,1.19-.15,2.34-.37,3.3-.49a21.67,21.67,0,0,1,2.9-.15q1.08,6.11,2.18,12.2c-.47.09-.94.19-1.4.3-1.76.4-3.52.79-5.3,1.09C70.48,76.35,70.05,72.82,69.6,69.3ZM55.41,97.47C54.64,94,53.83,90.51,53,87l1.66-.34q1.3,5.24,2.45,10.49Zm1.9.45c.2.92.39,1.85.58,2.78l-1.76.16c-.18-.88-.37-1.77-.56-2.65Zm-1.92,3c-1.12.12-2.23.27-3.33.48s-2.2.5-3.29.81c-.18-.86-.37-1.73-.55-2.59,2.17-.42,4.39-.89,6.63-1.3Zm-.7-3.35c-2.22.39-4.43.81-6.64,1.24q-1.12-5.49-2.07-11l2.26-.11a34.37,34.37,0,0,0,4.15-.53C53.16,90.64,53.94,94.11,54.69,97.59Zm-4.34-11a42,42,0,0,1-4.51.42l-.63-3.79.88,0a42.9,42.9,0,0,0,5.25-.78l.84,3.89C51.57,86.34,51,86.45,50.35,86.54ZM48.19,82c-1,.16-2.07.26-3.11.33L45,81.93c-.45-2.83-.82-5.68-1.18-8.53,1.86-.39,3.7-.83,5.54-1.3.55,3.13,1.13,6.26,1.78,9.37C50.17,81.68,49.18,81.87,48.19,82ZM44.61,72.3l-.88.21c-.1-.77-.19-1.55-.29-2.32l1.92-.34c1.17-.23,2.33-.53,3.47-.86.12.72.25,1.45.38,2.17C47.68,71.56,46.15,72,44.61,72.3Zm0-3.25c-.42.09-.85.16-1.28.24-.52-4.16-1.07-8.32-1.85-12.43-.1-.53-.21-1-.32-1.57a39.71,39.71,0,0,1,5-.6c.22,1.1.44,2.2.65,3.3.65,3.32,1.23,6.66,1.82,10C47.33,68.4,46,68.77,44.61,69.05Zm-2,.38-2.3.4q-.94-5.74-1.73-11.49c-.11-.77-.21-1.55-.3-2.32.71-.2,1.39-.39,2-.54l.3-.06,0,.13C41.51,60.12,42.08,64.77,42.6,69.43Zm.1.89L43,72.68l-2.11.49c-.14-.82-.29-1.65-.43-2.47Zm.37,3.24c.3,2.63.62,5.26,1,7.87l.15,1c-.57,0-1.13,0-1.7,0C42,79.63,41.49,76.8,41,74Zm1.3,9.64c.2,1.27.4,2.53.62,3.8l-1.53,0c-.26-1.27-.52-2.54-.77-3.82C43.25,83.22,43.81,83.22,44.37,83.2Zm.76,4.64q.94,5.59,2.09,11.16l-1.11.22q-1.28-5.66-2.47-11.32Zm2.25,12,.57,2.66-1,.31c-.21-.91-.42-1.83-.62-2.74Zm.75,3.52c.27,1.23.54,2.46.83,3.69s.57,2.38.87,3.57l-1.1.3c-.18-.85-.36-1.7-.56-2.54-.35-1.59-.71-3.18-1.07-4.76ZM50,111.41c.15.61.32,1.21.47,1.81l-.67.17-.54.13-.39-1.83Zm-.24-4.62c-.29-1.22-.57-2.45-.84-3.67l.76-.2a39.65,39.65,0,0,1,5.86-1.07c.22,1.07.43,2.15.64,3.22.24,1.26.47,2.51.69,3.77-2.08.51-4.16,1-6.24,1.53C50.37,109.18,50.08,108,49.8,106.79Zm6.9,3,.37-.09.33,1.83-6,1.46c-.15-.61-.32-1.21-.47-1.82Zm.39-4.18c-.24-1.29-.5-2.58-.76-3.87l1.74-.16c.44,2.19.84,4.4,1.22,6.61l-1,.28-.65.16C57.47,107.65,57.28,106.65,57.09,105.64Zm1-7.84a43.67,43.67,0,0,1,6.21-.5.47.47,0,0,0,.28-.1c.11.85.21,1.69.31,2.53-2,.14-4,.71-6,.88l-.22,0C58.49,99.69,58.3,98.74,58.1,97.8Zm1.35,11.35.18,1c0,.27.09.55.13.83l-1.61.37c-.11-.61-.22-1.22-.34-1.83Zm-.59-7.61h0c1.69-.14,4.48,0,6.13-.88,0,.35.08.7.13,1,.21,1.74.45,3.48.69,5.22l-.06,0a16.37,16.37,0,0,0-5.72,1C59.67,105.84,59.28,103.68,58.86,101.54Zm2.75,7.1c1.4-.32,3-.36,4.37-.76.08.57.17,1.15.26,1.73q-2.85.57-5.7,1.22c-.1-.62-.21-1.24-.32-1.86Zm4.77,1.91c.48,3.06,1,6.1,1.63,9.13a43.51,43.51,0,0,0-5.4.92c-.63-2.53-1.27-5-1.7-7.65-.06-.37-.13-.75-.2-1.13Zm.49-3.29c2.29-.2,4.62-.73,6.87-1l1-.13c.12.6.25,1.19.37,1.79-1.28.13-2.56.27-3.84.49a9.43,9.43,0,0,0-3.71,1.11.5.5,0,0,0-.32-.09C67.08,108.71,67,108,66.87,107.26Zm5.43-1.6a38.47,38.47,0,0,0-5.53.93c-.26-1.83-.52-3.66-.76-5.5a42.1,42.1,0,0,0,7.53-.87q.48,2.57,1,5.1Zm-1-5.9a30.34,30.34,0,0,0-5.35.89c-.14-1.17-.28-2.34-.4-3.51,2.2.6,4.92.11,7.33-.49.16.92.33,1.84.5,2.76C72.7,99.54,72,99.66,71.31,99.76ZM65.5,96.54c-.41-4-.71-8-1.06-12A14.3,14.3,0,0,0,71,85c.26,1.81.54,3.63.83,5.44s.61,3.64.93,5.45A22.77,22.77,0,0,1,65.5,96.54Zm5.58-15.79c1.3-.22,2.56-.51,3.73-.75l3-.64c.2,1.07.4,2.13.61,3.19-2.14.48-4.28,1-6.44,1.34l-.45.07C71.38,82.89,71.23,81.82,71.08,80.75Zm-.68.11c.14,1.07.3,2.14.46,3.2-1,.14-2,.22-3,.26-.57,0-1.14,0-1.71,0-.27,0-2.26-.06-1.34-.06a0,0,0,1,0,0,0l-.36-.06c-.1-1.13-.2-2.27-.31-3.41A15,15,0,0,0,70.4,80.86ZM64.49,96.39a.48.48,0,0,0-.18,0,31.56,31.56,0,0,0-6.2.68l-.17,0q-.94-4.45-2-8.88c-.14-.55-.27-1.1-.41-1.65l1.25-.27L61,85.31c.69-.16,1.56-.12,2.29-.28C63.59,88.83,64,92.63,64.49,96.39ZM63,81.07c.07,1,.14,2,.23,3a20.65,20.65,0,0,0-4.52.82l-3.4.74c-.31-1.29-.61-2.58-.9-3.88A28.26,28.26,0,0,1,63,81.07Zm-8.47,4.71c-.55.12-1.1.22-1.65.33-.26-1.18-.53-2.36-.78-3.53,0-.13,0-.25-.08-.37l1.59-.32C53.85,83.19,54.16,84.49,54.48,85.78Zm-3-14.23c.59,3.17,1.23,6.32,1.92,9.47l-1.57.33c-.67-3.12-1.26-6.26-1.83-9.4Zm-.6-3.2.42,2.26-1.47.4-.39-2.19ZM48.35,54.53c.45,2.28.85,4.58,1.25,6.88q.52,3,1.06,5.93c-.48.16-1,.33-1.44.48-.51-2.81-1-5.63-1.55-8.43-.31-1.58-.62-3.16-1-4.74Zm-2.09-9c.29,1.32.63,2.64,1,4s.64,2.67.92,4l-1.61.19c-.39-1.84-.79-3.68-1.23-5.51-.2-.83-.41-1.66-.62-2.49Zm-2,.22c.11.45.21.89.32,1.33.53,2.22,1,4.45,1.45,6.68-1.65.2-3.3.42-5,.74l-.08,0c-.57-2.38-1.31-4.71-2-7.06-.09-.31-.2-.64-.32-1Zm-5.94.77c.68,2.72,1.48,5.39,2.08,8.13-.74.16-1.48.33-2.21.51-.36-2.83-.68-5.66-1.07-8.49Zm-3.23.42,1.31-.17c.17,1,.33,2.1.45,3.14.19,1.81.41,3.62.63,5.43a21.48,21.48,0,0,1-7.14.88q-.28-1.73-.54-3.45a32.63,32.63,0,0,0-.91-5.11C30.11,48.07,34.26,47,35.06,46.92Zm-20,30.76c-.75-.58-1.52-1.16-2.3-1.72l.42-1c1.55,1.6,3,3.26,4.6,4.89C16.89,79.1,16,78.38,15.07,77.68Zm4.84-2.62c-.58,1.37-1.11,2.75-1.64,4.14-1.61-1.64-3.15-3.36-4.77-5q1.08-2.52,2.23-5c.27-.59.55-1.18.84-1.76.88,1.23,1.77,2.46,2.62,3.69.5.73,1,1.47,1.48,2.21C20.42,73.89,20.16,74.47,19.91,75.06ZM21,72.46l-.83-1.18c-1.09-1.54-2.19-3.06-3.3-4.58.3-.62.61-1.23.92-1.83,1.11,1.91,2.25,3.81,3.38,5.7l.38.62C21.4,71.61,21.22,72,21,72.46Zm1-2.19c-1.26-2.09-2.5-4.18-3.72-6.29.82-1.6,1.67-3.18,2.52-4.77,1.23,2,2.44,4,3.6,6Q23.16,67.71,22,70.27Zm2.89-6.06c-.05.09-.09.18-.13.27-1.09-2-2.26-4.09-3.53-6.06l.48-.9c.23-.42.46-.85.7-1.27,1.05,2.28,2.05,4.57,3,6.89C25.24,63.5,25.07,63.86,24.89,64.21Zm-2-8.77c1.65-2.78,3.47-5.38,5.3-8.07a36.23,36.23,0,0,1,1,6.06c.13.92.27,1.85.41,2.77a24.66,24.66,0,0,0-3.64,5.91C25,59.86,24,57.64,22.89,55.44Zm6.86,14.77c-1.23-2.4-2.4-4.71-3.44-7.21a.3.3,0,0,1,0-.1c1.06-2.11,2.18-4.19,3.38-6.21.43,2.76.88,5.51,1.31,8.27.36,2.33.75,4.65,1.15,7a6.32,6.32,0,0,0-1.15.75A16.61,16.61,0,0,0,29.75,70.21Zm1.31,4a2.12,2.12,0,0,0,0-1.2l1.17-.44c.1.57.21,1.13.31,1.7C32.05,74.31,31.56,74.29,31.06,74.25ZM31.59,64c-.4-2.46-.81-4.91-1.21-7.36,2,.81,4.78.22,7.18-.42q.86,6.89,2,13.75c-1,.18-2.08.37-3.11.6a21.78,21.78,0,0,0-3.55,1C32.41,69.05,32,66.53,31.59,64ZM33,72.36a47.45,47.45,0,0,1,6.65-1.53l.42,2.52a37.66,37.66,0,0,1-6.71,1Zm.5,2.71a23.23,23.23,0,0,0,2.67-.24c1.35-.18,2.69-.42,4-.69.2,1.24.42,2.49.63,3.73.28,1.53.56,3,.85,4.58-1.12,0-2.25,0-3.37,0s-2.28-.16-3.38-.07Q34.18,78.7,33.5,75.07Zm1.59,8A6.85,6.85,0,0,1,36,83c2,.07,3.89.17,5.83.2.25,1.29.51,2.57.77,3.86l-.73,0c-2,0-4-.11-5.94-.18C35.64,85.63,35.36,84.34,35.09,83.06Zm4.16,17.71c-1-3.89-1.91-7.78-2.82-11.67-.12-.49-.22-1-.33-1.46,1.29.14,2.63.22,2.89.23,1.26.06,2.52.07,3.78,0q1.17,5.74,2.45,11.48C43.22,99.81,41.22,100.25,39.25,100.77Zm.18.74,6-1.28c.2.94.42,1.88.63,2.82l-3,.9c-.94.26-1.89.5-2.82.78Zm.93,3.84c1.91-.6,3.88-1.07,5.84-1.55l.57,2.5c.36,1.6.7,3.21,1,4.82-1.75.45-3.5.88-5.28,1.2-.17,0-.35.06-.53.09Q41.21,108.87,40.36,105.35Zm2.15,9.36c-.11-.54-.24-1.09-.36-1.64A50.51,50.51,0,0,0,48,111.91l.39,1.83c-1.93.45-3.86.86-5.82,1.14A1,1,0,0,0,42.51,114.71Zm2,8.89c-.69-2.65-1.23-5.34-1.8-8a52.88,52.88,0,0,0,5.84-1c.59,2.8,1.22,5.59,2,8.35C48.49,123.17,46.5,123.39,44.5,123.6Zm6.94-.82c-.74-2.78-1.36-5.61-2-8.43l1.26-.28c.46,1.73.93,3.46,1.44,5.19l1,3.28Zm4.36-.67-1.69.28c-.38-1.12-.75-2.24-1.08-3.37-.51-1.7-1-3.42-1.44-5.15l6-1.35c.53,3,1.07,5.92,1.7,8.86C58.12,121.65,57,121.9,55.8,122.11Zm2.53-9.76,1.6-.35c.48,2.85,1,5.68,1.76,8.5,0,.09.05.2.07.3l-1.67.39C59.44,118.26,58.88,115.31,58.33,112.35ZM61.26,126c-.34-1.27-.65-2.55-.94-3.82l1-.2.72-.16c.37,1.47.72,3,1,4.44Zm8.38,1.23-5.75-.84c-.18-1.25-.47-2.49-.76-3.69-.09-.36-.17-.71-.26-1.07a38.27,38.27,0,0,1,5.33-1C68.65,122.85,69.12,125.06,69.64,127.26Zm5.19-7.6c-1.75.43-3.89.79-5.44,1.79q-1.17-5.52-2-11.11h0a.41.41,0,0,0,.3-.25A39,39,0,0,1,72.35,109c1-.12,1.92-.2,2.88-.28.06.24.1.49.16.74.56,2.62,1.13,5.28,1.78,7.94l-3,.55a43.3,43.3,0,0,1-5,.93s-.06,0,0,0c.45.72,2.56.15,3.18.08,1.7-.21,3.39-.49,5.08-.79l.21.84C76.66,119.23,75.75,119.43,74.83,119.66Zm11.54-2.33-4.62.87q-1.55.28-3.09.6c-.07-.27-.15-.53-.23-.8l1.17-.21A36.72,36.72,0,0,0,86,115.86C86.15,116.35,86.26,116.84,86.37,117.33Zm-2.28-9.8c.07.31.15.62.22.92.54,2.23,1,4.47,1.56,6.71a28.76,28.76,0,0,1-4.94,1.52l-2.73.52c-.67-2.39-1.29-4.8-1.84-7.24-.1-.44-.19-.88-.28-1.31,1-.09,2-.17,3-.29C80.75,108.16,82.42,107.82,84.09,107.53Zm-.23-.93c-2.08.37-4.14.81-6.24,1.05-.57.07-1.14.13-1.72.18L75.51,106c2.33-.35,4.63-.81,6.93-1.35l.9-.22C83.51,105.17,83.69,105.88,83.86,106.6Zm-2-8.07,1.2,5c-.79.23-1.6.45-2.41.64-1.78.42-3.56.76-5.36,1-.35-1.7-.69-3.41-1-5.11l3.16-.64Zm-.21-.9L78,98.45c-1.27.28-2.54.56-3.81.81-.17-.93-.35-1.86-.52-2.8l2.11-.56c1.73-.44,3.48-.84,5.24-1.25C81.22,95.64,81.45,96.64,81.69,97.63Zm-1-4-3.6,1.07c-1.21.35-2.42.7-3.65,1q-.49-2.73-1-5.46c-.31-1.78-.59-3.56-.86-5.35,2.36-.35,4.69-1,6.69-1.39l.23,0c0,.17.07.34.1.51C79.31,87.18,80,90.4,80.74,93.61Zm6.4-13.36.21,1a75.64,75.64,0,0,0-8.07,1.12h0c-.21-1.06-.42-2.11-.62-3.17,1.08-.21,2.15-.41,3.24-.55,1.6-.21,3.23-.31,4.84-.5C86.84,78.85,87,79.55,87.14,80.25Zm-.65-3.08c-2.68.37-5.37.67-8,1.15-.76-4-1.49-8-2.23-12a39.37,39.37,0,0,0,8.12-.1Q85.37,71.68,86.49,77.17Zm2.5-9-.67-.69a17,17,0,0,0-3.13-1.92.58.58,0,0,0-.17-.41c-.15-.75-.29-1.51-.43-2.26h.06c.61-.19.36-1.15-.25-1l-.9-4.76c-.14-.78-.29-1.57-.43-2.36a.52.52,0,0,0,.16-.17,49.26,49.26,0,0,1,7.11,7c-.2.68-.39,1.36-.56,2A31.31,31.31,0,0,0,89,68.21Zm1.51,1.61-.82-.89a44.36,44.36,0,0,1,1.38-6.43v0l1.16,1.39A61.53,61.53,0,0,0,90.5,69.82Zm3.76,4.06c-.76-.79-1.5-1.58-2.23-2.38l-.89-1c.55-2,1.08-4,1.66-6,1.27,1.55,2.52,3.12,3.81,4.65C95.78,70.73,94.94,72.28,94.26,73.88ZM96.39,76c-.52-.51-1-1-1.56-1.55.7-1.57,1.49-3.09,2.31-4.61.45.53.91,1,1.37,1.57C97.77,72.93,97.1,74.47,96.39,76Zm7,6.07c-1.08-.84-2.15-1.7-3.2-2.61s-2.28-2-3.38-3.09c.69-1.5,1.42-3,2.17-4.46q1,1.14,2.13,2.22a41,41,0,0,0,3.84,3.39C104.36,79,103.83,80.53,103.36,82.07Zm2.72,2c-.71-.5-1.42-1-2.12-1.53q.75-2.3,1.58-4.54c.58.42,1.18.82,1.78,1.2C106.89,80.81,106.48,82.44,106.08,84.06Zm8.6,5.88a42.7,42.7,0,0,0-4.84-3.34c-1.14-.73-2.25-1.48-3.35-2.24.05-.14.08-.28.12-.42.39-1.48.79-3,1.2-4.45a22.56,22.56,0,0,0,3,1.52,33.77,33.77,0,0,0,5.24,1.7C115.67,85.12,115.16,87.53,114.68,89.94Zm1.51-8.47a30.89,30.89,0,0,1-5.56-1.75,21.37,21.37,0,0,1-2.52-1.3c.15-.57.31-1.14.47-1.71.43-1.48.9-2.95,1.4-4.41,1.23.52,2.49,1,3.78,1.41,1,.32,2.11.63,3.24.91C116.72,76.9,116.49,79.2,116.19,81.47Zm.68.14c.31-2.25.63-4.53.89-6.81.69.15,1.4.29,2.11.42,0,.81-.09,1.63-.19,2.46-.17,1.44-.37,2.88-.57,4.32C118.36,81.89,117.61,81.76,116.87,81.61Z"/><path class="cls-7" d="M36.09,105.83c-.35-2-.68-3.93-1-5.89C35.41,101.9,35.74,103.87,36.09,105.83Z"/><path class="cls-7" d="M33.07,87.27A2.74,2.74,0,0,0,33,87,2.74,2.74,0,0,1,33.07,87.27Z"/><path class="cls-8" d="M38.4,45.7,44,44.91A56.24,56.24,0,0,1,43,39.29h0l-.49.13-.07,0-.57.16h0c-1.27.36-2.79.8-4.35,1.29h0A12.62,12.62,0,0,0,38.4,45.7Z"/><path class="cls-8" d="M36.46,41.38c-.25-.14.14,2.58.2,2.89.11.54.21,1.08.31,1.62l.3,0,.82-.11c-.4-1.46-1.08-3.42-.69-4.83h0l-.83.27-.12,0h0l.07.07A.05.05,0,0,1,36.46,41.38Z"/><path class="cls-8" d="M41,54.5l.08,0c1.65-.32,3.3-.54,5-.74-.45-2.23-.92-4.46-1.45-6.68-.11-.44-.21-.88-.32-1.33l-5.58.72c.12.35.23.68.32,1C39.66,49.79,40.4,52.12,41,54.5Z"/><path class="cls-8" d="M40.37,54.63c-.6-2.74-1.4-5.41-2.08-8.13l-1.2.15c.39,2.83.71,5.66,1.07,8.49C38.89,55,39.63,54.79,40.37,54.63Z"/><path class="cls-8" d="M46.19,54.69a39.71,39.71,0,0,0-5,.6c.11.52.22,1,.32,1.57.78,4.11,1.33,8.27,1.85,12.43.43-.08.86-.15,1.28-.24,1.37-.28,2.72-.65,4-1.06-.59-3.34-1.17-6.68-1.82-10C46.63,56.89,46.41,55.79,46.19,54.69Z"/><path class="cls-8" d="M40.55,55.42l-.3.06c-.59.15-1.27.34-2,.54.09.77.19,1.55.3,2.32q.8,5.75,1.73,11.49l2.3-.4c-.52-4.66-1.09-9.31-2-13.88Z"/><path class="cls-8" d="M45.36,69.85l-1.92.34c.1.77.19,1.55.29,2.32l.88-.21c1.54-.35,3.07-.74,4.6-1.14-.13-.72-.26-1.45-.38-2.17C47.69,69.32,46.53,69.62,45.36,69.85Z"/><path class="cls-8" d="M43,72.68l-.27-2.36-2.27.38c.14.82.29,1.65.43,2.47Z"/><path class="cls-8" d="M43.84,73.4c.36,2.85.73,5.7,1.18,8.53l.06.42c1-.07,2.08-.17,3.11-.33s2-.34,3-.55c-.65-3.11-1.23-6.24-1.78-9.37C47.54,72.57,45.7,73,43.84,73.4Z"/><path class="cls-8" d="M46.09,83.12l-.88,0L45.84,87a42,42,0,0,0,4.51-.42c.61-.09,1.22-.2,1.83-.31l-.84-3.89A42.9,42.9,0,0,1,46.09,83.12Z"/><path class="cls-8" d="M48.24,87.69,46,87.8q.95,5.53,2.07,11c2.21-.43,4.42-.85,6.64-1.24-.75-3.48-1.53-7-2.3-10.43A34.37,34.37,0,0,1,48.24,87.69Z"/><path class="cls-8" d="M57.4,111.56l-.33-1.83-.37.09-5.81,1.38c.15.61.32,1.21.47,1.82Z"/><path class="cls-8" d="M54.47,123.17l-.09,0c.69,2,1.4,4.06,2,6.1h0L59.22,127l1.16-.94c-.31-1.24-.6-2.48-.88-3.73C57.83,122.66,56.15,122.92,54.47,123.17Z"/><path class="cls-8" d="M51.59,113.87c.46,1.73.93,3.45,1.44,5.15.33,1.13.7,2.25,1.08,3.37l1.69-.28c1.16-.21,2.32-.46,3.48-.73-.63-2.94-1.17-5.9-1.7-8.86Z"/><path class="cls-8" d="M56.91,108.84c-.22-1.26-.45-2.51-.69-3.77-.21-1.07-.42-2.15-.64-3.22a39.65,39.65,0,0,0-5.86,1.07l-.76.2c.27,1.22.55,2.45.84,3.67s.57,2.39.87,3.58C52.75,109.82,54.83,109.35,56.91,108.84Z"/><path class="cls-8" d="M48.77,102.23c1.09-.31,2.19-.59,3.29-.81s2.21-.36,3.33-.48l-.54-2.6c-2.24.41-4.46.88-6.63,1.3C48.4,100.5,48.59,101.37,48.77,102.23Z"/><path class="cls-8" d="M44.24,82.39l-.15-1c-.4-2.61-.72-5.24-1-7.87L41,74c.49,2.82,1,5.65,1.54,8.46C43.11,82.43,43.67,82.42,44.24,82.39Z"/><path class="cls-8" d="M45,87c-.22-1.27-.42-2.53-.62-3.8-.56,0-1.12,0-1.68,0,.25,1.28.51,2.55.77,3.82Z"/><path class="cls-8" d="M47.22,99q-1.14-5.56-2.09-11.16l-1.49.06q1.19,5.67,2.47,11.32Z"/><path class="cls-8" d="M48,102.47l-.57-2.66L46.3,100c.2.91.41,1.83.62,2.74Z"/><path class="cls-8" d="M48.73,110.89l1.1-.3q-.45-1.78-.87-3.57c-.29-1.23-.56-2.46-.83-3.69l-1,.26c.36,1.58.72,3.17,1.07,4.76C48.37,109.19,48.55,110,48.73,110.89Z"/><path class="cls-8" d="M49.84,113.39l.67-.17c-.15-.6-.32-1.2-.47-1.81l-1.13.28.39,1.83Z"/><path class="cls-8" d="M51.65,123.58c.6,2.2,1.28,4.38,2.08,6.51h0l.12,0,.12,0,.28.09.1,0,.17,0,.09,0,.18,0h0l.1,0H55l.67-.54a64.33,64.33,0,0,1-2.28-6.56Z"/><path class="cls-8" d="M50.74,114.07l-1.26.28c.6,2.82,1.22,5.65,2,8.43l1.69-.24-1-3.28C51.67,117.53,51.2,115.8,50.74,114.07Z"/><path class="cls-8" d="M29.16,53.43a36.23,36.23,0,0,0-1-6.06c-1.83,2.69-3.65,5.29-5.3,8.07,1.06,2.2,2.08,4.42,3,6.67a24.66,24.66,0,0,1,3.64-5.91C29.43,55.28,29.29,54.35,29.16,53.43Z"/><path class="cls-8" d="M18.28,64c1.22,2.11,2.46,4.2,3.72,6.29q1.16-2.56,2.4-5.08c-1.16-2-2.37-4-3.6-6C20,60.8,19.1,62.38,18.28,64Z"/><path class="cls-8" d="M17.83,64.87c-.31.6-.62,1.21-.92,1.83,1.11,1.52,2.21,3,3.3,4.58L21,72.46c.18-.42.36-.85.55-1.27l-.38-.62C20.08,68.68,18.94,66.78,17.83,64.87Z"/><path class="cls-8" d="M16.57,67.41c-.29.58-.57,1.17-.84,1.76q-1.15,2.51-2.23,5c1.62,1.64,3.16,3.36,4.77,5,.53-1.39,1.06-2.77,1.64-4.14.25-.59.51-1.17.76-1.75-.48-.74-1-1.48-1.48-2.21C18.34,69.87,17.45,68.64,16.57,67.41Z"/><path class="cls-8" d="M14.61,78.28c-.7-.54-1.41-1.09-2.13-1.62-.72,1.78-1.43,3.57-2.1,5.38-.55,1.49-1,3-1.51,4.56a2.44,2.44,0,0,1,.46-.07h0a.48.48,0,0,1,.17,0h.07l.14,0h.07l.12,0,.08,0,.1,0,.08,0,.09.06.07.06.08.09a.22.22,0,0,1,.05.08.61.61,0,0,1,.07.1l0,.1a.5.5,0,0,1,.05.13.36.36,0,0,1,0,.11.75.75,0,0,1,0,.16.51.51,0,0,1,0,.13,1.1,1.1,0,0,1,0,.18.77.77,0,0,1,0,.15v.39a2.46,2.46,0,0,1,0,.26c0,.06,0,.11,0,.18s0,.21,0,.33,0,.1,0,.16-.07.35-.11.55a.38.38,0,0,0,0,.1v0s0,0,0,0,0,0,0,0,0,0,0,0,0,0,0,0a0,0,0,0,0,.05,0h0l.06,0,.05,0,.08,0,0,0,.1,0,.06,0,.11-.08.06,0,.13-.09.06,0,.15-.11.06,0,.16-.13,0,0,.18-.14,0,0,.2-.17,0,0,.22-.19,0,0,.24-.21h0c1-.91,2.12-2,2.68-2.51l0,0,.08-.08.07-.07h0l.13-.14h0q.87-2.45,1.75-4.88C16.68,79.94,15.66,79.1,14.61,78.28Z"/><path class="cls-8" d="M12.77,76c.78.56,1.55,1.14,2.3,1.72.92.7,1.82,1.42,2.72,2.14-1.55-1.63-3-3.29-4.6-4.89Z"/><path class="cls-8" d="M21.71,57.52l-.48.9c1.27,2,2.44,4,3.53,6.06,0-.09.08-.18.13-.27.18-.35.35-.71.53-1.07-1-2.32-2-4.61-3-6.89C22.17,56.67,21.94,57.1,21.71,57.52Z"/><path class="cls-8" d="M29.63,72.12c-.45-1-1-2-1.47-2.91a55.65,55.65,0,0,1-2.41-5.28c-.21.42-.41.85-.61,1.28l.4.75c1,1.88,2.14,3.61,3.22,5.42a8.74,8.74,0,0,1,1.48,3.25h0l.26-.16,0,0A15.55,15.55,0,0,1,29.63,72.12Z"/><path class="cls-8" d="M21.57,73.23a50.75,50.75,0,0,1,4.12,7h0c.21-.42.41-.8.6-1.16h0A49,49,0,0,0,22.09,72C21.91,72.4,21.74,72.82,21.57,73.23Z"/><path class="cls-8" d="M19.91,77.3c-.33.85-.66,1.71-1,2.57,1.55,1.53,3.18,3,4.79,4.44.08-.2.18-.43.32-.72v0l.14-.3c.35-.71.65-1.34.93-1.92h0a54.36,54.36,0,0,0-3.93-7.23Q20.54,75.71,19.91,77.3Z"/><path class="cls-8" d="M16.48,87l1.84,5,1.43,3.86a45.15,45.15,0,0,0,2.43-6.18c.08-.23.14-.45.2-.66a.93.93,0,0,0,0-.13c.06-.2.12-.38.16-.56a.49.49,0,0,0,0-.11l.12-.43,0-.09c0-.14.07-.28.11-.4l0-.13c0-.12.07-.23.1-.34s0-.07,0-.11l.06-.22c0-.06,0-.12.05-.17a.66.66,0,0,1,0-.15c0-.13.06-.25.08-.35-1.6-1.5-3.21-3-4.86-4.42C17.74,83.27,17.11,85.15,16.48,87Z"/><path class="cls-8" d="M22.48,71.06a80,80,0,0,1,4.41,7h0a9.47,9.47,0,0,1,2.69-3h0c-1.44-3.14-3-6.19-4.77-9.19C24,67.6,23.23,69.33,22.48,71.06Z"/><path class="cls-8" d="M31,65c-.43-2.76-.88-5.51-1.31-8.27-1.2,2-2.32,4.1-3.38,6.21a.3.3,0,0,0,0,.1c1,2.5,2.21,4.81,3.44,7.21A16.61,16.61,0,0,1,31,72.67a6.32,6.32,0,0,1,1.15-.75C31.71,69.61,31.32,67.29,31,65Z"/><path class="cls-8" d="M31.07,73.05a2.12,2.12,0,0,1,0,1.2c.5,0,1,.06,1.49.06-.1-.57-.21-1.13-.31-1.7Z"/><path class="cls-8" d="M39.43,105c-.27-1.1-.53-2.2-.8-3.3a30.61,30.61,0,0,1-3.06.57s-.08,0,0,0A8.55,8.55,0,0,1,38.45,101c-1-3.88-1.91-7.76-2.81-11.66-.13-.59-.26-1.18-.4-1.77a4.06,4.06,0,0,1-1.71-.43l-.06.16s0,0,0,0a1.21,1.21,0,0,0-.16-.16.14.14,0,0,1,.11-.24c.57,0,1.14,0,1.72,0-.28-1.23-.55-2.47-.81-3.71a8.32,8.32,0,0,1-1.4.15.42.42,0,0,1-.43-.22.06.06,0,0,1,0-.06l.12-.22s0,0,0,0,1-.25,1.52-.38q-.77-3.7-1.46-7.43A5.43,5.43,0,0,1,31,74.6h0a63.4,63.4,0,0,0,1.83,11.19c.09.4.17.81.26,1.21a2.74,2.74,0,0,1,0,.28c.12.56.23,1.12.34,1.67a.77.77,0,0,0,0,.15l.15.84c0,.07,0,.15,0,.22.05.35.11.7.16,1.06.21,1.5.43,3,.65,4.51.1.66.2,1.32.31,2s.23,1.49.35,2.24c.32,2,.65,3.93,1,5.89l0,.19h0a12,12,0,0,0,2.84-.88Z"/><path class="cls-8" d="M41.17,112.53q-.77-3.47-1.59-6.93h0a9.29,9.29,0,0,1-3.38.84h0c.11.62.23,1.22.34,1.83.26,1.43.52,2.85.81,4.27v0a5.88,5.88,0,0,0,1.16.16A21.52,21.52,0,0,0,41.17,112.53Z"/><path class="cls-8" d="M41.71,115c-.05-.27-.11-.55-.17-.82s-.15-.67-.22-1l-.64.06a12.85,12.85,0,0,1-3.18,0h0c0,.13.07.27.12.41v0c0,.15.08.31.13.48a0,0,0,0,1,0,0l.19.62.09.29c0,.08.05.16.07.25h0a24.86,24.86,0,0,1,3.13-.31Z"/><path class="cls-8" d="M43.82,124.21c-.89,0-1.78,0-2.67-.1a.09.09,0,0,1,0-.17l2.53-.25c-.66-2.66-1.25-5.34-1.82-8l-.61,0c-.75.05-1.92.3-2.92.29a1.21,1.21,0,0,0,.05.18l.15.48.09.27.18.54v0l.44,1.34.09.25.18.56.12.36c.06.18.12.36.19.54s.08.26.13.39l.18.55.14.39.18.54c0,.15.1.28.15.42l.3.91.18.5c.06.17.12.34.17.5l.15.43c.06.17.12.33.17.49s.11.32.17.47l.15.43c.05.17.11.33.16.49l.15.41.17.48c0,.13.09.25.13.38s.19.54.28.8v0l.19.55s0,.08,0,.13l.48,1.37.07.18.09.27.09.24c0,.1.07.2.1.3a.36.36,0,0,1,0,.09c0,.11.07.21.1.3l.22.61.12.32a.46.46,0,0,0,0,.09l0,.09.07-.09c.18-.27.76-1.14,1.46-2.31h0c-.54-1.71-1.14-3.41-1.62-5.16C44.15,125.5,44,124.85,43.82,124.21Z"/><path class="cls-8" d="M21.29,56.48,22,55.29l-.32-.69c-.55-1.16-1.1-2.32-1.67-3.48h0l-1.16,1.16-.07.07L17.66,53.5l0,0h0a47,47,0,0,1,3,4C20.88,57.21,21.08,56.84,21.29,56.48Z"/><path class="cls-8" d="M20.26,58.33q-1.43-2.27-2.87-4.52h0l-.49.56c-.3.35-.61.69-.91,1.05s-.39.48-.58.71-.56.69-.83,1l0,0h0c1,2,2.1,3.88,3.2,5.8C18.55,61.45,19.4,59.88,20.26,58.33Z"/><path class="cls-8" d="M17.27,63.9c-1.13-2-2.22-4-3.23-6h0l0,.06c-.54.72-1.05,1.45-1.56,2.19l-.11.16h0c1.3,1.87,2.63,3.71,4,5.55Z"/><path class="cls-8" d="M12.75,73.45q1-2.4,2.14-4.77c.34-.72.7-1.44,1-2.15a61.13,61.13,0,0,1-3.82-5.94h0l-.18.26c-.19.29-.38.6-.57.92-.07.1-.13.22-.2.33l-.38.66-.24.42c-.12.21-.23.43-.35.65s-.17.32-.25.48-.23.43-.34.66-.18.34-.26.52-.23.45-.34.69-.17.35-.25.54-.24.5-.35.76L8.17,68c-.18.42-.37.85-.55,1.28A12.59,12.59,0,0,1,10,71C11,71.79,11.88,72.59,12.75,73.45Z"/><path class="cls-8" d="M11.94,75.37c.17-.4.33-.81.5-1.21a41.34,41.34,0,0,0-5-4.38h0c-.2.49-.39,1-.59,1.49-.11.28-.22.56-.32.84l0,.07h0a12.3,12.3,0,0,1,2,1C9.67,73.85,10.82,74.59,11.94,75.37Z"/><path class="cls-8" d="M9.93,80.38q.84-2.17,1.73-4.33c-1.13-.82-2.29-1.61-3.49-2.32a14.49,14.49,0,0,0-1.9-1h0L6.17,73c-.22.59-.43,1.19-.64,1.8-.06.18-.13.36-.19.55-.26.77-.51,1.56-.74,2.34l-.12.41c-.09.29-.17.58-.26.88L4,79.61c-.06.24-.13.48-.19.72s-.15.58-.22.87-.09.37-.13.55c-.11.48-.22,1-.32,1.44-.18.86.36.7,1.16.12a38.66,38.66,0,0,0,4-3.81c1.51,1.83-1.7,8.16-1.7,8.16s.27-.19.68-.42h0C8.13,84.91,9.08,82.6,9.93,80.38Z"/><path class="cls-8" d="M30.31,56.2a21.48,21.48,0,0,0,7.14-.88c-.22-1.81-.44-3.62-.63-5.43-.12-1-.28-2.09-.45-3.14l-1.31.17c-.8.1-5,1.15-6.2.72a32.63,32.63,0,0,1,.91,5.11Q30,54.47,30.31,56.2Z"/><path class="cls-8" d="M39.65,70.83A47.45,47.45,0,0,0,33,72.36l.36,1.94a37.66,37.66,0,0,0,6.71-1Z"/><path class="cls-8" d="M38.31,82.4c1.12,0,2.25,0,3.37,0-.29-1.53-.57-3-.85-4.58-.21-1.24-.43-2.49-.63-3.73-1.34.27-2.68.51-4,.69a23.23,23.23,0,0,1-2.67.24q.68,3.63,1.43,7.26C36,82.24,37.24,82.38,38.31,82.4Z"/><path class="cls-8" d="M41.87,87.09l.73,0c-.26-1.29-.52-2.57-.77-3.86-1.94,0-3.88-.13-5.83-.2a6.85,6.85,0,0,0-.91,0c.27,1.28.55,2.57.84,3.85C37.91,87,39.89,87.14,41.87,87.09Z"/><path class="cls-8" d="M42.77,87.92c-1.26,0-2.52,0-3.78,0-.26,0-1.6-.09-2.89-.23.11.49.21,1,.33,1.46.91,3.89,1.87,7.78,2.82,11.67,2-.52,4-1,6-1.37Q43.94,93.67,42.77,87.92Z"/><path class="cls-8" d="M46,103.05c-.21-.94-.43-1.88-.63-2.82l-6,1.28.78,3.22c.93-.28,1.88-.52,2.82-.78Z"/><path class="cls-8" d="M47.81,111.12c-.34-1.61-.68-3.22-1-4.82l-.57-2.5c-2,.48-3.93,1-5.84,1.55q.84,3.53,1.64,7.06c.18,0,.36,0,.53-.09C44.31,112,46.06,111.57,47.81,111.12Z"/><path class="cls-8" d="M48,111.91a50.51,50.51,0,0,1-5.83,1.16c.12.55.25,1.1.36,1.64a1,1,0,0,1,0,.17c2-.28,3.89-.69,5.82-1.14Z"/><path class="cls-8" d="M42.7,115.59c.57,2.67,1.11,5.36,1.8,8,2-.21,4-.43,6-.69-.73-2.76-1.36-5.55-2-8.35A52.88,52.88,0,0,1,42.7,115.59Z"/><path class="cls-8" d="M44.65,124.21c.27,1,.55,2,.87,2.93s.71,2,1,3.07h0l0-.05c.09-.14.17-.29.25-.44l.13-.24c.13-.23.25-.46.37-.69l.09-.17c.09-.18.19-.36.27-.54a1.86,1.86,0,0,0,.1-.2c.12-.24.23-.47.33-.7a5.82,5.82,0,0,0,.45.4l0,0c.15.12.32.25.48.36l0,0,.5.33,0,0c.17.11.35.21.52.3l0,0q.27.15.54.27l.05,0,.55.25,0,0,.55.23h0l.54.21h0c-.71-2-1.32-4-1.86-6A58.5,58.5,0,0,1,44.65,124.21Z"/><path class="cls-8" d="M39.52,70q-1.1-6.87-2-13.75c-2.4.64-5.15,1.23-7.18.42.4,2.45.81,4.9,1.21,7.36s.82,5,1.27,7.58a21.78,21.78,0,0,1,3.55-1C37.44,70.34,38.48,70.15,39.52,70Z"/><path class="cls-8" d="M28.08,47.06a7.11,7.11,0,0,0-.78-1.59c-.12-.19.17-.41.31-.24a7.09,7.09,0,0,1,1.13,2.05A73.85,73.85,0,0,1,36.25,46a31.81,31.81,0,0,1-.38-3.46A3.8,3.8,0,0,1,36,41.37h0l-.21.07-.68.23-.34.11-.33.12-.34.12-.31.11-.37.14-.28.1-.54.2-.17.07-.53.21-.22.08-.4.17-.22.09-.4.17-.19.09-.55.25h0l-.5.24-.16.08-.34.18-.17.09-.31.18-.14.08a4.06,4.06,0,0,0-.41.25q-.91.6-1.8,1.23l-.26.19c-.59.42-1.16.86-1.73,1.3l-.15.13c-.55.43-1.08.88-1.61,1.34l-.43.37-1.2,1.08-.26.24h0c.74,1.21,1.37,2.5,2,3.78C24,51.76,25.7,49,28.08,47.06Z"/><path class="cls-8" d="M45.73,40.86c.08.71.19,1.41.32,2.11.11.54.23,1.08.35,1.61l2.08-.33-.42-.79,0,0c-.28-.53-.55-1-.81-1.49v0c-.64-1.16-1.17-2.12-1.5-2.68h0A3.65,3.65,0,0,0,45.73,40.86Z"/><path class="cls-8" d="M45.8,44.67l.28,0a29.88,29.88,0,0,1-.65-5.91l0,0v0h0l-.15,0h0l-.13,0H45l-.13,0h0l-.21.06h0l-1.26.33h0l-.08,0h0c.3,1.9.74,3.77,1.2,5.64Z"/><path class="cls-8" d="M46.69,45.81c.5,1.9,1.06,3.78,1.54,5.67.17.65.32,1.29.47,1.94,1.3-.16,2.6-.33,3.9-.56h0v0q-.12-.33-.27-.69L52.26,52l-.34-.79v0c-.2-.45-.41-.92-.64-1.4s-.46-1-.71-1.47l0,0c-.5-1-1-2-1.55-3h0c-.8.1-1.59.18-2.38.26C46.64,45.58,46.66,45.7,46.69,45.81Z"/><path class="cls-8" d="M46.53,53.68l1.61-.19c-.28-1.35-.58-2.69-.92-4s-.67-2.64-1-4l-1.58.17c.21.83.42,1.66.62,2.49C45.74,50,46.14,51.84,46.53,53.68Z"/><path class="cls-8" d="M48.94,54.48c.65,3,1.17,6.06,1.73,9.08.22,1.19.44,2.37.67,3.55l2.35-.81c1.42-.5,2.85-1,4.3-1.39h0a77,77,0,0,1-4.49-9.56v0c-.17-.46-.34-.92-.5-1.39v0A34.13,34.13,0,0,1,48.94,54.48Z"/><path class="cls-8" d="M47.67,59.39c.54,2.8,1,5.62,1.55,8.43.48-.15,1-.32,1.44-.48q-.54-3-1.06-5.93c-.4-2.3-.8-4.6-1.25-6.88l-1.63.12C47.05,56.23,47.36,57.81,47.67,59.39Z"/><path class="cls-8" d="M51.53,68.12l.45,2.3c2.64-.72,5.28-1.45,7.93-2.11h0c-.47-.81-.94-1.62-1.39-2.43-1.54.42-3.05.91-4.56,1.42Z"/><path class="cls-8" d="M49.79,71l1.47-.4-.42-2.26-1.44.47Z"/><path class="cls-8" d="M54.16,80.86a29.91,29.91,0,0,1,8.73-.75c-.14-2.39-.22-4.78-.22-7.15q-1.14-1.89-2.25-3.79h0c-2.76.69-5.51,1.45-8.26,2.19C52.79,74.54,53.45,77.7,54.16,80.86Z"/><path class="cls-8" d="M58.66,84.87a20.65,20.65,0,0,1,4.52-.82c-.09-1-.16-2-.23-3a28.26,28.26,0,0,0-8.59.66c.29,1.3.59,2.59.9,3.88Z"/><path class="cls-8" d="M56.73,86.25l-1.25.27c.14.55.27,1.1.41,1.65q1.11,4.42,2,8.88l.17,0a31.56,31.56,0,0,1,6.2-.68.48.48,0,0,1,.18,0c-.46-3.76-.9-7.56-1.23-11.36-.73.16-1.6.12-2.29.28Z"/><path class="cls-8" d="M64.9,99.73c-.1-.84-.2-1.68-.31-2.53a.47.47,0,0,1-.28.1,43.67,43.67,0,0,0-6.21.5c.2.94.39,1.89.57,2.83l.22,0C60.88,100.44,62.92,99.87,64.9,99.73Z"/><path class="cls-8" d="M65.78,107l.06,0c-.24-1.74-.48-3.48-.69-5.22-.05-.35-.09-.7-.13-1-1.65.87-4.44.74-6.13.88h0c.42,2.14.81,4.3,1.2,6.45A16.37,16.37,0,0,1,65.78,107Z"/><path class="cls-8" d="M66.24,109.61c-.09-.58-.18-1.16-.26-1.73-1.38.4-3,.44-4.37.76l-1.39.33c.11.62.22,1.24.32,1.86Q63.39,110.19,66.24,109.61Z"/><path class="cls-8" d="M62.61,120.6a43.51,43.51,0,0,1,5.4-.92c-.6-3-1.15-6.07-1.63-9.13l-5.67,1.27c.07.38.14.76.2,1.13C61.34,115.55,62,118.07,62.61,120.6Z"/><path class="cls-8" d="M62.87,121.66c.09.36.17.71.26,1.07.29,1.2.58,2.44.76,3.69l5.75.84c-.52-2.2-1-4.41-1.44-6.62A38.27,38.27,0,0,0,62.87,121.66Z"/><path class="cls-8" d="M52.05,82.58c.25,1.17.52,2.35.78,3.53.55-.11,1.1-.21,1.65-.33-.32-1.29-.63-2.59-.92-3.89L52,82.21C52,82.33,52,82.45,52.05,82.58Z"/><path class="cls-8" d="M53,87c.79,3.48,1.6,7,2.37,10.44l1.74-.29Q56,91.93,54.7,86.69Z"/><path class="cls-8" d="M57.89,100.7c-.19-.93-.38-1.86-.58-2.78l-1.74.29c.19.88.38,1.77.56,2.65Z"/><path class="cls-8" d="M58.3,108.5l1-.28c-.38-2.21-.78-4.42-1.22-6.61l-1.74.16c.26,1.29.52,2.58.76,3.87.19,1,.38,2,.56,3Z"/><path class="cls-8" d="M61.69,120.5c-.74-2.82-1.28-5.65-1.76-8.5l-1.6.35c.55,3,1.11,5.91,1.76,8.84l1.67-.39C61.74,120.7,61.71,120.59,61.69,120.5Z"/><path class="cls-8" d="M61.32,122l-1,.2c.29,1.27.6,2.55.94,3.82l1.73.26c-.23-1.49-.58-3-1-4.44Z"/><path class="cls-8" d="M59.76,111c0-.28-.09-.56-.13-.83l-.18-1-1.64.4c.12.61.23,1.22.34,1.83Z"/><path class="cls-8" d="M51.79,81.35,53.36,81c-.69-3.15-1.33-6.3-1.92-9.47L50,72C50.53,75.09,51.12,78.23,51.79,81.35Z"/><path class="cls-8" d="M81.51,50.34c-.26-1.48-.54-3-.87-4.42a14.75,14.75,0,0,1-2.3,0c-1.56,0-3.12,0-4.67,0L72.36,46c.33,1.52.63,3,.93,4.57A57.86,57.86,0,0,1,81.51,50.34Z"/><path class="cls-8" d="M82.05,53.51c-.12-.73-.25-1.47-.37-2.2a64.6,64.6,0,0,0-8.23.13c.18.94.37,1.89.54,2.84l.17,0A25.69,25.69,0,0,1,82,53.7.1.1,0,0,1,82.05,53.51Z"/><path class="cls-8" d="M82.29,54.83a25.2,25.2,0,0,0-8.12.38c.3,1.6.59,3.2.89,4.79l.48,2.59c2.72-.05,5.41.22,8.08-.44l-1.29-7.06C82.32,55,82.3,54.92,82.29,54.83Z"/><path class="cls-8" d="M76,65.22c2.71,0,5.4.4,8.13-.1l-.36-2c-2.69.6-5.38.28-8.1.32Z"/><path class="cls-8" d="M76.23,66.28c.74,4,1.47,8,2.23,12,2.66-.48,5.35-.78,8-1.15q-1.12-5.49-2.14-11A39.37,39.37,0,0,1,76.23,66.28Z"/><path class="cls-8" d="M78.62,79.2c.2,1.06.41,2.11.62,3.17h0a75.64,75.64,0,0,1,8.07-1.12l-.21-1c-.15-.7-.3-1.4-.44-2.1-1.61.19-3.24.29-4.84.5C80.77,78.79,79.7,79,78.62,79.2Z"/><path class="cls-8" d="M86.17,82.46a52.28,52.28,0,0,0-6.75.82c.08.4.15.8.23,1.2.59,3,1.25,5.93,1.93,8.88,2.7-.8,5.43-1.57,8.15-2.13h0c-.75-2.93-1.46-5.88-2.12-8.83C87.1,82.42,86.6,82.43,86.17,82.46Z"/><path class="cls-8" d="M82.55,97.44c2.49-.55,5-1.08,7.49-1.48-.08-1.18-.16-2.36-.23-3.54-2.61.79-5.29,1.42-8,2C82.07,95.45,82.31,96.44,82.55,97.44Z"/><path class="cls-8" d="M84,103.25c1.55-.46,3.09-.93,4.66-1.3l1.88-.43h0c-.15-1.52-.29-3-.4-4.55h0c-2.47.4-4.91.88-7.35,1.38Z"/><path class="cls-8" d="M84.21,104.22l.54,2.22.4-.07c1.93-.3,4-.86,6-1.17v0c0-.2-.1-.38-.14-.56s0-.06,0-.09-.07-.29-.1-.43l0-.11a3.4,3.4,0,0,0-.07-.34s0-.07,0-.1,0-.25-.06-.35l-.06-.63h0l-.6.1C88.06,103.09,86.15,103.69,84.21,104.22Z"/><path class="cls-8" d="M85.41,107.31l-.43.07.39,1.59c.47,2,.91,3.91,1.35,5.86a65.17,65.17,0,0,1,6.58-2.43h0c-.09-.25-.17-.51-.25-.77h0c-.17-.52-.33-1-.5-1.55h0l-.21-.69,0-.08c-.06-.22-.13-.43-.19-.64,0,0,0-.07,0-.11-.06-.21-.13-.42-.19-.63l0-.09c-.07-.24-.14-.47-.2-.69l-.06-.19c0-.16-.09-.32-.13-.47v0C89.49,106.94,87.28,107,85.41,107.31Z"/><path class="cls-8" d="M87.25,117.16c2.38-.46,4.76-.93,7.14-1.45-.25-.74-.51-1.53-.77-2.34l0-.06h0a54.38,54.38,0,0,0-6.71,2.23C87,116.08,87.13,116.62,87.25,117.16Z"/><path class="cls-8" d="M87.49,118.18c.17.73.35,1.45.54,2.18h0a54.76,54.76,0,0,1,6.26.19l1.59.15h.2s-.38-1.09-.93-2.73l0,0-.09-.29c0-.07-.05-.15-.08-.22l-.09-.27-.15-.44C92.33,117.3,89.91,117.76,87.49,118.18Z"/><path class="cls-8" d="M73.67,45.12c2.19-.09,4.48-.31,6.7-.32,0-.1-.05-.19-.07-.28-.44-1.69-1.22-3.87-.89-5.7h0l-.32-.11-.51-.16-.34-.1-.58-.17-.3-.08L76.43,38l-1-.23-.58-.14-.1,0c-2.17-.51-3.76-.82-4.85-1v.06c.86,2.81,1.58,5.68,2.22,8.57Z"/><path class="cls-8" d="M80.22,42c0,.14.08.29.12.43h0c4,1.65,6.05,6.48,8.44,9.77,1,1.45,2.15,2.89,3.29,4.3.81-2.12,1.68-4.22,2.58-6.31h0c-.21-.33-.44-.65-.66-1l0,0-.7-.93,0,0c-.22-.28-.44-.55-.67-.82l-.1-.11c-.24-.28-.48-.56-.74-.82l0-.06-.7-.72-.17-.15c-.26-.26-.53-.5-.81-.75l-.06,0c-.26-.22-.52-.44-.8-.65L88.92,44c-.29-.23-.6-.46-.92-.68l-.49-.34-.19-.14-.29-.2-.25-.16-.24-.16-.29-.19L86.12,42l-.76-.47-.06,0-.41-.23a.41.41,0,0,0-.11-.07L84.35,41l-.06,0c-.65-.36-1.34-.7-2.1-1h0c-.77-.34-1.6-.67-2.52-1h0c0,.31.12.68.14.8A16.81,16.81,0,0,0,80.22,42Z"/><path class="cls-8" d="M93.94,58.75c.38-1.12.76-2.24,1.16-3.36.33-.94.61-2,1-2.93h0c-.08-.12-.15-.24-.22-.36l-.36-.58c0-.08-.1-.17-.16-.25h0c-.87,2-1.74,4.08-2.54,6.14Z"/><path class="cls-8" d="M94.51,59.4a57.83,57.83,0,0,0,4.8,4.85c.52-1,1-2,1.54-2.94.28-.56.54-1.12.79-1.7h0a37.05,37.05,0,0,1-3.78-4.35L97.7,55c-.33-.46-.65-.94-.94-1.42l-.05-.08h0c-.34.89-.73,1.78-1,2.64C95.27,57.24,94.89,58.32,94.51,59.4Z"/><path class="cls-8" d="M99.92,64.8c.07,0,.14.12.21.18.41.35.83.69,1.26,1,.6-1,1.22-2.05,1.89-3,.23-.34.47-.7.73-1.07h0c-.56-.53-1.12-1.06-1.67-1.6l-.76,1.43C101,62.77,100.48,63.78,99.92,64.8Z"/><path class="cls-8" d="M103.57,63.8c-.57.86-1.11,1.74-1.64,2.63a39.53,39.53,0,0,0,6,3.8c.61-1.33,1.25-2.65,1.94-4h0l-.61-.34-.15-.09a23,23,0,0,1-2-1.32l-.06,0c-.4-.29-.8-.6-1.18-.92l-.14-.11q-.6-.49-1.17-1h0C104.22,62.87,103.89,63.32,103.57,63.8Z"/><path class="cls-8" d="M111,69.45l-.69,1.89c1,.44,2.07.83,3.14,1.17,1.22.38,2.46.72,3.71,1,.22-1.63.48-3.25.84-4.84,0,0,0,0,.07-.06h0l-.5-.09h-.06l-1.21-.16-.26,0-.16,0-.45-.06h-.06l-.42-.07h-.09l-.43-.09-.09,0-.43-.11c-.38-.1-.75-.23-1.11-.35l-.75-.29-.07,0C111.61,68,111.28,68.7,111,69.45Z"/><path class="cls-8" d="M117.88,73.65c.68.14,1.36.25,2.05.35,0-.56,0-1.12.08-1.68s-.11-2,.47-2.6a.08.08,0,0,1,.09,0h0a.06.06,0,0,1,0,.11c-.06,0,0,3.83,0,4.13v.12c.22,0,.44.07.67.09l1,.07c0-.23-.06-.45-.08-.67s0-.28,0-.41c0-.33-.06-.64-.1-.93h0c0-.15,0-.29-.05-.42a.24.24,0,0,1,0-.08s0,0,0,0l-.06-.27a.65.65,0,0,1,0-.13c0-.08,0-.15-.08-.22a.69.69,0,0,0,0-.13l-.09-.2-.06-.11a1.28,1.28,0,0,0-.11-.2l-.06-.08-.18-.25h0a2.39,2.39,0,0,0-.22-.23l0,0-.15-.13,0,0-.08-.06-.18-.13-.08,0-.2-.12-.08,0-.24-.12,0,0a5.64,5.64,0,0,0-1-.33h0l-.35-.09h0l-.36-.07h0a.08.08,0,0,1,0,.07C118.16,70.33,118,72,117.88,73.65Z"/><path class="cls-8" d="M109.75,71.11c.34-1,.7-2,1.1-3,.16-.37.31-.77.47-1.16h0l-.79-.37h0c-.69,1.3-1.34,2.62-2,4Z"/><path class="cls-8" d="M81.72,44.81c.37,0,.58.57.2.75a4.38,4.38,0,0,1-.66.24c.35,1.52.67,3.05,1,4.59h.19c.61.06.61,1,0,1,.16.83.31,1.66.47,2.49H83a.47.47,0,0,1,.34.28,28.68,28.68,0,0,1,7.35,6.51c.33-1,.68-2.09,1.06-3.13-.51-.64-1-1.28-1.52-1.93-1.7-2.23-3.26-4.53-4.76-6.89-1.32-2.09-3-4.55-5-6,.2.69.4,1.38.59,2.08Z"/><path class="cls-8" d="M91.85,62.12l.67.84c.18-.53.36-1.06.53-1.58l.54-1.6q-.6-.69-1.17-1.38c-.38,1-.74,2.07-1.06,3.12Z"/><path class="cls-8" d="M93.08,63.65c1.3,1.61,2.59,3.22,4,4.78h0c.59-1.1,1.2-2.19,1.79-3.29a61.06,61.06,0,0,1-4.67-4.71c-.2.59-.41,1.18-.61,1.78S93.23,63.16,93.08,63.65Z"/><path class="cls-8" d="M98.93,70.55c.63-1.23,1.27-2.46,1.95-3.67-.49-.39-1-.79-1.45-1.2-.62,1.12-1.25,2.25-1.86,3.37C98,69.56,98.47,70.06,98.93,70.55Z"/><path class="cls-8" d="M99.39,71c.37.38.73.76,1.11,1.13a54.65,54.65,0,0,0,4.81,4.33c.27-.72.56-1.43.84-2.13.44-1.07.89-2.14,1.36-3.2a36.62,36.62,0,0,1-6.1-3.85c-.59,1-1.15,2-1.69,3.08Z"/><path class="cls-8" d="M107.62,78.11c.14-.52.28-1,.43-1.55.43-1.5.88-3,1.37-4.5l-1.25-.58c-.8,1.8-1.55,3.63-2.25,5.47C106.47,77.36,107,77.74,107.62,78.11Z"/><path class="cls-8" d="M120,80.76l-.18,1.36c1,.14,2,.27,3.08.38h0v-.07c0-.52,0-1.05,0-1.58a1,1,0,0,1,0-.17c0-.55-.07-1.1-.11-1.65,0,0,0-.11,0-.16,0-.51-.09-1-.14-1.52,0-.16,0-.31,0-.46,0-.4-.08-.79-.13-1.18,0,0,0-.1,0-.15h0q-.93-.09-1.86-.24C120.48,77.14,120.25,79,120,80.76Z"/><path class="cls-8" d="M119.68,77.68c.1-.83.15-1.65.19-2.46-.71-.13-1.42-.27-2.11-.42-.26,2.28-.58,4.56-.89,6.81.74.15,1.49.28,2.24.39C119.31,80.56,119.51,79.12,119.68,77.68Z"/><path class="cls-8" d="M113.76,73.71c-1.29-.41-2.55-.89-3.78-1.41-.5,1.46-1,2.93-1.4,4.41-.16.57-.32,1.14-.47,1.71a21.37,21.37,0,0,0,2.52,1.3,30.89,30.89,0,0,0,5.56,1.75c.3-2.27.53-4.57.81-6.85C115.87,74.34,114.77,74,113.76,73.71Z"/><path class="cls-8" d="M90.34,61.61a49.26,49.26,0,0,0-7.11-7,.52.52,0,0,1-.16.17c.14.79.29,1.58.43,2.36l.9,4.76c.61-.17.86.79.25,1h-.06c.14.75.28,1.51.43,2.26a.58.58,0,0,1,.17.41,17,17,0,0,1,3.13,1.92l.67.69a31.31,31.31,0,0,1,.79-4.56C90,63,90.14,62.29,90.34,61.61Z"/><path class="cls-8" d="M91.07,62.47v0a44.36,44.36,0,0,0-1.38,6.43l.82.89a61.53,61.53,0,0,1,1.73-6Z"/><path class="cls-8" d="M97.14,69.84c-.82,1.52-1.61,3-2.31,4.61.51.53,1,1,1.56,1.55.71-1.53,1.38-3.07,2.12-4.59C98.05,70.89,97.59,70.37,97.14,69.84Z"/><path class="cls-8" d="M101.08,74.13Q100,73.05,99,71.91c-.75,1.47-1.48,3-2.17,4.46,1.1,1.07,2.22,2.1,3.38,3.09s2.12,1.77,3.2,2.61c.47-1.54,1-3.06,1.56-4.55A41,41,0,0,1,101.08,74.13Z"/><path class="cls-8" d="M105.54,78q-.83,2.25-1.58,4.54c.7.52,1.41,1,2.12,1.53.4-1.62.81-3.25,1.24-4.87C106.72,78.81,106.12,78.41,105.54,78Z"/><path class="cls-8" d="M107.81,79.49c-.41,1.48-.81,3-1.2,4.45,0,.14-.07.28-.12.42,1.1.76,2.21,1.51,3.35,2.24a42.7,42.7,0,0,1,4.84,3.34c.48-2.41,1-4.82,1.35-7.23a33.77,33.77,0,0,1-5.24-1.7A22.56,22.56,0,0,1,107.81,79.49Z"/><path class="cls-8" d="M118.93,83.31c-.75-.13-1.49-.27-2.23-.44,0,.13,0,.26,0,.39-.3,2.29-.55,4.73-1,7.12h0a16,16,0,0,0,2.15.22h0c.17-1.26.41-2.52.56-3.69S118.76,84.51,118.93,83.31Z"/><path class="cls-8" d="M121.61,89.37a2.41,2.41,0,0,0,.25-.35l.06-.1c.07-.13.14-.28.21-.44s.16-.48.24-.74c0,0,0-.11,0-.16.07-.25.13-.5.18-.76a1.55,1.55,0,0,1,0-.21c0-.21.07-.43.1-.65s0-.17,0-.25c0-.24,0-.49.07-.74l0-.39,0-.56a1.09,1.09,0,0,1,0-.18h0c-1.08-.1-2.16-.23-3.24-.4-.29,2.18-.58,4.37-.79,6.56,0,.16,0,.36,0,.58H119l.27,0,.17,0,.24,0,.18,0,.21-.06.37-.13h0l.43-.22h0l.27-.19.09-.06.06-.05,0,0a2.29,2.29,0,0,0,.27-.27Z"/><path class="cls-8" d="M92.8,64.56c-.58,2-1.11,4-1.66,6l.89,1c.73.8,1.47,1.59,2.23,2.38.68-1.6,1.52-3.15,2.35-4.67C95.32,67.68,94.07,66.11,92.8,64.56Z"/><path class="cls-8" d="M88.18,80.76l.09.38L89.5,81v0c0-.45,0-.89,0-1.34s0-1.2-.07-1.79v-.11h0c-.59.13-1.19.23-1.79.31C87.79,79,88,79.86,88.18,80.76Z"/><path class="cls-8" d="M89.58,86.75l0-2.49c0-.68,0-1.35,0-2v0a7.87,7.87,0,0,1-1,.14C88.88,83.82,89.22,85.28,89.58,86.75Z"/><path class="cls-8" d="M88.79,70.53c0-.52.07-1,.12-1.55a9.18,9.18,0,0,0-1.78-1.6,10,10,0,0,1-2-1.37c.71,3.68,1.43,7.36,2.2,11,.65-.09,1.3-.2,1.94-.31h0c0-.31,0-.61-.07-.92l0-.26c0-.26,0-.53-.07-.79l-.06-.51c0-.2,0-.41-.08-.61-.05-.39-.1-.77-.16-1.16h0C88.51,72,88.76,71,88.79,70.53Z"/><path class="cls-8" d="M89.94,71a0,0,0,0,1,0,0,.35.35,0,0,0,.27,0c0-.13.05-.25.08-.38l-.74-.91,0,.33c0,.4-.09.81-.16,1.22s-.34,1.17-.06,1h0a.92.92,0,0,1-.13.31l-.06.05h0l.09.13.58.84a.36.36,0,0,0,.07.1h0a23.26,23.26,0,0,1,.34-2.59A.35.35,0,0,1,89.94,71Z"/><path class="cls-8" d="M94,74.66c-1-1-2-2.07-2.92-3.14a1.83,1.83,0,0,1-.13-.16c-.26.89-.52,1.77-.8,2.65h0l0,0,1.25,1.77c0,.06.09.13.14.2.41.56.83,1.12,1.25,1.67l.09.11h0c.33-.92.63-1.86,1-2.8C93.86,74.86,93.91,74.76,94,74.66Z"/><path class="cls-8" d="M96,76.74c-.52-.5-1-1-1.54-1.51-.23.55-.46,1.11-.66,1.68s-.32,1-.51,1.48h0c.39.49.78,1,1.18,1.43h0a20.07,20.07,0,0,1,1.15-2.32C95.8,77.25,95.92,77,96,76.74Z"/><path class="cls-8" d="M99,79.55c-.89-.8-1.76-1.61-2.62-2.45a26.79,26.79,0,0,0-1.65,3h0l.75.83.12.13.69.73a1.7,1.7,0,0,0,.19.19c.22.23.44.45.67.66.07.08.15.15.22.22l.67.61.25.23.67.56.29.24.66.51.32.24.65.46.38.25c.2.14.41.27.62.4l.25.15h0c.27-1.2.59-2.39.93-3.58Q101,81.32,99,79.55Z"/><path class="cls-8" d="M103.68,83.4c-.36,1.13-.71,2.26-1.05,3.41h0c.37.21.74.4,1.12.59l.19.09q.54.26,1.08.48l.06,0h0c.19-1,.54-2.09.77-3C105.12,84.47,104.4,83.94,103.68,83.4Z"/><path class="cls-8" d="M107.3,86c-.37-.24-.72-.5-1.08-.74a29.09,29.09,0,0,0-.84,2.88h0l.9.34.15.05.78.24.22.06.78.21.2,0,1,.2.25,0c.44.07.9.14,1.36.19l.39,0,.09,0,.41.06h0l.49.09h0l.5.1c-.46-.38-.93-.74-1.43-1.08C110.14,87.81,108.71,86.91,107.3,86Z"/><path class="cls-8" d="M68.93,36.34a1.31,1.31,0,0,0,0-.14S68.78,36.26,68.93,36.34Z"/><path class="cls-8" d="M71.38,45.23c-.6-2.88-1.18-5.76-1.72-8.64,0,0,0-.05,0-.08a2.38,2.38,0,0,1-.38-.07,1.44,1.44,0,0,1-.34-.1s0,.11-.06.19l-.43,1.55a49.86,49.86,0,0,0-1.33,7h0l.11,0a15.88,15.88,0,0,0,2.18.17C70.09,45.28,70.74,45.25,71.38,45.23Z"/><path class="cls-8" d="M67,51.68l1.53-.45a23.84,23.84,0,0,1,4-.58c-.32-1.54-.64-3.07-1-4.6a15,15,0,0,1-4.39-.37l-.11,0c0,.21,0,.42-.07.63v0c-.14,1.27-.27,2.49-.4,3.53l0,.17A11.75,11.75,0,0,1,67,51.68Z"/><path class="cls-8" d="M73.28,54.41q-.28-1.47-.6-2.94c-1.91.1-3.75.64-5.61.84.13.71.27,1.43.39,2.15l.12.75a8.78,8.78,0,0,0,1,0C70.18,55,71.73,54.69,73.28,54.41Z"/><path class="cls-8" d="M75.29,65.22c-.1-.58-.21-1.16-.31-1.74-.32,0-.65,0-1,.06-1.61.14-3.36.49-5.1.66.08.56.16,1.12.23,1.67,1.48-.19,3-.45,4.44-.58C74.16,65.24,74.72,65.22,75.29,65.22Z"/><path class="cls-8" d="M74.82,62.62l-.57-3.2c-.25-1.37-.51-2.73-.78-4.09l-1.42.23a28.74,28.74,0,0,1-4.31.61c.19,1.24.39,2.48.57,3.72s.31,2.22.46,3.34c1.74-.19,3.48-.42,5.24-.56C74.28,62.64,74.55,62.63,74.82,62.62Z"/><path class="cls-8" d="M76.26,78.77c.46-.11.93-.21,1.4-.3q-1.11-6.09-2.18-12.2a21.67,21.67,0,0,0-2.9.15c-1,.12-2.11.34-3.3.49.11.8.22,1.59.32,2.39.45,3.52.88,7,1.36,10.56C72.74,79.56,74.5,79.17,76.26,78.77Z"/><path class="cls-8" d="M78.43,82.55c-.21-1.06-.41-2.12-.61-3.19l-3,.64c-1.17.24-2.43.53-3.73.75.15,1.07.3,2.14.46,3.21l.45-.07C74.15,83.52,76.29,83,78.43,82.55Z"/><path class="cls-8" d="M73.64,96.46c.17.94.35,1.87.52,2.8,1.27-.25,2.54-.53,3.81-.81l3.72-.82c-.24-1-.47-2-.7-3-1.76.41-3.51.81-5.24,1.25Z"/><path class="cls-8" d="M74.32,100.08c.32,1.7.66,3.41,1,5.11,1.8-.29,3.58-.63,5.36-1,.81-.19,1.62-.41,2.41-.64l-1.2-5-4.42.91Z"/><path class="cls-8" d="M75.51,106l.39,1.81c.58,0,1.15-.11,1.72-.18,2.1-.24,4.16-.68,6.24-1.05-.17-.72-.35-1.43-.52-2.15l-.9.22C80.14,105.21,77.84,105.67,75.51,106Z"/><path class="cls-8" d="M78.43,118c.08.27.16.53.23.8q1.55-.31,3.09-.6l4.62-.87c-.11-.49-.22-1-.34-1.47a36.72,36.72,0,0,1-6.43,1.93Z"/><path class="cls-8" d="M87.08,120.38c-.16-.68-.31-1.36-.47-2-1.77.31-3.55.6-5.32.92l-2.37.44c.44,1.53.9,3.07,1.35,4.61h0l.72-.53.06,0,.35-.26,0,0,.4-.28.06-.05.35-.24.08-.06.81-.56.1-.07.33-.22.07,0,.38-.25.08-.05.3-.19.09-.06.66-.39.09,0,.22-.12.07,0,.24-.11,0,0,.17-.06,0,0,.17,0,.85-.08h0Z"/><path class="cls-8" d="M76.08,108.65c.09.43.18.87.28,1.31.55,2.44,1.17,4.85,1.84,7.24l2.73-.52a28.76,28.76,0,0,0,4.94-1.52c-.51-2.24-1-4.48-1.56-6.71-.07-.3-.15-.61-.22-.92-1.67.29-3.34.63-5,.83C78.07,108.48,77.07,108.56,76.08,108.65Z"/><path class="cls-8" d="M78.59,83.44l-.23,0c-2,.43-4.33,1-6.69,1.39.27,1.79.55,3.57.86,5.35s.63,3.64,1,5.46c1.23-.3,2.44-.65,3.65-1l3.6-1.07c-.73-3.21-1.43-6.43-2-9.66C78.66,83.78,78.62,83.61,78.59,83.44Z"/><path class="cls-8" d="M66.69,52.34l-.8,0a.11.11,0,0,1,0,0c0,.19-.07.38-.11.58,0,0,0,.09,0,.13,0,.21-.07.41-.1.62,0,0,0,.08,0,.12,0,.2-.06.41-.08.63a.59.59,0,0,0,0,.14c0,.2-.06.42-.08.63a1,1,0,0,0,0,.16,4.24,4.24,0,0,1,1.65-.24Z"/><path class="cls-8" d="M66.43,50.33h0c-.09.26-.16.51-.22.75a1,1,0,0,0,0,.14c-.07.24-.13.48-.18.71h0c.16,0,.38-.09.63-.16C66.55,51.29,66.49,50.81,66.43,50.33Z"/><path class="cls-8" d="M65.06,80.26a13.56,13.56,0,0,0,1.56.06A24.2,24.2,0,0,0,69.9,80l.37-.06c-.6-4.32-1.16-8.66-1.7-13a8,8,0,0,1-4.47-.59h0c-.28,2.18-.58,4.37-.94,6.55h0c.36,2.41.64,4.83.89,7.25A7.09,7.09,0,0,0,65.06,80.26Z"/><path class="cls-8" d="M64.77,84.21a0,0,0,1,1,0,0c-.92,0,1.07,0,1.34.06.57,0,1.14,0,1.71,0,1,0,2-.12,3-.26-.16-1.06-.32-2.13-.46-3.2a15,15,0,0,1-6.3-.12c.11,1.14.21,2.28.31,3.41Z"/><path class="cls-8" d="M71,85a14.3,14.3,0,0,1-6.55-.43c.35,4,.65,8,1.06,12a22.77,22.77,0,0,0,7.25-.68q-.48-2.72-.93-5.45C71.53,88.6,71.25,86.78,71,85ZM67.9,90.69a.38.38,0,0,1-.38.25.64.64,0,0,1-.1.13.45.45,0,0,1-.75-.19c0-.16,0-.33,0-.49a.64.64,0,0,1-.05-.23.94.94,0,0,1,.17-.46h0a3.24,3.24,0,0,1,.71-.77.4.4,0,0,1,.66.18A2.89,2.89,0,0,1,67.9,90.69Z"/><path class="cls-8" d="M65.56,97.14c.12,1.17.26,2.34.4,3.51a30.34,30.34,0,0,1,5.35-.89c.7-.1,1.39-.22,2.08-.35-.17-.92-.34-1.84-.5-2.76C70.48,97.25,67.76,97.74,65.56,97.14Z"/><path class="cls-8" d="M71.23,108.41c1.28-.22,2.56-.36,3.84-.49-.12-.6-.25-1.19-.37-1.79l-1,.13c-2.25.27-4.58.8-6.87,1,.11.72.21,1.45.33,2.17a.5.5,0,0,1,.32.09A9.43,9.43,0,0,1,71.23,108.41Z"/><path class="cls-8" d="M77.81,119.9c-1.15.22-2.29.46-3.43.72a29.9,29.9,0,0,1-4.92,1.11q.6,2.86,1.31,5.7l1.45.21s1.87-3.36,3.44-3.88c1.4-.47,3.26,1.55,3.26,1.55l.09-.07s0,0,.06,0h0l.21-.16,0,0C78.77,123.32,78.27,121.62,77.81,119.9Z"/><path class="cls-8" d="M72.29,119c-.62.07-2.73.64-3.18-.08,0,0,0,0,0,0a43.3,43.3,0,0,0,5-.93l3-.55c-.65-2.66-1.22-5.32-1.78-7.94-.06-.25-.1-.5-.16-.74-1,.08-1.92.16-2.88.28a39,39,0,0,0-4.66,1.08.41.41,0,0,1-.3.25h0q.89,5.58,2,11.11c1.55-1,3.69-1.36,5.44-1.79.92-.23,1.83-.43,2.75-.63l-.21-.84C75.68,118.49,74,118.77,72.29,119Zm-2.08-5h0a.49.49,0,0,1,.77.25.53.53,0,0,1,.23.49,2.32,2.32,0,0,1,.18.46.42.42,0,0,1-.52.52l-.14,0v0s0,0,0,0a.56.56,0,0,1-.53.4.49.49,0,0,1-.45-.26.59.59,0,0,1-.06-.28,2.09,2.09,0,0,1-.07-.66.91.91,0,0,1-.1-.43A.55.55,0,0,1,70.21,114Z"/><path class="cls-8" d="M66,101.09c.24,1.84.5,3.67.76,5.5a38.47,38.47,0,0,1,5.53-.93l2.23-.34q-.51-2.53-1-5.1A42.1,42.1,0,0,1,66,101.09Z"/><path class="cls-8" d="M67.2,56.16a2.82,2.82,0,0,1-1.78-.64c0,.26-.07.54-.11.83-.11.89-.22,1.77-.32,2.66-.19,1.52-.37,3-.55,4.56h0c1.23,0,2.45-.15,3.66-.27C67.8,60.92,67.51,58.54,67.2,56.16Z"/><path class="cls-8" d="M68.44,66c-.07-.56-.15-1.12-.22-1.69A11.91,11.91,0,0,1,64.39,64h0c-.06.55-.12,1.09-.19,1.64h0a10.83,10.83,0,0,0,2,.42A21.21,21.21,0,0,0,68.44,66Z"/><path class="cls-6" d="M64,17.92c1.08-.67-.54-5.46-2-3.66C60.76,15.82,63,18.59,64,17.92Z"/><path class="cls-9" d="M65.28,11.49c-1.09-2.27-4.47-2.86-6.67-1.67a5.39,5.39,0,0,0-2.07,2.57c-.24.58-.65,1.67,0,2.15a.77.77,0,0,0,.89,0,.55.55,0,0,0,.18-.32,3.24,3.24,0,0,1,1.21-2.1,4,4,0,0,1,2.35-.93,3.36,3.36,0,0,1,2.33,1.11C64.24,12.84,65.67,12.3,65.28,11.49Z"/><path class="cls-9" d="M62.68,29.54s-.1,0,0,0S62.66,29.54,62.68,29.54Z"/><path class="cls-9" d="M50.71,22.63a.23.23,0,0,0-.07.07l0,0,.07,0S50.73,22.61,50.71,22.63Z"/><path class="cls-9" d="M50.62,23.33a3.29,3.29,0,0,1,0-.77c0-.14-.2-.13-.23,0a.61.61,0,0,1-.07.14s0,0,0,0a.14.14,0,0,0,0-.1,1.18,1.18,0,0,0,0,.2,2.54,2.54,0,0,0,0,.39,2,2,0,0,0,.19.79c0,.07.12,0,.14,0A1.39,1.39,0,0,0,50.62,23.33Z"/><path class="cls-9" d="M49.67,25c0-.2-.07-.56-.24-.7a.12.12,0,0,0-.2.08,2.83,2.83,0,0,0,.1.71,1.64,1.64,0,0,0,.17.7.13.13,0,0,0,.24-.06A1.66,1.66,0,0,0,49.67,25Z"/><path class="cls-9" d="M51,25.69l-.06-.39a.8.8,0,0,0,0-.15.08.08,0,0,0,0,0h0s0-.07-.05-.07c-.38-.07-.12,1.21,0,1.41a.12.12,0,0,0,.22,0A1.47,1.47,0,0,0,51,25.69Z"/><path class="cls-9" d="M51.9,24.61a2.11,2.11,0,0,1-.13-.7.06.06,0,0,0-.12,0,1.1,1.1,0,0,0-.07.67,1.75,1.75,0,0,0,.19.71c.06.09.18.05.21-.06A1.06,1.06,0,0,0,51.9,24.61Z"/><path class="cls-9" d="M48.63,23.27a.69.69,0,0,0-.11-.47.05.05,0,0,0-.1,0c0,.28-.18.61-.05.87a.07.07,0,0,0,.11,0A.61.61,0,0,0,48.63,23.27Z"/><path class="cls-9" d="M48.25,25.74a2,2,0,0,0-.18-.76c-.07-.13-.24,0-.24.09s0,.54.05.82a1.47,1.47,0,0,0,.15.75.12.12,0,0,0,.22-.05A2.69,2.69,0,0,0,48.25,25.74Z"/><path class="cls-9" d="M49.37,27.3a1.77,1.77,0,0,0-.24-.64.11.11,0,0,0-.2.08c0,.25.06.5.1.75a1.07,1.07,0,0,0,.2.58c.07.08.19,0,.21-.08A1.79,1.79,0,0,0,49.37,27.3Z"/><path class="cls-9" d="M50.78,28.66c0-.15-.06-.29-.08-.44a.37.37,0,0,1,0-.18c0-.09,0-.1.06-.13s.08-.22,0-.21-.35.2-.36.46a1.53,1.53,0,0,0,.18.79.11.11,0,0,0,.17,0C50.79,28.92,50.78,28.76,50.78,28.66Z"/><path class="cls-9" d="M51.89,27.94a1.36,1.36,0,0,0-.26-.71,0,0,0,0,0-.08,0c0,.24,0,.48,0,.72s-.06.54.08.72a.09.09,0,0,0,.15,0C52,28.52,51.92,28.18,51.89,27.94Z"/><path class="cls-9" d="M52.38,23.35c0-.1-.13-.1-.15,0a1,1,0,0,0,.14.76.11.11,0,0,0,.19-.07C52.57,23.78,52.38,23.59,52.38,23.35Z"/><path class="cls-9" d="M53.7,23.46c-.06-.11-.23,0-.22.09a3,3,0,0,0,.17,1c.06.11.2,0,.23-.06A1.6,1.6,0,0,0,53.7,23.46Z"/><path class="cls-9" d="M53.06,26.18c-.05-.15-.15-.44-.35-.4a.15.15,0,0,0-.12.15,4.84,4.84,0,0,0,.14.51c.05.19.1.38.29.46s.11,0,.13-.07A1,1,0,0,0,53.06,26.18Z"/><path class="cls-9" d="M54.23,27l-.12-.56c0-.11-.18-.08-.2,0-.08.33-.13.91.21,1.1a.12.12,0,0,0,.15-.08A1.56,1.56,0,0,0,54.23,27Z"/><path class="cls-9" d="M54.34,29.84l-.12-.39a1.2,1.2,0,0,1-.06-.24.1.1,0,0,0-.18-.07,1,1,0,0,0,0,.67c0,.2.09.59.26.71a.13.13,0,0,0,.21-.05C54.5,30.3,54.39,30,54.34,29.84Z"/><path class="cls-9" d="M53.21,28.91c0-.08-.1-.15-.15-.07a.72.72,0,0,0-.08.62c.06.23.17.57.38.68a.13.13,0,0,0,.16-.07C53.67,29.65,53.11,29.33,53.21,28.91Z"/><path class="cls-9" d="M52.24,31.11c-.05-.23-.12-.46-.19-.69a.1.1,0,0,0-.19,0c-.12.2,0,.51,0,.71a1.5,1.5,0,0,0,.31.78.1.1,0,0,0,.17-.06A2,2,0,0,0,52.24,31.11Z"/><path class="cls-9" d="M50.47,31.42a2,2,0,0,0-.2-.84c0-.06-.11,0-.13,0a2.63,2.63,0,0,0,0,.84,2.55,2.55,0,0,0,.08.83.11.11,0,0,0,.2,0A1.33,1.33,0,0,0,50.47,31.42Z"/><path class="cls-9" d="M48.85,30.28l-.06-.43c0-.05,0-.29-.06-.18,0-.11-.06-.23-.17-.16s-.11.47-.1.64a1.67,1.67,0,0,0,.23.89.11.11,0,0,0,.18,0A1.36,1.36,0,0,0,48.85,30.28Z"/><path class="cls-9" d="M47.62,28.5c0-.08-.17-.06-.15,0s.07.41.09.61a2.72,2.72,0,0,0,.1.57c0,.05.1.06.12,0A1.64,1.64,0,0,0,47.62,28.5Z"/><path class="cls-9" d="M48.46,32.76A4.54,4.54,0,0,0,48.3,32a.09.09,0,0,0-.1,0c-.25.11-.14.6-.1.79s.12.72.37.9a.09.09,0,0,0,.13-.08A1.68,1.68,0,0,0,48.46,32.76Z"/><path class="cls-9" d="M50,33.65a3.15,3.15,0,0,0-.06-.61c0-.19-.12-.69-.4-.58a.05.05,0,0,0,0,.08,1.89,1.89,0,0,1,.09.79c0,.19,0,.7.18.79a.14.14,0,0,0,.17,0C50,34,50,33.78,50,33.65Z"/><path class="cls-9" d="M51.42,33.3c0-.1-.18-.13-.19,0a2.76,2.76,0,0,0,.12,1.59.11.11,0,0,0,.19-.05A4.39,4.39,0,0,0,51.42,33.3Z"/><path class="cls-9" d="M52.48,32.79c0-.07-.13-.09-.13,0a3.17,3.17,0,0,0,.13,1.59c.05.1.2,0,.21-.05A4.74,4.74,0,0,0,52.48,32.79Z"/><path class="cls-9" d="M53.75,32.6a2.82,2.82,0,0,0-.28-.64c-.07-.09-.19,0-.19.08a2.24,2.24,0,0,0,.1.63c0,.21.09.5.27.63a.1.1,0,0,0,.16,0A.85.85,0,0,0,53.75,32.6Z"/><path class="cls-9" d="M55,32.23a1,1,0,0,0-.61-.67s-.09.07,0,.1a2.07,2.07,0,0,1,.39.85c.08.25.11.67.32.83s.18,0,.21-.08A2,2,0,0,0,55,32.23Z"/><path class="cls-9" d="M55.8,32.05c0-.08-.15,0-.12.08a6.42,6.42,0,0,0,.55,1.74c.06.1.2,0,.2-.08A4.73,4.73,0,0,0,55.8,32.05Z"/><path class="cls-9" d="M56.75,36.23c0-.09-.15-.58-.14-.58a0,0,0,0,0,0,0c-.4,0-.16,1.24,0,1.46a.14.14,0,0,0,.25,0A1.6,1.6,0,0,0,56.75,36.23Z"/><path class="cls-9" d="M55.26,35.45c0-.15-.13-.49,0-.63a.06.06,0,0,0-.07-.08.57.57,0,0,0-.23.55,1.34,1.34,0,0,0,.17.75.11.11,0,0,0,.21,0A1.25,1.25,0,0,0,55.26,35.45Z"/><path class="cls-9" d="M54,34.85c0-.22,0-.45-.05-.68s-.14-.13-.17,0a2.07,2.07,0,0,0,0,1.39.12.12,0,0,0,.23,0A1.83,1.83,0,0,0,54,34.85Z"/><path class="cls-9" d="M52.92,35.05c0-.1-.18-.13-.19,0a5.83,5.83,0,0,0,.1,1.56.12.12,0,0,0,.22,0A3.12,3.12,0,0,0,52.92,35.05Z"/><path class="cls-9" d="M51.55,36.4a1,1,0,0,0-.57-.61s-.08.06-.06.1a3.85,3.85,0,0,1,.34.71,3.1,3.1,0,0,0,.28.81.12.12,0,0,0,.22,0A1.55,1.55,0,0,0,51.55,36.4Z"/><path class="cls-9" d="M49.46,35.14a.08.08,0,0,0-.15,0,2.49,2.49,0,0,0,.51,1.5c.06.08.17,0,.17-.07C50,36.06,49.55,35.65,49.46,35.14Z"/><path class="cls-9" d="M48.45,34.84c0-.07-.11-.07-.12,0A4.56,4.56,0,0,0,48.7,37a.09.09,0,0,0,.17,0C48.89,36.21,48.5,35.55,48.45,34.84Z"/><path class="cls-9" d="M50.09,38.74c0-.19,0-.38-.07-.56a.13.13,0,0,0-.25,0,1.52,1.52,0,0,0,0,.6c0,.14.05.39.17.48a.1.1,0,0,0,.16-.06A1.68,1.68,0,0,0,50.09,38.74Z"/><path class="cls-9" d="M51.35,38.31c0-.06,0-.11-.09-.06a1.34,1.34,0,0,0-.31.93,2.28,2.28,0,0,0,.18,1.07.13.13,0,0,0,.23-.06C51.47,39.58,51.13,38.92,51.35,38.31Z"/><path class="cls-9" d="M53,38.8a.06.06,0,0,0-.09-.09,1,1,0,0,0-.37.64,1.13,1.13,0,0,0,0,.77.08.08,0,0,0,.11,0,.81.81,0,0,0,.18-.57A2.48,2.48,0,0,1,53,38.8Z"/><path class="cls-9" d="M53.81,37.32a.06.06,0,0,0-.11-.06.79.79,0,0,0-.13.62,1.75,1.75,0,0,0,.19.71.12.12,0,0,0,.22-.06C54.07,38.13,53.74,37.74,53.81,37.32Z"/><path class="cls-9" d="M54.83,37.52a1,1,0,0,0-.22-.62,0,0,0,0,0,0,0,2.12,2.12,0,0,0,0,.71,1.34,1.34,0,0,0,.11.69.1.1,0,0,0,.17,0A1.48,1.48,0,0,0,54.83,37.52Z"/><path class="cls-9" d="M56,38l0-.39a.66.66,0,0,0,0-.14s0-.07,0,0-.09-.14-.13-.07-.1.09-.12.18a1.34,1.34,0,0,0,0,.35,3.22,3.22,0,0,0,.09.82c0,.1.2.13.24,0A1.8,1.8,0,0,0,56,38Z"/><path class="cls-9" d="M56,39.68c0-.07-.14,0-.13,0,0,.22.09.44.14.65a3.73,3.73,0,0,0,.15.68.1.1,0,0,0,.2,0A2.5,2.5,0,0,0,56,39.68Z"/><path class="cls-9" d="M55,39.62a.08.08,0,0,0-.15,0,1.71,1.71,0,0,0-.09.64,2.31,2.31,0,0,0,0,.79.1.1,0,0,0,.18,0A2,2,0,0,0,55,39.62Z"/><path class="cls-9" d="M53.79,39.9a.08.08,0,0,0-.15,0,3.52,3.52,0,0,0,0,1.55.1.1,0,0,0,.2,0A5.56,5.56,0,0,0,53.79,39.9Z"/><path class="cls-9" d="M52.64,41.11c0-.09-.16-.12-.17,0a3.86,3.86,0,0,0,.13,1.44.09.09,0,0,0,.18,0A3.54,3.54,0,0,0,52.64,41.11Z"/><path class="cls-9" d="M51.59,42.1c0-.16-.06-.58-.26-.6,0,0,0,0,0,0a4.9,4.9,0,0,0,0,.66,4.2,4.2,0,0,0,.07.87c0,.07.09,0,.12,0A1.57,1.57,0,0,0,51.59,42.1Z"/><path class="cls-9" d="M50.19,41.2c0-.09-.15-.11-.16,0a2.8,2.8,0,0,0,.14,1.41.1.1,0,0,0,.18-.05A5.6,5.6,0,0,0,50.19,41.2Z"/><path class="cls-9" d="M57.55,38.94a3.79,3.79,0,0,0,0-.83A.12.12,0,0,0,57.4,38h0a.11.11,0,0,0-.08.11s0,0,0,0h0a1.11,1.11,0,0,0-.09.26,2,2,0,0,0,0,.35,2.11,2.11,0,0,0,.1.83.08.08,0,0,0,.16,0A1.35,1.35,0,0,0,57.55,38.94Z"/><path class="cls-9" d="M58.6,37.83a4.61,4.61,0,0,1,0-.83.07.07,0,0,0-.13,0,1.38,1.38,0,0,0-.16.64,1.32,1.32,0,0,0,.07.74.1.1,0,0,0,.16,0A.85.85,0,0,0,58.6,37.83Z"/><path class="cls-9" d="M58.23,35.93a3.19,3.19,0,0,1-.13-.82c0-.09-.12-.1-.16,0a1.1,1.1,0,0,0-.06.67,3.67,3.67,0,0,0,.2.87c.05.12.19.11.23,0A1.18,1.18,0,0,0,58.23,35.93Z"/><path class="cls-9" d="M57,33.58a.06.06,0,0,0-.05.07,2.64,2.64,0,0,1,.12.4.91.91,0,0,0,.1.4.09.09,0,0,0,.16,0C57.37,34.16,57.29,33.65,57,33.58Z"/><path class="cls-9" d="M58.72,34.07c0-.26-.11-.5-.14-.76a.07.07,0,0,0-.14,0,1.39,1.39,0,0,0-.07.67,1.86,1.86,0,0,0,.14.75.11.11,0,0,0,.17,0C58.82,34.52,58.75,34.28,58.72,34.07Z"/><path class="cls-9" d="M59.78,34.83c0-.26,0-.52,0-.78a.09.09,0,0,0-.17,0,2.05,2.05,0,0,0-.11,1.44.12.12,0,0,0,.23,0A3,3,0,0,0,59.78,34.83Z"/><path class="cls-9" d="M61.35,35.27a5,5,0,0,1,.06-1,.1.1,0,0,0-.15-.11c-.24.14-.25.54-.27.79a3.14,3.14,0,0,0,0,1.1.12.12,0,0,0,.23,0A2.55,2.55,0,0,0,61.35,35.27Z"/><path class="cls-9" d="M55,24.05c0-.05-.1-.07-.12,0A1.14,1.14,0,0,0,55,25.12c.05.06.16,0,.17-.06A2.45,2.45,0,0,0,55,24.05Z"/><path class="cls-9" d="M56,24.53a4.11,4.11,0,0,1,0-.7.05.05,0,0,0-.09,0,1.25,1.25,0,0,0-.05,1.34c.05.09.16.05.19,0A1.56,1.56,0,0,0,56,24.53Z"/><path class="cls-9" d="M57.36,24.9a1.52,1.52,0,0,0-.36-.66.09.09,0,0,0-.15.09A2.83,2.83,0,0,0,57,25a1.82,1.82,0,0,0,.3.68c.09.09.21,0,.21-.12A1.82,1.82,0,0,0,57.36,24.9Z"/><path class="cls-9" d="M56.36,26c-.12.09-.08.32-.08.45a.83.83,0,0,0,.14.54.12.12,0,0,0,.19,0C56.66,26.85,56.59,25.87,56.36,26Z"/><path class="cls-9" d="M58.36,26.59c0-.08-.09-.11-.13,0a1,1,0,0,0-.16.44,1,1,0,0,0,.12.56.14.14,0,0,0,.25-.05C58.49,27.19,58.33,26.89,58.36,26.59Z"/><path class="cls-9" d="M58.32,24.7c0-.08-.14-.06-.15,0a1.22,1.22,0,0,0,.23,1.07.08.08,0,0,0,.13,0C58.65,25.39,58.39,25.05,58.32,24.7Z"/><path class="cls-9" d="M59.83,25.08c-.09-.27-.16-.56-.24-.83a.09.09,0,0,0-.18,0,2.23,2.23,0,0,0,.4,1.65c.07.07.17,0,.17-.09A2.63,2.63,0,0,0,59.83,25.08Z"/><path class="cls-9" d="M60.86,24.47c0-.12-.15-.15-.17,0a1.61,1.61,0,0,0,.2,1.44c.08.08.19,0,.19-.1C61.1,25.34,60.83,24.92,60.86,24.47Z"/><path class="cls-9" d="M66.61,27.44a1.4,1.4,0,0,0-.22-.62,0,0,0,0,0-.06,0c0,.22,0,.43,0,.64a1.56,1.56,0,0,0,.1.72.13.13,0,0,0,.21,0A1.39,1.39,0,0,0,66.61,27.44Z"/><path class="cls-9" d="M62.37,25.69a1.61,1.61,0,0,0-.07-.49.06.06,0,0,0-.1,0,1.11,1.11,0,0,0,0,1,.09.09,0,0,0,.16,0A.75.75,0,0,0,62.37,25.69Z"/><path class="cls-9" d="M63.29,25.82a.08.08,0,0,0-.14-.07A1.44,1.44,0,0,0,62.81,27a.07.07,0,0,0,.13,0A2.74,2.74,0,0,0,63.29,25.82Z"/><path class="cls-9" d="M64.28,24.74a.09.09,0,0,0-.14-.1,1.59,1.59,0,0,0-.37,1.2.12.12,0,0,0,.22,0C64.18,25.54,64.11,25.1,64.28,24.74Z"/><path class="cls-9" d="M65.43,26.41a2.22,2.22,0,0,0-.19-.53.1.1,0,0,0-.18,0,1.39,1.39,0,0,0,0,.53,1.5,1.5,0,0,0,.2.56c.08.11.24,0,.24-.1A1.74,1.74,0,0,0,65.43,26.41Z"/><path class="cls-9" d="M67.58,26.57a3.1,3.1,0,0,0-.1-.53.08.08,0,0,0-.1,0c-.17.07-.15.33-.14.49s0,.55.21.67a.14.14,0,0,0,.17-.07C67.7,26.94,67.61,26.72,67.58,26.57Z"/><path class="cls-9" d="M64.53,27a.05.05,0,0,0-.08-.05.87.87,0,0,0-.1,1s.1.06.13,0C64.67,27.76,64.5,27.33,64.53,27Z"/><path class="cls-9" d="M66.4,24.11a.09.09,0,0,0-.15-.08,1.76,1.76,0,0,0,0,1.52.1.1,0,0,0,.2,0C66.6,25,66.21,24.6,66.4,24.11Z"/><path class="cls-9" d="M70.88,26.48a1.62,1.62,0,0,0-.27-.74.08.08,0,0,0-.14.06c0,.24.06.48.09.72a1.88,1.88,0,0,0,.13.75.12.12,0,0,0,.2,0A1.35,1.35,0,0,0,70.88,26.48Z"/><path class="cls-9" d="M69.83,27a3.8,3.8,0,0,0-.35-.92s-.07,0-.07,0a3.64,3.64,0,0,0,.11.87,4.52,4.52,0,0,0,.2.9.08.08,0,0,0,.15,0A1.41,1.41,0,0,0,69.83,27Z"/><path class="cls-9" d="M68.77,27c0-.3-.08-.59-.13-.88a.09.09,0,0,0-.17,0,2.78,2.78,0,0,0-.07.81,2.86,2.86,0,0,0,.11.93.14.14,0,0,0,.27,0A2.32,2.32,0,0,0,68.77,27Z"/><path class="cls-9" d="M71.44,27.7a.08.08,0,0,0-.16,0,3.66,3.66,0,0,0,0,.57,1.3,1.3,0,0,0,.08.62c0,.06.1,0,.13,0C71.63,28.56,71.48,28.05,71.44,27.7Z"/><path class="cls-9" d="M71.88,25.59c0-.1-.16-.11-.17,0a1.83,1.83,0,0,0,.15,1.16c0,.08.15,0,.15-.06A8.3,8.3,0,0,0,71.88,25.59Z"/><path class="cls-9" d="M69.34,25.26c0-.13-.1-.28-.22-.33A.11.11,0,0,0,69,25a.8.8,0,0,0,.27.82.13.13,0,0,0,.16-.07A.64.64,0,0,0,69.34,25.26Z"/><path class="cls-9" d="M64.45,33.39c0-.12-.12-.15-.18-.06a2.38,2.38,0,0,0-.15,1.58c0,.08.11.06.14,0C64.52,34.46,64.33,33.88,64.45,33.39Z"/><path class="cls-9" d="M63.42,34.29a2.32,2.32,0,0,0-.35.66,2.49,2.49,0,0,0-.14,1,.08.08,0,0,0,.16,0,16.13,16.13,0,0,0,.43-1.59C63.55,34.29,63.46,34.22,63.42,34.29Z"/><path class="cls-9" d="M62.18,34.87s0,0-.06,0A3.61,3.61,0,0,0,61.88,37a.11.11,0,0,0,.22,0C62.23,36.29,62,35.57,62.18,34.87Z"/><path class="cls-9" d="M61.36,38.26c0-.24-.08-.47-.11-.7a.09.09,0,0,0,0-.12l-.1-.13c-.07-.12-.22-.05-.25.06A2.69,2.69,0,0,0,61.21,39a.1.1,0,0,0,.19,0A1.9,1.9,0,0,0,61.36,38.26Z"/><path class="cls-9" d="M60.07,37.36a3,3,0,0,1-.17-.79.05.05,0,0,0-.1,0,2.16,2.16,0,0,0,0,.76,1,1,0,0,0,.23.61.08.08,0,0,0,.13,0A1.37,1.37,0,0,0,60.07,37.36Z"/><path class="cls-9" d="M59.74,38.63s0-.07-.07,0a1.77,1.77,0,0,0-.05,1.6c0,.08.14.07.16,0C59.87,39.67,59.68,39.15,59.74,38.63Z"/><path class="cls-9" d="M60.77,40.13c0-.09-.1-.14-.14-.05a2.12,2.12,0,0,0-.09,1.47.08.08,0,0,0,.14,0A5.18,5.18,0,0,0,60.77,40.13Z"/><path class="cls-9" d="M62.21,39.16a.07.07,0,0,0-.14,0c0,.2-.08.41-.12.62a.89.89,0,0,0,0,.56.09.09,0,0,0,.15,0C62.4,40.12,62.33,39.5,62.21,39.16Z"/><path class="cls-9" d="M63.16,37.69c0-.1-.16-.11-.17,0s-.06.4-.08.6-.08.39-.08.59.09.11.14.06C63.3,38.65,63.19,38.07,63.16,37.69Z"/><path class="cls-9" d="M64.5,36.71a.14.14,0,0,0-.28-.05A4.09,4.09,0,0,0,64,37.78a.13.13,0,0,0,.23.08A2.24,2.24,0,0,0,64.5,36.71Z"/><path class="cls-9" d="M63.81,36c0-.1-.1-.17-.17-.08a.92.92,0,0,0-.2.78.1.1,0,0,0,.17,0A1.43,1.43,0,0,0,63.81,36Z"/><path class="cls-9" d="M65.31,34.65a.08.08,0,0,0-.16,0,1.49,1.49,0,0,0-.12.75.07.07,0,0,0,.13,0A1.49,1.49,0,0,0,65.31,34.65Z"/><path class="cls-9" d="M66.49,33.64c0-.11-.12-.13-.16,0a2.39,2.39,0,0,0-.25,1.13c0,.06.11.07.14,0A2.38,2.38,0,0,0,66.49,33.64Z"/><path class="cls-9" d="M66.35,36.22a.13.13,0,0,0-.15,0,.32.32,0,0,0-.12.08.09.09,0,0,0,0,.13A2.93,2.93,0,0,1,66,37c-.06.25-.1.5-.15.74s.1.16.15.08a3.42,3.42,0,0,0,.35-.75C66.37,36.82,66.49,36.44,66.35,36.22Z"/><path class="cls-9" d="M64.86,38.6a.9.9,0,0,0-.09-.4c0-.1-.14-.07-.17,0a3,3,0,0,0-.28,1.5.11.11,0,0,0,.19,0A1.87,1.87,0,0,0,64.8,39,1.4,1.4,0,0,0,64.86,38.6Z"/><path class="cls-9" d="M58,40.84a.12.12,0,0,0-.24,0c-.08.24-.12.5-.18.74a3.55,3.55,0,0,0-.15.72c0,.08.1.12.16.08A2.66,2.66,0,0,0,58,40.84Z"/><path class="cls-9" d="M58.86,41.52a.06.06,0,0,0-.12,0c-.13.51-.41,1-.51,1.49a.08.08,0,0,0,.15,0A2.94,2.94,0,0,0,58.86,41.52Z"/><path class="cls-9" d="M59.93,41.93a3.34,3.34,0,0,0-.63,1.66.08.08,0,0,0,.14.07c.36-.48.23-1.16.58-1.64C60.07,42,60,41.87,59.93,41.93Z"/><path class="cls-9" d="M61,42.66c0-.13,0-.27.05-.4s0-.1,0-.15V42s0,0,0,0a.1.1,0,0,0,0-.07.07.07,0,0,0-.08,0c-.16,0-.2.36-.23.52a2.55,2.55,0,0,0-.07.91.08.08,0,0,0,.16,0A1.94,1.94,0,0,0,61,42.66Z"/><path class="cls-9" d="M62.47,41.35a.1.1,0,0,0-.16-.11A2.27,2.27,0,0,0,62,42.68a.09.09,0,0,0,.18,0C62.33,42.28,62.26,41.77,62.47,41.35Z"/><path class="cls-9" d="M63.81,40.45h0s0,0,0,0H63.7l0,0h0a.24.24,0,0,0,0,.15,4.43,4.43,0,0,1-.17.47,3.41,3.41,0,0,0-.21,1.18.08.08,0,0,0,.15,0,10.28,10.28,0,0,0,.41-1.22C63.84,40.91,64,40.6,63.81,40.45Z"/><path class="cls-9" d="M65,40.45a.07.07,0,1,0-.14,0,6.78,6.78,0,0,0-.44,1.92.09.09,0,0,0,.17,0A6.58,6.58,0,0,0,65,40.45Z"/><path class="cls-9" d="M54.88,43c0-.14-.1-.61-.26-.67h0a.14.14,0,0,0-.11.12c-.05.11,0,.31,0,.41s.09.35.14.51.07.29.2.3S54.9,43.07,54.88,43Z"/><path class="cls-9" d="M55.78,42.81a4.9,4.9,0,0,0,0-.77c0-.06-.09,0-.11,0a1.26,1.26,0,0,0-.12.61,1.86,1.86,0,0,0,.08.78.07.07,0,0,0,.14,0A1.35,1.35,0,0,0,55.78,42.81Z"/><path class="cls-9" d="M56.75,43.73a.78.78,0,0,0-.12-.73s-.05,0-.05,0a4.34,4.34,0,0,1-.15.8,1.34,1.34,0,0,0-.1.76.08.08,0,0,0,.13,0A1.74,1.74,0,0,0,56.75,43.73Z"/><path class="cls-9" d="M57.4,45l.06-.34s0-.08,0-.12,0,0,0-.08a.06.06,0,0,0-.05-.1c-.14,0-.21.19-.26.36s-.19.65-.06.87a.08.08,0,0,0,.1,0C57.39,45.5,57.38,45.22,57.4,45Z"/><path class="cls-9" d="M58.56,44.39a.06.06,0,0,0-.11,0,2.49,2.49,0,0,0-.26,1.25c0,.1.12.11.16,0A2.46,2.46,0,0,0,58.56,44.39Z"/><path class="cls-9" d="M60.14,45.65a8.81,8.81,0,0,1,.21-.92.07.07,0,0,0-.09-.08c-.32.09-.41.6-.43.89a1.33,1.33,0,0,0,.23,1c0,.06.12,0,.12-.07C60.18,46.21,60.13,45.93,60.14,45.65Z"/><path class="cls-9" d="M61.75,43.59a.09.09,0,0,0-.18,0c0,.24,0,.49,0,.73a1.34,1.34,0,0,0,.1.69c0,.07.14,0,.15,0A3.3,3.3,0,0,0,61.75,43.59Z"/><path class="cls-9" d="M63.32,43.15s0,0,0,0a1,1,0,0,0-.41.58,2.83,2.83,0,0,0-.15.86.09.09,0,0,0,.16.05,1.25,1.25,0,0,0,.19-.61A2.2,2.2,0,0,1,63.32,43.15Z"/><path class="cls-9" d="M64.32,43.12a.06.06,0,0,0-.12,0,4.42,4.42,0,0,0-.14.63,1.31,1.31,0,0,0,0,.59.09.09,0,0,0,.16,0A1.69,1.69,0,0,0,64.32,43.12Z"/><path class="cls-9" d="M54.08,43.8s-.1,0-.09,0a5.18,5.18,0,0,0,.52,1.63c0,.06.1,0,.11,0A3.8,3.8,0,0,0,54.08,43.8Z"/><path class="cls-9" d="M53,44.26l-.15-.48a1,1,0,0,1-.1-.29.06.06,0,0,0-.11,0,1.93,1.93,0,0,0,.1.72c0,.17.09.34.13.52a.81.81,0,0,0,.15.41.08.08,0,0,0,.12,0C53.27,44.88,53.07,44.46,53,44.26Z"/><path class="cls-9" d="M51.66,44s0,0,0,0a2.68,2.68,0,0,0,.19,1.26c0,.06.12,0,.12-.05A2,2,0,0,0,51.66,44Z"/><path class="cls-9" d="M53.22,47.25c0-.22,0-.56-.23-.7a.08.08,0,0,0-.13.05,2.42,2.42,0,0,0,.06.76,1.86,1.86,0,0,0,.19.85.08.08,0,0,0,.13,0A1.87,1.87,0,0,0,53.22,47.25Z"/><path class="cls-9" d="M54.36,46.29a.05.05,0,0,0,0,.09c.06,0,.11.65.11.72a2.18,2.18,0,0,0,.11.77.1.1,0,0,0,.17,0C54.88,47.63,54.77,46,54.36,46.29Z"/><path class="cls-9" d="M56.54,46.7a2.23,2.23,0,0,0-.11-.9s0,0,0,0c-.22.09-.18.51-.18.7a7.88,7.88,0,0,0,.08,1.09.09.09,0,0,0,.18,0A1.72,1.72,0,0,0,56.54,46.7Z"/><path class="cls-9" d="M67.52,34.45a4.91,4.91,0,0,0-.32.86,2.36,2.36,0,0,0-.19,1,.08.08,0,0,0,.15,0,1.47,1.47,0,0,0,.28-.72c.1-.37.22-.74.33-1.11C67.83,34.37,67.59,34.32,67.52,34.45Z"/><path class="cls-9" d="M68.63,34.67a.06.06,0,0,0-.11,0A14.65,14.65,0,0,0,68,36.23c0,.08.09.13.13.07A2.88,2.88,0,0,0,68.63,34.67Z"/><path class="cls-9" d="M67.26,37.65a.12.12,0,0,0-.22,0,4.3,4.3,0,0,0-.44,1.47.06.06,0,0,0,.11,0A2.82,2.82,0,0,0,67.26,37.65Z"/><path class="cls-9" d="M66.19,38.64c0-.12-.18-.15-.21,0a3.24,3.24,0,0,0-.17,1.6c0,.08.1.08.12,0A6.36,6.36,0,0,0,66.19,38.64Z"/><path class="cls-9" d="M66.11,41a.1.1,0,0,0-.18-.06,3.54,3.54,0,0,0-.45,1.78.07.07,0,0,0,.14,0A5.51,5.51,0,0,0,66.11,41Z"/><path class="cls-9" d="M55.77,28.81c-.1-.36-.17-.73-.27-1.09a.15.15,0,0,0-.28,0,2.79,2.79,0,0,0,.07,1.22C55.36,29.25,55.85,29.12,55.77,28.81Z"/><path class="cls-9" d="M56.08,30.91a2.53,2.53,0,0,0-.18-.37,1,1,0,0,0-.08-.11s-.1,0-.1,0a0,0,0,0,0,0,0s0,.1,0,.13a2.21,2.21,0,0,0,.08.37,1.85,1.85,0,0,0,.22.71.14.14,0,0,0,.2,0C56.31,31.43,56.15,31.12,56.08,30.91Z"/><path class="cls-9" d="M56.79,28.5a.08.08,0,0,0-.14,0,6.6,6.6,0,0,0,0,.77c0,.23,0,.42.14.6a.14.14,0,0,0,.17,0C57.26,29.56,57,28.84,56.79,28.5Z"/><path class="cls-9" d="M58.14,28.52a0,0,0,0,0-.09,0,2.54,2.54,0,0,0,0,.78c0,.24,0,.49.17.67a.09.09,0,0,0,.15,0C58.64,29.6,58.24,28.93,58.14,28.52Z"/><path class="cls-9" d="M57.83,31.85a1.28,1.28,0,0,0-.39-.72.07.07,0,0,0-.09.05,3.33,3.33,0,0,0,.11.77c0,.2,0,.51.18.66a.15.15,0,0,0,.24,0C58,32.39,57.88,32,57.83,31.85Z"/><path class="cls-9" d="M58.89,30.73a0,0,0,0,0-.07,0c.06.47,0,.95.11,1.42,0,.23.38.13.35-.09A2.48,2.48,0,0,0,58.89,30.73Z"/><path class="cls-9" d="M71.81,28.06c-2.09-.35-4.29-.13-6.37-.63a49,49,0,0,1-6.95-2.64.52.52,0,0,0-.66.49,9,9,0,0,0,2.23,5.37v0a2.56,2.56,0,0,0,.12.95c.07.24.1.55.35.67a.09.09,0,0,0,.12,0c.13-.24,0-.49-.1-.74l-.15-.46a13.94,13.94,0,0,0,1,1c.17.16.35.29.52.43a1.05,1.05,0,0,0,.22.79.12.12,0,0,0,.17,0,.52.52,0,0,0,0-.44,8.9,8.9,0,0,0,2.93,1.31,10.59,10.59,0,0,0,4.27.21c.38-.06,1-.47.8-.84-.43-.65-1.33-.44-2.07-.39a8.5,8.5,0,0,1-4.51-.93c-2.16-1.05-4.49-3.55-4.82-6.12A41.12,41.12,0,0,0,65,28.7c1.71.46,5.12,1.24,6.83.52C72.19,29.08,72.27,28.14,71.81,28.06Z"/><path class="cls-9" d="M60.6,32.84s-.1,0-.08.07c.11.29-.07.66.15.9a.1.1,0,0,0,.14,0A.71.71,0,0,0,60.6,32.84Z"/><path class="cls-9" d="M73.28,19.6a2.36,2.36,0,0,0-1.44,1.24c-.07.18-.15.48,0,.62.62.57,1.49-.4,1.92-.79S73.77,19.38,73.28,19.6Z"/><path class="cls-9" d="M47.84,8.57c.09-.12-.07-.24-.19-.19a3.48,3.48,0,0,0-1,.77,1.88,1.88,0,0,0-.58-.38c-.09,0-.19.06-.11.14s.31.33.47.48c-.25.29-.48.6-.7.91l-.11-.11c-.07-.07-.19-.14-.24-.23s-.07,0-.08,0c0,.2.12.42.25.59-.15.21-.28.4-.42.58l-.47.64-.26-.26c-.06,0-.14,0-.19-.06s0,0,0,0,0,.1,0,.15.17.27.26.4h0l-.77,1a3.68,3.68,0,0,0-.58-.39.11.11,0,0,0-.13.17l.5.51c-.13.16-.26.32-.38.49a2.78,2.78,0,0,0-.59-.37c-.09,0-.15.09-.09.15s.34.32.51.48c-.18.26-.36.52-.52.79,0,.06.05.15.11.1a5.1,5.1,0,0,0,.7-.62c.14.15.32.33.47.32a.15.15,0,0,0,.15-.15c0-.17-.22-.32-.39-.44.13-.14.25-.3.37-.45.16.15.33.29.5.42s.4-.17.23-.31l-.5-.42c.23-.31.44-.62.66-.92.12.18.24.36.35.55s.38.06.34-.14a1.83,1.83,0,0,0-.47-.72L45,12l.81-1.07c.16.22.37.45.58.42,0,0,.07,0,.07-.07,0-.25-.25-.47-.41-.64l.61-.75.11-.12a1.42,1.42,0,0,0,.31.25.16.16,0,0,0,.22-.22A1.1,1.1,0,0,0,47,9.48,5.8,5.8,0,0,0,47.84,8.57Z"/><path class="cls-9" d="M58.49,5.6,58,5.05a3.24,3.24,0,0,0,.43-.4.19.19,0,0,0-.27-.27c-.15.11-.29.23-.43.35l-.39-.47.27-.21a.17.17,0,0,0,.09-.16c0-.09,0-.11-.09-.16a.17.17,0,0,0-.19,0,3.26,3.26,0,0,0-.34.22l-.32-.36.27-.14c.24-.12,0-.5-.21-.37l-.35.2c-.17-.17-.34-.34-.51-.49.15,0,.31,0,.44-.12s.07-.11,0-.16c-.17-.22-.53-.06-.75,0a5.42,5.42,0,0,0-1-.64.12.12,0,0,0-.14.18l.64.68a3.29,3.29,0,0,1-.91.32c-.07,0-.06.1,0,.12a1.3,1.3,0,0,0,1-.14L55.46,3l.55.56a6.7,6.7,0,0,0-.79.58s0,.07,0,.06a2.78,2.78,0,0,0,1-.35c.14.15.27.3.41.44a1.44,1.44,0,0,0-.45.9s0,0,0,0A6.91,6.91,0,0,1,57,4.57l.45.5a3.35,3.35,0,0,0-.6.8s0,.07.06,0a7.43,7.43,0,0,1,.78-.57c.17.19.34.39.5.6S58.68,5.84,58.49,5.6Z"/><path class="cls-10" d="M76.28,16.56s-10,3.52-13.18,5.37a29.61,29.61,0,0,1-10.59,3.39L38.84,21.54,51,26.82c.4,3.84-.51,10.42,17.41,10.45C85.67,37.29,77.82,20.1,76.28,16.56Z"/></g></svg>